<svg xmlns="http://www.w3.org/2000/svg" width="240.001" height="128" viewBox="0 0 240.001 128">
    <defs>
        <style>
            .cls-2{opacity:.2;isolation:isolate}.cls-3{fill:#3f3d56}.cls-4{fill:#dedede}.cls-5{fill:#f9f9f9}.cls-6{fill:#fff}.cls-7{fill:#ffe6cd}.cls-8{fill:#ff8308}.cls-9{fill:#666}
        </style>
    </defs>
    <g id="Group_5627" data-name="Group 5627" transform="translate(-342.999 -288)">
        <g id="Group_5626" data-name="Group 5626" transform="translate(-36.613 -8.79)">
            <g id="undraw_posting_photo_re_plk8" transform="translate(271.939 293)">
                <path id="Path_9201" data-name="Path 9201" class="cls-2" d="M167.224 301.53h-3.258l1.6-2.323.115-.167.058-.084.145.251z" transform="translate(-56.293 -221.713)"/>
                <path id="Path_9202" data-name="Path 9202" class="cls-3" d="M311.839 511.552h-8.254l1.6-2.323.115-.167 2.084-3.028a.422.422 0 0 1 .626-.037.366.366 0 0 1 .03.037z" transform="translate(-195.594 -431.735)"/>
                <path id="Path_9203" data-name="Path 9203" class="cls-4" d="M375.534 385.888h-62.6a5.6 5.6 0 0 1-5.6-5.6v-90.78a5.6 5.6 0 0 1 5.6-5.6h62.6a5.6 5.6 0 0 1 5.6 5.6v90.784a5.6 5.6 0 0 1-5.6 5.596z" transform="translate(-198.377 -267.121)"/>
                <path id="Path_9204" data-name="Path 9204" class="cls-5" d="M386.44 392.567h-62.82a1.727 1.727 0 0 1-1.725-1.725v-91.386a1.727 1.727 0 0 1 1.725-1.725h62.82a1.727 1.727 0 0 1 1.725 1.725v91.385a1.727 1.727 0 0 1-1.725 1.726z" transform="translate(-209.173 -277.37)"/>
                <circle id="Ellipse_1415" data-name="Ellipse 1415" class="cls-6" cx=".476" cy=".476" r=".476" transform="translate(145.143 18.028)"/>
                <path id="Rectangle_2993" data-name="Rectangle 2993" class="cls-7" transform="translate(122.61 46.449)" d="M0 0h49.428v33.346H0z"/>
                <path id="Path_9205" data-name="Path 9205" class="cls-8" d="M409.275 431.729h-49.769v-33.687h49.769zm-49.428-.341h49.087v-33.005h-49.087z" transform="translate(-237.067 -351.763)"/>
                <path id="Path_9206" data-name="Path 9206" class="cls-5" d="M376.332 432.332h41.074V408.94h-41.074z" transform="translate(-249.545 -359.846)"/>
                <circle id="Ellipse_1416" data-name="Ellipse 1416" class="cls-8" cx="4.117" cy="4.117" r="4.117" transform="translate(134.753 55.405)"/>
                <path id="Path_9207" data-name="Path 9207" class="cls-9" d="M414.878 449.915h-20.2a.411.411 0 0 1-.075-.006l9.551-16.544a.669.669 0 0 1 1.164 0l6.41 11.1.307.531z" transform="translate(-263.099 -377.708)"/>
                <path id="Path_9208" data-name="Path 9208" class="cls-2" d="M314.881 263.83h-6.9l3.385-4.916.244-.354.122-.177.307.531z" transform="translate(-163.102 -191.622)"/>
                <path id="Path_9209" data-name="Path 9209" class="cls-3" d="M466.445 463.91h-17.468l3.385-4.917.244-.354 4.411-6.407a.892.892 0 0 1 1.325-.079.8.8 0 0 1 .064.079z" transform="translate(-303.421 -391.702)"/>
            </g>
            <g id="undraw_posting_photo_re_plk8-2" data-name="undraw_posting_photo_re_plk8" transform="rotate(90 177.652 406.666)">
                <path id="Path_9201-2" data-name="Path 9201" class="cls-2" d="M167.224 301.53h-3.258l1.6-2.323.115-.167.058-.084.145.251z" transform="translate(-56.293 -221.713)"/>
                <path id="Path_9202-2" data-name="Path 9202" class="cls-3" d="M311.839 511.552h-8.254l1.6-2.323.115-.167 2.084-3.028a.422.422 0 0 1 .626-.037.366.366 0 0 1 .03.037z" transform="translate(-195.594 -431.735)"/>
                <path id="Path_9203-2" data-name="Path 9203" class="cls-4" d="M375.534 385.888h-62.6a5.6 5.6 0 0 1-5.6-5.6v-90.78a5.6 5.6 0 0 1 5.6-5.6h62.6a5.6 5.6 0 0 1 5.6 5.6v90.784a5.6 5.6 0 0 1-5.6 5.596z" transform="translate(-198.377 -267.121)"/>
                <path id="Path_9204-2" data-name="Path 9204" class="cls-5" d="M386.44 392.567h-62.82a1.727 1.727 0 0 1-1.725-1.725v-91.386a1.727 1.727 0 0 1 1.725-1.725h62.82a1.727 1.727 0 0 1 1.725 1.725v91.385a1.727 1.727 0 0 1-1.725 1.726z" transform="translate(-209.173 -277.37)"/>
                <circle id="Ellipse_1415-2" data-name="Ellipse 1415" class="cls-6" cx=".476" cy=".476" r=".476" transform="translate(145.143 18.028)"/>
                <g id="Group_5625" data-name="Group 5625" transform="rotate(-90 148.918 66.186)">
                    <path id="Rectangle_2993-2" data-name="Rectangle 2993" class="cls-7" transform="translate(122.609 46.449)" d="M0 0h49.428v33.346H0z"/>
                    <path id="Path_9205-2" data-name="Path 9205" class="cls-8" d="M409.275 431.729h-49.769v-33.687h49.769zm-49.428-.341h49.087v-33.005h-49.087z" transform="translate(-237.067 -351.762)"/>
                    <path id="Path_9206-2" data-name="Path 9206" class="cls-5" d="M376.332 432.332h41.074V408.94h-41.074z" transform="translate(-249.546 -359.846)"/>
                    <circle id="Ellipse_1416-2" data-name="Ellipse 1416" class="cls-8" cx="4.117" cy="4.117" r="4.117" transform="translate(134.753 55.406)"/>
                    <path id="Path_9207-2" data-name="Path 9207" class="cls-9" d="M414.878 449.915h-20.2a.411.411 0 0 1-.075-.006l9.551-16.544a.669.669 0 0 1 1.164 0l6.41 11.1.307.531z" transform="translate(-263.099 -377.707)"/>
                    <path id="Path_9208-2" data-name="Path 9208" class="cls-2" d="M314.881 263.83h-6.9l3.385-4.916.244-.354.122-.177.307.531z" transform="translate(-163.103 -191.621)"/>
                    <path id="Path_9209-2" data-name="Path 9209" class="cls-3" d="M466.445 463.91h-17.468l3.385-4.917.244-.354 4.411-6.407a.892.892 0 0 1 1.325-.079.8.8 0 0 1 .064.079z" transform="translate(-303.421 -391.701)"/>
                </g>
            </g>
            <path id="Path_9233" data-name="Path 9233" d="M14.3 16.294a1 1 0 0 0 1.415 1.414l5-5a1 1 0 0 0 0-1.413l-5-5A1 1 0 1 0 14.3 7.707L17.59 11H11a8 8 0 0 0-8 7.75V19a1 1 0 0 0 2 0 6 6 0 0 1 5.775-6h6.811L14.3 16.294z" transform="rotate(90 88.5 397.5)" style="fill:#f2f2f2;stroke:#f2f2f2"/>
        </g>
    </g>
</svg>
