<svg xmlns="http://www.w3.org/2000/svg" width="240" height="128" viewBox="0 0 240 128">
    <defs>
        <style>
            .cls-1{fill:#dedede}.cls-2{fill:#f9f9f9}.cls-3{fill:#ffe6cd}.cls-4{fill:#ff8308}.cls-5{fill:#666}.cls-6{opacity:.2;isolation:isolate}.cls-7{fill:#3f3d56}
        </style>
    </defs>
    <g id="Group_5618" data-name="Group 5618" transform="translate(-1044 -595)">
        <g id="undraw_posting_photo_re_plk8" transform="translate(972.939 600)">
            <path id="Path_9196" data-name="Path 9196" class="cls-1" d="M266.831 384.173h-.445v-12.19a7.055 7.055 0 0 0-7.055-7.055h-25.826a7.055 7.055 0 0 0-7.055 7.055v66.874a7.055 7.055 0 0 0 7.055 7.055h25.826a7.055 7.055 0 0 0 7.055-7.055V392.85h.445z" transform="translate(-138.389 -327.205)"/>
            <path id="Path_9197" data-name="Path 9197" class="cls-2" d="M265.2 372.032h-3.371a2.5 2.5 0 0 1-2.318 3.448h-14.8a2.5 2.5 0 0 1-2.318-3.448h-3.149a5.269 5.269 0 0 0-5.269 5.269v66.776a5.269 5.269 0 0 0 5.269 5.269H265.2a5.269 5.269 0 0 0 5.269-5.269V377.3a5.269 5.269 0 0 0-5.269-5.268z" transform="translate(-143.977 -332.474)"/>
            <path id="Rectangle_2992" data-name="Rectangle 2992" class="cls-3" transform="translate(97.148 67.646)" d="M0 0h23.356v15.757H0z"/>
            <path id="Path_9198" data-name="Path 9198" class="cls-4" d="M284.824 496.346h-23.517v-15.918h23.517zm-23.356-.161h23.2v-15.6h-23.2z" transform="translate(-164.24 -412.863)"/>
            <path id="Path_9199" data-name="Path 9199" class="cls-2" d="M269.258 496.631h19.409v-11.053h-19.409z" transform="translate(-170.137 -416.682)"/>
            <circle id="Ellipse_1414" data-name="Ellipse 1414" class="cls-4" cx="1.945" cy="1.945" r="1.945" transform="translate(102.886 71.877)"/>
            <path id="Path_9200" data-name="Path 9200" class="cls-5" d="M287.472 504.94h-9.543a.194.194 0 0 1-.036 0l4.513-7.818a.316.316 0 0 1 .55 0l3.029 5.246.145.251z" transform="translate(-176.541 -425.122)"/>
            <path id="Path_9201" data-name="Path 9201" class="cls-6" d="M167.224 301.53h-3.258l1.6-2.323.115-.167.058-.084.145.251z" transform="translate(-56.293 -221.713)"/>
            <path id="Path_9202" data-name="Path 9202" class="cls-7" d="M311.839 511.552h-8.254l1.6-2.323.115-.167 2.084-3.028a.422.422 0 0 1 .626-.037.366.366 0 0 1 .03.037z" transform="translate(-195.594 -431.735)"/>
            <path id="Path_9203" data-name="Path 9203" class="cls-1" d="M375.534 385.888h-62.6a5.6 5.6 0 0 1-5.6-5.6v-90.78a5.6 5.6 0 0 1 5.6-5.6h62.6a5.6 5.6 0 0 1 5.6 5.6v90.784a5.6 5.6 0 0 1-5.6 5.596z" transform="translate(-198.377 -267.121)"/>
            <path id="Path_9204" data-name="Path 9204" class="cls-2" d="M386.44 392.567h-62.82a1.727 1.727 0 0 1-1.725-1.725v-91.386a1.727 1.727 0 0 1 1.725-1.725h62.82a1.727 1.727 0 0 1 1.725 1.725v91.385a1.727 1.727 0 0 1-1.725 1.726z" transform="translate(-209.173 -277.37)"/>
            <circle id="Ellipse_1415" data-name="Ellipse 1415" cx=".476" cy=".476" r=".476" transform="translate(145.143 18.028)" style="fill:#fff"/>
            <path id="Rectangle_2993" data-name="Rectangle 2993" class="cls-3" transform="translate(122.61 46.449)" d="M0 0h49.428v33.346H0z"/>
            <path id="Path_9205" data-name="Path 9205" class="cls-4" d="M409.275 431.729h-49.769v-33.687h49.769zm-49.428-.341h49.087v-33.005h-49.087z" transform="translate(-237.067 -351.763)"/>
            <path id="Path_9206" data-name="Path 9206" class="cls-2" d="M376.332 432.332h41.074V408.94h-41.074z" transform="translate(-249.545 -359.846)"/>
            <circle id="Ellipse_1416" data-name="Ellipse 1416" class="cls-4" cx="4.117" cy="4.117" r="4.117" transform="translate(134.753 55.405)"/>
            <path id="Path_9207" data-name="Path 9207" class="cls-5" d="M414.878 449.915h-20.2a.411.411 0 0 1-.075-.006l9.551-16.544a.669.669 0 0 1 1.164 0l6.41 11.1.307.531z" transform="translate(-263.099 -377.708)"/>
            <path id="Path_9208" data-name="Path 9208" class="cls-6" d="M314.881 263.83h-6.9l3.385-4.916.244-.354.122-.177.307.531z" transform="translate(-163.102 -191.622)"/>
            <path id="Path_9209" data-name="Path 9209" class="cls-7" d="M466.445 463.91h-17.468l3.385-4.917.244-.354 4.411-6.407a.892.892 0 0 1 1.325-.079.8.8 0 0 1 .064.079z" transform="translate(-303.421 -391.702)"/>
            <path id="Path_9210" data-name="Path 9210" class="cls-1" d="m697.434 625-3.169-1.334-2.174-15.885h-28.946l-2.356 15.82-2.835 1.417a.673.673 0 0 0 .3 1.275h38.918a.673.673 0 0 0 .261-1.294z" transform="translate(-458.127 -507.311)"/>
            <path id="Path_9211" data-name="Path 9211" d="M594.7 550.32H452.5a2.817 2.817 0 0 1-2.811-2.817v-20.052h147.823V547.5a2.817 2.817 0 0 1-2.811 2.817z" transform="translate(-303.953 -447.737)" style="fill:#bfbfbf"/>
            <path id="Path_9212" data-name="Path 9212" class="cls-1" d="M597.288 308.12h-148.1v-85.8a3.4 3.4 0 0 1 3.4-3.4h141.3a3.4 3.4 0 0 1 3.4 3.4z" transform="translate(-303.58 -218.928)"/>
            <path id="Path_9213" data-name="Path 9213" class="cls-2" d="M606.316 319.766H475.911a2.621 2.621 0 0 1-2.618-2.618v-71.5a2.621 2.621 0 0 1 2.618-2.618h130.405a2.621 2.621 0 0 1 2.618 2.618v71.5a2.621 2.621 0 0 1-2.618 2.618z" transform="translate(-321.454 -236.801)"/>
            <path id="Path_9218" data-name="Path 9218" d="M816.6 422.519a1.972 1.972 0 0 1 .8-2.917l5.651-17.052 3.785 2.019-6.749 16.131a1.983 1.983 0 0 1-3.491 1.823z" transform="translate(-575.795 -355.107)" style="fill:#9f616a"/>
            <path id="Rectangle_2994" data-name="Rectangle 2994" class="cls-3" transform="rotate(-14.268 267.194 -713.084)" d="M0 0h62.721v42.314H0z"/>
            <path id="Path_9226" data-name="Path 9226" class="cls-4" d="m668.439 369.248-61.2 15.565-10.539-41.428 61.2-15.565zm-60.892 15.039 60.367-15.351-10.322-40.59-60.367 15.354z" transform="translate(-412.974 -299.685)"/>
            <path id="Path_9227" data-name="Path 9227" class="cls-2" d="m628.115 388.1 50.512-12.845-7.315-28.766L620.8 359.33z" transform="translate(-430.848 -313.527)"/>
            <circle id="Ellipse_1418" data-name="Ellipse 1418" class="cls-4" cx="5.224" cy="5.224" r="5.224" transform="translate(202.848 49.623)"/>
            <path id="Path_9228" data-name="Path 9228" class="cls-5" d="m696.173 425.365-24.836 6.316a.522.522 0 0 1-.095.016l6.572-23.333a.849.849 0 0 1 1.432-.364l11.354 11.649.544.557z" transform="translate(-468.258 -358.954)"/>
            <path id="Path_9229" data-name="Path 9229" class="cls-6" d="m605 240.624-8.479 2.156 2.625-7.1.189-.512.095-.256.544.557z" transform="translate(-377.088 -174.214)"/>
            <path id="Path_9230" data-name="Path 9230" class="cls-5" d="m759.595 427.676-21.481 5.463 2.625-7.1.189-.512 3.42-9.259a1.132 1.132 0 0 1 1.6-.512 1.006 1.006 0 0 1 .1.078z" transform="translate(-517.851 -364.782)"/>
        </g>
    </g>
</svg>
