<svg xmlns="http://www.w3.org/2000/svg" width="240.465" height="128" viewBox="0 0 240.465 128">
    <g data-name="Group 5631">
        <path data-name="Path 9233" d="M14.3 16.294a1 1 0 0 0 1.415 1.414l5-5a1 1 0 0 0 0-1.413l-5-5A1 1 0 1 0 14.3 7.707L17.59 11H11a8 8 0 0 0-8 7.75V19a1 1 0 0 0 2 0 6 6 0 0 1 5.775-6h6.811L14.3 16.294z" transform="translate(55.387 54.484)" style="fill:#f2f2f2;stroke:#f2f2f2"/>
        <g data-name="Group 5629" transform="translate(16046 15344.27)">
            <path data-name="Path 9196" d="M266.831 384.173h-.445v-12.19a7.055 7.055 0 0 0-7.055-7.055h-25.826a7.055 7.055 0 0 0-7.055 7.055v66.874a7.055 7.055 0 0 0 7.055 7.055h25.826a7.055 7.055 0 0 0 7.055-7.055V392.85h.445z" transform="translate(-16272.45 -15675.205)" style="fill:#dedede"/>
            <path data-name="Path 9197" d="M265.2 372.032h-3.371a2.5 2.5 0 0 1-2.318 3.448h-14.8a2.5 2.5 0 0 1-2.318-3.448h-3.149a5.269 5.269 0 0 0-5.269 5.269v66.776a5.269 5.269 0 0 0 5.269 5.269H265.2a5.269 5.269 0 0 0 5.269-5.269V377.3a5.269 5.269 0 0 0-5.269-5.268z" transform="translate(-16278.037 -15680.474)" style="fill:#f9f9f9"/>
            <path data-name="Rectangle 2992" transform="translate(-16036.913 -15280.354)" style="fill:#ffe6cd" d="M0 0h23.356v15.757H0z"/>
            <path data-name="Path 9198" d="M284.824 496.346h-23.517v-15.918h23.517zm-23.356-.161h23.2v-15.6h-23.2z" transform="translate(-16298.301 -15760.863)" style="fill:#ff8308"/>
            <path data-name="Path 9199" d="M269.258 496.631h19.409v-11.053h-19.409z" transform="translate(-16304.197 -15764.682)" style="fill:#f9f9f9"/>
            <circle data-name="Ellipse 1414" cx="1.945" cy="1.945" r="1.945" transform="translate(-16031.175 -15276.122)" style="fill:#ff8308"/>
            <path data-name="Path 9200" d="M287.472 504.94h-9.543a.194.194 0 0 1-.036 0l4.513-7.818a.316.316 0 0 1 .55 0l3.029 5.246.145.251z" transform="translate(-16310.602 -15773.122)" style="fill:#666"/>
            <path data-name="Path 9201" d="M167.224 301.53h-3.258l1.6-2.323.115-.167.058-.084.145.251z" transform="translate(-16190.354 -15569.713)" style="opacity:.2;isolation:isolate"/>
            <path data-name="Path 9202" d="M311.839 511.552h-8.254l1.6-2.323.115-.167 2.084-3.028a.422.422 0 0 1 .626-.037.366.366 0 0 1 .03.037z" transform="translate(-16329.655 -15779.735)" style="fill:#3f3d56"/>
        </g>
        <g data-name="Group 5630" transform="translate(16396.07 15229.782)">
            <path data-name="Path 9202" d="M310.05 510.322h-6.465l1.253-1.82.09-.131L306.56 506a.33.33 0 0 1 .49-.029.286.286 0 0 1 .024.029z" transform="translate(-16604.654 -15655.804)" style="fill:#3f3d56"/>
            <path data-name="Path 9203" d="M360.753 363.786h-49.032a4.388 4.388 0 0 1-4.383-4.383v-71.108a4.388 4.388 0 0 1 4.383-4.383h49.032a4.388 4.388 0 0 1 4.383 4.383V359.4a4.388 4.388 0 0 1-4.383 4.386z" transform="translate(-16607.648 -15478.76)" style="fill:#dedede"/>
            <path data-name="Path 9204" d="M372.45 372.012h-49.2a1.353 1.353 0 0 1-1.351-1.351v-71.579a1.353 1.353 0 0 1 1.351-1.351h49.2a1.353 1.353 0 0 1 1.351 1.351v71.579a1.353 1.353 0 0 1-1.351 1.351z" transform="translate(-16619.258 -15489.783)" style="fill:#f9f9f9"/>
            <circle data-name="Ellipse 1415" cx=".373" cy=".373" r=".373" transform="translate(-16271.971 -15193.879)" style="fill:#fff"/>
            <path data-name="Rectangle 2993" transform="translate(-16289.619 -15171.618)" style="fill:#ffe6cd" d="M0 0h38.715v26.119H0z"/>
            <path data-name="Path 9205" d="M398.488 424.428h-38.982v-26.386h38.982zm-38.715-.267h38.448v-25.852h-38.448z" transform="translate(-16649.258 -15569.794)" style="fill:#ff8308"/>
            <path data-name="Path 9206" d="M376.332 427.262H408.5V408.94h-32.168z" transform="translate(-16662.68 -15578.486)" style="fill:#f9f9f9"/>
            <circle data-name="Ellipse 1416" cx="3.224" cy="3.224" r="3.224" transform="translate(-16280.107 -15164.604)" style="fill:#ff8308"/>
            <path data-name="Path 9207" d="M410.484 446.255h-15.818a.325.325 0 0 1-.059 0l7.481-12.959a.524.524 0 0 1 .912 0l5.021 8.7.241.416z" transform="translate(-16677.256 -15597.697)" style="fill:#666"/>
            <path data-name="Path 9208" d="M313.387 262.649h-5.4l2.651-3.851.191-.277.1-.139.24.416z" transform="translate(-16580.158 -15414.092)" style="opacity:.2;isolation:isolate"/>
            <path data-name="Path 9209" d="M462.659 461.306h-13.682l2.651-3.851.191-.277 3.455-5.018a.7.7 0 0 1 1.038-.062.624.624 0 0 1 .05.062z" transform="translate(-16720.623 -15612.748)" style="fill:#3f3d56"/>
            <path data-name="Path 9210" d="m688.8 621.268-2.482-1.045-1.7-12.442h-22.679l-1.846 12.391-2.22 1.11a.527.527 0 0 0 .236 1h30.483a.527.527 0 0 0 .2-1.013z" transform="translate(-16887.012 -15737.087)" style="fill:#dedede"/>
            <path data-name="Path 9211" d="M563.272 545.364H451.9a2.207 2.207 0 0 1-2.2-2.206v-15.707h115.774v15.706a2.207 2.207 0 0 1-2.2 2.206z" transform="translate(-16721.195 -15673.014)" style="fill:#bfbfbf"/>
            <path data-name="Path 9212" d="M565.19 288.788h-116v-67.2a2.663 2.663 0 0 1 2.66-2.66h110.68a2.663 2.663 0 0 1 2.66 2.66z" transform="translate(-16720.795 -15426.928)" style="fill:#dedede"/>
            <path data-name="Path 9213" d="M577.485 303.134H475.344a2.053 2.053 0 0 1-2.051-2.051v-56a2.053 2.053 0 0 1 2.051-2.051h102.141a2.053 2.053 0 0 1 2.051 2.051v56a2.053 2.053 0 0 1-2.051 2.051z" transform="translate(-16740.018 -15446.151)" style="fill:#f9f9f9"/>
            <path data-name="Path 9218" d="M816.52 418.191a1.545 1.545 0 0 1 .627-2.284l4.426-13.356 2.964 1.581-5.283 12.632a1.553 1.553 0 0 1-2.734 1.428z" transform="translate(-17013.564 -15573.39)" style="fill:#9f616a"/>
            <path data-name="Rectangle 2994" transform="rotate(-14.268 -68738.143 57296.695)" style="fill:#ffe6cd" d="M0 0h49.127v33.143H0z"/>
            <path data-name="Path 9226" d="m652.89 360.269-47.939 12.191-8.251-32.449 47.94-12.191zm-47.69 11.779 47.283-12.024-8.085-31.792-47.283 12.024z" transform="translate(-16838.449 -15513.782)" style="fill:#ff8308"/>
            <path data-name="Path 9227" d="m626.529 379.078 39.564-10.061-5.73-22.531-39.563 10.06z" transform="translate(-16857.674 -15528.671)" style="fill:#f9f9f9"/>
            <circle data-name="Ellipse 1418" cx="4.092" cy="4.092" r="4.092" transform="translate(-16226.772 -15169.132)" style="fill:#ff8308"/>
            <path data-name="Path 9228" d="m690.77 421.544-19.453 4.947a.407.407 0 0 1-.074.013l5.148-18.276a.665.665 0 0 1 1.121-.285l8.894 9.124.426.437z" transform="translate(-16897.908 -15577.528)" style="fill:#666"/>
            <path data-name="Path 9229" d="m603.166 239.385-6.642 1.689 2.056-5.565.148-.4.074-.2.426.437z" transform="translate(-16810.303 -15395.368)" style="opacity:.2;isolation:isolate"/>
            <path data-name="Path 9230" d="m754.939 425.058-16.825 4.279 2.056-5.565.148-.4 2.682-7.253a.887.887 0 0 1 1.257-.4.778.778 0 0 1 .081.061z" transform="translate(-16951.246 -15583.796)" style="fill:#666"/>
        </g>
    </g>
</svg>
