<svg xmlns="http://www.w3.org/2000/svg" width="30" height="31" viewBox="0 0 30 31">
    <g fill="#FFF" fill-rule="nonzero" opacity=".615">
        <rect width="3.735" height="30.98" x="7.116" rx="1.575"/>
        <rect width="3.735" height="30.98" x="19.565" rx="1.575"/>
        <path d="M29.74 9.97v.55c0 .87-.706 1.575-1.576 1.575H1.574C.706 12.095 0 11.39 0 10.52v-.55c0-.87.705-1.574 1.575-1.574h26.59c.87 0 1.574.705 1.574 1.574zM29.74 20.95v.549c0 .87-.706 1.575-1.576 1.575H1.574C.706 23.074 0 22.369 0 21.499v-.55c0-.869.705-1.574 1.575-1.574h26.59c.87 0 1.574.705 1.574 1.575z"/>
    </g>
</svg>
