<svg xmlns="http://www.w3.org/2000/svg" xmlns:xlink="http://www.w3.org/1999/xlink" width="254" height="167" viewBox="0 0 254 167">
    <defs>
        <linearGradient id="a" x1="21.6%" x2="59.629%" y1="70.213%" y2="36.705%">
            <stop offset="0%" stop-color="#64AFC1"/>
            <stop offset="100%" stop-color="#F15B22"/>
        </linearGradient>
        <path id="c" d="M2 0h153a2 2 0 0 1 2 2v12H0V2a2 2 0 0 1 2-2z"/>
        <filter id="b" width="108.9%" height="200%" x="-4.5%" y="-35.7%" filterUnits="objectBoundingBox">
            <feOffset dy="2" in="SourceAlpha" result="shadowOffsetOuter1"/>
            <feGaussianBlur in="shadowOffsetOuter1" result="shadowBlurOuter1" stdDeviation="2"/>
            <feColorMatrix in="shadowBlurOuter1" values="0 0 0 0 0 0 0 0 0 0 0 0 0 0 0 0 0 0 0.5 0"/>
        </filter>
        <path id="e" d="M0 14h157v65a2 2 0 0 1-2 2H2a2 2 0 0 1-2-2V14z"/>
        <filter id="d" width="108.9%" height="120.9%" x="-4.5%" y="-7.5%" filterUnits="objectBoundingBox">
            <feOffset dy="2" in="SourceAlpha" result="shadowOffsetOuter1"/>
            <feGaussianBlur in="shadowOffsetOuter1" result="shadowBlurOuter1" stdDeviation="2"/>
            <feColorMatrix in="shadowBlurOuter1" values="0 0 0 0 0 0 0 0 0 0 0 0 0 0 0 0 0 0 0.5 0"/>
        </filter>
    </defs>
    <g fill="none" fill-rule="evenodd">
        <path d="M-6-21h260v208H-6z"/>
        <path fill="url(#a)" d="M144.98 27.48c-15.998-.555-31.233-5.708-45.782-11.347C84.65 10.494 70.238 4.246 54.623 1.259 44.581-.663 33.097-.934 25.005 4.439c-7.786 5.18-10.302 14.097-11.654 22.38-1.019 6.23-1.617 12.787 1.171 18.621 1.936 4.05 5.374 7.455 7.752 11.335 8.272 13.498 2.424 30.143-6.54 43.323-4.202 6.184-9.082 12.087-12.327 18.663-3.245 6.577-4.746 14.122-1.906 20.837 2.813 6.66 9.519 11.653 16.783 15.168 14.754 7.141 32.132 9.183 49.09 10.34 37.526 2.563 75.254 1.453 112.881.343 13.923-.412 27.91-.829 41.61-2.977 7.605-1.194 15.46-3.086 20.981-7.66 7.013-5.809 8.743-15.634 4.047-22.91-7.88-12.208-29.66-15.24-35.175-28.343-3.033-7.21.081-15.242 4.488-21.932 9.45-14.346 25.293-26.934 26.126-43.333.574-11.266-7.042-22.543-18.817-27.874-12.344-5.585-29.458-4.884-38.558 4.364-9.376 9.521-25.855 13.184-39.978 12.696z" opacity=".2" transform="translate(4)"/>
        <g fill-rule="nonzero" transform="translate(4 61)">
            <use fill="#000" filter="url(#b)" xlink:href="#c"/>
            <use fill="#231C07" xlink:href="#c"/>
        </g>
        <g fill-rule="nonzero" transform="translate(4 61)">
            <use fill="#000" filter="url(#d)" xlink:href="#e"/>
            <use fill="#FFF" xlink:href="#e"/>
        </g>
        <path fill="#64AFC1" d="M71.258 121.277c0 .49-.4.888-.896.888H64.65c-2.047 0-3.714-1.652-3.714-3.68V98.23c0-2.027 1.667-3.68 3.714-3.68h20.177l-2.345-2.322a.874.874 0 0 1-.262-.628.894.894 0 0 1 1.522-.628l3.867 3.831a.9.9 0 0 1 0 1.248l-3.867 3.83a.894.894 0 0 1-1.26 0 .874.874 0 0 1 0-1.247l2.345-2.323H64.649c-1.063 0-1.93.858-1.93 1.911v20.264c0 1.053.867 1.911 1.93 1.911h5.713a.89.89 0 0 1 .896.88z"/>
        <path fill="#F15B22" d="M73.96 121.573c0-.224.088-.455.262-.628l3.866-3.83a.893.893 0 0 1 1.259 0c.35.347.35.902 0 1.248l-2.344 2.323H101.6c1.063 0 1.93-.858 1.93-1.911V98.523a1.923 1.923 0 0 0-1.93-1.911H91.46a.89.89 0 0 1-.895-.887c0-.49.4-.887.895-.887h10.14c2.046 0 3.713 1.651 3.713 3.678v20.266c0 2.026-1.667 3.678-3.713 3.678H77.003l2.344 2.322c.35.346.35.902 0 1.248a.893.893 0 0 1-1.26 0l-3.865-3.83a.874.874 0 0 1-.262-.627z"/>
    </g>
</svg>
