<svg xmlns="http://www.w3.org/2000/svg" xmlns:xlink="http://www.w3.org/1999/xlink" width="260" height="195" viewBox="0 0 260 195">
    <defs>
        <linearGradient id="a" x1="45.096%" x2="50%" y1="27.877%" y2="79.469%">
            <stop offset="0%" stop-color="#2AD2F0"/>
            <stop offset="100%" stop-color="#358497"/>
        </linearGradient>
        <path id="b" d="M2.8 0H41v38H2.8A2.8 2.8 0 0 1 0 35.2V2.8A2.8 2.8 0 0 1 2.8 0z"/>
        <path id="d" d="M21 0h157c9.941 0 18 8.059 18 18v20H0V21C0 9.402 9.402 0 21 0z"/>
        <filter id="c" width="107.1%" height="136.8%" x="-3.6%" y="-13.2%" filterUnits="objectBoundingBox">
            <feOffset dy="2" in="SourceAlpha" result="shadowOffsetOuter1"/>
            <feGaussianBlur in="shadowOffsetOuter1" result="shadowBlurOuter1" stdDeviation="2"/>
            <feColorMatrix in="shadowBlurOuter1" values="0 0 0 0 0 0 0 0 0 0 0 0 0 0 0 0 0 0 0.5 0"/>
        </filter>
    </defs>
    <g fill="none" fill-rule="evenodd">
        <path d="M-1-7h260v208H-1z"/>
        <path fill="url(#a)" fill-rule="nonzero" d="M237.996 110.388c-9.359 14.042-6.99 33.56-2.278 49.02 1.587 5.174 3.38 10.643 2.314 16.363-1.303 6.995-6.616 12.383-12.063 15.399-9.925 5.5-21.447 5.048-29.994-1.174-7.387-5.378-12.407-14.555-19.946-19.669-12.6-8.528-29.425-3.966-43.954 3.364-10.28 5.18-21.565 11.786-31.307 7.642-6.854-2.917-11.297-10.77-13.504-19.251-1.065-4.095-1.764-8.555-4.035-11.714-1.36-1.876-3.173-3.165-5.052-4.212-17.16-9.662-39.802-2.52-56.405-13.386-11.204-7.325-17.87-22.052-20.358-37.686-2.49-15.634-1.263-32.262.4-48.626C2.997 34.831 4.69 22.391 11.193 13.07 18.07 3.21 29.229-.988 39.072.195c9.84 1.182 18.495 7.037 26.027 14.107 9.413 8.817 17.99 20 29.942 23.06 8.139 2.092 16.91.13 25.465-.904 14.302-1.707 28.475-.757 42.553.371 13.48 1.08 27.046 2.35 39.705 6.957 8.957 3.26 15.943 9.753 24.34 14.071 5.475 2.815 11.572 3.308 16.701 7.009 6.32 4.555 11.904 12.816 9.708 23.024-2.088 9.72-10.551 15.037-15.517 22.498z" opacity=".2" transform="translate(1)"/>
        <use fill="#64AFC1" fill-rule="nonzero" transform="translate(0 53)" xlink:href="#b"/>
        <path fill="#FFF" fill-rule="nonzero" stroke="#64AFC1" stroke-width=".7" d="M40.35 53.35v38.36H225.2a2.45 2.45 0 0 0 2.45-2.45V55.8a2.45 2.45 0 0 0-2.45-2.45H40.35z"/>
        <text fill="#000" font-family="Metropolis, Arial, sans-serif" font-size="9.8" transform="translate(0 53)">
            <tspan x="62" y="23">WALKTHROUGH VIDEO</tspan>
        </text>
        <path fill="#666" fill-rule="nonzero" d="M208.399 72.77l-4.225 4.514a.657.657 0 0 1-.973 0 .772.772 0 0 1 0-1.04l3.738-3.994-3.737-3.995a.772.772 0 0 1 0-1.04.657.657 0 0 1 .972 0l4.225 4.515a.76.76 0 0 1 .201.52.76.76 0 0 1-.201.52z"/>
        <g fill="#FFF" fill-rule="nonzero" transform="translate(9 61)">
            <circle cx="10.85" cy="10.85" r="10.85" opacity=".683"/>
            <path d="M18.2 10.5L7 16.1V4.9z" opacity=".7"/>
        </g>
        <g fill-rule="nonzero">
            <path fill="#FFF" d="M63.424 85.646l4.065 10.58 1.91-2.814 4.099 3.855 1.897-1.791-3.816-4.02 2.434-1.775z"/>
            <path fill="#000" d="M75.823 95.224l-3.582-3.582 2.555-1.476a.602.602 0 0 0-.078-1.08L63.322 84.54a.602.602 0 0 0-.782.782l4.545 11.397a.602.602 0 0 0 1.08.078l1.477-2.556 3.582 3.583a.602.602 0 0 0 .85 0l1.749-1.749a.602.602 0 0 0 0-.85zm-2.174 1.323l-3.71-3.711a.602.602 0 0 0-.947.124l-1.248 2.16-3.567-8.943 8.943 3.567-2.16 1.248a.602.602 0 0 0-.125.947l3.71 3.711-.896.897z"/>
        </g>
        <g>
            <g fill-rule="nonzero" transform="translate(60 114)">
                <use fill="#000" filter="url(#c)" xlink:href="#d"/>
                <use fill="#FFF" xlink:href="#d"/>
            </g>
            <path fill="#64AFC1" fill-rule="nonzero" d="M235.415 132l6.292-6.292a1 1 0 1 0-1.415-1.415L234 130.585l-6.292-6.292a1 1 0 1 0-1.415 1.415l6.292 6.292-6.292 6.292a1 1 0 1 0 1.415 1.415l6.292-6.292 6.292 6.292a.998.998 0 0 0 1.415 0 1 1 0 0 0 0-1.415L235.415 132z"/>
            <g fill-rule="nonzero">
                <path fill="#FFF" d="M224.576 144.646l-4.065 10.58-1.91-2.814-4.099 3.855-1.897-1.791 3.816-4.02-2.434-1.775z"/>
                <path fill="#000" d="M212.177 154.224l3.582-3.582-2.555-1.476a.602.602 0 0 1 .078-1.08l11.396-4.546a.602.602 0 0 1 .782.782l-4.545 11.397a.602.602 0 0 1-1.08.078l-1.477-2.556-3.582 3.583a.602.602 0 0 1-.85 0l-1.749-1.749a.602.602 0 0 1 0-.85zm2.174 1.323l3.71-3.711a.602.602 0 0 1 .947.124l1.248 2.16 3.567-8.943-8.943 3.567 2.16 1.248a.602.602 0 0 1 .125.947l-3.71 3.711.896.897z"/>
            </g>
            <text fill="#000" font-family="Metropolis, Arial, sans-serif" font-size="13" transform="translate(60 114)">
                <tspan x="33.465" y="24">Video Tab</tspan>
            </text>
        </g>
    </g>
</svg>
