<svg xmlns="http://www.w3.org/2000/svg" xmlns:xlink="http://www.w3.org/1999/xlink" width="307" height="166" viewBox="0 0 307 166">
    <defs>
        <linearGradient id="a" x1="50%" x2="50%" y1="0%" y2="100%">
            <stop offset="0%" stop-color="#64AFC1"/>
            <stop offset="100%" stop-color="#F15B22"/>
        </linearGradient>
        <path id="b" d="M2.52 0h34.02v39.06H2.52A2.52 2.52 0 0 1 0 36.54V2.52A2.52 2.52 0 0 1 2.52 0z"/>
        <path id="d" d="M21 0h157c9.941 0 18 8.059 18 18v20H0V21C0 9.402 9.402 0 21 0z"/>
        <filter id="c" width="107.1%" height="136.8%" x="-3.6%" y="-13.2%" filterUnits="objectBoundingBox">
            <feOffset dy="2" in="SourceAlpha" result="shadowOffsetOuter1"/>
            <feGaussianBlur in="shadowOffsetOuter1" result="shadowBlurOuter1" stdDeviation="2"/>
            <feColorMatrix in="shadowBlurOuter1" values="0 0 0 0 0 0 0 0 0 0 0 0 0 0 0 0 0 0 0.5 0"/>
        </filter>
    </defs>
    <g fill="none" fill-rule="evenodd">
        <path d="M-42-21h386v208H-42z"/>
        <path fill="url(#a)" d="M169.98 27.48c-15.998-.555-31.233-5.708-45.782-11.347-14.548-5.639-28.96-11.887-44.575-14.874C69.581-.663 58.097-.934 50.005 4.439c-7.786 5.18-10.302 14.097-11.654 22.38-1.019 6.23-1.617 12.787 1.171 18.621 1.936 4.05 5.374 7.455 7.752 11.335 8.272 13.498 2.424 30.143-6.54 43.323-4.202 6.184-9.082 12.087-12.327 18.663-3.245 6.577-4.746 14.122-1.906 20.837 2.813 6.66 9.519 11.653 16.783 15.168 14.754 7.141 32.132 9.183 49.09 10.34 37.526 2.563 56.213-6.996 93.84-8.106 13.923-.412 46.952 7.62 60.65 5.472 7.606-1.194 15.46-3.086 20.982-7.66 7.013-5.809 73.758-90.062-19.33-144.392-32.472-18.951-32.633-1.658-38.56 4.364-9.375 9.521-25.854 13.184-39.977 12.696z" opacity=".2"/>
        <use fill="#64AFC1" fill-rule="nonzero" transform="translate(0 46)" xlink:href="#b"/>
        <path fill="#FFF" fill-rule="nonzero" stroke="#64AFC1" stroke-width=".63" d="M36.225 46.315v38.43H225.54a2.205 2.205 0 0 0 2.205-2.205V48.52a2.205 2.205 0 0 0-2.205-2.205H36.225z"/>
        <text fill="#000" font-family="Metropolis, Arial, sans-serif" font-size="10.08" transform="translate(0 46)">
            <tspan x="56.07" y="23.86">PRACTICE SESSION</tspan>
        </text>
        <path fill="#666" fill-rule="nonzero" d="M207.719 66.313l-3.802 4.063a.591.591 0 0 1-.876 0 .694.694 0 0 1 0-.936l3.364-3.595-3.364-3.595a.695.695 0 0 1 0-.936.591.591 0 0 1 .876 0l3.802 4.063c.12.13.181.299.181.468 0 .17-.06.339-.181.468z"/>
        <g fill="#FFF" fill-rule="nonzero" opacity=".615" transform="translate(6.3 53.56)">
            <rect width="2.902" height="24.554" x="5.529" rx="1.24"/>
            <rect width="2.902" height="24.554" x="15.202" rx="1.24"/>
            <path d="M23.107 7.894v.452a1.24 1.24 0 0 1-1.24 1.24H1.24A1.24 1.24 0 0 1 0 8.346v-.452c0-.684.555-1.24 1.24-1.24h20.627c.685 0 1.24.556 1.24 1.24zM23.107 16.596v.452a1.24 1.24 0 0 1-1.24 1.24H1.24A1.24 1.24 0 0 1 0 17.048v-.452c0-.685.555-1.24 1.24-1.24h20.627c.685 0 1.24.555 1.24 1.24z"/>
        </g>
        <g fill-rule="nonzero">
            <path fill="#FFF" d="M96.281 81.482l3.66 9.522 1.718-2.533 3.69 3.47 1.707-1.613-3.435-3.617 2.19-1.598z"/>
            <path fill="#000" d="M107.44 90.102l-3.223-3.224 2.3-1.329a.542.542 0 0 0-.07-.972L96.19 80.486a.542.542 0 0 0-.704.704l4.09 10.257a.542.542 0 0 0 .973.07l1.329-2.3 3.223 3.224a.541.541 0 0 0 .766 0l1.574-1.573a.542.542 0 0 0 0-.766zm-1.956 1.19l-3.34-3.34a.542.542 0 0 0-.852.112l-1.122 1.944-3.21-8.049 8.048 3.21-1.944 1.124a.541.541 0 0 0-.113.852l3.34 3.34-.807.807z"/>
        </g>
        <g>
            <g fill-rule="nonzero" transform="translate(107 102)">
                <use fill="#000" filter="url(#c)" xlink:href="#d"/>
                <use fill="#FFF" xlink:href="#d"/>
            </g>
            <path fill="#64AFC1" fill-rule="nonzero" d="M282.415 120l6.292-6.292a1 1 0 1 0-1.415-1.415L281 118.585l-6.292-6.292a1 1 0 1 0-1.415 1.415l6.292 6.292-6.292 6.292a1 1 0 1 0 1.415 1.415l6.292-6.292 6.292 6.292a.998.998 0 0 0 1.415 0 1 1 0 0 0 0-1.415L282.415 120z"/>
            <g fill-rule="nonzero">
                <path fill="#FFF" d="M271.576 132.646l-4.065 10.58-1.91-2.814-4.099 3.855-1.897-1.791 3.816-4.02-2.434-1.775z"/>
                <path fill="#000" d="M259.177 142.224l3.582-3.582-2.555-1.476a.602.602 0 0 1 .078-1.08l11.396-4.546a.602.602 0 0 1 .782.782l-4.545 11.397a.602.602 0 0 1-1.08.078l-1.477-2.556-3.582 3.583a.602.602 0 0 1-.85 0l-1.749-1.749a.602.602 0 0 1 0-.85zm2.174 1.323l3.71-3.711a.602.602 0 0 1 .947.124l1.248 2.16 3.567-8.943-8.943 3.567 2.16 1.248a.602.602 0 0 1 .125.947l-3.71 3.711.896.897z"/>
            </g>
            <text fill="#000" font-family="Metropolis, Arial, sans-serif" font-size="13" transform="translate(107 102)">
                <tspan x="26.009" y="24">Practice Tab</tspan>
            </text>
        </g>
    </g>
</svg>
