<svg xmlns="http://www.w3.org/2000/svg" xmlns:xlink="http://www.w3.org/1999/xlink" width="260" height="166" viewBox="0 0 260 166">
    <defs>
        <linearGradient id="a" x1="50%" x2="50%" y1="0%" y2="100%">
            <stop offset="0%" stop-color="#FFB913"/>
            <stop offset="100%" stop-color="#FF8308"/>
        </linearGradient>
        <linearGradient id="c" x1="-11.334%" x2="58.474%" y1="-21.966%" y2="68.385%">
            <stop offset="0%" stop-color="#F15B22"/>
            <stop offset="100%" stop-color="#FF8308"/>
        </linearGradient>
        <path id="b" d="M2.52 0h34.02v39.06H2.52A2.52 2.52 0 0 1 0 36.54V2.52A2.52 2.52 0 0 1 2.52 0z"/>
    </defs>
    <g fill="none" fill-rule="evenodd">
        <path d="M0-21h260v208H0z"/>
        <path fill="url(#a)" d="M126.958 18.038c-9.309-1.125-18.016-4.577-26.803-7.497a238.212 238.212 0 0 0-29.847-7.766C59.543.703 48.445-.647 37.653.318 26.86 1.284 16.33 4.757 9.446 11.107-2.216 21.877-1.232 38.204 2.62 52.594c4.57 17.073 12.473 33.95 25.409 48.49 9.194 10.336 20.73 19.284 32.165 28.166 6.464 5.012 12.989 10.06 20.54 14 7.023 3.662 14.778 6.287 22.479 8.875 8.222 2.766 16.464 5.548 24.954 7.663 27.098 6.75 55.624 6.538 83.516 5.937 9.816-.209 20.077-.553 28.312-4.414 6.416-3.017 10.99-7.906 14.454-13.12 4.533-6.83 7.396-14.98 4.176-22.597-4.745-11.237-21.01-17.856-26.426-28.92-6.938-14.2 6.54-29.208 2.725-43.987-1.586-6.149-6.059-11.707-10.8-16.89-11.307-12.358-26.336-23.614-46.535-21.97-17.101 1.389-32.7 6.378-50.63 4.21z" opacity=".2"/>
        <use fill="url(#c)" fill-rule="nonzero" transform="translate(30 76)" xlink:href="#b"/>
        <path fill="#FFF" fill-rule="nonzero" stroke="#FF8308" stroke-width=".63" d="M66.225 76.315v38.43H255.54a2.205 2.205 0 0 0 2.205-2.205V78.52a2.205 2.205 0 0 0-2.205-2.205H66.225z"/>
        <text fill="#000" font-family="Metropolis, Arial, sans-serif" font-size="10.08" transform="translate(30 76)">
            <tspan x="56.07" y="23.86">ASSESSMENT</tspan>
        </text>
        <path fill="#666" fill-rule="nonzero" d="M237.719 96.313l-3.802 4.063a.591.591 0 0 1-.876 0 .694.694 0 0 1 0-.936l3.364-3.595-3.364-3.595a.695.695 0 0 1 0-.936.591.591 0 0 1 .876 0l3.802 4.063c.12.13.181.299.181.468 0 .17-.06.339-.181.468z"/>
        <g fill="#FFF" fill-rule="nonzero" transform="translate(36.3 81.67)">
            <rect width="20.54" height="27.72" opacity=".615" rx="1.701"/>
            <path d="M24.303 25.883L24.253 8.2 21.42 8.19l.05 17.681c.002.784.636 1.42 1.42 1.423a1.407 1.407 0 0 0 1.413-1.411zM24.24 7.88l-2.82-.008 1.392-4.722z" opacity=".803"/>
        </g>
        <path stroke="#FFF" stroke-linecap="square" stroke-width=".63" d="M40.395 87.185h12.68M40.395 90.335h12.68"/>
        <g fill-rule="nonzero">
            <path fill="#FFF" d="M113.319 111.482l-3.66 9.522-1.718-2.533-3.69 3.47-1.707-1.613 3.435-3.617-2.19-1.598z"/>
            <path fill="#000" d="M102.16 120.102l3.223-3.224-2.3-1.329a.542.542 0 0 1 .07-.972l10.257-4.091a.542.542 0 0 1 .704.704l-4.09 10.257a.542.542 0 0 1-.973.07l-1.329-2.3-3.223 3.224a.541.541 0 0 1-.766 0l-1.574-1.573a.542.542 0 0 1 0-.766zm1.956 1.19l3.34-3.34a.542.542 0 0 1 .852.112l1.122 1.944 3.21-8.049-8.048 3.21 1.944 1.124a.541.541 0 0 1 .113.852l-3.34 3.34.807.807z"/>
        </g>
    </g>
</svg>
