<svg xmlns="http://www.w3.org/2000/svg" width="300" height="200" viewBox="0 0 300 200">
    <defs>
        <style>
            .prefix__cls-2{fill:#ff8308}.prefix__cls-7{fill:#40455a}
        </style>
    </defs>
    <g id="prefix__Group_702" data-name="Group 702" transform="translate(-570 -357)">
        <g id="prefix__Rectangle_9" data-name="Rectangle 9" style="stroke:#707070;opacity:0;fill:#fff">
            <path d="M0 0H300V200H0z" style="stroke:none" transform="translate(570 357)"/>
            <path d="M0.5 0.5H299.5V199.5H0.5z" style="fill:none" transform="translate(570 357)"/>
        </g>
        <path id="prefix__Path_1" d="M34.344 36.422a16.422 16.422 0 01-32.844 0c0-4.927 1.642-9.032 4.927-11.5C8.89 21.642 13 20 17.922 20a16.47 16.47 0 0116.422 16.422z" class="prefix__cls-2" data-name="Path 1" transform="translate(599.817 468.839)"/>
        <path id="prefix__Path_2" d="M21.922 46.844A16.47 16.47 0 015.5 30.422c0-4.927 1.642-9.032 4.927-11.5C12.89 15.642 17 14 21.922 14" data-name="Path 2" transform="translate(628.339 426.078)" style="fill:#a75503"/>
        <path id="prefix__Path_3" d="M68.276 54.161V37.739h-9.853a40.031 40.031 0 01-2.463-5.748l6.569-6.569-11.5-11.5-6.565 6.578a40.03 40.03 0 00-5.748-2.463V9H26.4v25.454a12.2 12.2 0 014.927-.821A12.628 12.628 0 0143.643 45.95a12.628 12.628 0 01-12.316 12.316 7.4 7.4 0 01-4.106-.821V82.9h12.317v-9.854a40.03 40.03 0 015.748-2.463l6.569 6.569 11.5-11.5-6.569-6.569a40.031 40.031 0 002.463-5.748h9.032z" class="prefix__cls-2" data-name="Path 3" transform="translate(777.618 390.528)"/>
        <path id="prefix__Path_4" d="M155.3 121.955H15.711c-4.927 0-8.211-3.284-8.211-8.211V15.211C7.5 10.284 10.784 7 15.711 7H155.3c4.927 0 8.211 3.284 8.211 8.211v98.533c-.001 4.926-3.285 8.211-8.211 8.211z" data-name="Path 4" transform="translate(642.5 376.106)" style="fill:#fff"/>
        <path id="prefix__Path_5" d="M14.5 21h41.055v32.844H14.5z" data-name="Path 5" transform="translate(692.619 476.05)" style="fill:#898b99"/>
        <path id="prefix__Path_6" d="M7.5 34.422c0 4.927 3.284 8.211 8.211 8.211H155.3c4.927 0 8.211-3.284 8.211-8.211V18H7.5z" data-name="Path 6" transform="translate(642.071 454.701)" style="fill:#5a5d70"/>
        <path id="prefix__Path_10" d="M158.9 128.868H19.317A12.588 12.588 0 017 116.632V18.737A12.588 12.588 0 0119.317 6.5H158.9a12.588 12.588 0 0112.317 12.237v97.895a12.588 12.588 0 01-12.317 12.236zM19.317 14.658a3.866 3.866 0 00-4.106 4.079v97.895a3.866 3.866 0 004.106 4.079H158.9a3.866 3.866 0 004.106-4.079V18.737a3.866 3.866 0 00-4.106-4.079zM142.483 161.5H35.739a4.079 4.079 0 110-8.158h106.744a4.079 4.079 0 110 8.158z" class="prefix__cls-7" data-name="Path 10" transform="translate(638.454 372.5)"/>
        <path id="prefix__Path_11" d="M217.593 25.711H61.583a3.879 3.879 0 01-4.106-4.106 3.879 3.879 0 014.106-4.105h156.01a3.879 3.879 0 014.106 4.106 3.879 3.879 0 01-4.106 4.105zm-57.477 57.478H119.06a3.879 3.879 0 01-4.106-4.106V46.239a3.879 3.879 0 014.106-4.106h41.055a3.879 3.879 0 014.106 4.106v32.844a3.879 3.879 0 01-4.105 4.106zm-36.95-8.211h32.844V50.344h-32.844zM53.372 58.555h-8.211a4.106 4.106 0 110-8.211h8.211a4.106 4.106 0 110 8.211zm-41.055 0H4.106a4.106 4.106 0 110-8.211h8.211a4.106 4.106 0 110 8.211zm16.422-16.422a3.879 3.879 0 01-4.106-4.106v-8.21a3.879 3.879 0 014.106-4.106 3.879 3.879 0 014.106 4.106v8.211a3.879 3.879 0 01-4.106 4.105zm0 41.055a3.879 3.879 0 01-4.106-4.106v-8.21a3.879 3.879 0 014.106-4.106 3.879 3.879 0 014.106 4.106v8.211a3.879 3.879 0 01-4.106 4.106zM17.243 47.06c-.821 0-2.463 0-3.284-.821L8.211 39.67a3.969 3.969 0 010-5.748 3.969 3.969 0 015.748 0l5.748 5.748a3.969 3.969 0 010 5.748c-.821.821-1.642 1.642-2.463 1.642zM45.982 75.8c-.821 0-2.463 0-3.284-.821L36.95 69.23a4.064 4.064 0 015.75-5.748l6.569 5.748a3.969 3.969 0 010 5.748c-.824.822-2.469.822-3.287.822zm-5.748-28.74c-.821 0-2.463 0-3.284-.821a3.969 3.969 0 010-5.748l5.75-5.748a4.064 4.064 0 015.748 5.748L42.7 46.239a8.271 8.271 0 01-2.463.821zM11.5 75.8c-.821 0-2.463 0-3.284-.821a3.969 3.969 0 010-5.748l5.748-5.748a4.064 4.064 0 015.748 5.748l-5.748 5.748a3.016 3.016 0 01-2.464.821z" class="prefix__cls-7" data-name="Path 11" transform="translate(589 450.811)"/>
        <circle id="prefix__Ellipse_1" cx="4.392" cy="4.392" r="4.392" class="prefix__cls-7" data-name="Ellipse 1" transform="translate(613.154 501.165)"/>
        <path id="prefix__Path_12" d="M21.528 104.9A20.328 20.328 0 011 84.376C1 78.628 3.463 73.7 6.748 69.6c4.106-4.106 9.032-5.748 14.78-5.748a20.528 20.528 0 110 41.055zm0-32.844c-3.284 0-6.569 1.642-9.032 3.284-1.642 2.463-3.284 5.748-3.284 9.032a12.628 12.628 0 0012.316 12.32 12.317 12.317 0 100-24.633zM37.95 39.215h-8.211a3.879 3.879 0 01-4.106-4.106A3.879 3.879 0 0129.739 31h8.211a3.879 3.879 0 014.106 4.106 3.879 3.879 0 01-4.106 4.109zm4.927-11.5c-.821 0-2.463 0-3.284-.821l-5.748-6.569a4.064 4.064 0 015.748-5.748l5.748 5.748a3.969 3.969 0 010 5.748c-.822.827-1.641 1.646-2.465 1.646zm-5.748 28.743c-.821 0-2.463 0-3.284-.821a3.969 3.969 0 010-5.748l5.748-5.748a4.064 4.064 0 015.748 5.748l-5.748 5.748a3.016 3.016 0 01-2.463.821z" class="prefix__cls-7" data-name="Path 12" transform="translate(596.211 420.886)"/>
        <path id="prefix__Path_13" d="M25.528 90.611A20.328 20.328 0 015 70.083c0-5.748 2.463-10.674 5.748-14.78 4.106-4.106 9.032-5.748 14.78-5.748v8.211c-3.284 0-6.569 1.642-9.032 3.284-1.642 2.463-3.284 5.748-3.284 9.032A12.628 12.628 0 0025.528 82.4zm168.327 0h-12.317a3.879 3.879 0 01-4.106-4.106v-73.9a3.879 3.879 0 014.106-4.105h12.317a3.879 3.879 0 014.106 4.106v6.569l4.927-4.927a3.969 3.969 0 015.748 0l11.5 11.5a3.969 3.969 0 010 5.748l-4.106 5.748h6.569a3.879 3.879 0 014.106 4.106v16.416a3.879 3.879 0 01-4.106 4.106h-6.569l4.927 4.927a3.969 3.969 0 010 5.748l-11.5 11.5a3.969 3.969 0 01-5.748 0l-4.927-4.927v7.39c-.821 2.463-2.463 4.106-4.927 4.106zm-8.212-8.211h4.106v-5.748a4.516 4.516 0 012.463-4.106c1.642-.821 3.284-.821 4.927-1.642a3.868 3.868 0 014.927.821l4.106 4.106 5.748-5.748-4.106-4.106a3.868 3.868 0 01-.821-4.927 11.671 11.671 0 001.642-4.927c.821-1.642 2.463-3.284 4.106-3.284h5.748v-8.21h-5.749c-1.642 0-3.284-.821-4.106-3.284-.821-1.642-.821-3.284-1.642-4.927a3.868 3.868 0 01.821-4.927l4.106-4.106-5.748-5.748-4.106 5.748a3.868 3.868 0 01-4.927.821 11.671 11.671 0 00-4.927-1.642 4.516 4.516 0 01-2.463-4.106v-5.747h-4.106z" class="prefix__cls-7" data-name="Path 13" transform="translate(623.301 386.922)"/>
        <g id="prefix__Group_695" data-name="Group 695" transform="translate(.812 1.692)">
            <path id="prefix__Path_7" d="M37.78 50.366H13.969a6.017 6.017 0 01-3.175-1.587C10 47.985 10 47.192 10 45.6l6.35-31.749c.794-2.381 2.381-3.969 4.762-3.175s3.969 2.381 3.175 4.762l-4.762 26.991h19.049a3.749 3.749 0 013.969 3.971c0 2.381-2.381 3.969-4.762 3.969z" class="prefix__cls-7" data-name="Path 7" transform="translate(661.188 394.836)"/>
            <path id="prefix__Path_8" d="M15.931 57.474a3.7 3.7 0 01-3.931-3.9v-23.4a3.7 3.7 0 013.931-3.9 3.7 3.7 0 013.931 3.9v23.4a3.7 3.7 0 01-3.931 3.9zm86.475-7.8H78.822a5.978 5.978 0 01-3.145-1.56c-.786-.78-.786-1.56-.786-3.12L81.18 13.8c.786-2.34 2.358-3.9 4.717-3.12s3.931 2.34 3.145 4.68l-4.717 26.515h18.867a3.7 3.7 0 013.931 3.9c0 2.34-2.358 3.9-4.717 3.9z" class="prefix__cls-7" data-name="Path 8" transform="translate(675.065 394.834)"/>
            <path id="prefix__Path_9" d="M25.969 44.249A3.749 3.749 0 0122 40.28V16.469a3.749 3.749 0 013.969-3.969 3.749 3.749 0 013.969 3.969V40.28a3.749 3.749 0 01-3.969 3.969z" class="prefix__cls-7" data-name="Path 9" transform="translate(743.521 408.049)"/>
            <path id="prefix__Path_14" d="M34.843 57.294h-7.937A12.1 12.1 0 0115 45.6V22.2a12.1 12.1 0 0111.906-11.7h7.937a12.1 12.1 0 0111.906 11.7v23.4a12.1 12.1 0 01-11.906 11.694zM26.906 18.3a3.717 3.717 0 00-3.969 3.9v23.4a3.717 3.717 0 003.969 3.9h7.937a3.717 3.717 0 003.969-3.9V22.2a3.717 3.717 0 00-3.969-3.9z" class="prefix__cls-7" data-name="Path 14" transform="translate(695.427 395.014)"/>
        </g>
    </g>
</svg>
