<svg xmlns="http://www.w3.org/2000/svg" width="25" height="25" viewBox="0 0 25 25">
    <g>
        <g>
            <g>
                <g/>
            </g>
        </g>
        <g>
            <g>
                <g fill="#222" transform="translate(-1081.5 -276.5) translate(1083 274) translate(0 6)">
                    <rect width="15.4" height="12.6" rx="1.4"/>
                    <path fill-rule="evenodd" d="M16.8 4.739v3.822l4.9 2.639V2.1z"/>
                </g>
                <g transform="translate(-1081.5 -276.5) translate(1083 274) translate(10 12)">
                    <rect width="12" height="12" fill="#fb2d2d" rx="1"/>
                    <path fill="#fff" d="M7.5 9.05a.461.461 0 0 0 .46-.46.48.48 0 0 0-.15-.35L6.24 6.5l1.5-1.67a.469.469 0 0 0 .15-.34.435.435 0 0 0-.14-.325.448.448 0 0 0-.32-.135.484.484 0 0 0-.36.17L5.62 5.84 4.17 4.2a.475.475 0 0 0-.35-.17.448.448 0 0 0-.32.135.435.435 0 0 0-.14.325.517.517 0 0 0 .15.34l1.5 1.67-1.58 1.74a.485.485 0 0 0-.14.34.46.46 0 0 0 .135.33.435.435 0 0 0 .325.14.475.475 0 0 0 .35-.17l1.52-1.72 1.53 1.72a.475.475 0 0 0 .35.17z"/>
                </g>
            </g>
        </g>
    </g>
</svg>
