<svg xmlns="http://www.w3.org/2000/svg" width="56" height="56" viewBox="0 0 56 56">
    <defs>
        <linearGradient id="i1jkyc4msa" x1=".889" y1=".235" x2=".126" y2=".709" gradientUnits="objectBoundingBox">
            <stop offset="0" stop-color="#44d556"/>
            <stop offset="1" stop-color="#44c4a1"/>
        </linearGradient>
    </defs>
    <g style="isolation:isolate">
        <path data-name="Path 5633" d="M28 0a28 28 0 1 0 28 28A28 28 0 0 0 28 0zm0 52.5A24.5 24.5 0 1 1 52.5 28 24.5 24.5 0 0 1 28 52.5zm0 0" style="fill:url(#i1jkyc4msa)"/>
        <path data-name="Path 5634" d="m106.232 159.909-6.725-6.727-2.69 2.69 8.07 8.072a1.9 1.9 0 0 0 2.69 0l24.215-24.215-2.69-2.69zm0 0" transform="translate(-87.473 -123.124)" style="fill:url(#i1jkyc4msa)"/>
    </g>
</svg>
