<svg xmlns="http://www.w3.org/2000/svg" width="31" height="21" viewBox="0 0 31 21">
    <g fill="#FFF" fill-rule="nonzero">
        <path d="M30.704 5.505C26.604 1.955 21.204.001 15.5 0H15.5h-.001C9.796 0 4.396 1.955.296 5.505a.808.808 0 0 0-.024 1.23C.462 6.91.715 7 .969 7c.242 0 .484-.081.672-.244C5.38 3.521 10.301 1.74 15.5 1.74c5.2 0 10.121 1.782 13.859 5.017.385.334.998.324 1.37-.022a.808.808 0 0 0-.025-1.229z"/>
        <path d="M15.5 7C8.85 7 3.867 11.442 2.033 13.352a.933.933 0 0 0 0 1.296C3.867 16.558 8.85 21 15.5 21c6.651 0 11.634-4.442 13.467-6.352a.933.933 0 0 0 0-1.296C27.133 11.442 22.15 7 15.5 7zm-6.134 3.326a7.44 7.44 0 0 0-1.02 3.775c0 1.254.306 2.45.864 3.498-2.247-1.085-4.016-2.535-5.134-3.6 1.144-1.087 2.97-2.581 5.29-3.673zm3.678 8.555c-1.719-.925-2.783-2.747-2.783-4.78 0-2.321 1.399-4.361 3.486-5.095.57-.076 1.154-.12 1.753-.12.448 0 .887.025 1.318.069 2.148.674 3.645 2.783 3.645 5.146 0 2.07-1.14 3.958-2.913 4.85a13.21 13.21 0 0 1-2.05.162c-.849 0-1.669-.084-2.456-.232zm8.36-1.101a7.43 7.43 0 0 0 .974-3.679c0-1.42-.391-2.777-1.132-3.952 2.506 1.103 4.47 2.702 5.678 3.85-1.182 1.125-3.09 2.681-5.52 3.78z"/>
        <path d="M17.714 14c-1.466 0-2.657-1.176-2.657-2.625-1.467 0-2.657 1.176-2.657 2.625s1.19 2.625 2.657 2.625 2.657-1.176 2.657-2.625z"/>
    </g>
</svg>
