<svg xmlns="http://www.w3.org/2000/svg" width="32.001" height="32" viewBox="0 0 32.001 32">
    <defs>
        <style>
            .cls-2{fill:#666}
        </style>
    </defs>
    <g id="Group_2033" data-name="Group 2033" transform="translate(217.708)">
        <g id="Group_2032" data-name="Group 2032" transform="translate(-217.707)">
            <path id="Rectangle_2592" data-name="Rectangle 2592" style="fill:transparent" d="M0 0h32v32H0z"/>
            <g id="Group_2031" data-name="Group 2031" transform="translate(-.001 7.999)">
                <path id="Subtraction_3" data-name="Subtraction 3" class="cls-2" d="M5.5 11A5.5 5.5 0 1 1 11 5.5 5.506 5.506 0 0 1 5.5 11zM7 2a2 2 0 1 0 2 2 2 2 0 0 0-2-2z" transform="translate(10.5 4.23)"/>
                <path id="Subtraction_2" data-name="Subtraction 2" class="cls-2" d="M30.285 11.79a14.869 14.869 0 0 0-3.562-5.513 15.382 15.382 0 0 0-21.539 0 14.893 14.893 0 0 0-3.476 5.283L0 10.721c.06-.151.115-.281.166-.4a16.821 16.821 0 0 1 3.672-5.372 17.339 17.339 0 0 1 18.785-3.621 17.084 17.084 0 0 1 5.446 3.621 16.821 16.821 0 0 1 3.672 5.371c.09.21.177.425.259.64l-1.714.83z"/>
            </g>
        </g>
    </g>
</svg>
