<svg xmlns="http://www.w3.org/2000/svg" width="42" height="22" viewBox="0 0 42 22">
    <g fill="#333" fill-rule="nonzero">
        <path d="M41.686 10.185C41.312 9.769 32.294 0 21 0S.689 9.77.314 10.185a1.216 1.216 0 0 0 0 1.63C.689 12.231 9.706 22 21 22s20.311-9.77 20.686-10.185a1.216 1.216 0 0 0 0-1.63zM21 19.555c-4.749 0-8.613-3.838-8.613-8.555S16.25 2.444 21 2.444 29.613 6.283 29.613 11c0 4.717-3.864 8.556-8.613 8.556z"/>
        <path d="M22.094 8.368c0-1.225.618-2.303 1.56-2.966a6.199 6.199 0 0 0-2.8-.688c-3.415 0-6.194 2.732-6.194 6.09 0 3.357 2.78 6.089 6.195 6.089 3.057 0 5.588-2.195 6.088-5.063-2.494.79-4.85-1.065-4.85-3.462z"/>
    </g>
</svg>
