<svg xmlns="http://www.w3.org/2000/svg" width="29" height="29" viewBox="0 0 29 29">
    <g fill="none" fill-rule="nonzero">
        <path fill="#333" d="M22.361 26.852H4.491c-2.34 0-4.238-1.934-4.238-4.32V4.32C.253 1.934 2.151 0 4.491 0h17.87c2.34 0 4.238 1.934 4.238 4.319v18.214c0 2.385-1.898 4.319-4.238 4.319z"/>
        <path fill="#FFF" d="M22.545 7.23h-9.12a.511.511 0 0 1-.506-.517c0-.286.227-.516.507-.516h9.12c.28 0 .506.23.506.516a.511.511 0 0 1-.507.516zM22.545 14.459h-9.12a.511.511 0 0 1-.506-.517c0-.285.227-.516.507-.516h9.12c.28 0 .506.23.506.516a.511.511 0 0 1-.507.517zM22.545 21.688h-9.12a.511.511 0 0 1-.506-.516c0-.286.227-.517.507-.517h9.12c.28 0 .506.231.506.517a.511.511 0 0 1-.507.516zM6.369 8.778a.499.499 0 0 1-.304-.103l-2.316-1.77a.522.522 0 0 1-.101-.723.5.5 0 0 1 .71-.103l1.935 1.48L9.46 3.795a.5.5 0 0 1 .714-.055.522.522 0 0 1 .055.727L6.754 8.598a.502.502 0 0 1-.385.18zM6.369 16.008a.499.499 0 0 1-.304-.103l-2.316-1.771a.522.522 0 0 1-.101-.723.5.5 0 0 1 .71-.103l1.935 1.48 3.166-3.763a.5.5 0 0 1 .714-.056.522.522 0 0 1 .055.728l-3.474 4.13a.502.502 0 0 1-.385.18zM6.369 23.753a.499.499 0 0 1-.304-.103l-2.316-1.77a.522.522 0 0 1-.101-.723.5.5 0 0 1 .71-.104l1.935 1.48L9.46 18.77a.5.5 0 0 1 .714-.055.522.522 0 0 1 .055.727l-3.474 4.13a.502.502 0 0 1-.385.181z"/>
        <g transform="translate(16.111 16.111)">
            <ellipse cx="6.444" cy="6.444" fill="#333" rx="6.187" ry="6.444"/>
            <path fill="#FFF" d="M9.832 3.318a.502.502 0 0 0-.717.135L6.229 7.77 4.194 6.03a.501.501 0 0 0-.726.074.551.551 0 0 0 .072.756l2.467 2.11a.504.504 0 0 0 .75-.108l3.204-4.796a.552.552 0 0 0-.129-.748z"/>
        </g>
    </g>
</svg>
