<svg xmlns="http://www.w3.org/2000/svg" width="25" height="25" viewBox="0 0 25 25">
    <defs>
        <style>
            .cls-1{fill:#222}
        </style>
    </defs>
    <g id="Symbols" transform="translate(.5 .5)">
        <g id="Group-7">
            <g id="Mute">
                <g id="Group_4618">
                    <g id="tools-and-utensils" transform="translate(4 1)">
                        <path id="Path" d="M7.582 15.156a4.055 4.055 0 0 0 2.973-1.236 4.054 4.054 0 0 0 1.236-2.973V4.21a4.053 4.053 0 0 0-1.236-2.973A4.054 4.054 0 0 0 7.582 0a4.054 4.054 0 0 0-2.973 1.237A4.054 4.054 0 0 0 3.372 4.21v6.736a4.054 4.054 0 0 0 1.237 2.973 4.055 4.055 0 0 0 2.973 1.237z" class="cls-1"/>
                        <path id="Path-2" d="M14.91 9.438a.842.842 0 0 0-1.434.592v.916a5.676 5.676 0 0 1-1.73 4.164 5.675 5.675 0 0 1-4.164 1.73 5.677 5.677 0 0 1-4.164-1.73 5.676 5.676 0 0 1-1.73-4.164v-.916a.809.809 0 0 0-.25-.592.809.809 0 0 0-.592-.25.809.809 0 0 0-.592.25.809.809 0 0 0-.254.592v.916A7.308 7.308 0 0 0 1.945 16a7.347 7.347 0 0 0 4.8 2.466v1.737H4.14a.842.842 0 0 0 0 1.684h6.884a.842.842 0 0 0 0-1.684h-2.6v-1.732A7.348 7.348 0 0 0 13.219 16a7.307 7.307 0 0 0 1.941-5.058v-.912a.809.809 0 0 0-.25-.592z" class="cls-1"/>
                    </g>
                </g>
            </g>
            <g id="Group-3" transform="translate(10 12)">
                <rect id="Rectangle-2" width="12" height="12" fill="#fb2d2d" rx="1"/>
                <path id="x" fill="#fff" d="M7.5 9.05a.461.461 0 0 0 .46-.46.48.48 0 0 0-.15-.35L6.24 6.5l1.5-1.67a.469.469 0 0 0 .15-.34.435.435 0 0 0-.14-.325.448.448 0 0 0-.32-.135.484.484 0 0 0-.36.17L5.62 5.84 4.17 4.2a.475.475 0 0 0-.35-.17.448.448 0 0 0-.32.135.435.435 0 0 0-.14.325.517.517 0 0 0 .15.34l1.5 1.67-1.58 1.74a.485.485 0 0 0-.14.34.46.46 0 0 0 .135.33.435.435 0 0 0 .325.14.475.475 0 0 0 .35-.17l1.52-1.72 1.53 1.72a.475.475 0 0 0 .35.17z"/>
            </g>
        </g>
    </g>
</svg>
