<svg xmlns="http://www.w3.org/2000/svg" width="164" height="120" viewBox="0 0 164 120">
    <g fill="none" fill-rule="nonzero">
        <path fill="#14CC2A" d="M162.996 54.916l-18.475 42.66-6.322 14.594c-2.053 4.738-6.906 7.83-12.293 7.83H38.094c-5.387 0-10.237-3.092-12.293-7.83l-.882-2.036L1.004 54.916C-1.54 49.042.892 42.287 6.691 39.123l5.801-3.162 3.319-1.809 16.638-9.07 4.846-2.642 6.247-3.406 7.12-3.88 5.081-2.77 12.37-6.745 2.838-1.544 4.32-2.356.12-.063a13.881 13.881 0 0 1 13.223 0l21.965 11.977 7.05 3.844 7.234 3.944 5.017 2.734 11.612 6.328 9.3 5.07 6.511 3.547c5.805 3.163 8.237 9.922 5.693 15.796z" opacity=".1"/>
        <path fill="#14CC2A" d="M46.014 19.301c-.525-.126-1.225-.28-2.014-.465L51.013 15c3.895.993 7.641 1.722 9.872 1.589 0 0 .67 1.223-1.224 1.223-1.894 0-.057 1.702-1.227 1.81-1.17.106-2.116.796-3.063 0-.947-.798-1.559-1.224-2.728-1.065-1.17.158-2.786 1.01-3.343 0-.558-1.01-.167 1.488-3.286.744zM103.112 14.119c1.688.117 4.275-.36 7.125-1.119L117 17.33c-2.394.338-2.102-2.046-2.605-.976-.546 1.15-2.117.18-3.256 0-1.139-.18-1.735.302-2.657 1.213-.922.911-1.844.12-2.983 0-1.14-.12.65-2.062-1.195-2.062-1.844 0-1.192-1.386-1.192-1.386z" opacity=".1"/>
        <path fill="#14CC2A" d="M152.642 52.423c1.92 0 1.242-1.236 1.242-1.236-5.237.313-18.748-4.062-23.21-5.566l-.48-12.84c2.427 1.597 6.083 2.265 7.823 2.69 3.16.75 2.766-1.773 3.33-.752.563 1.02 2.201.16 3.388 0 1.186-.16 1.805.268 2.765 1.073.96.806 1.919.106 3.104 0a.743.743 0 0 0 .155-.027l-9.283-5.059c-4.613-1.237-9.173-2.724-11.487-3.504l-.105-2.809-5.009-2.728.112 5.975c-5.419 1.785-17.021 5.38-21.787 5.097 0 0-.679 1.234 1.24 1.234 1.92 0 .058 1.72 1.244 1.827 1.185.107 2.144.805 3.104 0 .96-.806 1.58-1.235 2.765-1.073 1.185.161 2.823 1.019 3.388 0 .565-1.02.169 1.502 3.33.751 1.516-.36 4.48-.918 6.825-2.11l.232 12.361c-4.727 1.586-17.79 5.775-22.925 5.47 0 0-.677 1.236 1.242 1.236 1.92 0 .057 1.719 1.242 1.825 1.186.106 2.145.805 3.105 0 .959-.806 1.58-1.235 2.766-1.074 1.185.162 2.822 1.02 3.387 0 .564-1.019.168 1.503 3.33.752 1.774-.424 5.536-1.114 7.95-2.775l.248 13.168c-5.055 1.682-17.498 5.618-22.48 5.322 0 0-.679 1.234 1.24 1.234 1.92 0 .071 1.71 1.25 1.824 1.177.113 2.144.804 3.103 0 .96-.804 1.58-1.236 2.765-1.075 1.186.162 2.823 1.02 3.388 0 .565-1.019.17 1.503 3.33.752 1.668-.396 5.096-1.033 7.514-2.492l.55 29.057c-5.71 1.856-11.203 4.482-17.175 5.285-9.972 1.34-20.155-2.549-30.083-2.45l-.784-21.024c2.271 1.058 4.99 1.573 6.419 1.913 3.162.75 2.767-1.77 3.33-.752.564 1.02 2.202.16 3.387 0 1.186-.16 1.807.268 2.767 1.075.96.807 1.919.106 3.104 0s-.676-1.826 1.243-1.826c1.92 0 1.24-1.235 1.24-1.235-4.743.283-16.257-3.275-21.716-5.067l-.5-13.414c2.427 1.65 6.168 2.339 7.935 2.76 3.161.75 2.767-1.772 3.33-.752.564 1.019 2.203.16 3.388 0s1.806.267 2.765 1.074c.96.807 1.919.105 3.106 0 1.186-.105-.677-1.826 1.242-1.826s1.24-1.235 1.24-1.235c-5.24.312-18.747-4.063-23.21-5.567l-.48-12.84c2.428 1.597 6.084 2.265 7.823 2.69 3.162.75 2.768-1.773 3.331-.752.564 1.02 2.202.16 3.387 0s1.807.268 2.766 1.073c.96.806 1.92.106 3.104 0 1.185-.106-.675-1.825 1.244-1.825s1.24-1.234 1.24-1.234c-5.193.305-18.525-3.999-23.092-5.54l-.476-12.775c2.364 1.966 6.593 2.736 8.504 3.19 3.163.75 2.768-1.77 3.332-.751.563 1.019 2.201.16 3.386 0s1.807.267 2.767 1.074 1.919.106 3.104 0-.676-1.826 1.243-1.826c1.92 0 1.24-1.235 1.24-1.235-5.485.327-20.028-4.482-23.774-5.758l-.298-8.035c2.307 1.121 5.144 1.656 6.614 2.006 3.161.75 2.767-1.773 3.33-.752.564 1.021 2.203.16 3.388 0 1.186-.16 1.806.268 2.765 1.074.96.805 1.92.106 3.104 0 1.186-.107-.675-1.827 1.244-1.827s1.24-1.235 1.24-1.235c-4.801.284-16.537-3.36-21.905-5.13L75.362 2l-4.314 2.352.011.6c-.69.234-1.664.566-2.838.94l-12.349 6.731c1.185.162 2.818 1.017 3.381 0 .564-1.016.169 1.502 3.331.752 1.93-.46 6.227-1.242 8.578-3.257l.19 10.053c-5.556 1.825-16.788 5.277-21.46 4.994 0 0-.677 1.234 1.242 1.234 1.92 0 .057 1.72 1.242 1.827 1.185.107 2.146.804 3.106 0s1.58-1.235 2.765-1.075c1.185.16 2.823 1.02 3.388 0s.169 1.502 3.33.752c1.443-.343 4.205-.866 6.49-1.945l.226 11.968c-5.419 1.785-17.021 5.38-21.789 5.097 0 0-.677 1.235 1.242 1.235 1.92 0 .057 1.718 1.242 1.825 1.185.106 2.146.805 3.106 0 .96-.806 1.58-1.235 2.765-1.074 1.185.162 2.823 1.02 3.388 0s.169 1.503 3.33.752c1.514-.36 4.48-.919 6.824-2.11l.233 12.361c-4.728 1.576-17.792 5.77-22.924 5.465 0 0-.679 1.235 1.24 1.235s.058 1.719 1.243 1.826c1.186.108 2.145.804 3.105 0s1.58-1.234 2.765-1.074c1.185.16 2.823 1.019 3.388 0 .564-1.02.168 1.502 3.33.751 1.772-.424 5.536-1.114 7.956-2.775l.249 13.175c-5.057 1.683-17.498 5.618-22.482 5.322 0 0-.677 1.235 1.242 1.235 1.92 0 .057 1.718 1.242 1.826 1.185.108 2.146.804 3.106 0s1.58-1.235 2.765-1.075c1.185.16 2.823 1.02 3.388 0 .565-1.019.169 1.503 3.33.752 1.667-.396 5.095-1.033 7.514-2.492l.426 22.27-.18.04c-4.025.916-7.75 2.809-11.796 3.595-6.6 1.287-13.68-.394-20.396-.66l-1.225-32.832c2.271 1.057 4.99 1.573 6.42 1.913 3.16.75 2.766-1.772 3.33-.752.563 1.02 2.201.16 3.388 0 1.186-.16 1.805.267 2.765 1.074.96.808 1.919.107 3.104 0 1.185-.106-.676-1.826 1.243-1.826 1.92 0 1.24-1.235 1.24-1.235-4.743.284-16.257-3.274-21.708-5.067l-.5-13.414c2.424 1.651 6.167 2.34 7.933 2.76 3.162.75 2.768-1.771 3.33-.752.562 1.02 2.202.16 3.388 0 1.185-.16 1.807.268 2.766 1.075.96.807 1.919.104 3.104 0 1.185-.105-.677-1.827 1.242-1.827 1.92 0 1.242-1.234 1.242-1.234-5.242.311-18.748-4.064-23.21-5.568l-.48-12.84c2.426 1.598 6.083 2.265 7.823 2.69 3.16.75 2.766-1.773 3.33-.752.563 1.021 2.201.16 3.388 0 1.186-.16 1.812.26 2.765 1.066.952.807 1.919.105 3.104 0 1.185-.104-.676-1.826 1.243-1.826 1.92 0 1.24-1.235 1.24-1.235-5.198.31-18.532-3.994-23.1-5.531l-.248-6.655-4.837 2.632.084 4.46c-3.959 1.306-11.213 3.574-16.698 4.59l-3.313 1.806c.983.32-.337 1.663.71 1.76 1.185.104 2.145.804 3.104 0 .96-.805 1.58-1.237 2.765-1.075 1.185.161 2.823 1.02 3.388 0s.17 1.502 3.33.752c1.516-.36 4.481-.92 6.826-2.111l.231 12.361c-4.726 1.586-17.79 5.777-22.924 5.471 0 0-.677 1.235 1.242 1.235s.057 1.719 1.242 1.826c1.185.108 2.144.805 3.104 0 .96-.804 1.581-1.234 2.766-1.074 1.185.16 2.822 1.02 3.387 0s.169 1.502 3.331.752c1.773-.425 5.536-1.115 7.956-2.776l.25 13.175c-5.055 1.683-17.498 5.618-22.48 5.322 0 0-.679 1.235 1.24 1.235 1.92 0 .057 1.719 1.243 1.826 1.187.108 2.145.804 3.105 0s1.58-1.234 2.765-1.074c1.185.16 2.823 1.019 3.388 0 .565-1.02.169 1.502 3.33.751 1.667-.396 5.095-1.033 7.514-2.491l.637 33.753a18.313 18.313 0 0 0-4.921 1.558 17.448 17.448 0 0 0-4.116 2.832l.88 2.031c2.05 4.728 6.894 7.813 12.272 7.813h87.657c5.378 0 10.22-3.085 12.272-7.813l6.31-14.562a33.246 33.246 0 0 0-11.892-.252l-.994-26.9c2.271 1.057 4.99 1.57 6.42 1.912 3.161.75 2.766-1.773 3.33-.752.563 1.02 2.201.16 3.388 0 1.187-.16 1.805.268 2.765 1.075.96.807 1.919.104 3.104 0 1.185-.105-.676-1.827 1.243-1.827 1.92 0 1.241-1.234 1.241-1.234-4.744.283-16.258-3.275-21.71-5.068l-.499-13.414c2.424 1.65 6.167 2.34 7.933 2.76 3.162.75 2.768-1.773 3.33-.752.562 1.021 2.203.16 3.388 0s1.807.268 2.766 1.073c.96.806 1.92.107 3.104 0 1.185-.106-.684-1.823 1.235-1.823z" opacity=".1"/>
        <path fill="#14CC2A" d="M127.772 26.975c1.05 6.35-1.866 12.025-1.866 12.025s-4.627-4.624-5.678-10.975C119.178 21.675 122.1 16 122.1 16s4.62 4.624 5.67 10.975zM145.479 36c3.59-.04 6.521 1.927 6.521 1.927s-2.889 2.032-6.479 2.072c-3.59.04-6.521-1.927-6.521-1.927s2.889-2.033 6.479-2.071zM136.015 26.72C132.701 30.31 132 35 132 35s4.672-1.13 7.985-4.72C143.297 26.688 144 22 144 22s-4.67 1.13-7.985 4.72z"/>
        <rect width="99" height="89" x="43" y="31" fill="#464353" rx="16.37"/>
        <path fill="#000" d="M130.379 77.988l-2.47 1.216-19.953 9.834-1.76.861a.964.964 0 0 1-.777.03.994.994 0 0 1-.624-.929v-5.809a.995.995 0 0 0-.977-1.005h-48.7a.995.995 0 0 1-.985-.999v-8.202c0-.555.44-1.005.984-1.005h48.701a.995.995 0 0 0 .977-.999v-5.938a.994.994 0 0 1 .627-.928.964.964 0 0 1 .776.032l1.758.874 19.953 9.938 2.474 1.228c.334.17.545.52.544.902 0 .382-.213.73-.548.9z" opacity=".1"/>
        <path fill="#14CC2A" d="M130.45 76.968l-2.477 1.218-20.006 9.854-1.765.863a.967.967 0 0 1-.778.029.997.997 0 0 1-.627-.93v-5.82a.997.997 0 0 0-.979-1.008H54.986a.997.997 0 0 1-.986-1v-8.22a.997.997 0 0 1 .986-1.007h48.832a.997.997 0 0 0 .98-1v-5.95a.996.996 0 0 1 .628-.93.967.967 0 0 1 .779.031l1.762.877 20.006 9.957 2.481 1.231c.336.171.547.521.546.904 0 .383-.214.732-.55.901z"/>
        <path fill="#EFB7B9" d="M24.998 96.411c.048 1.173-.712 2.213-1.423 3.147-.323.438-.615.898-.875 1.375-.782 1.375-2.464 2.029-3.374 3.325-.22.315-.391.66-.583.992a13.283 13.283 0 0 1-2.459 3.087l-1.646 1.52c-.468.433-.946.877-1.223 1.448-.317.658-.335 1.403-.316 2.14V113.853c.028.891.07 1.786.285 2.649.07.28.159.575.048.842-.118.28-.427.436-.727.534-.322.106-.674.177-.996.066-.321-.11-.543-.384-.741-.654-.96-1.304-1.35-2.915-1.922-4.426-.12-.314.008-.673.219-.936.229-.248.48-.474.751-.676 1.138-.982 1.663-2.455 2.099-3.878.435-1.422.853-2.91 1.842-4.028.643-.725 1.486-1.244 2.203-1.898 1.786-1.63 2.678-4.01 3.144-6.367a4.947 4.947 0 0 1 1.665-.02l2.935.384c.317.042.664.1.87.34.142.179.22.399.224.626zM37.987 98.622c-.063.444-.222.87-.467 1.248-.362.544-.77 1.057-1.222 1.532-1.14 1.282-1.331 3.123-2.057 4.675-.235.504-.527.98-.765 1.482-.626 1.32-.856 2.771-.992 4.23-.017.188-.033.376-.047.563-.02.232-.037.465-.054.696-.045.61-.084 1.253.178 1.81.134.284.354.52.363.836-.448.427-1.217.379-1.734.031-.518-.348-.84-.912-1.101-1.475a13.431 13.431 0 0 1-1.034-3.236c-.08-.427-.115-.922.193-1.23.154-.153.37-.23.543-.364.38-.294.49-.807.578-1.283.289-1.615.581-3.23.877-4.845.065-.395.15-.786.256-1.172.247-.854.622-1.813 1.333-2.383a.722.722 0 0 0 .224-.668c-.05-.24-.144-.47-.277-.678-.53-.935-1.163-1.873-2.117-2.386A10.977 10.977 0 0 1 34 94.122a1.34 1.34 0 0 1 .686-.116c.126.028.246.076.355.143.655.362 1.156.932 1.636 1.502.715.857 1.43 1.866 1.31 2.97z"/>
        <path fill="#464353" d="M14.595 118.077a3.479 3.479 0 0 0-.989-.697.658.658 0 0 0-.268-.095c-.227-.012-.398.206-.593.332a1.04 1.04 0 0 1-1.037 0 2.181 2.181 0 0 1-.773-.786c-.416-.652-.498-1.301-.67-2.015l1.811-.363c.33-.08.649-.208.947-.378v-.179-.258c-.335.107-1.046.45-1.214.497-.545.132-1.098.225-1.656.279-.086-.182-.21-.34-.31-.518a3.073 3.073 0 0 1-.378-1.174 1.564 1.564 0 0 0-.089-.48.357.357 0 0 0-.381-.239.475.475 0 0 0-.163.086c-.506.372-.9.893-1.13 1.5-.34.9-.29 1.911-.424 2.873-.101.72-.31 1.434-.274 2.161a.156.156 0 0 0 .035.119.138.138 0 0 0 .107.05c.377.09.81.166 1.117-.083.307-.25.35-.72.41-1.13.08-.547.236-1.077.463-1.575a3.39 3.39 0 0 1 .691 2.162c0 .433-.05.925.229 1.242.137.14.305.243.487.3.372.138.758.227 1.15.267.707.072 1.426-.023 2.134-.117.223-.03.448-.06.67-.113a.685.685 0 0 0 .312-.138.624.624 0 0 0 .183-.38 1.432 1.432 0 0 0-.397-1.15zM33.703 114.597c-.193-.16-.41-.291-.645-.391a1.561 1.561 0 0 0-.63-.194c-.256 0-.49.115-.728.204-.237.089-.516.144-.74.029a.921.921 0 0 1-.366-.476c-.283-.618-.497-1.262-.744-1.89a.51.51 0 0 1 .244-.186.835.835 0 0 1 .24-.026c.314 0 1.27 0 1.778-.161.016-.188.033-.378.052-.568-.393-.074-1.068.055-1.246.1-.29.067-.588.166-.882.109-.205-.04-.398-.153-.598-.177-.094-.16-.196-.313-.294-.47-.248-.402-.326-.87-.568-1.26a.475.475 0 0 0-.39-.24.694.694 0 0 0-.443.239c-.402.372-.814.757-1.043 1.235-.099.217-.174.44-.227.67a14.985 14.985 0 0 0-.472 3.925c.366.107.752.14 1.133.098.195-.889.433-1.769.716-2.64a.131.131 0 0 1 .055-.081c.06-.03.125.031.157.086.343.467.621.971.827 1.501.128.378.186.788.427 1.117.257.323.63.554 1.055.652.422.096.854.147 1.288.153l.645.028c.35.038.703.012 1.042-.074.33-.105.629-.363.654-.682a.804.804 0 0 0-.297-.63zM36.793 95.606c-.239.247-.59.34-.923.422l-1.011.248a.413.413 0 0 0-.285.163c-.058.106-.017.24-.045.357a.304.304 0 0 1-.064.126.733.733 0 0 1-.521.189 1.323 1.323 0 0 0-.49.073.398.398 0 0 0-.166.135c-.051.074-.072.166-.126.238a.584.584 0 0 1-.35.184 3.105 3.105 0 0 1-2.063-.246.58.58 0 0 0-.41-.099.396.396 0 0 0-.203.165c-.052.082-.109.16-.17.236-.261.287-.71.21-1.088.13-.232-.051-.465-.094-.698-.133-1.394-.23-2.815-.276-4.235-.317-1.835-.056-3.67-.107-5.447-.544-.387-.095-.854-.32-.835-.718.013-.229.192-.431.19-.655 0-.39-.473-.6-.853-.665.142-2.133 1.407-4.001 2.068-6.03.165-.504.285-1.02.471-1.519.805-2.246 2.574-3.968 4.045-5.838.225-.262.41-.557.549-.874.126-.381.192-.78.195-1.182l.08-1.405c2.181-.104 4.3-.062 6.433.403.117-.003.23.04.314.121.084.08.133.192.136.31.082.514.14 1.03.174 1.549 0 .115.017.229.048.339.056.14.134.269.23.383 1.235 1.634 1.992 3.59 2.59 5.548.597 1.958 1.072 3.971 1.823 5.887.259.66.598 1.402.666 2.11.27.203.21.66-.029.909z"/>
        <path fill="#000" d="M28 97c-1.646-.234-3.324-.281-5-.324.046-1.346.092-2.693.14-4.04.031-.896.062-1.794.184-2.682.168-1.265.528-2.505.706-3.769.1-.723.147-1.452.139-2.181-.008-.742-.069-1.489.07-2.22.115-.603.417-1.455 1.055-1.784.427.51-.228 1.932-.305 2.542-.158 1.267.235 2.53.572 3.77.407 1.49.74 2.993 1.07 4.497L28 97zM32 96.99a2.67 2.67 0 0 1-1.482-.3.502.502 0 0 0-.371-.096.364.364 0 0 0-.185.16c-.435-2.22-.412-4.53-.756-6.777-.13-.8-.294-1.616-.15-2.41.155-.85.654-1.587.848-2.426.13-.554.119-1.125.11-1.69-.01-.566-.164-.946-.337-1.451.46.082.833.564 1.017 1 .226.53.268 1.127.298 1.71.072 1.41.084 2.82.065 4.23-.025.659-.012 1.318.04 1.974.068.646.216 1.281.265 1.928.057.777-.028 1.573.148 2.329.142.61.45 1.218.49 1.819zM34 95.753a.703.703 0 0 1-.497.178 1.273 1.273 0 0 0-.469.069c-.271-1.659-.54-3.317-.805-4.974-.112-.61-.19-1.226-.234-1.845-.035-.717.02-1.435-.03-2.15-.06-.88-.28-1.736-.491-2.583-.125-.508-.698-2.02-.378-2.448.5.324.804 1.016.974 1.568.175.638.287 1.292.333 1.952l.383 3.838c.212 2.122.43 4.272 1.17 6.274.015.04.03.087.044.12z" opacity=".1"/>
        <path fill="#EFB7B9" d="M38.536 71.14c.38-.322.76-.645 1.108-1 .491-.52.945-1.077 1.358-1.663.44-.6.878-1.216 1.151-1.91.31-.796.404-1.701.942-2.362a.54.54 0 0 1 .243-.19c.307-.096.536.288.595.607.287 1.56-.399 3.116-1.066 4.555-.22.474-.45.96-.832 1.32-.201.189-.431.334-.654.503-.338.274-.648.58-.927.914-.48.545-.936 1.11-1.368 1.696-.537.72-1.04 1.476-1.676 2.112-.636.635-1.431 1.153-2.322 1.278.255-.035.171-1.532.144-1.72-.039-.275-.226-.598-.232-.866-.007-.328.127-.376.397-.607l3.14-2.667z"/>
        <path fill="#000" d="M38.536 71.14c.38-.322.76-.645 1.108-1 .491-.52.945-1.077 1.358-1.663.44-.6.878-1.216 1.151-1.91.31-.796.404-1.701.942-2.362a.54.54 0 0 1 .243-.19c.307-.096.536.288.595.607.287 1.56-.399 3.116-1.066 4.555-.22.474-.45.96-.832 1.32-.201.189-.431.334-.654.503-.338.274-.648.58-.927.914-.48.545-.936 1.11-1.368 1.696-.537.72-1.04 1.476-1.676 2.112-.636.635-1.431 1.153-2.322 1.278.255-.035.171-1.532.144-1.72-.039-.275-.226-.598-.232-.866-.007-.328.127-.376.397-.607l3.14-2.667z" opacity=".1"/>
        <path fill="#EFB7B9" d="M27.05 62s-.895 4.565-1.94 5.326C24.066 68.087 30.782 69 30.782 69s.15-3.652 1.94-5.326C34.514 62 27.051 62 27.051 62z"/>
        <path fill="#14CC2A" d="M25.738 67.021c-.414.06-.795.276-1.073.607-.66.752-.79 1.896-.559 2.894.232.997.765 1.88 1.318 2.723.721 1.098 1.497 2.18 2.499 2.995.542.416 1.104.801 1.685 1.153.965.63 1.892 1.322 2.777 2.072.194.186.416.336.656.444.208.07.425.1.642.09a4.8 4.8 0 0 0 2.118-.523.391.391 0 0 0 .16-.122.477.477 0 0 0 .007-.362c-.394-1.687.366-3.601-.389-5.143-.82.282-1.72.592-2.54.867a.883.883 0 0 1-.397.071.826.826 0 0 1-.428-.247c-.889-.814-1.449-1.948-1.956-3.068-.508-1.12-1.005-2.276-1.804-3.188-.8-.912-1.547-1.394-2.716-1.263z"/>
        <path fill="#14CC2A" d="M25.738 67.021c-.414.06-.795.276-1.073.607-.66.752-.79 1.896-.559 2.894.232.997.765 1.88 1.318 2.723.721 1.098 1.497 2.18 2.499 2.995.542.416 1.104.801 1.685 1.153.965.63 1.892 1.322 2.777 2.072.194.186.416.336.656.444.208.07.425.1.642.09a4.8 4.8 0 0 0 2.118-.523.391.391 0 0 0 .16-.122.477.477 0 0 0 .007-.362c-.394-1.687.366-3.601-.389-5.143-.82.282-1.72.592-2.54.867a.883.883 0 0 1-.397.071.826.826 0 0 1-.428-.247c-.889-.814-1.449-1.948-1.956-3.068-.508-1.12-1.005-2.276-1.804-3.188-.8-.912-1.547-1.394-2.716-1.263z" opacity=".1"/>
        <circle cx="31" cy="61" r="4" fill="#EFB7B9"/>
        <path fill="#14CC2A" d="M32.632 73.48l-.01.02c-.255.462-.635.852-.897 1.314-.294.522-.43 1.118-.548 1.705a46.898 46.898 0 0 0-.422 2.39c-1.331-.442-2.807.3-4.185.03-.413-.081-.808-.251-1.229-.27-.307-.015-.615.053-.922.024-.51-.047-1.016-.362-1.502-.202-.218.073-.487.225-.642.06a.455.455 0 0 1-.08-.145c-.126-.342-.255-.71-.164-1.062.077-.3.302-.538.458-.808.269-.469.323-1.024.359-1.562.09-1.391.086-2.792.319-4.167.232-1.375.721-2.742 1.667-3.786.465-.51 1.072-.945 1.764-1.001 2.547-.202 4.607 1.177 5.72 3.367.646 1.27.99 2.837.314 4.093z"/>
        <path fill="#EFB7B9" d="M39.536 72.14c.38-.322.76-.645 1.108-1 .491-.52.945-1.077 1.358-1.663.44-.6.878-1.216 1.151-1.91.31-.796.404-1.701.942-2.362a.54.54 0 0 1 .243-.19c.307-.096.536.288.595.607.287 1.56-.399 3.116-1.066 4.555-.22.474-.45.96-.832 1.32-.201.189-.431.334-.654.503-.338.274-.648.58-.927.914-.48.545-.936 1.11-1.368 1.696-.537.72-1.04 1.476-1.676 2.112-.636.635-1.431 1.153-2.322 1.278.255-.035.171-1.532.144-1.72-.039-.275-.226-.598-.232-.866-.007-.328.127-.376.397-.607l3.14-2.667z"/>
        <path fill="#000" d="M32 73.771l-.01.019c-.243.464-.606.854-.856 1.316-.28.523-.411 1.12-.523 1.708A39.9 39.9 0 0 0 30.396 78a15.438 15.438 0 0 1-1.46-.978c-1.006-.796-1.785-1.852-2.509-2.926-.561-.822-1.094-1.684-1.323-2.657-.229-.972-.096-2.09.561-2.824a1.748 1.748 0 0 1 1.078-.594c1.173-.129 1.914.338 2.717 1.227.803.888 1.3 2.022 1.812 3.112.227.472.46.956.728 1.411z" opacity=".1"/>
        <path fill="#14CC2A" d="M27.738 67.021c-.414.06-.795.276-1.073.607-.66.752-.79 1.896-.559 2.894.232.997.765 1.88 1.318 2.723.721 1.098 1.497 2.18 2.499 2.995.542.416 1.104.801 1.685 1.153.965.63 1.892 1.322 2.777 2.072.194.186.416.336.656.444.208.07.425.1.642.09a4.8 4.8 0 0 0 2.118-.523.391.391 0 0 0 .16-.122.477.477 0 0 0 .007-.362c-.394-1.687.366-3.601-.389-5.143-.82.282-1.72.592-2.54.867a.883.883 0 0 1-.397.071.826.826 0 0 1-.428-.247c-.889-.814-1.449-1.948-1.956-3.068-.508-1.12-1.005-2.276-1.804-3.188-.8-.912-1.547-1.394-2.716-1.263z"/>
        <path fill="#464353" d="M33.724 58.535c.416-.465.327-1.214-.036-1.72-.362-.505-.933-.822-1.489-1.111-.884-.462-1.9-.909-2.856-.604-.372.12-.698.345-1.04.533-.632.346-1.327.562-1.97.885-.642.323-1.256.783-1.533 1.438-.277.656-.186 1.362-.115 2.051.109 1.067.172 2.15.02 3.212-.15 1.063-.526 2.114-1.216 2.948-.483.584-1.122 1.07-1.412 1.766-.143.4-.223.82-.237 1.245l-.156 1.81c-.061.72-.154 1.51-.684 2.012.68-.154 1.378-.317 1.952-.702.341-.25.652-.539.927-.859.542-.588 1.106-1.216 1.27-1.993.12-.581.02-1.241.379-1.717.428-.561 1.324-.561 1.925-.195.6.366.968 1.01 1.285 1.63.317.62.645 1.273 1.2 1.708.454.339.988.56 1.553.643.38.069.811.088 1.11-.15.41-.326.37-.946.236-1.448-.175-.663-.448-1.356-.258-2.017.063-.22.176-.42.246-.643.083-.317.122-.643.115-.97.04-1.647.116-3.42-.428-5.004-.174-.506-.641-.99-.401-1.544.298-.672 1.16-.696 1.613-1.204z"/>
        <g fill="#000" opacity=".1">
            <path d="M24.749 61.49a18.51 18.51 0 0 0-.098-2.47c-.015-.162-.032-.324-.045-.489-.04.511-.024 1.025.045 1.532.046.474.08.951.098 1.427zM32.482 71.085c-.296.253-.723.232-1.099.16a3.275 3.275 0 0 1-1.537-.684c-.544-.468-.86-1.16-1.179-1.82-.32-.661-.682-1.343-1.272-1.732-.589-.39-1.489-.388-1.913.207-.356.506-.256 1.207-.376 1.824-.16.826-.719 1.491-1.256 2.118-.272.34-.58.646-.917.912-.421.285-.886.49-1.373.607A2.294 2.294 0 0 1 21 73.87c.673-.164 1.364-.337 1.932-.745.338-.267.645-.573.917-.913.537-.625 1.095-1.291 1.256-2.118.12-.617.02-1.318.376-1.823.424-.597 1.31-.597 1.905-.208.595.39.958 1.073 1.272 1.732.313.659.638 1.348 1.187 1.81.45.36.978.595 1.537.683.376.073.803.094 1.1-.16.38-.323.367-.924.255-1.436a.847.847 0 0 1-.256.393zM33.593 57.455c-.45.54-1.301.566-1.594 1.285-.128.315-.052.61.072.895.342-.58 1.105-.64 1.522-1.14.304-.366.335-.896.185-1.365a1.11 1.11 0 0 1-.185.325zM32.817 65.69c.007.347-.031.694-.114 1.031-.07.233-.181.448-.243.683-.08.354-.08.722 0 1.075v-.03c.062-.235.174-.448.243-.684.083-.337.121-.684.114-1.032.016-.696.037-1.412.023-2.13-.01.366-.01.724-.023 1.086z"/>
        </g>
    </g>
</svg>
