<svg xmlns="http://www.w3.org/2000/svg" width="35" height="43" viewBox="0 0 35 43">
    <g fill="#333" fill-rule="nonzero">
        <path d="M17.5 35.094c9.655 0 17.482-7.856 17.482-17.547C34.982 7.857 27.155 0 17.5 0S.018 7.856.018 17.547 7.845 35.094 17.5 35.094zm0-25.357c4.298 0 7.782 3.497 7.782 7.81 0 4.314-3.484 7.81-7.782 7.81s-7.782-3.496-7.782-7.81c0-4.313 3.484-7.81 7.782-7.81z"/>
        <path d="M17.5 22.62c2.792 0 5.054-2.271 5.054-5.073 0-2.802-2.263-5.073-5.054-5.073-2.791 0-5.055 2.271-5.055 5.073 0 2.802 2.264 5.074 5.055 5.074zm-3.19-6.225s.393 1.263 1.696 2.57c1.303 1.308 2.56 1.702 2.56 1.702-2.437 1.056-5.347-1.807-4.256-4.272zM27.375 34.392a19.303 19.303 0 0 1-9.875 2.705c-3.601 0-6.977-.988-9.874-2.705-2.409.913-3.893 2.16-3.893 3.535C3.733 40.729 9.897 43 17.5 43c7.604 0 13.767-2.271 13.767-5.073 0-1.375-1.483-2.622-3.892-3.535z"/>
    </g>
</svg>
