<svg xmlns="http://www.w3.org/2000/svg" width="36" height="36" viewBox="0 0 36 36">
    <g fill="none" fill-rule="nonzero">
        <path fill="#F44336" d="M35 11.62H18.274c-3.738-.003-6.771 3.115-6.775 6.965A7.135 7.135 0 0 0 12.363 22L4 7.22C10.091-.9 21.42-2.395 29.304 3.879A18.533 18.533 0 0 1 35 11.62z"/>
        <path fill="#FFC107" d="M36 17.818C35.991 27.856 27.64 35.992 17.333 36c-.78.003-1.56-.048-2.333-.152l8.4-14.62c1.925-3.265.778-7.431-2.567-9.319A7.078 7.078 0 0 0 17.35 11H34.63A17.521 17.521 0 0 1 36 17.818z"/>
        <path fill="#4CAF50" d="M24 21.455L15.85 36h-.016C5.916 34.749-1.108 25.705.144 15.8A18.064 18.064 0 0 1 3.79 7l8.392 14.38.045.075a6.797 6.797 0 0 0 11.773 0z"/>
        <path fill="#F44336" d="M23.134 20.744a6.496 6.496 0 0 1-11.26 0l-.044-.072A6.496 6.496 0 0 1 17.504 11h.014a6.436 6.436 0 0 1 3.234.866 6.512 6.512 0 0 1 2.382 8.878z"/>
        <path fill="#2196F3" d="M23.134 20.744a6.496 6.496 0 0 1-11.26 0l-.044-.072A6.496 6.496 0 0 1 17.504 11h.014a6.436 6.436 0 0 1 3.234.866 6.512 6.512 0 0 1 2.382 8.878z"/>
        <path fill="#FAFAFA" d="M17.474 25a7.436 7.436 0 0 1-3.721-.999 7.503 7.503 0 0 1-.004-12.996A7.49 7.49 0 0 1 17.498 10a7.497 7.497 0 0 1 6.497 11.25A7.535 7.535 0 0 1 17.474 25zm.04-13.5a5.978 5.978 0 0 0-5.215 3 6.008 6.008 0 0 0 2.2 8.202 5.998 5.998 0 0 0 8.196-2.202 6.003 6.003 0 0 0-5.18-9h-.002z"/>
    </g>
</svg>
