<svg xmlns="http://www.w3.org/2000/svg" width="35" height="35" viewBox="0 0 35 35">
    <path fill="#333" fill-rule="nonzero" d="M8.828 15.264L3.819 6.588C7.026 2.573 11.962 0 17.5 0c6.406 0 12.008 3.443 15.057 8.58H18.278a9.01 9.01 0 0 0-.778-.034c-4.166 0-7.676 2.859-8.672 6.718zm14.937-4.155h10.03A17.455 17.455 0 0 1 35 17.501c0 9.6-7.728 17.392-17.301 17.499l7.157-12.397a8.905 8.905 0 0 0 1.6-5.102 8.929 8.929 0 0 0-2.69-6.392zm-12.622 6.392a6.365 6.365 0 0 1 6.357-6.358 6.365 6.365 0 0 1 6.357 6.358A6.365 6.365 0 0 1 17.5 23.86a6.365 6.365 0 0 1-6.357-6.358zm8.756 8.63l-5.01 8.677C6.462 33.548 0 26.28 0 17.501c0-3.118.816-6.045 2.245-8.58L9.39 21.297c1.431 3.045 4.528 5.16 8.11 5.16a8.93 8.93 0 0 0 2.399-.327z"/>
</svg>
