<svg xmlns="http://www.w3.org/2000/svg" width="34" height="29" viewBox="0 0 34 29">
    <path fill="none" fill-rule="nonzero" stroke="#DB2B39" stroke-width="1.5" d="M32.718 25.05L18.68 1.94A1.964 1.964 0 0 0 17 1c-.687 0-1.324.357-1.68.941L1.283 25.05a1.933 1.933 0 0 0-.029 1.962c.348.611 1 .989 1.708.989h28.078c.707 0 1.36-.378 1.708-.989a1.933 1.933 0 0 0-.029-1.962zM17.01 8.992c.807 0 1.489.452 1.489 1.252 0 2.442-.29 5.95-.29 8.392 0 .636-.702.903-1.199.903-.661 0-1.22-.267-1.22-.903 0-2.441-.289-5.95-.289-8.392 0-.8.662-1.252 1.51-1.252zm.021 15.123c-.91 0-1.592-.739-1.592-1.58 0-.862.682-1.58 1.592-1.58.848 0 1.571.718 1.571 1.58 0 .841-.723 1.58-1.57 1.58z"/>
</svg>
