<svg xmlns="http://www.w3.org/2000/svg" width="36" height="36" viewBox="0 0 36 36">
    <g fill="none" fill-rule="nonzero">
        <path fill="#2179A6" d="M17.5 36C27.166 36 35 27.94 35 18S27.165 0 17.5 0 0 8.06 0 18s7.836 18 17.5 18z"/>
        <path fill="#195D80" d="M35.845 19.758a4.073 4.073 0 0 1-.286.197c.156-.41.297-.936.414-1.543a17.429 17.429 0 0 0-3.025-10.826C31.206 5.583 28.834 3.864 25.691 3c3.382 2.223 4.646 4.112 5.445 5.793-.904-.923-2.452-1.885-3.498-1.964 1.568 1.162 4.192 4.61 3.912 9.834-.402-.842-1.138-2.159-1.66-2.62.563 5.131.07 6.233-.272 7.595-.075-.626-.301-1.096-.432-1.382 0 0-.06 1.603-1.105 3.888-.792 1.73-1.608 2.264-1.97 2.204-.099-.007-.151-.049-.15-.053.026-.224.049-.458-.01-.608 0 0-.335.115-.55.417-.087.122-.2.24-.347.352-.025.02.238-.337.219-.32a4.63 4.63 0 0 0-.41.373c-.512.53-.974 1.119-1.215.952.224-.068.403-.352.452-.631-.201.14-.713.521-1.86.69-.468.07-2.463.432-5.116-.89.387-.045.966-.18 1.407.08-.441-.48-1.507-.381-2.272-.622-.666-.21-1.535-1.142-2.034-1.612 2.042.499 4.21.139 5.464-.716 1.266-.863 2.017-1.494 2.69-1.345.672.15 1.12-.523.597-1.12-.522-.598-1.788-1.402-3.51-.972-1.319.33-2.443 1.385-4.295.651a4.634 4.634 0 0 1-.346-.153c-.119-.06.387.07.262-.004-.356-.13-1.003-.426-1.164-.539-.026-.02.268.054.238.035-1.758-1.037-1.643-1.867-1.643-2.38 0-.41.25-.966.72-1.227.253.09.41.173.41.173s-.117-.18-.19-.266c.016-.007.034-.011.052-.016.207.07.943.37 1.336.683.467-.87.118-2.311.07-2.4l.001-.004c.1-.443 2.743-1.824 2.94-1.97.274-.202.553-.513.728-.872.127-.229.218-.555.193-1.025-.018-.339-.22-.546-3.04-.523-.77.006-1.272-.44-1.575-.867a9.215 9.215 0 0 1-.165-.26 2.563 2.563 0 0 1-.145-.309c.337-1.219 1.46-2.95 2.474-3.479-1.874-.587-4.167 1.085-4.82 1.983l-.005.008c-1.648-.408-3.047-.31-4.217.064-.868-.419-1.419-1.3-1.731-2.116A17.605 17.605 0 0 0 3.43 8.29a10.136 10.136 0 0 0-.054 2.003c-.001.1.015.196.012.285-.444.61-.733 1.133-.846 1.391-.54 1.052-1.095 2.669-1.542 5.18 0 0 .3-.946.901-2.018-.43 1.311-.767 3.333-.6 6.333l.03.129c.034-.29.131-.971.321-1.834a16.18 16.18 0 0 0 2.25 7.461c.153.261.336.564.555.898A17.567 17.567 0 0 0 18.418 35c8.929 0 16.298-6.642 17.427-15.242z"/>
        <path fill="#E78244" d="M31.024 28.172c.991-1.936 2.336-3.07 3.065-4.408.966-1.781 2.792-6.789 1.415-10.828.631 2.53.434 5.099-1.578 6.389.65-1.782 1.058-5.69.388-9.212-.437-2.289-1.817-4.34-2.717-4.979.829.645 1.495 2.954 1.476 4.013C31.341 6.12 28.513 3.223 24.238 2c3.32 2.272 4.56 4.202 5.346 5.919-.888-.942-2.408-1.925-3.434-2.007 1.539 1.188 4.115 4.711 3.84 10.05-.394-.86-1.117-2.207-1.63-2.678.553 5.243.069 6.369-.267 7.761-.073-.64-.295-1.12-.423-1.412 0 0-.06 1.638-1.085 3.972-.777 1.768-1.58 2.314-1.935 2.253-.096-.007-.148-.05-.147-.054.026-.229.048-.469-.01-.622 0 0-.328.118-.54.426a1.623 1.623 0 0 1-.34.36c-.025.02.234-.344.215-.327a4.577 4.577 0 0 0-.402.381c-.503.542-.957 1.143-1.193.973.22-.07.396-.36.443-.645-.197.143-.7.533-1.824.706-.46.071-2.42.44-5.024-.91.38-.046.948-.185 1.382.08-.434-.49-1.48-.388-2.23-.634-.654-.214-1.507-1.166-1.997-1.647 2.004.51 4.133.142 5.363-.731 1.244-.883 1.98-1.527 2.641-1.375.66.153 1.1-.534.586-1.145-.512-.611-1.755-1.433-3.446-.993-1.294.337-2.398 1.415-4.216.666a4.46 4.46 0 0 1-.34-.157c-.116-.06.38.07.258-.004-.35-.134-.985-.436-1.142-.55-.026-.02.263.054.233.035-1.726-1.06-1.613-1.907-1.613-2.432 0-.42.245-.988.706-1.254.25.092.404.177.404.177s-.115-.184-.188-.273l.052-.016c.203.072.926.379 1.311.698.459-.889.116-2.36.07-2.452v-.004c.097-.452 2.693-1.864 2.887-2.013.269-.206.542-.524.714-.89.124-.235.214-.568.19-1.048-.018-.347-.216-.559-2.984-.534-.757.006-1.25-.451-1.547-.886a9.48 9.48 0 0 1-.161-.267 2.669 2.669 0 0 1-.143-.315c.33-1.245 1.433-3.015 2.428-3.555-1.84-.6-4.09 1.109-4.73 2.025l-.007.009c-1.618-.417-2.99-.316-4.139.065-1.406-.706-1.968-2.699-2.02-3.552-.793.568-1.522 2.86-1.618 3.317-.141.722-.286 1.708-.2 2.96 0 .102.015.2.012.292-.436.622-.72 1.158-.83 1.422C.983 12.239.439 13.892 0 16.458c0 0 .295-.967.884-2.063C.45 15.775.11 17.921.31 21.14c.007-.106.098-.92.33-2.015.113 2.14.602 4.771 2.209 7.624 1.224 2.176 4.45 7.23 12.546 9.122a3.841 3.841 0 0 1-1.442-.798s3.024 1.008 5.23.922c-.69-.124-.828-.47-.828-.47s7.845.46 10.558-3.38c-.927 1.125-3.276 1.443-4.164 1.453 1.352-1.29 4.341-1.26 7.579-4.566 1.776-1.814 1.968-3.195 2.162-4.485-.297 1.69-1.847 2.703-3.466 3.625z"/>
        <path fill="#144F66" d="M16.911 11.169c.086-.274.183-.917-.097-1.052A2.148 2.148 0 0 0 16 10c.126.041.487.134.58.354.179.421-.243 1.43-.305 1.645.193 0 .552-.562.636-.831z"/>
    </g>
</svg>
