<svg xmlns="http://www.w3.org/2000/svg" width="53" height="47" viewBox="0 0 53 47">
    <path fill="#000" fill-rule="nonzero" d="M52.924 14.31l-.614 3.93s-.878-7.277-1.953-9.998c-1.648-4.17-2.382-4.136-2.387-4.13 1.104 2.8.904 4.305.904 4.305s-1.956-5.322-7.127-7.015C36.017-.473 32.918.04 32.56.137h-.157l.126.01c-.002.001-.005.002-.004.003.023.028 6.33 1.1 7.449 2.635 0 0-2.68 0-5.346.767-.12.034 9.81 1.238 11.84 11.144 0 0-1.089-2.267-2.435-2.652.885 2.689.658 7.79-.185 10.327-.109.326-.22-1.41-1.88-2.158.532 3.806-.032 9.842-2.677 11.504-.206.13 1.658-5.958.375-3.605C32.28 39.418 23.55 33.33 19.623 30.65c2.012.437 5.83-.068 7.521-1.323a.12.12 0 0 0 .006-.005c1.836-1.253 2.923-2.168 3.9-1.952.976.218 1.627-.76.868-1.629-.76-.87-2.604-2.065-5.1-1.414-1.76.46-3.94 2.404-7.269.436-2.555-1.512-2.795-2.767-2.818-3.637.063-.308.143-.596.237-.859.294-.82 1.186-1.067 1.682-1.262.841.144 1.566.406 2.327.796.01-.253.013-.589 0-.97.072-.145.027-.581-.09-1.115a8.066 8.066 0 0 0-.35-1.586h.002a.039.039 0 0 0 .019-.013l.002-.004a.07.07 0 0 0 .01-.024c.053-.238.623-.699 1.332-1.193a45.355 45.355 0 0 1 1.97-1.28c.52-.322.917-.562 1.002-.624.031-.025.07-.053.112-.085l.023-.018.015-.012c.28-.223.698-.643.785-1.528v-.007c.004-.026.006-.052.008-.079l.003-.057.003-.044.003-.106v-.006c.001-.086 0-.175-.005-.27a.961.961 0 0 0-.016-.142l-.001-.007a.289.289 0 0 0-.02-.061c-.09-.213-.43-.293-1.834-.317h-.004c-.573-.01-1.322-.01-2.303-.006-1.721.007-2.672-1.68-2.976-2.332.416-2.298 1.619-3.935 3.594-5.045.038-.02.03-.038-.014-.05.387-.234-4.67-.007-6.997 2.947-2.064-.512-3.864-.478-5.414-.115a6.342 6.342 0 0 1-1.11-.137C7.695 4.582 6.218 2.86 6.14.803l-.013.01c0-.02-.003-.04-.003-.059 0 0-3.143 2.411-2.673 8.985a17.61 17.61 0 0 1-.006.303c-.85 1.152-1.272 2.12-1.304 2.334C1.387 13.907.622 16.213 0 19.712c0 0 .435-1.378 1.309-2.938-.643 1.964-1.148 5.02-.851 9.603 0 0 .078-1.016.356-2.48.216 2.843 1.165 6.352 3.564 10.479 4.603 7.922 11.68 11.922 19.502 12.536 1.389.114 2.797.117 4.214.01l.39-.03a29.311 29.311 0 0 0 4.826-.742c22.006-5.312 19.614-31.84 19.614-31.84z"/>
</svg>
