<svg xmlns="http://www.w3.org/2000/svg" width="35" height="35" viewBox="0 0 35 35">
    <path fill="#333" fill-rule="nonzero" d="M32.766 0H2.234C1.002 0 0 1 0 2.234v30.532A2.237 2.237 0 0 0 2.234 35h30.532A2.236 2.236 0 0 0 35 32.766V2.233A2.236 2.236 0 0 0 32.766 0zM15.893 19.727c0 .973-.093 1.802-.277 2.485-.185.684-.465 1.233-.837 1.663a3.28 3.28 0 0 1-1.398.932c-.558.198-1.207.295-1.947.295-.65 0-1.237-.103-1.765-.307a3.694 3.694 0 0 1-1.344-.878 3.902 3.902 0 0 1-.855-1.385 5.196 5.196 0 0 1-.3-1.814v-.436h2.096c0 1.952.723 2.929 2.17 2.929.37 0 .699-.043.99-.132.288-.09.533-.255.734-.502.202-.245.353-.584.457-1.023.105-.438.158-1.01.158-1.717V8.917h2.12v10.81h-.002zm11.702 3.17a3.517 3.517 0 0 1-.92 1.156c-.398.33-.884.586-1.454.773a6.253 6.253 0 0 1-1.917.276c-3.132 0-4.785-1.236-4.953-3.711h2.06c.01 1.398.967 2.098 2.87 2.098.422 0 .8-.045 1.126-.14.325-.093.598-.221.812-.385a1.597 1.597 0 0 0 .664-1.306c0-.276-.043-.496-.127-.662-.084-.168-.25-.318-.496-.448a5.41 5.41 0 0 0-1.016-.378 63.985 63.985 0 0 0-1.7-.466 21.52 21.52 0 0 1-1.765-.508c-.496-.167-.902-.37-1.218-.611a2.216 2.216 0 0 1-.706-.891c-.153-.354-.229-.8-.229-1.34 0-.473.1-.913.301-1.318.202-.406.488-.757.863-1.055a4.18 4.18 0 0 1 1.354-.699 5.839 5.839 0 0 1 1.773-.252c3.029 0 4.569 1.075 4.616 3.23h-2.026c-.073-1.076-.884-1.616-2.434-1.616-.345 0-.663.035-.958.103a2.674 2.674 0 0 0-.766.295 1.494 1.494 0 0 0-.506.476c-.12.19-.18.409-.18.657 0 .225.028.41.084.553.056.146.191.282.404.406.214.124.53.246.946.368.417.12.988.269 1.712.446.7.168 1.306.343 1.822.523.513.182.94.401 1.283.658.342.256.593.57.76.94.163.369.246.832.246 1.385 0 .52-.11 1-.325 1.442z"/>
</svg>
