<svg xmlns="http://www.w3.org/2000/svg" width="46" height="50" viewBox="0 0 46 50">
    <g fill="#000" fill-rule="nonzero">
        <path d="M46 23.772c0-4.75-.965-8.866-2.896-12.347-2.06-3.688-4.785-6.513-8.182-8.478C31.525.98 27.686 0 23.398 0c-2.743 0-5.308.4-7.693 1.2-2.385.8-4.459 1.894-6.221 3.281a23.691 23.691 0 0 0-4.661 4.916 25.571 25.571 0 0 0-3.201 6.062A30.749 30.749 0 0 0 0 22.157a31.713 31.713 0 0 1 3.808-4.517c1.426-1.406 3.06-2.715 4.897-3.925 1.837-1.209 3.908-2.18 6.218-2.918s4.72-1.15 7.224-1.244l.61.034c.411.02.931.1 1.56.238.629.137 1.326.331 2.086.572a8.02 8.02 0 0 1 2.242 1.144 9.77 9.77 0 0 1 1.961 1.856c.576.715 1.012 1.662 1.308 2.834.299 1.172.374 2.475.224 3.91H14.465c.296-1.75.723-3.238 1.28-4.457a16.931 16.931 0 0 1 2.17-3.506c-3.913 1.825-6.93 4.322-9.045 7.487-2.114 3.166-3.144 7-3.088 11.507.037 3.65 1.192 7.118 3.465 10.393 2.273 3.275 5.162 5.594 8.668 6.953 2.619 1.006 5.549 1.5 8.796 1.481 3.248-.018 6.147-.375 8.697-1.062 2.55-.687 4.68-1.544 6.386-2.569v-10.53c-1.355.95-2.965 1.733-4.83 2.358a29.135 29.135 0 0 1-5.788 1.3c-1.996.241-3.97.213-5.928-.084-1.959-.297-3.718-.828-5.275-1.59-1.556-.763-2.824-1.904-3.798-3.422-.975-1.52-1.47-3.313-1.488-5.378H46v-5.25zM0 23.25h.144c.01-.084.023-.166.034-.25-.059.084-.12.166-.178.25z"/>
    </g>
</svg>
