<svg xmlns="http://www.w3.org/2000/svg" xmlns:xlink="http://www.w3.org/1999/xlink" width="33" height="33" viewBox="0 0 33 33">
    <defs>
        <path id="a" d="M11.23 1.06a.82.82 0 0 1 1.16 1.16L5.007 9.601a.82.82 0 0 1-1.16 0l-3.28-3.28a.82.82 0 0 1 1.16-1.16l2.7 2.7 6.802-6.8z"/>
    </defs>
    <g fill="none" fill-rule="evenodd">
        <g stroke="#14CC2A" transform="translate(1 1)">
            <circle cx="15.5" cy="15.5" r="15.5" stroke-width="2"/>
            <path fill="#14CC2A" fill-rule="nonzero" stroke-width=".5" d="M21.824 11.18a.591.591 0 0 0-.848 0l-7.189 7.34-2.763-2.821a.591.591 0 0 0-.848 0 .622.622 0 0 0 0 .867l3.187 3.255c.234.239.614.239.849 0l7.612-7.775a.622.622 0 0 0 0-.867z"/>
        </g>
        <use fill="#051033" fill-opacity="0" fill-rule="nonzero" transform="translate(10 11)" xlink:href="#a"/>
    </g>
</svg>
