<svg xmlns="http://www.w3.org/2000/svg" width="60" height="60" viewBox="0 0 60 60">
    <g fill="#000" fill-rule="nonzero">
        <path d="M15.768 43.273c0 .838.682 1.52 1.52 1.52h25.424a1.52 1.52 0 0 0 1.52-1.52v-17.09H15.767v17.09zM44.23 19.606a1.52 1.52 0 0 0-1.518-1.519H17.288a1.52 1.52 0 0 0-1.52 1.519v3.464h28.463v-3.464zm-23.827 2.25h-1.947v-2.075h1.947v2.075zm3.534 0H21.99v-2.075h1.947v2.075zm3.534 0h-1.947v-2.075h1.947v2.075z"/>
        <path d="M30 0C13.43 0 0 13.432 0 30c0 16.567 13.431 30 30 30 16.567 0 30-13.433 30-30C60 13.43 46.567 0 30 0zm17.344 43.273a4.637 4.637 0 0 1-4.632 4.632H17.288a4.637 4.637 0 0 1-4.632-4.632V19.606a4.636 4.636 0 0 1 4.632-4.631h25.424a4.637 4.637 0 0 1 4.632 4.631v23.667z"/>
    </g>
</svg>
