<svg xmlns="http://www.w3.org/2000/svg" width="37" height="37" viewBox="0 0 37 37">
    <g fill="none" fill-rule="nonzero">
        <circle cx="18.5" cy="18.5" r="18.5" fill="#1DA2F8"/>
        <g fill="#F2F2F2">
            <path d="M18.028 2.486c-.138 0-.25-.1-.25-.222V1.248c0-.123.112-.222.25-.222s.25.099.25.222v1.016c0 .122-.112.222-.25.222zM18.028 34.974c-.138 0-.25-.099-.25-.222v-1.016c0-.122.112-.222.25-.222s.25.1.25.222v1.016c0 .123-.112.222-.25.222zM15.267 2.725a.222.222 0 0 1-.218-.184l-.177-1a.222.222 0 1 1 .438-.077l.176 1a.222.222 0 0 1-.219.261zM20.909 34.72a.222.222 0 0 1-.219-.184l-.176-1a.222.222 0 1 1 .437-.077l.177 1a.222.222 0 0 1-.22.261zM12.618 3.435a.222.222 0 0 1-.209-.146l-.347-.955a.222.222 0 0 1 .417-.152l.348.955a.222.222 0 0 1-.21.298zM23.73 33.964a.222.222 0 0 1-.209-.146l-.348-.955a.222.222 0 0 1 .418-.152l.347.955a.222.222 0 0 1-.208.298zM10.132 4.594a.222.222 0 0 1-.192-.11l-.508-.88a.222.222 0 0 1 .384-.223l.508.88a.222.222 0 0 1-.192.333zM26.376 32.73a.222.222 0 0 1-.192-.111l-.508-.88a.222.222 0 0 1 .384-.222l.508.88a.222.222 0 0 1-.192.333zM7.885 6.167a.222.222 0 0 1-.17-.079l-.653-.778a.222.222 0 1 1 .34-.286l.653.779a.222.222 0 0 1-.17.364zM28.768 31.055a.222.222 0 0 1-.17-.08l-.653-.778a.222.222 0 1 1 .34-.285l.653.778a.222.222 0 0 1-.17.365zM5.945 8.107a.22.22 0 0 1-.142-.052l-.779-.653a.222.222 0 1 1 .286-.34l.778.653a.222.222 0 0 1-.143.392zM30.833 28.99a.221.221 0 0 1-.143-.052l-.778-.653a.222.222 0 0 1 .285-.34l.779.653a.222.222 0 0 1-.143.392zM4.372 10.354a.221.221 0 0 1-.111-.03l-.88-.508a.222.222 0 1 1 .222-.384l.88.508a.222.222 0 0 1-.111.414zM32.508 26.598a.22.22 0 0 1-.111-.03l-.88-.508a.222.222 0 1 1 .222-.384l.88.508a.222.222 0 0 1-.111.414zM3.213 12.84a.222.222 0 0 1-.076-.013l-.955-.348a.222.222 0 0 1 .152-.417l.955.347a.222.222 0 0 1-.076.431zM33.742 23.952a.223.223 0 0 1-.076-.014l-.955-.347a.222.222 0 0 1 .152-.418l.955.348a.222.222 0 0 1-.076.43zM2.503 15.49a.225.225 0 0 1-.039-.004l-1-.176a.222.222 0 0 1 .077-.438l1 .177a.222.222 0 0 1-.038.44zM34.498 21.131a.225.225 0 0 1-.039-.003l-1-.177a.222.222 0 0 1 .077-.437l1 .176a.222.222 0 0 1-.038.441zM2.264 18.278H1.248c-.123 0-.222-.112-.222-.25s.099-.25.222-.25h1.016c.122 0 .222.112.222.25s-.1.25-.222.25zM34.752 18.278h-1.016c-.122 0-.222-.112-.222-.25s.1-.25.222-.25h1.016c.123 0 .222.112.222.25s-.099.25-.222.25zM1.502 21.131a.222.222 0 0 1-.038-.44l1-.177a.222.222 0 1 1 .077.437l-1 .177a.226.226 0 0 1-.039.003zM33.497 15.49a.222.222 0 0 1-.039-.441l1.001-.177a.222.222 0 1 1 .077.438l-1 .176a.226.226 0 0 1-.04.004zM2.258 23.952a.222.222 0 0 1-.076-.431l.955-.348a.222.222 0 0 1 .152.418l-.955.347a.22.22 0 0 1-.076.014zM32.787 12.84a.222.222 0 0 1-.076-.43l.955-.348a.222.222 0 0 1 .152.417l-.955.348a.223.223 0 0 1-.076.013zM3.492 26.598a.222.222 0 0 1-.111-.414l.88-.508a.222.222 0 1 1 .222.384l-.88.508a.22.22 0 0 1-.11.03zM31.628 10.354a.222.222 0 0 1-.111-.414l.88-.508a.222.222 0 1 1 .222.384l-.88.508a.22.22 0 0 1-.11.03zM5.167 28.99a.222.222 0 0 1-.143-.392l.779-.653a.222.222 0 0 1 .285.34l-.778.653a.22.22 0 0 1-.143.052zM30.055 8.107a.222.222 0 0 1-.143-.392l.778-.653a.222.222 0 0 1 .286.34l-.779.653a.222.222 0 0 1-.142.052zM7.232 31.055a.222.222 0 0 1-.17-.365l.653-.778a.222.222 0 0 1 .34.285l-.653.779a.222.222 0 0 1-.17.08zM28.115 6.167a.222.222 0 0 1-.17-.365l.653-.778a.222.222 0 0 1 .34.286l-.653.778a.222.222 0 0 1-.17.08zM9.624 32.73a.222.222 0 0 1-.192-.333l.508-.88a.222.222 0 1 1 .384.222l-.508.88a.222.222 0 0 1-.192.111zM25.868 4.594a.222.222 0 0 1-.192-.333l.508-.88a.222.222 0 1 1 .384.222l-.508.88a.222.222 0 0 1-.192.111zM12.27 33.964a.222.222 0 0 1-.208-.298l.347-.955a.222.222 0 1 1 .418.152l-.348.955a.222.222 0 0 1-.209.146zM23.382 3.435a.222.222 0 0 1-.209-.298l.348-.955a.222.222 0 0 1 .417.152l-.347.955a.222.222 0 0 1-.209.146zM15.091 34.72a.222.222 0 0 1-.219-.26l.177-1.001a.222.222 0 1 1 .437.077l-.176 1a.222.222 0 0 1-.219.184zM20.733 2.725a.222.222 0 0 1-.219-.26l.176-1.001a.222.222 0 0 1 .438.077l-.177 1a.222.222 0 0 1-.218.184zM16.772 4.188a.222.222 0 0 1-.221-.203l-.232-2.654a.222.222 0 1 1 .442-.039l.232 2.655a.222.222 0 0 1-.221.241zM19.46 34.91a.222.222 0 0 1-.221-.202l-.232-2.655a.222.222 0 1 1 .442-.038l.232 2.654a.222.222 0 0 1-.221.242zM14.354 4.615a.222.222 0 0 1-.215-.165l-.69-2.574a.222.222 0 1 1 .43-.115l.69 2.574a.222.222 0 0 1-.215.28zM22.336 34.404a.222.222 0 0 1-.215-.165l-.69-2.574a.222.222 0 1 1 .43-.115l.69 2.574a.222.222 0 0 1-.215.28zM12.047 5.454a.222.222 0 0 1-.202-.128L10.72 2.911a.222.222 0 1 1 .402-.188l1.127 2.416a.222.222 0 0 1-.201.315zM25.08 33.405a.222.222 0 0 1-.201-.128l-1.127-2.416a.222.222 0 1 1 .403-.187l1.126 2.415a.222.222 0 0 1-.201.316zM9.92 6.682a.222.222 0 0 1-.182-.094L8.209 4.405a.222.222 0 0 1 .364-.255l1.529 2.183a.222.222 0 0 1-.182.35zM27.609 31.945a.222.222 0 0 1-.182-.095l-1.529-2.183a.222.222 0 0 1 .364-.255l1.529 2.183a.222.222 0 0 1-.182.35zM8.039 8.26a.221.221 0 0 1-.157-.064L5.997 6.31a.222.222 0 0 1 .314-.314l1.885 1.885a.222.222 0 0 1-.157.379zM29.846 30.068a.221.221 0 0 1-.157-.065l-1.885-1.885a.222.222 0 0 1 .314-.314l1.885 1.885a.222.222 0 0 1-.157.379zM6.46 10.142a.221.221 0 0 1-.127-.04L4.15 8.573a.222.222 0 0 1 .255-.364l2.183 1.529a.222.222 0 0 1-.128.404zM31.723 27.83a.221.221 0 0 1-.128-.04l-2.183-1.528a.222.222 0 0 1 .255-.364l2.183 1.529a.222.222 0 0 1-.127.404zM5.232 12.268a.22.22 0 0 1-.093-.02L2.723 11.12a.222.222 0 1 1 .188-.402l2.415 1.126a.222.222 0 0 1-.094.423zM33.183 25.302a.221.221 0 0 1-.094-.02l-2.415-1.127a.222.222 0 1 1 .188-.403l2.415 1.127a.222.222 0 0 1-.094.423zM4.393 14.576a.22.22 0 0 1-.058-.008l-2.574-.69a.222.222 0 1 1 .115-.428l2.574.69a.222.222 0 0 1-.057.436zM34.182 22.558a.22.22 0 0 1-.058-.008l-2.574-.69a.222.222 0 1 1 .115-.428l2.574.69a.222.222 0 0 1-.057.436zM3.966 16.994h-.02l-2.654-.233a.222.222 0 1 1 .039-.442l2.654.232a.222.222 0 0 1-.019.443zM34.689 19.682h-.02l-2.654-.233a.222.222 0 1 1 .038-.442l2.655.232a.222.222 0 0 1-.02.443zM1.311 19.682a.222.222 0 0 1-.019-.443l2.655-.232a.222.222 0 1 1 .039.442l-2.655.232-.02.001zM32.034 16.994a.222.222 0 0 1-.02-.443l2.655-.232a.222.222 0 1 1 .039.442l-2.655.232-.02.001zM1.818 22.558a.222.222 0 0 1-.057-.437l2.574-.69a.222.222 0 1 1 .115.43l-2.574.69a.221.221 0 0 1-.058.007zM31.607 14.576a.222.222 0 0 1-.057-.436l2.574-.69a.222.222 0 1 1 .115.429l-2.574.69a.224.224 0 0 1-.058.007zM2.817 25.302a.222.222 0 0 1-.094-.423l2.416-1.127a.222.222 0 0 1 .187.403L2.911 25.28a.22.22 0 0 1-.094.021zM30.768 12.268a.222.222 0 0 1-.094-.423l2.415-1.126a.222.222 0 0 1 .188.402l-2.415 1.127a.22.22 0 0 1-.094.02zM4.278 27.83a.222.222 0 0 1-.128-.403l2.183-1.529a.222.222 0 1 1 .255.364l-2.183 1.529a.221.221 0 0 1-.127.04zM29.54 10.142a.222.222 0 0 1-.128-.404l2.183-1.529a.222.222 0 1 1 .255.364l-2.183 1.529a.222.222 0 0 1-.127.04zM6.154 30.068a.221.221 0 0 1-.157-.38l1.885-1.884a.222.222 0 0 1 .314.314L6.31 30.003a.222.222 0 0 1-.157.065zM27.962 8.26a.221.221 0 0 1-.157-.378l1.884-1.885a.222.222 0 0 1 .314.314l-1.884 1.885a.222.222 0 0 1-.157.065zM8.391 31.945a.222.222 0 0 1-.182-.35l1.529-2.183a.222.222 0 0 1 .364.255L8.573 31.85a.222.222 0 0 1-.182.095zM26.08 6.682a.222.222 0 0 1-.182-.35l1.529-2.182a.222.222 0 0 1 .364.255l-1.529 2.182a.222.222 0 0 1-.182.095zM10.92 33.405a.222.222 0 0 1-.201-.316l1.126-2.415a.222.222 0 0 1 .403.187l-1.127 2.416a.222.222 0 0 1-.201.128zM23.954 5.454a.222.222 0 0 1-.201-.316l1.126-2.415a.222.222 0 0 1 .402.188l-1.126 2.415a.222.222 0 0 1-.201.128zM13.664 34.404a.222.222 0 0 1-.215-.28l.69-2.574a.222.222 0 1 1 .43.115l-.69 2.574a.222.222 0 0 1-.215.165zM21.646 4.615a.222.222 0 0 1-.215-.28l.69-2.574a.222.222 0 1 1 .429.115l-.69 2.574a.222.222 0 0 1-.214.165zM16.54 34.91h-.02a.222.222 0 0 1-.201-.24l.232-2.655a.222.222 0 1 1 .442.038l-.232 2.655a.222.222 0 0 1-.22.203zM19.228 4.188h-.02a.222.222 0 0 1-.201-.241l.232-2.655a.222.222 0 1 1 .442.039l-.232 2.654a.222.222 0 0 1-.221.203z"/>
            <path d="M20.2 20.2l9.812-14.212L15.8 15.8 5.988 30.012z"/>
        </g>
        <path fill="#CCC" d="M20.198 20.198L30 6 6 30z"/>
        <path fill="#FF525D" d="M20.334 20L30 6l-14 9.666z"/>
        <path fill="#EF4152" d="M20.198 20L30 6 18 17.833z"/>
    </g>
</svg>
