<svg xmlns="http://www.w3.org/2000/svg" width="32" height="32.002" viewBox="0 0 32 32.002">
  <g id="_15_min_to_complete" data-name="15 min to complete" transform="translate(-135.268 -5.301)">
    <rect id="Rectangle_3655" data-name="Rectangle 3655" width="32" height="32" transform="translate(135.268 5.301)" fill="#333" opacity="0"/>
    <g id="Group_6625" data-name="Group 6625" transform="translate(-0.434 -37)">
      <path id="Exclusion_3" data-name="Exclusion 3" d="M19774.4-12440.868h0l-2.137-1.63,2.729-3.582a13.021,13.021,0,0,1-4.1-7.393,13.025,13.025,0,0,1,1.328-8.347,13.044,13.044,0,0,1,6.186-5.764,12.915,12.915,0,0,1,5.268-1.115,12.927,12.927,0,0,1,3.152.39,13,13,0,0,1,7.086,4.611,13.03,13.03,0,0,1,2.742,8,12.867,12.867,0,0,1-1.094,5.2,12.835,12.835,0,0,1-3.1,4.322l2.793,3.677-2.141,1.625-2.8-3.691a12.887,12.887,0,0,1-6.568,1.838h-.082a12.894,12.894,0,0,1-6.506-1.764l-2.764,3.622Zm9.645-12.444-1.187,1.425a5.469,5.469,0,0,0,4.113,1.693,4.547,4.547,0,0,0,3.055-1.019,3.5,3.5,0,0,0,1.168-2.722,3.393,3.393,0,0,0-3.631-3.458,3.873,3.873,0,0,0-2.221.67l.094-2.831h5.168v-1.824h-7.041l-.158,5.843,1.361.577a3.585,3.585,0,0,1,2.24-.771,1.941,1.941,0,0,1,2.191,1.873,2.006,2.006,0,0,1-2.191,1.933A4.3,4.3,0,0,1,19784.049-12453.312Zm-5.187-5.76v8.689h1.988v-11h-1.6l-3.09,2.1.82,1.406,1.881-1.2Z" transform="translate(-19632.451 12515.171)" fill="#333"/>
      <path id="Path_9253" data-name="Path 9253" d="M435.705,50.3l2.159-1.6h0a18.117,18.117,0,0,0-8.663-6.38l-.879,2.539a15.45,15.45,0,0,1,7.383,5.438Z" transform="translate(-272.031 -0.021)" fill="#333"/>
      <path id="Path_9254" data-name="Path 9254" d="M146.166,44.84l-.88-2.539h0a18.118,18.118,0,0,0-8.584,6.274l2.15,1.612a15.451,15.451,0,0,1,7.314-5.347Z" fill="#333"/>
    </g>
  </g>
</svg>
