<svg xmlns="http://www.w3.org/2000/svg" width="32" height="32" viewBox="0 0 32 32">
  <g id="all_questions_are_compulsory" data-name="all questions are compulsory" transform="translate(19640 -12428)">
    <rect id="Rectangle_3661" data-name="Rectangle 3661" width="32" height="32" transform="translate(-19640 12428)" fill="#333" opacity="0"/>
    <path id="Path_9260" data-name="Path 9260" d="M23.827,32H4a4,4,0,0,1-4-4V4A4,4,0,0,1,4,0H23.827a4,4,0,0,1,4,4V28A4,4,0,0,1,23.827,32ZM6.259,20.869a3.479,3.479,0,0,0-.688,6.888,3.427,3.427,0,0,0,.688.069,3.479,3.479,0,1,0,.009-6.957Zm5.567,1.391v4.174H24.349V22.261ZM6.264,12.52h0a3.478,3.478,0,0,0-.693,6.888,3.479,3.479,0,1,0,.7-6.888Zm5.563,1.393v4.173H24.349V13.913ZM6.264,4.172h0a3.479,3.479,0,0,0-.693,6.888,3.427,3.427,0,0,0,.688.069,3.479,3.479,0,1,0,.009-6.957Zm5.563,1.392V9.739H24.349V5.565ZM5.706,26.256h-.05a.361.361,0,0,1-.217-.072l-1.094-.821a.36.36,0,0,1-.072-.5.367.367,0,0,1,.238-.138.492.492,0,0,1,.052,0,.367.367,0,0,1,.214.069l.77.6,1.909-2.643a.368.368,0,0,1,.5-.079.364.364,0,0,1,.145.231.354.354,0,0,1-.059.266l-2.1,2.946a.361.361,0,0,1-.246.144Zm0-8.347h-.05a.374.374,0,0,1-.217-.072l-1.094-.821a.359.359,0,0,1-.14-.238.354.354,0,0,1,.306-.4.492.492,0,0,1,.052,0,.372.372,0,0,1,.214.068l.77.6L7.457,14.4a.367.367,0,0,1,.5-.079.359.359,0,0,1,.086.5l-2.1,2.946a.384.384,0,0,1-.108.1.371.371,0,0,1-.138.047Zm0-8.348h-.05a.361.361,0,0,1-.217-.072L4.345,8.667A.358.358,0,0,1,4.2,8.43a.356.356,0,0,1,.306-.405.492.492,0,0,1,.052,0,.367.367,0,0,1,.214.069l.77.6L7.457,6.053a.368.368,0,0,1,.5-.079.363.363,0,0,1,.145.231.358.358,0,0,1-.059.266l-2.1,2.945a.361.361,0,0,1-.246.144Z" transform="translate(-19638 12428)" fill="#333"/>
  </g>
</svg>
