<svg xmlns="http://www.w3.org/2000/svg" width="32" height="32" viewBox="0 0 32 32">
  <g id="on_the_job_performance" data-name="on the job performance" transform="translate(19638 -12594)">
    <rect id="Rectangle_3662" data-name="Rectangle 3662" width="32" height="32" transform="translate(-19638 12594)" fill="#333" opacity="0"/>
    <g id="noun-office-suitcase-970765" transform="translate(-19716.172 12547.387)">
      <path id="Path_9261" data-name="Path 9261" d="M19685.254-11906.159h-24.164a3.923,3.923,0,0,1-3.918-3.918v-15.062a3.923,3.923,0,0,1,3.918-3.918h5.055v-1.443a2.859,2.859,0,0,1,.852-2.036,2.859,2.859,0,0,1,2.035-.85h8.316a2.866,2.866,0,0,1,2.035.85,2.869,2.869,0,0,1,.85,2.036v1.443h5.021a3.923,3.923,0,0,1,3.918,3.918v15.062A3.923,3.923,0,0,1,19685.254-11906.159Zm-12.082-17.27a5.99,5.99,0,0,0-4.264,1.769,6.078,6.078,0,0,0-1.77,4.27,6.049,6.049,0,0,0,.811,3.015,6,6,0,0,0,2.209,2.208,6.026,6.026,0,0,0,3.014.811,6.069,6.069,0,0,0,3.02-.811,6.085,6.085,0,0,0,2.209-2.208,6.067,6.067,0,0,0,.8-3.015,6.075,6.075,0,0,0-.8-3.02,6.07,6.07,0,0,0-2.209-2.208A6.069,6.069,0,0,0,19673.172-11923.429Zm-4.141-7.62a.543.543,0,0,0-.549.549v1.443h9.418v-1.443a.545.545,0,0,0-.553-.549Zm1.391,17.41,0,0,.92-3.182-2.615-2.041,3.313-.113,1.131-3.113,1.131,3.113,3.316.113-2.619,2.041.918,3.181-2.746-1.852-2.748,1.854Z" transform="translate(-19579 11982.387)" fill="#333"/>
    </g>
  </g>
</svg>
