<svg xmlns="http://www.w3.org/2000/svg" width="32" height="32" viewBox="0 0 32 32">
  <g id="one_sitting" data-name="one sitting" transform="translate(19638 -12516)">
    <rect id="Rectangle_3656" data-name="Rectangle 3656" width="32" height="32" transform="translate(-19638 12516)" fill="#333" opacity="0"/>
    <g id="noun-work-2886539" transform="translate(-19709.428 12497.398)">
      <path id="Path_9257" data-name="Path 9257" d="M127.091,286.427h-4.677a1.729,1.729,0,0,0,.172-.534l1.528-10.969a1.758,1.758,0,0,0-1.743-2h-20.61a1.758,1.758,0,0,0-1.743,2l1.528,10.969a1.729,1.729,0,0,0,.172.534H97.045a.488.488,0,0,0-.49.49v1.949a.488.488,0,0,0,.49.49h30.046a.491.491,0,0,0,.49-.49v-1.949a.491.491,0,0,0-.489-.49Zm-15.023-4.2a2.12,2.12,0,1,1,2.615-2.062A2.395,2.395,0,0,1,112.068,282.226Z" transform="translate(-24.628 -238.754)" fill="#333"/>
      <path id="Path_9258" data-name="Path 9258" d="M209.414,207.868a.487.487,0,0,0-.49.1,5.946,5.946,0,0,1-8.055,0,.485.485,0,0,0-.49-.1,13.851,13.851,0,0,0-4.941,2.977h18.916A13.768,13.768,0,0,0,209.414,207.868Z" transform="translate(-117.459 -177.656)" fill="#333"/>
      <path id="Path_9259" data-name="Path 9259" d="M267.574,24.351a5.749,5.749,0,1,1-5.749-5.749,5.749,5.749,0,0,1,5.749,5.749" transform="translate(-174.384)" fill="#333"/>
    </g>
  </g>
</svg>
