<svg xmlns="http://www.w3.org/2000/svg" width="32" height="32" viewBox="0 0 32 32">
    <defs>
        <style>
            .cls-2{fill:none}
        </style>
    </defs>
    <g id="Group_1741" data-name="Group 1741" transform="translate(-418 -827)">
        <path id="right-arrow_1_" fill="#333" stroke="#333" stroke-width="0.6px" d="M8.7 4.956a.944.944 0 0 1 1.342 1.328l-6.8 6.8h22.45a.935.935 0 0 1 .939.94.945.945 0 0 1-.939.953H3.234l6.8 6.791a.963.963 0 0 1 0 1.342.94.94 0 0 1-1.342 0L.282 14.7a.924.924 0 0 1 0-1.328z" data-name="right-arrow (1)" transform="translate(420.501 828.826)"/>
        <path id="Rectangle_2295" d="M0 0H32V32H0z" class="cls-2" data-name="Rectangle 2295" transform="translate(418 827)"/>
        <path id="Rectangle_2295-2" d="M0 0H32V32H0z" class="cls-2" data-name="Rectangle 2295" transform="translate(418 827)"/>
    </g>
</svg>
