<svg xmlns="http://www.w3.org/2000/svg" width="20" height="20" viewBox="0 0 20 20">
    <defs>
        <style>
            .cls-1{fill:#fff}
        </style>
    </defs>
    <g id="Group_2441" data-name="Group 2441" transform="translate(-175 -430)">
        <g id="task_1_" data-name="task (1)" transform="translate(161.5 432)">
            <path id="Path_6655" d="M260.149 274a3.649 3.649 0 1 0 3.68 3.649 3.653 3.653 0 0 0-3.68-3.649zm1.12 3.208l-1.227 1.472a.46.46 0 0 1-.765-.089l-.491-.981a.46.46 0 0 1 .823-.411l.176.352.776-.932a.46.46 0 1 1 .707.589z" class="cls-1" data-name="Path 6655" transform="translate(-232.64 -265.598)"/>
            <path id="Path_6656" d="M27.31 2.62L25.444.69A2.315 2.315 0 0 0 23.8 0h-5.92a1.381 1.381 0 0 0-1.38 1.38v11.929a1.381 1.381 0 0 0 1.38 1.38h5.9a4.567 4.567 0 0 1 3.729-7.206q.233 0 .46.023V4.231a2.287 2.287 0 0 0-.659-1.611zm-5.935 7.652h-2.452a.46.46 0 1 1 0-.92h2.453a.46.46 0 0 1 0 .92zm0-2.453h-2.452a.46.46 0 1 1 0-.92h2.453a.46.46 0 0 1 0 .92zm0-2.453h-2.452a.46.46 0 1 1 0-.92h2.453a.46.46 0 0 1 0 .92zM24.32 7.82h-.491a.46.46 0 0 1 0-.92h.491a.46.46 0 1 1 0 .92zm0-2.453h-.491a.46.46 0 0 1 0-.92h.491a.46.46 0 1 1 0 .92z" class="cls-1" data-name="Path 6656"/>
        </g>
        <path id="Rectangle_2624" fill="none" d="M0 0H20V20H0z" data-name="Rectangle 2624" transform="translate(175 430)"/>
    </g>
</svg>
