<svg xmlns="http://www.w3.org/2000/svg" width="16.2" height="16.2" viewBox="0 0 16.2 16.2">
    <defs>
        <style>
            .cls-1{fill:#44d556}.cls-2{fill:none;stroke:#44d556;stroke-width:.2px}
        </style>
    </defs>
    <g id="Symbols" transform="translate(-3.9 -3.9)">
        <g id="Info" transform="translate(4 4)">
            <g id="info-2">
                <path id="Shape" d="M12 4a8 8 0 1 0 8 8 8 8 0 0 0-8-8zm0 14.933A6.933 6.933 0 1 1 18.933 12 6.941 6.941 0 0 1 12 18.933z" class="cls-1" transform="translate(-4 -4)"/>
                <path id="Path" d="M12.294 10.8a.553.553 0 0 0-.553.553v4.665a.553.553 0 0 0 1.106 0V11.35a.553.553 0 0 0-.553-.55z" class="cls-1" transform="translate(-4.294 -4.37)"/>
                <path id="Path-2" d="M12.294 7.8A1.106 1.106 0 1 0 13.4 8.906 1.107 1.107 0 0 0 12.294 7.8z" class="cls-1" transform="translate(-4.294 -4.156)"/>
                <path id="Shape-Copy" d="M12 4a8 8 0 1 0 8 8 8 8 0 0 0-8-8zm0 14.933A6.933 6.933 0 1 1 18.933 12 6.941 6.941 0 0 1 12 18.933z" class="cls-2" transform="translate(-4 -4)"/>
                <path id="Path-Copy-2" d="M12.294 10.8a.553.553 0 0 0-.553.553v4.665a.553.553 0 0 0 1.106 0V11.35a.553.553 0 0 0-.553-.55z" class="cls-2" transform="translate(-4.294 -4.37)"/>
            </g>
        </g>
    </g>
</svg>
