<svg xmlns="http://www.w3.org/2000/svg" width="112" height="160" viewBox="0 0 112 160">
    <defs>
        <clipPath id="clip-path">
            <rect id="Rectangle_2599" width="112" height="160" fill="#f2472e" opacity="0.15" rx="10" transform="translate(1211 713)"/>
        </clipPath>
        <style>
            .cls-4{fill:#3fb1b5}.cls-18,.cls-19,.cls-21,.cls-24,.cls-28,.cls-31,.cls-32,.cls-5,.cls-6,.cls-7{fill:none}.cls-5,.cls-6{stroke:#ffcf2d}.cls-21,.cls-24,.cls-29,.cls-31,.cls-32,.cls-5,.cls-8{stroke-linecap:round}.cls-17,.cls-18,.cls-19,.cls-21,.cls-24,.cls-28,.cls-29,.cls-31,.cls-32,.cls-5,.cls-6,.cls-7,.cls-8{stroke-miterlimit:10}.cls-17,.cls-18,.cls-19,.cls-28,.cls-31,.cls-5,.cls-6,.cls-7,.cls-8{stroke-width:.176px}.cls-7{stroke:#66b0f0}.cls-11,.cls-17,.cls-29,.cls-8{fill:#fff}.cls-29,.cls-8{stroke:#3fb1b5}.cls-9{fill:#fe5244}.cls-10{opacity:.2}.cls-12{fill:#a0505a}.cls-13{fill:#73325a}.cls-14{fill:#ffcf2d}.cls-28,.cls-32{stroke:#fff}.cls-29,.cls-32{stroke-width:.147px}.cls-17,.cls-18,.cls-19{stroke:#fe5244}.cls-19{stroke-linejoin:round}.cls-21{stroke:#73325a}.cls-21,.cls-24{stroke-width:.117px}.cls-22{fill:#e57281}.cls-23{fill:#9a3b82}.cls-24,.cls-31{stroke:#9a3b82}
        </style>
    </defs>
    <g id="Group_2847" transform="translate(-1205 -559)">
        <rect id="Rectangle_2599-2" width="112" height="160" fill="#fde7eb" rx="10" transform="translate(1205 559)"/>
        <g id="Mask_Group_10" clip-path="url(#clip-path)" transform="translate(-6 -154)">
            <g id="_7_SCENE" transform="translate(1018.389 648.653)">
                <g id="PLANTS" transform="translate(17.708 223.014)">
                    <g id="Group_2720" transform="translate(282.32 7.716)">
                        <path id="Path_7122" d="M114.789 104.656S126.8 83.1 119.506 82.978c-3.4-.055-6.893 11.61-5.571 21.678z" class="cls-4" transform="translate(-95.939 -81.204)"/>
                        <path id="Path_7123" d="M113.846 101.626s4.46-20.182 15.235-16.924-7.618 16.924-7.618 16.924" class="cls-5" transform="translate(-95.519 -78.293)"/>
                        <path id="Path_7124" d="M111.894 99.207c-3.735-.349-5.846-7.03-1.423-9.26 6.36-3.2 8.352 3.488 7.094 3.708s-3.029-8.233 2.46-8 5.69 13.207 5.69 13.207" class="cls-5" transform="translate(-107.986 -75.525)"/>
                        <path id="Path_7125" d="M115.29 101.24s5.736-13.932 11.325-16.713" class="cls-5" transform="translate(-92.447 -77.907)"/>
                        <path id="Path_7126" d="M114.291 95.993a95.157 95.157 0 0 1-1.4-12.4" class="cls-6" transform="translate(-97.56 -79.892)"/>
                        <path id="Path_7127" d="M115.551 85.867a12.431 12.431 0 0 1-2.322 2.3 12.593 12.593 0 0 1-.064-3.276 1.288 1.288 0 0 1 2.386.973z" class="cls-6" transform="translate(-97.188 -78.833)"/>
                        <path id="Path_7128" d="M115.331 84.185a12.432 12.432 0 0 1-2.322 2.3 12.6 12.6 0 0 1-.064-3.276 1.28 1.28 0 0 1 1.67-.707 1.3 1.3 0 0 1 .716 1.683z" class="cls-6" transform="translate(-97.656 -82.411)"/>
                        <path id="Path_7129" d="M112.265 86.2a12.42 12.42 0 0 0 2.717 1.817 12.6 12.6 0 0 0-.56-3.221 1.287 1.287 0 0 0-2.157 1.4z" class="cls-6" transform="translate(-99.325 -78.585)"/>
                    </g>
                    <g id="Group_2723" transform="translate(6.633)">
                        <path id="Path_7130" d="M33.52 111.488s-7.379-6.663-7.232-11.445c.165-5.47 5.4-2.827 5.672-4.8s-5.525-15.4 2.561-15.3 4.323 12.987 6.516 14.18 5.828-.229 4.846 4.984-9.15 12.317-9.15 12.317z" class="cls-4" transform="translate(-6.095 -79.943)"/>
                        <path id="Path_7131" d="M25.1 111.179c-4.782 0-8.462-8.737-1.092-11.05s8.177 4.653 6.571 4.919-2.4-13.381 10.857-11.527c14.473 2.019 5.626 17.658 5.626 17.658a35.212 35.212 0 0 0 .688-31.168" class="cls-5" transform="translate(-19.83 -79.799)"/>
                        <g id="Group_2721" transform="translate(37.255 19.715)">
                            <path id="Path_7132" d="M31.743 97.912s7.489-15.676 14.675-10.683-9.683 10.683-9.683 10.683" class="cls-5" transform="translate(-31.743 -86.247)"/>
                            <path id="Path_7133" d="M32.605 97.038s7.278-9.728 12.078-10.444" class="cls-5" transform="translate(-29.907 -85.511)"/>
                        </g>
                        <g id="Group_2722" transform="translate(30.766 8.36)">
                            <path id="Path_7134" d="M29.668 99.881a126.613 126.613 0 0 1 7.425-14.6" class="cls-5" transform="translate(-29.668 -76.953)"/>
                            <path id="Path_7135" d="M35.2 89.242c-.771.532-4.213.854-4.213.854s1.533-3.1 2.294-3.634a1.689 1.689 0 1 1 1.919 2.78z" class="cls-6" transform="translate(-26.852 -75.079)"/>
                            <path id="Path_7136" d="M36.178 87.24c-.771.532-4.213.854-4.213.854s1.533-3.1 2.294-3.634a1.689 1.689 0 0 1 1.918 2.781z" class="cls-6" transform="translate(-24.779 -79.337)"/>
                            <path id="Path_7137" d="M36.124 85.206c-.5.789-3.533 2.441-3.533 2.441s.174-3.451.679-4.24a1.687 1.687 0 1 1 2.854 1.8z" class="cls-6" transform="translate(-23.45 -82.617)"/>
                            <path id="Path_7138" d="M30.3 87.231c-.009.936 1.661 3.965 1.661 3.965s1.707-3.01 1.716-3.937a1.689 1.689 0 0 0-3.377-.028z" class="cls-6" transform="translate(-28.319 -76.354)"/>
                            <path id="Path_7139" d="M31.393 85.253c-.009.936 1.661 3.965 1.661 3.965s1.707-3.01 1.716-3.937a1.689 1.689 0 0 0-3.377-.028z" class="cls-6" transform="translate(-25.997 -80.562)"/>
                        </g>
                    </g>
                    <path id="Line_229" d="M0 0L77.351 0" class="cls-7" transform="translate(263.027 31.398)"/>
                    <path id="Line_230" d="M0 0L186.622 0" class="cls-7" transform="translate(0 31.398)"/>
                </g>
                <g id="_x32__CHARACTER" transform="translate(192.628 88.777)">
                    <g id="SHIRT" transform="translate(6.786 14.523)">
                        <path id="Path_7217" d="M116.647 47.452H158a25.349 25.349 0 0 1 20.9 11l18.944 27.9a3.344 3.344 0 0 1-2.607 5.361h-21.094l-8.422-11.008a1.837 1.837 0 0 0-3.324.929l-1.7 20.727H115.6l-3.8-21.076a1.838 1.838 0 0 0-3.324-.792l-7.736 9.963H75.529L95.2 59.283a25.372 25.372 0 0 1 21.447-11.831z" class="cls-8" transform="translate(-75.529 -47.452)"/>
                        <g id="Group_2794" transform="translate(56.452 10.765)">
                            <path id="Path_7218" d="M101.085 50.446l6.7 22.258H91.228l7.356-22.258z" class="cls-9" transform="translate(-91.228 -50.446)"/>
                            <g id="Group_2793" class="cls-10" transform="translate(.95 .053)">
                                <g id="Group_2786" transform="translate(3.124)">
                                    <g id="Group_2783" transform="translate(0 8.548)">
                                        <path id="Path_7219" d="M92.8 52.838v13.656h-.44V54.178l.148-.454z" class="cls-11" transform="translate(-92.36 -52.838)"/>
                                    </g>
                                    <g id="Group_2784" transform="translate(4.717)">
                                        <path id="Rectangle_2648" d="M0 0H0.443V22.205H0z" class="cls-11"/>
                                    </g>
                                    <g id="Group_2785" transform="translate(9.435 12.063)">
                                        <path id="Path_7220" d="M95.427 55.293v8.665h-.443V53.815z" class="cls-11" transform="translate(-94.984 -53.815)"/>
                                    </g>
                                </g>
                                <g id="Group_2792">
                                    <g id="Group_2787" transform="translate(0 18.87)">
                                        <path id="Path_7221" d="M106.235 56.162H91.492l.148-.454h14.46z" class="cls-11" transform="translate(-91.492 -55.708)"/>
                                    </g>
                                    <g id="Group_2788" transform="translate(1.562 14.153)">
                                        <path id="Path_7222" d="M103.683 54.85H91.926l.148-.454h11.472z" class="cls-11" transform="translate(-91.926 -54.396)"/>
                                    </g>
                                    <g id="Group_2789" transform="translate(3.124 9.435)">
                                        <path id="Path_7223" d="M101.141 53.538H92.36l.148-.454H101z" class="cls-11" transform="translate(-92.36 -53.084)"/>
                                    </g>
                                    <g id="Group_2790" transform="translate(4.686 4.717)">
                                        <path id="Path_7224" d="M98.589 52.226h-5.794l.148-.454h5.509z" class="cls-11" transform="translate(-92.795 -51.772)"/>
                                    </g>
                                    <g id="Group_2791" transform="translate(6.248)">
                                        <path id="Path_7225" d="M96.036 50.914h-2.807l.148-.454h2.533z" class="cls-11" transform="translate(-93.229 -50.461)"/>
                                    </g>
                                </g>
                            </g>
                        </g>
                        <path id="Path_7226" d="M94.8 57.985l2.7 2.9 8.707-13.435H98.5z" class="cls-8" transform="translate(-25.496 -47.452)"/>
                        <path id="Path_7227" d="M101.344 57.985l-2.712 2.9L89.2 47.452h8.44z" class="cls-8" transform="translate(-40.048 -47.452)"/>
                    </g>
                    <g id="HAND_1_" transform="translate(93.706 50.198)">
                        <path id="Path_7228" d="M138.4 68.514a11.183 11.183 0 0 1-9.572 11.092l-23.883 3.514-5.245.77V63.586l1.615-.38 23.3-5.53a11.181 11.181 0 0 1 11.8 4.549 10.969 10.969 0 0 1 1.985 6.289z" class="cls-12" transform="translate(-99.7 -57.373)"/>
                        <path id="Path_7229" d="M104.946 78.91l-5.245.77V59.375l1.615-.38z" class="cls-13" transform="translate(-99.7 -53.162)"/>
                    </g>
                    <g id="LAPTOP" transform="translate(43.502 47.546)">
                        <path id="Path_7230" d="M135.944 91H85.74V60.867a4.232 4.232 0 0 1 4.232-4.232H131.7a4.232 4.232 0 0 1 4.232 4.232V91z" class="cls-14" transform="translate(-85.74 -56.635)"/>
                        <path id="Path_7231" fill="none" stroke="#fff" stroke-miterlimit="10" stroke-width="0.147px" d="M98.876 65.6h-6.2a1.135 1.135 0 0 1-1.14-1.14v-2.6a1.135 1.135 0 0 1 1.14-1.14h6.2a1.135 1.135 0 0 1 1.14 1.14v2.6a1.142 1.142 0 0 1-1.14 1.14z" transform="translate(-70.677 -46.015)"/>
                    </g>
                    <g id="LEGS_1_" transform="translate(0 48.734)">
                        <g id="RIGHT_1_" transform="translate(13.132 24.703)">
                            <path id="LEG_1_" fill="#0096a0" d="M90.644 71.98l53.148-7.947a17.1 17.1 0 0 1 19.662 16.907 17.093 17.093 0 0 1-17.1 17.1H90.992z" transform="translate(-42.638 -63.835)"/>
                            <g id="SHOES_1_" transform="translate(0 18.673)">
                                <path id="Path_7232" d="M118.113 89.211l-31.988 6.174c-4.074.865-8.169-2.533-8.348-6.923L77.3 76.789c-.243-5.91 5.425-9.467 10.765-6.934z" class="cls-17" transform="translate(-77.294 -69.028)"/>
                                <path id="Path_7233" d="M86.567 94.716c-3.937.823-7.915-2.48-8.105-6.754l-.5-11.335c-.253-5.741 5.214-9.161 10.385-6.691" class="cls-18" transform="translate(-75.573 -68.781)"/>
                                <path id="Path_7234" d="M80.29 69.255l30.046 19.366-6.849 1.319z" class="cls-9" transform="translate(-69.517 -68.438)"/>
                                <g id="Group_2795" transform="translate(9.728 6.474)">
                                    <path id="Path_7235" d="M92.461 72.613L88.5 80.5l-3.912-9.27-4.527 10.406" class="cls-19" transform="translate(-79.839 -69.784)"/>
                                    <path id="Path_7236" d="M80 70.828l4.433 11.06 4.338-8.833 3.367 7.366" class="cls-19" transform="translate(-79.999 -70.828)"/>
                                </g>
                            </g>
                        </g>
                        <g id="LEFT_1_">
                            <g id="LEG">
                                <path id="Path_7237" d="M152.436 106.055c-1.773-1.456-6.9 1.857-11.461 7.4s-6.818 11.219-5.045 12.675c-.264-.158-33.582-21.055-54.257-35.313A18.568 18.568 0 1 1 105.536 62.6z" class="cls-4" transform="translate(-73.642 -56.966)"/>
                                <ellipse id="Ellipse_1524" cx="12.991" cy="4.158" fill="#fe5244" stroke="#fff" stroke-miterlimit="10" stroke-width="0.176px" rx="12.991" ry="4.158" transform="rotate(-50.56 99.983 -29.287)"/>
                            </g>
                            <g id="SHOES" transform="translate(64.631 50.936)">
                                <path id="Path_7238" d="M120.448 87.52l-5.931 10.068a7.394 7.394 0 0 1-12.918.169l-9.984-16.084a37.7 37.7 0 0 1 3.124-4.373 31.928 31.928 0 0 1 6.554-6.174l15.894 6.047c3.883 1.493 5.488 6.558 3.261 10.347z" class="cls-17" transform="translate(-91.615 -71.13)"/>
                                <path id="Path_7239" d="M109.017 72.63c3.673 1.425 4.971 6.184 2.871 9.826l-5.593 9.657a6.913 6.913 0 0 1-12.179.169" class="cls-18" transform="translate(-85.124 -67.237)"/>
                                <g id="Group_2796" transform="translate(4.39 5.287)">
                                    <path id="Path_7240" d="M92.836 77.021l8.084-4.095-2.427 9.741 9.667-5.931" class="cls-19" transform="translate(-92.836 -71.755)"/>
                                    <path id="Path_7241" d="M99.4 87.418l2.512-11.345-8.242 4.063 1.266-7.536" class="cls-19" transform="translate(-90.672 -72.601)"/>
                                </g>
                            </g>
                        </g>
                    </g>
                    <g id="HEAD_3_" transform="translate(59.561)">
                        <path id="HEAD_2_" d="M114.694 53.674a2.564 2.564 0 0 1-2.554 2.406h-2.332l-.148 2.459a4.628 4.628 0 0 1-4.243 4.095h-5.9a4.637 4.637 0 0 1-4.243-4.095l-.148-2.459h-2.363a2.563 2.563 0 0 1-2.554-2.417 2.588 2.588 0 0 1 2.607-2.7h1.995l-.222-3.747a1.376 1.376 0 0 1 1.372-1.456h13.023a1.376 1.376 0 0 1 1.372 1.456l-.222 3.747h2.016a2.571 2.571 0 0 1 2.544 2.711z" class="cls-12" transform="translate(-90.205 -37.325)"/>
                        <path id="HAIR_1_" d="M108.252 57.051h2.121s2.026-7.356.074-9.245-13.941-6.237-17.815-3.525c-2.828 1.984-1.288 12.77-1.288 12.77h1.562s6.3-4.517 7.293-4.126-2.85 2.29-2.079 2.66c2.881 1.383 8.063-3.63 9.256-3.63s.876 5.096.876 5.096z" class="cls-13" transform="translate(-88.333 -43.414)"/>
                        <g id="FACE" transform="translate(2.136 14.826)">
                            <path id="Path_7242" d="M97.28 48.173a3.264 3.264 0 0 0-3.156-.39" class="cls-21" transform="translate(-82.167 -47.537)"/>
                            <path id="Path_7243" d="M96.425 49.386s-.76 1.625-3.061.781" class="cls-21" transform="translate(-84.14 -42.734)"/>
                            <path id="Path_7244" d="M92.079 47.69s2.8-.623 3.641 1.108c.517 1.066.264 4.791.865 4.834s1.509 0 1.509 0" class="cls-21" transform="translate(-87.477 -47.422)"/>
                            <ellipse id="Ellipse_1525" cx=".496" cy=".823" class="cls-13" rx=".496" ry=".823" transform="translate(12.728 1.861)"/>
                            <ellipse id="Ellipse_1526" cx=".496" cy=".823" class="cls-13" rx=".496" ry=".823" transform="translate(6.311 1.861)"/>
                            <path id="Path_7245" d="M92.752 49.392a1.954 1.954 0 0 0-1.952-1.837" class="cls-21" transform="translate(-90.799 -47.488)"/>
                            <path id="Path_7246" d="M95.847 49.49a2.069 2.069 0 0 1 2.053-1.952" class="cls-21" transform="translate(-77.695 -47.534)"/>
                        </g>
                    </g>
                </g>
                <g id="_x31__CHARACTER" transform="translate(71.059 127.905)">
                    <g id="HEAD_1_" transform="translate(14.54)">
                        <g id="HAIR">
                            <path id="Path_7247" d="M63.334 62.765c0-.6-.028-1.175-.073-1.716-.56-.248-4.093-1.946-4.984-5 0 0-2.68 5.424-6.663 4.8a.034.034 0 0 1-.028-.009h-.009l-.964-.5c-.018-.009-.028-.018-.046-.018A1.823 1.823 0 0 0 48 61.617a11.3 11.3 0 0 1-.551-2.276C46.74 54 49.686 49.53 54.578 49.53c4.46 0 8.746 4.194 9.426 8.627a7.6 7.6 0 0 1-.67 4.608z" class="cls-14" transform="translate(-22.56 -49.53)"/>
                            <path id="Path_7248" d="M65.645 53.968c-.431 2.533-9.885-1-11.986 3.231-1.367 2.763.743 6.094-5.195 6.379-7.076.33-9.949 4.2-8.8 13.179L58.991 66.5l5.4-4.809 2.35-7.223z" class="cls-14" transform="translate(-39.418 -40.091)"/>
                        </g>
                        <g id="NECK" transform="translate(24.97 14.391)">
                            <path id="Path_7249" d="M59.673 59.584V62.1L53.7 65.714l-6.3-4.359 2.35-7.223z" class="cls-22" transform="translate(-47.403 -54.132)"/>
                            <path id="Path_7250" d="M48.5 54.314l2.863 11.013 5.975-3.616V59.2z" class="cls-23" transform="translate(-45.068 -53.745)"/>
                        </g>
                        <g id="HEAD" transform="translate(25.42 6.516)">
                            <path id="Path_7251" d="M62.9 58.387c0 4.1-2.634 7.434-5.883 7.434-2.662 0-5.02-2.23-5.791-5.3l-2.689-1.377a1.823 1.823 0 0 1-.725-.67 1.77 1.77 0 0 1-.266-.945 1.816 1.816 0 0 1 2.643-1.615l1 .5v-.009c3.983.615 6.663-4.8 6.663-4.8.89 3.056 4.424 4.745 4.984 5 .046.571.064 1.158.064 1.782z" class="cls-22" transform="translate(-47.546 -51.614)"/>
                            <g id="Group_2797" transform="translate(1.68 5.351)">
                                <path id="Path_7252" d="M54.689 53.644a2.359 2.359 0 0 0-2.386.3c-1.129 1.138-.881 4.405-.881 4.405" class="cls-24" transform="translate(-41.032 -53.075)"/>
                                <path id="Path_7253" d="M52.408 53.448a4.95 4.95 0 0 0-2.432.552" class="cls-24" transform="translate(-44.057 -53.072)"/>
                                <path id="Path_7254" d="M49.212 54.61a1.635 1.635 0 0 0-1.129-1.285" class="cls-24" transform="translate(-48.083 -53.325)"/>
                                <ellipse id="Ellipse_1527" cx=".716" cy=".431" class="cls-23" rx=".716" ry=".431" transform="rotate(-74.81 5.462 -3.005)"/>
                                <ellipse id="Ellipse_1528" cx=".716" cy=".431" class="cls-23" rx=".716" ry=".431" transform="rotate(-74.81 7.831 -5.854)"/>
                                <path id="Path_7255" d="M52.654 55.989s-1.588.422-2.047-.918" class="cls-24" transform="translate(-42.714 -49.61)"/>
                            </g>
                        </g>
                    </g>
                    <g id="BLOUSE" transform="translate(1.423 21.614)">
                        <path id="Path_7256" fill="#fff" stroke="#fe5244" stroke-miterlimit="10" stroke-width="0.147px" d="M61.564 57.985h35.747a12.393 12.393 0 0 1 11.335 7.379l6.755 13.9-60.638 29.36-19.54-8.37L45.86 69.118a16.647 16.647 0 0 1 15.704-11.133z" transform="translate(-35.223 -53.158)"/>
                        <g id="Group_2817" transform="translate(34.665 4.525)">
                            <path id="Path_7257" d="M54.742 64.322l-2.964-1.753 4.112-4.681h.294l4.167 4.369-2.892 1.753 12.408 25.57-23.559 11.52z" class="cls-9" transform="translate(-46.308 -57.889)"/>
                            <g id="Group_2816" class="cls-10" transform="translate(1.037 1.065)">
                                <g id="Group_2804" transform="translate(2.111)">
                                    <g id="Group_2798" transform="translate(0 26.818)">
                                        <path id="Path_7258" d="M47.682 66.8v10.412h-.367V68.4z" class="cls-11" transform="translate(-47.315 -66.804)"/>
                                    </g>
                                    <g id="Group_2799" transform="translate(3.864 1.432)">
                                        <path id="Path_7259" d="M48.917 61.407v27.277h-.367V63l.229-.991.083-.367z" class="cls-11" transform="translate(-48.55 -52.899)"/>
                                        <path id="Path_7260" d="M48.917 58.687V62l-.367-.211v-2.68z" class="cls-11" transform="translate(-48.55 -58.687)"/>
                                    </g>
                                    <g id="Group_2800" transform="translate(7.737)">
                                        <path id="Path_7261" d="M50.156 58.614v36.262l-.367.174V58.229z" class="cls-11" transform="translate(-49.789 -58.229)"/>
                                    </g>
                                    <g id="Group_2801" transform="translate(11.61 12.491)">
                                        <path id="Path_7262" d="M51.394 62.976v21.5l-.367.184V62.223z" class="cls-11" transform="translate(-51.027 -62.223)"/>
                                    </g>
                                    <g id="Group_2802" transform="translate(15.483 20.457)">
                                        <path id="Path_7263" d="M52.633 65.532V77.17l-.367.184V64.771z" class="cls-11" transform="translate(-52.265 -64.771)"/>
                                    </g>
                                    <g id="Group_2803" transform="translate(19.347 28.442)">
                                        <path id="Path_7264" d="M53.868 68.076v1.771l-.367.174v-2.7z" class="cls-11" transform="translate(-53.501 -67.324)"/>
                                    </g>
                                </g>
                                <g id="Group_2815" transform="translate(0 2.441)">
                                    <g id="Group_2805" transform="translate(0 34.83)">
                                        <path id="Path_7265" d="M55.579 70.147l-.753.367H46.64l.083-.367z" class="cls-11" transform="translate(-46.64 -70.147)"/>
                                    </g>
                                    <g id="Group_2806" transform="translate(.881 30.957)">
                                        <path id="Path_7266" d="M62.891 68.909l-.753.367H46.921l.092-.367z" class="cls-11" transform="translate(-46.921 -68.909)"/>
                                    </g>
                                    <g id="Group_2807" transform="translate(1.771 27.084)">
                                        <path id="Path_7267" d="M67.6 68.037H47.206l.083-.367h20.136z" class="cls-11" transform="translate(-47.206 -67.67)"/>
                                    </g>
                                    <g id="Group_2808" transform="translate(2.662 23.22)">
                                        <path id="Path_7268" d="M65.121 66.8h-17.63l.083-.367h17.364z" class="cls-11" transform="translate(-47.491 -66.435)"/>
                                    </g>
                                    <g id="Group_2809" transform="translate(3.543 19.347)">
                                        <path id="Path_7269" d="M62.64 65.563H47.772l.092-.367h14.6z" class="cls-11" transform="translate(-47.772 -65.196)"/>
                                    </g>
                                    <g id="Group_2810" transform="translate(4.433 15.474)">
                                        <path id="Path_7270" d="M60.153 64.325h-12.1l.083-.367h11.843z" class="cls-11" transform="translate(-48.057 -63.958)"/>
                                    </g>
                                    <g id="Group_2811" transform="translate(5.323 11.61)">
                                        <path id="Path_7271" d="M57.676 63.089h-9.334l.083-.367h9.068z" class="cls-11" transform="translate(-48.342 -62.722)"/>
                                    </g>
                                    <g id="Group_2812" transform="translate(6.204 7.737)">
                                        <path id="Path_7272" d="M55.195 61.851h-6.572l.083-.367h6.314z" class="cls-11" transform="translate(-48.623 -61.484)"/>
                                    </g>
                                    <g id="Group_2813" transform="translate(7.094 3.864)">
                                        <path id="Path_7273" d="M52.717 60.612h-3.809l.083-.367h3.543z" class="cls-11" transform="translate(-48.908 -60.245)"/>
                                    </g>
                                    <g id="Group_2814" transform="translate(5.14)">
                                        <path id="Path_7274" d="M55.671 59.377h-7.388l.321-.367h6.718z" class="cls-11" transform="translate(-48.283 -59.01)"/>
                                    </g>
                                </g>
                            </g>
                        </g>
                        <path id="Line_237" fill="none" stroke="#fe5244" stroke-miterlimit="10" stroke-width="0.147px" d="M2.882 0L0 9.728" transform="translate(22.183 24.743)"/>
                        <path id="Path_7275" fill="#fff" stroke="#fe5244" stroke-linejoin="round" stroke-miterlimit="10" stroke-width="0.147px" d="M68.392 61.251l-6.8 3.891-4.066-4.176h-.294l-4.02 4.5-7.535-4.213 5.488-4.809 6.2 4.359 5.975-3.616z" transform="translate(-12.986 -56.442)"/>
                    </g>
                    <g id="BOOK" transform="translate(42.787 35.044)">
                        <path id="Path_7276" d="M98.892 61.625L91.77 84.257H48.45l7.122-22.632z" class="cls-4" transform="translate(-48.45 -58.847)"/>
                        <path id="Line_238" d="M0 22.632L7.122 0" class="cls-28" transform="translate(23.036 2.778)"/>
                        <path id="Path_7277" d="M50.989 63.514a24.979 24.979 0 0 1 13.28-2.726c7.856.486 8.958 2.726 8.958 2.726z" class="cls-29" transform="translate(-43.05 -60.736)"/>
                        <path id="Path_7278" d="M76.8 62.99s-10.224-4.515-18.7 0z" class="cls-29" transform="translate(-27.923 -60.212)"/>
                    </g>
                    <g id="LEGS" transform="translate(20.09 49.792)">
                        <g id="RIGHT" transform="translate(28.101 13.194)">
                            <path id="Path_7279" d="M73.5 90.8l-21.049 16.63a5.572 5.572 0 0 0-.725 8.067l14.464 16.41s1.377-1.019.918-5.112a31.238 31.238 0 0 1 .918-10.958l31.158-22.22a18.588 18.588 0 0 0 7.8-14.877 8.923 8.923 0 0 0-15.272-6.4z" class="cls-22" transform="translate(-49.861 -69.671)"/>
                            <path id="Path_7280" fill="#fff" stroke="#9a3b82" stroke-linecap="round" stroke-miterlimit="10" stroke-width="0.176px" d="M68.02 101.455a31.49 31.49 0 0 0-.918 10.958c.459 4.1-.918 5.121-.918 5.121l-14.464-16.41a5.579 5.579 0 0 1 .725-8.067l6.755-5.341c.2-.147.4-.3.606-.459l8.59-6.792 5.1-4.038s-.285 6.709 2.873 19.072z" transform="translate(-49.866 -55.299)"/>
                            <g id="Group_2819" transform="translate(0 33.895)">
                                <path id="Path_7281" d="M67.755 104.28a9.86 9.86 0 0 1-.147 3.543 3.386 3.386 0 0 1-.165.514 2.668 2.668 0 0 1-.826 1.257l-15-17.006a5.78 5.78 0 0 1-.028-7.608 5.6 5.6 0 0 1 .789-.753l.486-.385 4.222-3.332c-.275 1.836.909 4.91 3.185 7.81 2.882 3.671 6.709 5.626 8.379 4.616a33.82 33.82 0 0 0-.895 11.344z" class="cls-14" transform="translate(-50.178 -80.51)"/>
                                <g id="Group_2818" transform="translate(.886 3.322)">
                                    <path id="Path_7282" d="M67.015 105.563a3.384 3.384 0 0 1-.165.514L51.964 89.19a5.97 5.97 0 0 1-1.478-4.515A6.144 6.144 0 0 1 51 82.71a5.6 5.6 0 0 1 .789-.753l.486-.385a5.443 5.443 0 0 0-1.331 3.139 5.521 5.521 0 0 0 1.367 4.176z" class="cls-11" transform="translate(-50.462 -81.572)"/>
                                </g>
                                <path id="Path_7283" d="M59.036 85.861s-4.038-1.606-4.58 0 4.277 2.625 4.277 2.625z" class="cls-11" transform="translate(-41.166 -70.644)"/>
                            </g>
                        </g>
                        <g id="LEFT">
                            <path id="Path_7284" d="M90.838 77.993v50.285c-5.846 5.938-13.611 2.744-13.611 2.744-6.856-19.732-6.4-30.691-6.4-30.691l-5.1 4.029c-13.051-8.15-14.115-26.9-14.143-27.35L72.85 66.722a12.525 12.525 0 0 1 17.988 11.271z" class="cls-22" transform="translate(-19.086 -65.449)"/>
                            <path id="Path_7285" d="M59.771 66.716a12.527 12.527 0 0 1 17.979 11.27v50.285c-5.846 5.938-13.611 2.744-13.611 2.744-6.847-19.732-6.4-30.7-6.4-30.7" class="cls-31" transform="translate(-5.998 -65.452)"/>
                            <g id="SKIRT" transform="translate(0 11.543)">
                                <path id="Path_7286" d="M87.834 96.5l-8.59 6.792c-15.4 12.179-38.051 1.211-38.051-18.42l32.5-15.731v.009c.026.461 1.1 19.212 14.141 27.35z" class="cls-9" transform="translate(-41.193 -69.143)"/>
                                <g id="Group_2843" class="cls-10" transform="translate(.165 .661)">
                                    <g id="Group_2831" transform="translate(3.524)">
                                        <g id="Group_2820" transform="translate(0 13.115)">
                                            <path id="Path_7287" d="M42.739 73.549v15.244c-.128-.184-.248-.367-.367-.551V73.723z" class="cls-11" transform="translate(-42.372 -73.549)"/>
                                        </g>
                                        <g id="Group_2821" transform="translate(3.873 11.243)">
                                            <path id="Path_7288" d="M43.978 72.95V94.4c-.119-.11-.248-.22-.367-.33V73.124z" class="cls-11" transform="translate(-43.611 -72.95)"/>
                                        </g>
                                        <g id="Group_2822" transform="translate(7.737 9.371)">
                                            <path id="Path_7289" d="M45.213 72.351v26.074c-.119-.073-.248-.138-.367-.211V72.526z" class="cls-11" transform="translate(-44.846 -72.351)"/>
                                        </g>
                                        <g id="Group_2823" transform="translate(11.61 7.498)">
                                            <path id="Path_7290" d="M46.452 71.752v29.727c-.119-.046-.248-.083-.367-.128V71.936z" class="cls-11" transform="translate(-46.085 -71.752)"/>
                                        </g>
                                        <g id="Group_2824" transform="translate(15.483 5.626)">
                                            <path id="Path_7291" d="M47.69 71.154v32.627c-.119-.018-.248-.046-.367-.064v-32.38z" class="cls-11" transform="translate(-47.323 -71.154)"/>
                                        </g>
                                        <g id="Group_2825" transform="translate(19.347 3.745)">
                                            <path id="Path_7292" d="M48.926 70.552v34.857c-.119 0-.248 0-.367-.009V70.736z" class="cls-11" transform="translate(-48.559 -70.552)"/>
                                        </g>
                                        <g id="Group_2826" transform="translate(23.22 1.872)">
                                            <path id="Path_7293" d="M50.164 69.953v36.436l-.367.055V70.137z" class="cls-11" transform="translate(-49.797 -69.953)"/>
                                        </g>
                                        <g id="Group_2827" transform="translate(27.093)">
                                            <path id="Path_7294" d="M51.4 69.355v37.326c-.119.046-.248.083-.367.128V69.538z" class="cls-11" transform="translate(-51.036 -69.355)"/>
                                        </g>
                                        <g id="Group_2828" transform="translate(30.957 10.022)">
                                            <path id="Path_7295" d="M52.638 73.633v24.459c-.119.073-.248.138-.367.2V72.559a1.08 1.08 0 0 0 .064.184c.037.119.083.248.119.367.065.175.129.349.184.523z" class="cls-11" transform="translate(-52.271 -72.559)"/>
                                        </g>
                                        <g id="Group_2829" transform="translate(34.83 18.42)">
                                            <path id="Path_7296" d="M53.877 75.814v13.849l-.367.294V75.245c.119.183.238.376.367.569z" class="cls-11" transform="translate(-53.51 -75.245)"/>
                                        </g>
                                        <g id="Group_2830" transform="translate(38.703 23.302)">
                                            <path id="Path_7297" d="M55.115 77.173v6.259h-.193l-.174.138v-6.764c.12.129.239.248.367.367z" class="cls-11" transform="translate(-54.748 -76.806)"/>
                                        </g>
                                    </g>
                                    <g id="Group_2842" transform="translate(0 2.469)">
                                        <g id="Group_2832" transform="translate(15.703 34.83)">
                                            <path id="Path_7298" d="M61.612 81.282c-.028.009-.046.018-.073.028-.119.046-.248.083-.367.128-.229.073-.459.147-.7.22H47.423c-.385-.11-.771-.239-1.156-.367h15.345z" class="cls-11" transform="translate(-46.267 -81.282)"/>
                                        </g>
                                        <g id="Group_2833" transform="translate(8.646 30.957)">
                                            <path id="Path_7299" d="M73.333 80.043l-.083.064-.385.3H44.487c-.165-.119-.321-.239-.477-.367z" class="cls-11" transform="translate(-44.01 -80.043)"/>
                                        </g>
                                        <g id="Group_2834" transform="translate(4.772 27.093)">
                                            <path id="Path_7300" d="M80.859 78.808l-.275.211v.156H43.065c-.1-.119-.2-.248-.294-.367z" class="cls-11" transform="translate(-42.771 -78.808)"/>
                                        </g>
                                        <g id="Group_2835" transform="translate(2.313 23.22)">
                                            <path id="Path_7301" d="M85.176 77.936h-43c-.064-.119-.128-.248-.193-.367h42.679c.165.131.338.248.514.367z" class="cls-11" transform="translate(-41.985 -77.569)"/>
                                        </g>
                                        <g id="Group_2836" transform="translate(.789 19.347)">
                                            <path id="Path_7302" d="M81.88 76.7H41.608c-.037-.119-.073-.248-.11-.367h40.07a3.88 3.88 0 0 0 .312.367z" class="cls-11" transform="translate(-41.498 -76.331)"/>
                                        </g>
                                        <g id="Group_2837" transform="translate(0 15.483)">
                                            <path id="Path_7303" d="M79.535 75.462H41.291c-.018-.119-.028-.248-.046-.367h38.06c.083.119.157.239.23.367z" class="cls-11" transform="translate(-41.245 -75.095)"/>
                                        </g>
                                        <g id="Group_2838" transform="translate(1.147 11.61)">
                                            <path id="Path_7304" d="M76.681 74.224H41.612l.762-.367h34.141a3.231 3.231 0 0 0 .166.367z" class="cls-11" transform="translate(-41.612 -73.857)"/>
                                        </g>
                                        <g id="Group_2839" transform="translate(9.141 7.737)">
                                            <path id="Path_7305" d="M69.7 72.985H44.168l.762-.367h24.652a2.449 2.449 0 0 0 .118.367z" class="cls-11" transform="translate(-44.168 -72.618)"/>
                                        </g>
                                        <g id="Group_2840" transform="translate(17.126 3.873)">
                                            <path id="Path_7306" d="M63.132 71.75h-16.41l.762-.367H63.04c.037.117.06.238.092.367z" class="cls-11" transform="translate(-46.722 -71.383)"/>
                                        </g>
                                        <g id="Group_2841" transform="translate(25.12)">
                                            <path id="Path_7307" d="M56.9 70.511h-7.622l.762-.367h6.81c.018.119.036.239.05.367z" class="cls-11" transform="translate(-49.278 -70.144)"/>
                                        </g>
                                    </g>
                                </g>
                                <path id="Path_7308" d="M51.585 69.146c.028.459 1.092 19.209 14.143 27.359" class="cls-28" transform="translate(-19.086 -69.137)"/>
                            </g>
                            <path id="Path_7309" d="M77.1 79.8v17.97c-5.846 5.938-13.611 2.744-13.611 2.744a128.025 128.025 0 0 1-5.452-20.705H77.1z" class="cls-11" transform="translate(-5.351 -34.938)"/>
                            <path id="Path_7310" d="M63.49 100.5a128.025 128.025 0 0 1-5.452-20.7H77.1v17.97" class="cls-31" transform="translate(-5.358 -34.938)"/>
                            <g id="Group_2845" transform="translate(56.279 62.287)">
                                <path id="Path_7311" d="M88.364 99.063h-27.12a2.05 2.05 0 0 1-2.028-2.377l.046-.275.165-.991 1.175-7.2s8.269 3.332 14.363-2.854c0 0 1.909 4.919 9.875 8.535a5.772 5.772 0 0 1 3.167 3.199c.064.156.11.312.156.459a4.779 4.779 0 0 1 .201 1.504z" class="cls-14" transform="translate(-59.189 -85.37)"/>
                                <g id="Group_2844" transform="translate(.082 10.041)">
                                    <path id="Path_7312" d="M88.107 90.719H61.188a2.26 2.26 0 0 1-1.735-.808 2.068 2.068 0 0 1-.239-.34l.165-.991a1.772 1.772 0 0 0 .431 1.037 1.837 1.837 0 0 0 1.386.642H87.96c.055.157.11.313.147.46z" class="cls-11" transform="translate(-59.215 -88.58)"/>
                                </g>
                                <path id="Path_7313" d="M71 88.965c-3.01 2.148-7.645 1.533-7.957.606s4.488-1.588 5.121-3.5A17.808 17.808 0 0 0 71 88.965z" class="cls-11" transform="translate(-51.021 -83.871)"/>
                            </g>
                            <path id="Path_7314" d="M57.739 88.2c0-10.784 2.845-17.043 2.845-17.043" class="cls-31" transform="translate(-5.994 -53.324)"/>
                        </g>
                    </g>
                    <g id="HAND" transform="translate(0 49.159)">
                        <path id="Path_7315" d="M80.575 66.954l-37.666 8.857a10.554 10.554 0 0 0-8.141 10.279 10.561 10.561 0 0 0 15.171 9.5l36.445-17.696a2.747 2.747 0 0 0 1.367-1.487l4.039-10.362a.585.585 0 0 0-.633-.789l-.642.092a3.76 3.76 0 0 0-2.534 1.552l-1.643 2.46a1.623 1.623 0 0 1-1.349.716h-3.845a1.156 1.156 0 0 1-1.1-1.505z" class="cls-22" transform="translate(-34.768 -65.25)"/>
                        <g id="Group_2846" transform="translate(0 .092)">
                            <path id="Path_7316" d="M80.208 66.983l-37.3 8.857a10.554 10.554 0 0 0-8.141 10.279 10.561 10.561 0 0 0 15.171 9.5l36.446-17.696a2.747 2.747 0 0 0 1.367-1.487l4.039-10.361a.584.584 0 0 0-.633-.789l-.642.092a3.76 3.76 0 0 0-2.533 1.551l-1.643 2.46a1.623 1.623 0 0 1-1.349.716h-4.213a1.156 1.156 0 0 1-1.1-1.505z" class="cls-28" transform="translate(-34.768 -65.279)"/>
                            <path id="Path_7317" d="M49.774 68.66H55.4a2.531 2.531 0 0 0 2.221-1.322" class="cls-32" transform="translate(-2.848 -60.899)"/>
                            <path id="Path_7318" d="M49.363 69.717h5.626A2.531 2.531 0 0 0 57.21 68.4" class="cls-32" transform="translate(-3.722 -58.651)"/>
                        </g>
                    </g>
                </g>
            </g>
        </g>
    </g>
</svg>
