<svg xmlns="http://www.w3.org/2000/svg" width="112" height="160" viewBox="0 0 112 160">
    <defs>
        <clipPath id="clip-path">
            <rect id="Rectangle_2595" width="112" height="160" class="cls-1" rx="10" transform="translate(9067 -753)"/>
        </clipPath>
        <style>
            .cls-1,.cls-20,.cls-23,.cls-4{fill:#fff}.cls-4,.cls-9{stroke:#3fb1b5}.cls-12,.cls-14,.cls-24,.cls-26,.cls-28,.cls-4,.cls-6,.cls-9{stroke-linecap:round}.cls-12,.cls-14,.cls-15,.cls-23,.cls-24,.cls-26,.cls-27,.cls-28,.cls-4,.cls-6,.cls-9{stroke-miterlimit:10}.cls-12,.cls-23,.cls-24,.cls-26,.cls-27,.cls-28,.cls-4,.cls-6,.cls-9{stroke-width:.208px}.cls-17{fill:#66b0f0}.cls-23{stroke:#66b0f0}.cls-23,.cls-24,.cls-27{stroke-linejoin:round}.cls-12,.cls-14,.cls-15,.cls-24,.cls-26,.cls-27,.cls-28,.cls-6,.cls-9{fill:none}.cls-15,.cls-24,.cls-6{stroke:#fff}.cls-7{fill:#3fb1b5}.cls-10{fill:#fe5244}.cls-11{fill:#e57281}.cls-12,.cls-14{stroke:#9a3b82}.cls-13{fill:#9a3b82}.cls-14,.cls-15{stroke-width:.174px}.cls-19{fill:#ffcf2d}.cls-20{opacity:.4}.cls-21{fill:#a0505a}.cls-22{fill:#73325a}.cls-26{stroke:#73325a}.cls-27{stroke:#fe5244}.cls-28{stroke:#ffcf2d}
        </style>
    </defs>
    <g id="Group_2422" transform="translate(-306 -249)">
        <rect id="Rectangle_2596" width="112" height="160" fill="#dbf2f2" rx="10" transform="translate(306 249)"/>
        <g id="Group_2133" transform="translate(-8761 1002)">
            <g id="Mask_Group_1" clip-path="url(#clip-path)">
                <g id="_9_SCENE" transform="translate(8931.543 -766.528)">
                    <g id="COMPUTER" transform="translate(90.8 42.901)">
                        <g id="COMPUTER_1_" transform="translate(21.917)">
                            <path id="Path_5018" d="M149.37 93.05H70.147a5.384 5.384 0 0 1-5.388-5.388V32.25a5.384 5.384 0 0 1 5.388-5.388h79.223a5.384 5.384 0 0 1 5.388 5.388v55.4a5.386 5.386 0 0 1-5.388 5.4z" class="cls-4" transform="translate(-64.759 -26.861)"/>
                            <path id="Path_5019" fill="#66b0f0" stroke="#66b0f0" stroke-linejoin="round" stroke-miterlimit="10" stroke-width="0.208px" d="M147.02 85.663H68.561a2.108 2.108 0 0 1-2.107-2.107V30.545a2.108 2.108 0 0 1 2.107-2.107h78.46a2.108 2.108 0 0 1 2.107 2.107v53a2.1 2.1 0 0 1-2.108 2.118z" transform="translate(-62.358 -24.628)"/>
                            <g id="Group_2101" transform="translate(7.033 6.043)">
                                <path id="Path_5020" d="M69.651 32.082h-1.242a.74.74 0 0 1-.739-.739V30.1a.74.74 0 0 1 .739-.739h1.242a.74.74 0 0 1 .739.739v1.242a.745.745 0 0 1-.739.74z" class="cls-6" transform="translate(-67.671 -29.363)"/>
                                <path id="Path_5021" d="M71.99 32.082h-1.242a.74.74 0 0 1-.739-.739V30.1a.74.74 0 0 1 .739-.739h1.242a.74.74 0 0 1 .739.739v1.242a.74.74 0 0 1-.739.74z" class="cls-6" transform="translate(-64.361 -29.363)"/>
                                <path id="Path_5022" d="M74.329 32.082h-1.243a.74.74 0 0 1-.739-.739V30.1a.74.74 0 0 1 .739-.739h1.242a.74.74 0 0 1 .739.739v1.242a.734.734 0 0 1-.738.74z" class="cls-6" transform="translate(-61.05 -29.363)"/>
                            </g>
                            <g id="Group_2102" transform="translate(30.971 66.189)">
                                <path id="Path_5023" d="M108.334 73.157H77.581l6.035-18.893h18.675z" class="cls-4" transform="translate(-77.581 -54.264)"/>
                                <path id="Path_5024" d="M78.582 65.6L82.2 54.264h18.675z" class="cls-7" transform="translate(-76.165 -54.264)"/>
                            </g>
                            <g id="Group_2103" transform="translate(62.613 6.471)">
                                <path id="Path_5025" d="M108.164 44.262H93.216a2.532 2.532 0 0 1-2.535-2.535v-9.652a2.532 2.532 0 0 1 2.535-2.535h14.948a2.532 2.532 0 0 1 2.535 2.535v9.652a2.532 2.532 0 0 1-2.535 2.535z" class="cls-6" transform="translate(-90.681 -29.54)"/>
                                <path id="Line_21" d="M0 0L11.406 0" class="cls-6" transform="translate(4.272 3.441)"/>
                                <path id="Line_22" d="M0 0L11.406 0" class="cls-6" transform="translate(4.272 6.043)"/>
                                <path id="Line_23" d="M0 0L11.406 0" class="cls-6" transform="translate(4.272 8.645)"/>
                                <path id="Line_24" d="M0 0L11.406 0" class="cls-6" transform="translate(4.272 11.247)"/>
                            </g>
                        </g>
                        <g id="TEACHER" transform="translate(0 6.933)">
                            <g id="SHIRT" transform="translate(5.726 20.328)">
                                <path id="Path_5026" fill="#fff" stroke="#3fb1b5" stroke-miterlimit="10" stroke-width="0.208px" d="M158.471 71.922H99.056l-3.483 4.994a10 10 0 0 1-16.3.159L58.055 47.892c.89 1.108 4.96-.126 8.838-2.677 3.936-2.593 6.48-5.858 5.682-7.067L87.289 56.9l4.511-7.959a8.9 8.9 0 0 1 5.665-4.171l15.335-3.248h13.219l14.571 3.215a8.934 8.934 0 0 1 5.9 4.524z" transform="translate(-58.055 -38.148)"/>
                                <path id="Line_25" d="M4.222 8.334L0 0" class="cls-9" transform="translate(79.886 25.096)"/>
                                <path id="Line_26" d="M0 8.251L4.18 0" class="cls-9" transform="translate(40.665 25.96)"/>
                                <path id="Line_27" d="M0 0L9.577 12.246" class="cls-9" transform="translate(23.509 11.473)"/>
                                <path id="Path_5027" d="M84.138 42.624l3.525 4.289 7.89-6.7" class="cls-9" transform="translate(-21.139 -35.221)"/>
                                <path id="Path_5028" d="M90.11 42.708l-3.424 4.373-8.67-6.866" class="cls-9" transform="translate(-29.805 -35.221)"/>
                                <path id="Path_5029" d="M73.854 39.7c.8 1.217-1.754 4.524-5.716 7.151-3.894 2.585-8.024 3.827-8.922 2.711" class="cls-9" transform="translate(-56.413 -35.949)"/>
                                <circle id="Ellipse_1169" cx=".948" cy=".948" r=".948" class="cls-9" transform="translate(13.857 3.978)"/>
                                <circle id="Ellipse_1170" cx=".948" cy=".948" r=".948" class="cls-9" transform="translate(60.691 9.938)"/>
                                <circle id="Ellipse_1171" cx=".948" cy=".948" r=".948" class="cls-9" transform="translate(60.691 17.575)"/>
                                <path id="Path_5030" d="M73.463 57.528l3.785-5.4v5.4z" class="cls-7" transform="translate(-36.248 -18.356)"/>
                            </g>
                            <g id="ARM">
                                <path id="Path_5031" d="M66.957 45.375c-3.878 2.552-7.948 3.785-8.838 2.677a.355.355 0 0 1-.042-.059 1.228 1.228 0 0 1 0-1.116c.579-1.519 2.971-3.869 6.01-5.867a20.9 20.9 0 0 1 6.454-3.047c.957-.193 1.67-.134 2.014.235l.084.1c.789 1.21-1.745 4.484-5.682 7.077z" class="cls-10" transform="translate(-52.485 -18.232)"/>
                                <path id="Path_5032" d="M70.157 56.875a20.93 20.93 0 0 1-6.194 2.887L56.3 48.952a3.342 3.342 0 0 1 .806-4.667L64 39.434l-3.911-6.656A2.023 2.023 0 0 1 60.823 30a1.993 1.993 0 0 1 1.007-.269 2.019 2.019 0 0 1 1.7.932l12.233 19.019.084.134c.781 1.192-1.754 4.465-5.69 7.059z" class="cls-11" transform="translate(-55.685 -29.731)"/>
                                <path id="Path_5033" d="M60.868 33.78l4.272 6.62a1.341 1.341 0 0 1-.4 1.847l-.948.621a1.342 1.342 0 0 1-1.863-.386l-4.04-6.042" class="cls-12" transform="translate(-52.565 -24.002)"/>
                                <path id="Path_5034" d="M61.378 37.376a1.357 1.357 0 0 1-.4 1.88l-.864.546a1.346 1.346 0 0 1-1.846-.394" class="cls-12" transform="translate(-52.034 -18.911)"/>
                                <path id="Path_5035" d="M57.427 35.764l3.953 5.875a1.344 1.344 0 0 1-.411 1.88l-.806.445a1.345 1.345 0 0 1-1.821-.361l-2.292-3.231" class="cls-12" transform="translate(-55.167 -21.193)"/>
                                <path id="Path_5036" d="M68.7 38.57l-2-3.114a2.186 2.186 0 0 0-3.064-.629L58.657 38.2s1.444 2.593 4.952.537l1.175 1.872a5.089 5.089 0 0 0-1.528 7.091z" class="cls-11" transform="translate(-51.478 -23.051)"/>
                                <path id="Path_5037" d="M68.443 38.6l-2.006-3.114a2.186 2.186 0 0 0-3.064-.629l-4.717 3.29s1.444 2.594 4.952.537l1.175 1.872a5.089 5.089 0 0 0-1.528 7.092" class="cls-12" transform="translate(-51.478 -23.002)"/>
                                <path id="Path_5038" d="M66.422 45.37a20.93 20.93 0 0 1-6.194 2.887l-1.905-2.686a22.372 22.372 0 0 1 5.229-4.557 20.9 20.9 0 0 1 6.454-3.047c.957-.193 1.67-.134 2.014.235l.084.1c.008.017.017.025.025.042l.017.034c.009.017.017.025.025.042.571 1.28-1.938 4.432-5.749 6.95z" class="cls-13" transform="translate(-51.95 -18.227)"/>
                            </g>
                            <g id="HEAD_2_" transform="translate(56.748 1.241)">
                                <g id="Group_2104" transform="translate(3.676 15.075)">
                                    <path id="Path_5039" d="M93.949 36.487v7.378c0 2.14-2.971 3.869-6.622 3.869S80.7 46 80.7 43.864v-7.377z" class="cls-11" transform="translate(-80.697 -36.487)"/>
                                    <path id="Path_5040" d="M82.649 46.6a3.356 3.356 0 0 1-1.949-2.736v-7.377h13.254v2.048a5.212 5.212 0 0 1-3.254 4.826z" class="cls-13" transform="translate(-80.701 -36.487)"/>
                                </g>
                                <path id="Path_5041" d="M99.8 40.968v.126a2.307 2.307 0 0 1-2.307 2.306h-1.519a4.747 4.747 0 0 1-4.608 3.6h-3.76a4.728 4.728 0 0 1-4.6-3.6h-1.518a2.307 2.307 0 0 1-2.308-2.308v-.126a2.307 2.307 0 0 1 2.308-2.308h1.376v-1.819a3.864 3.864 0 0 1 3.307-3.827 4.551 4.551 0 0 0 4.188 2.241 13.166 13.166 0 0 0 3.215-.537 1.99 1.99 0 0 1 2.476 1.4 4.028 4.028 0 0 1 .067.713v1.821h1.376a2.319 2.319 0 0 1 2.307 2.318z" class="cls-11" transform="translate(-79.179 -26.33)"/>
                                <path id="Path_5042" d="M96.252 42.568h-1.057v-2.023a2.038 2.038 0 0 0-.067-.512 1.99 1.99 0 0 0-2.476-1.4 13.1 13.1 0 0 1-3.215.537 4.551 4.551 0 0 1-4.188-2.241 3.864 3.864 0 0 0-3.307 3.827v1.821h-1.318s-1.511-5.464-.378-7.008a1.981 1.981 0 0 1 2.459-.856s-.805-4.551 3.695-4.467 10.332 5.3 10.76 6.253c.67 1.469-.908 6.069-.908 6.069z" class="cls-13" transform="translate(-78.266 -30.245)"/>
                                <g id="Group_2107" transform="translate(1.57 10.038)">
                                    <g id="Group_2105" transform="translate(0 3.409)">
                                        <path id="Path_5043" d="M86.4 37.432a1.621 1.621 0 0 1 1.62-1.62" class="cls-14" transform="translate(-70.529 -35.812)"/>
                                        <path id="Path_5044" d="M81.449 37.432a1.621 1.621 0 0 0-1.62-1.62" class="cls-14" transform="translate(-79.829 -35.812)"/>
                                    </g>
                                    <g id="Group_2106" transform="translate(4.146)">
                                        <path id="Path_5045" d="M86.9 34.873a2.911 2.911 0 0 0-2.711-.243" class="cls-14" transform="translate(-77.803 -34.401)"/>
                                        <path id="Path_5046" d="M81.546 34.873a2.911 2.911 0 0 1 2.711-.243" class="cls-14" transform="translate(-81.546 -34.401)"/>
                                        <path id="Path_5047" d="M85.851 37.161s-.646 1.393-2.627.663" class="cls-14" transform="translate(-79.17 -30.495)"/>
                                        <path id="Path_5048" d="M83.186 36.862c.512.034 1.293 0 1.293 0" class="cls-14" transform="translate(-79.224 -30.918)"/>
                                        <ellipse id="Ellipse_1172" cx=".42" cy=".705" class="cls-13" rx=".42" ry=".705" transform="translate(7.327 2.561)"/>
                                        <ellipse id="Ellipse_1173" cx=".42" cy=".705" class="cls-13" rx=".42" ry=".705" transform="translate(1.309 2.561)"/>
                                    </g>
                                </g>
                                <g id="Group_2108" transform="translate(4.876 11.189)">
                                    <path id="Path_5049" d="M84.765 39.368h-2.643a.921.921 0 0 1-.923-.923V35.8a.921.921 0 0 1 .923-.923h2.644a.921.921 0 0 1 .923.923v2.644a.921.921 0 0 1-.924.924z" class="cls-15" transform="translate(-81.198 -34.878)"/>
                                    <path id="Path_5050" d="M87.445 39.368H84.8a.921.921 0 0 1-.923-.923V35.8a.921.921 0 0 1 .923-.923h2.644a.921.921 0 0 1 .923.923v2.644a.926.926 0 0 1-.922.924z" class="cls-15" transform="translate(-77.406 -34.878)"/>
                                    <path id="Line_28" d="M0 0L1.972 0" class="cls-15" transform="translate(4.499 1.746)"/>
                                </g>
                            </g>
                        </g>
                        <g id="ICON" transform="translate(61.675 49.881)">
                            <path id="Path_5051" fill="none" stroke="#66b0f0" stroke-linejoin="round" stroke-miterlimit="10" stroke-width="0.208px" d="M91.9 55.41h-9.17a1.51 1.51 0 0 1-1.511-1.51v-4.877a1.51 1.51 0 0 1 1.511-1.511h9.17a1.51 1.51 0 0 1 1.511 1.511V53.9a1.51 1.51 0 0 1-1.511 1.51z" transform="translate(-81.219 -47.513)"/>
                            <g id="Group_2109" transform="translate(2.325 1.964)">
                                <path id="Path_5052" d="M86.185 52.3H83.08a.9.9 0 0 1-.9-.9v-2.176a.9.9 0 0 1 .9-.9h3.105a.9.9 0 0 1 .9.9V51.4a.9.9 0 0 1-.9.9z" class="cls-17" transform="translate(-82.182 -48.326)"/>
                                <path id="Path_5053" d="M85.9 52.231l-.957-.638a.972.972 0 0 1-.42-.806v-.957a.972.972 0 0 1 .42-.806l.957-.638a.338.338 0 0 1 .52.3v3.248a.335.335 0 0 1-.52.297z" class="cls-17" transform="translate(-78.872 -48.32)"/>
                            </g>
                        </g>
                    </g>
                    <g id="TABLE" transform="translate(63.037 128.151)">
                        <path id="Line_29" d="M222.814 0L0 0" class="cls-9"/>
                        <g id="Group_2111" transform="translate(11.499 1.469)">
                            <path id="Path_5054" d="M109.189 62.764v103.622h-5.85v-19.724a3.335 3.335 0 0 0-3.332-3.332H58.133a3.335 3.335 0 0 0-3.332 3.332v19.724h-5.85V62.764z" class="cls-4" transform="translate(-48.951 -62.764)"/>
                            <path id="Path_5055" fill="#d0f0e4" d="M109.365 62.764v27.5l-60.414 49.742.008-77.243z" transform="translate(-48.951 -62.764)"/>
                            <path id="Path_5056" d="M99.906 67.88v18.792a3.152 3.152 0 0 1-3.156 3.156H54.532a3.152 3.152 0 0 1-3.156-3.156V67.88a3.152 3.152 0 0 1 3.156-3.156H96.75a3.152 3.152 0 0 1 3.156 3.156z" class="cls-9" transform="translate(-45.518 -59.99)"/>
                            <path id="Path_5057" d="M78.551 84.5H57.77l-.864-5.951H77.7z" class="cls-19" transform="translate(-37.693 -40.425)"/>
                            <g id="Group_2110" transform="translate(29.569 34.689)">
                                <path id="Path_5058" d="M83.569 77.126a4.689 4.689 0 0 0-4.692 4.692v4.692H61.193v-4.692a4.689 4.689 0 0 1 4.692-4.692z" class="cls-4" transform="translate(-61.193 -77.126)"/>
                                <path id="Path_5059" d="M85.3 80.559H67.611a4.69 4.69 0 0 0-4.524-3.433h17.685a4.7 4.7 0 0 1 4.528 3.433z" class="cls-4" transform="translate(-58.513 -77.126)"/>
                            </g>
                            <path id="Path_5060" d="M99.906 84.167v18.792a3.152 3.152 0 0 1-3.156 3.156H54.532a3.152 3.152 0 0 1-3.156-3.156V84.167a3.152 3.152 0 0 1 3.156-3.156H96.75a3.152 3.152 0 0 1 3.156 3.156z" class="cls-9" transform="translate(-45.518 -36.938)"/>
                            <path id="Path_5061" d="M57.843 71.354a2.71 2.71 0 0 1 2.711-2.711h11.877a2.71 2.71 0 0 1 2.711 2.711" class="cls-9" transform="translate(-36.365 -54.442)"/>
                            <path id="Path_5062" d="M57.843 87.641a2.71 2.71 0 0 1 2.711-2.711h11.877a2.71 2.71 0 0 1 2.711 2.711" class="cls-9" transform="translate(-36.365 -31.39)"/>
                        </g>
                        <path id="Rectangle_2591" d="M0 0H6.236V103.849H0z" class="cls-4" transform="translate(207.706 1.469)"/>
                        <path id="Line_30" d="M0 0L130.145 0" class="cls-9" transform="translate(107.962 105.318)"/>
                    </g>
                    <g id="PLANT" transform="translate(73.151 87.166)">
                        <path id="Path_5063" d="M67.325 71.929h-3.769s-5.38-22.418-10.105-23.148-4.969 7.9-4.969 7.9.084-13.119 11.893-11.322 6.95 26.57 6.95 26.57z" class="cls-4" transform="translate(-48.23 -45.187)"/>
                        <path id="Path_5064" d="M50.939 45.6s10.768-3.98 11.255 25.664" class="cls-9" transform="translate(-44.752 -44.858)"/>
                        <path id="Rectangle_2592" d="M0 0H17.701V14.411H0z" class="cls-10" transform="translate(11.659 26.406)"/>
                        <path id="Path_5065" d="M70.275 69.635a4.676 4.676 0 0 1-3.718-.118 6.467 6.467 0 0 1-2.5-1.972 8.232 8.232 0 0 1-1.628-5.12c0-5.187-4.129-8.444-5.825-1.578-.118.478-.227 1-.319 1.578v-.05a.209.209 0 0 1 .008-.067v-.034a20.254 20.254 0 0 1 .546-3.223 15.252 15.252 0 0 1 1.351-3.559 9.068 9.068 0 0 1 1.125-1.628 6.1 6.1 0 0 1 4.776-2.2c3.878 0 6.715 4.566 7.8 9.115.944 3.954.557 7.907-1.616 8.856z" class="cls-4" transform="translate(-37.188 -36.019)"/>
                        <path id="Path_5066" d="M57.541 52.95s7.772-5.531 10.055 15.93" class="cls-9" transform="translate(-35.408 -35.105)"/>
                        <path id="Path_5067" d="M48.378 54.634c0 1.385-.159 6.681 4.893 6.924s5.556-7.386 5.556-7.386-2.484-6.748-5.229-7.436c-4.641-1.167-5.22 7.898-5.22 7.898z" class="cls-7" transform="translate(-48.378 -43.142)"/>
                        <path id="Path_5068" d="M62.427 59.334h-6.144c1.417-8.889 6.144-5.548 6.144 0z" class="cls-7" transform="translate(-37.188 -32.928)"/>
                    </g>
                    <g id="LIGHT" transform="translate(89.451 42.901)">
                        <path id="Path_5069" d="M154.123 32.25v55.4a5.389 5.389 0 0 1-5.388 5.388H85.324a10.013 10.013 0 0 1-16.19 0l-.008-.008a5.369 5.369 0 0 1-3.911-2.123l1.46-1.259 37.265-32.16 35.486-30.627h9.308a5.4 5.4 0 0 1 5.389 5.389z" class="cls-20" transform="translate(-40.848 -26.861)"/>
                        <path id="Path_5070" d="M71.912 64.545a4.608 4.608 0 0 1-3.718-.118v7.067H55.126L65.7 62.372l2.5-2.157 1.905-1.645 3.685-3.131c1.077 4.582.481 8.024-1.878 9.106z" class="cls-20" transform="translate(-55.126 13.587)"/>
                    </g>
                    <g id="TRIANGLE" transform="translate(30.875 16.631)">
                        <g id="Group_2115" transform="translate(6.327 7.091)">
                            <g id="Group_2112" transform="translate(.005 14.576)">
                                <path id="Path_5071" d="M33.744 37.448a.251.251 0 0 1-.084-.487l.789-.277a.25.25 0 1 1 .168.47l-.789.277a.369.369 0 0 1-.084.017zm1.981-.688a.251.251 0 0 1-.084-.487L36.43 36a.25.25 0 1 1 .168.47l-.789.277a.3.3 0 0 1-.084.013zm1.981-.7a.251.251 0 0 1-.084-.487l.789-.277a.25.25 0 1 1 .168.47l-.789.277a.151.151 0 0 1-.084.02zm1.981-.688a.251.251 0 0 1-.084-.487l.789-.277a.25.25 0 1 1 .168.47l-.789.277a.138.138 0 0 1-.085.02zm1.981-.688a.251.251 0 0 1-.084-.487l.789-.277a.25.25 0 1 1 .168.47l-.789.277a.138.138 0 0 1-.085.02zM43.656 34a.251.251 0 0 1-.084-.487l.789-.277a.25.25 0 1 1 .168.47l-.789.277a.166.166 0 0 1-.084.017zm1.981-.688a.251.251 0 0 1-.084-.487l.789-.277a.25.25 0 1 1 .168.47l-.789.277a.37.37 0 0 1-.084.015zm1.981-.688a.251.251 0 0 1-.084-.487l.789-.277a.25.25 0 0 1 .168.47l-.789.277a.369.369 0 0 1-.084.015zm1.981-.688a.251.251 0 0 1-.084-.487l.789-.277a.25.25 0 1 1 .168.47l-.789.277a.3.3 0 0 1-.083.015zm1.981-.688a.251.251 0 0 1-.084-.487l.789-.277a.25.25 0 1 1 .168.47l-.789.277a.3.3 0 0 1-.084.015zm1.981-.688a.251.251 0 0 1-.084-.487l.789-.277a.25.25 0 0 1 .168.47l-.789.277a.3.3 0 0 1-.085.015zm1.981-.7a.251.251 0 0 1-.084-.487l.789-.277a.25.25 0 0 1 .168.47l-.789.277a.138.138 0 0 1-.085.018zm1.981-.688a.251.251 0 0 1-.084-.487l.789-.277a.25.25 0 1 1 .168.47l-.789.277a.138.138 0 0 1-.085.018zm1.989-.688a.251.251 0 0 1-.085-.484l.789-.277a.25.25 0 1 1 .168.47l-.789.277a.166.166 0 0 1-.084.014zm1.981-.688a.251.251 0 0 1-.084-.487l.789-.277a.25.25 0 1 1 .168.47l-.789.277a.166.166 0 0 1-.085.021zm1.981-.688a.251.251 0 0 1-.084-.487l.789-.277a.25.25 0 0 1 .168.47l-.789.277a.166.166 0 0 1-.085.017zm1.981-.688a.251.251 0 0 1-.084-.487l.789-.277a.25.25 0 0 1 .168.47l-.789.277a.3.3 0 0 1-.086.017zm1.981-.688a.251.251 0 0 1-.084-.487l.789-.277a.25.25 0 1 1 .168.47l-.789.277a.3.3 0 0 1-.086.016z" class="cls-19" transform="translate(-33.496 -24.955)"/>
                            </g>
                            <g id="Group_2113" transform="translate(4.466 20.615)">
                                <path id="Path_5072" d="M40.061 33.91a.247.247 0 0 1-.252-.252c0-2.275-.705-3.928-2.107-4.9a4.586 4.586 0 0 0-2.123-.8.248.248 0 0 1-.235-.269.245.245 0 0 1 .26-.235 4.94 4.94 0 0 1 2.367.873 6.244 6.244 0 0 1 2.342 5.33.253.253 0 0 1-.252.253z" class="cls-7" transform="translate(-35.343 -27.455)"/>
                            </g>
                            <g id="Group_2114">
                                <path id="Path_5073" d="M82.78 45.99H33.747a.247.247 0 0 1-.227-.143.244.244 0 0 1 .025-.26l19.926-26.564a.255.255 0 0 1 .176-.1.24.24 0 0 1 .193.067l29.116 26.563a.259.259 0 0 1 .067.277.269.269 0 0 1-.243.16zm-48.529-.5h47.883L53.706 19.543z" class="cls-7" transform="translate(-33.494 -18.92)"/>
                            </g>
                        </g>
                        <g id="Group_2118" transform="translate(0 31.558)">
                            <g id="Group_2116">
                                <path id="Path_5074" d="M33.048 33.4a2.174 2.174 0 1 1 2.174-2.174 2.174 2.174 0 0 1-2.174 2.174zm0-3.852a1.67 1.67 0 1 0 1.67 1.67 1.669 1.669 0 0 0-1.67-1.673z" class="cls-19" transform="translate(-30.875 -29.05)"/>
                            </g>
                            <g id="Group_2117" transform="translate(3.844 2.174)">
                                <path id="Rectangle_2593" d="M0 0H0.504V1.922H0z" class="cls-19"/>
                            </g>
                        </g>
                        <g id="Group_2121" transform="translate(25.801)">
                            <g id="Group_2119" transform="translate(.017 1.192)">
                                <path id="Path_5075" d="M43.737 20.826a2.174 2.174 0 1 1 2.174-2.174 2.174 2.174 0 0 1-2.174 2.174zm0-3.852a1.674 1.674 0 1 0 1.67 1.679 1.669 1.669 0 0 0-1.67-1.68z" class="cls-19" transform="translate(-41.563 -16.478)"/>
                            </g>
                            <g id="Group_2120">
                                <path id="Rectangle_2594" d="M0 0H0.504V5.279H0z" class="cls-19"/>
                            </g>
                        </g>
                        <g id="Group_2122" transform="translate(57.359 31.508)">
                            <path id="Path_5076" d="M56.8 33.377a2.174 2.174 0 0 1 0-4.348v.5a1.67 1.67 0 0 0 0 3.34z" class="cls-19" transform="translate(-54.622 -29.029)"/>
                        </g>
                    </g>
                    <g id="GIRL" transform="translate(131.425 51.884)">
                        <g id="GIRL_1_">
                            <g id="LEGS" transform="translate(31.424 80.304)">
                                <g id="RIGHT_LEG" transform="translate(27.161 26.136)">
                                    <path id="Path_5077" d="M124.272 74.648v46.716h-10.794l-6.874-19.2-9.845-27.516z" class="cls-21" transform="translate(-96.759 -74.648)"/>
                                    <path id="Path_5078" d="M96.759 74.648h27.513v15l-24.24-5.858z" class="cls-22" transform="translate(-96.759 -74.648)"/>
                                    <g id="Group_2123" transform="translate(9.845 27.521)">
                                        <path id="Path_5079" d="M118.5 86.042v19.2h-10.791l-6.874-19.2s5.565 3.072 17.665 0z" class="cls-6" transform="translate(-100.835 -86.042)"/>
                                        <circle id="Ellipse_1174" cx="1.225" cy="1.225" r="1.225" class="cls-6" transform="translate(4.39 2.056)"/>
                                        <circle id="Ellipse_1175" cx="1.225" cy="1.225" r="1.225" class="cls-6" transform="translate(10.231 6.01)"/>
                                        <circle id="Ellipse_1176" cx="1.225" cy="1.225" r="1.225" class="cls-6" transform="translate(14.579 1.62)"/>
                                        <circle id="Ellipse_1177" cx="1.225" cy="1.225" r="1.225" class="cls-6" transform="translate(12.858 10.609)"/>
                                        <circle id="Ellipse_1178" cx="1.225" cy="1.225" r="1.225" class="cls-6" transform="translate(5.615 8.376)"/>
                                        <circle id="Ellipse_1179" cx="1.225" cy="1.225" r="1.225" class="cls-6" transform="translate(7.613 15.091)"/>
                                    </g>
                                    <g id="Group_2125" transform="translate(6.36 42.663)">
                                        <path id="Path_5080" d="M125.648 105.077l-7.4 15.368a6.7 6.7 0 0 1-6.169 4.087h-9.442a3.3 3.3 0 0 1-2.963-4.683l9.493-22.9a7.233 7.233 0 0 1 2.627-3.366 7.137 7.137 0 0 1 4.071-1.276c2.065 0 4.113 1.4 5.472 2.954l3.29 3.55a5.96 5.96 0 0 1 1.021 6.266z" class="cls-17" transform="translate(-99.392 -92.311)"/>
                                        <path id="Path_5081" d="M125.135 101.428l-7.4 15.368a6.7 6.7 0 0 1-6.169 4.087h-10.041a1.849 1.849 0 0 1-1.771-1.376h2.233a6.7 6.7 0 0 0 6.169-4.087l8.536-17.8a4.812 4.812 0 0 1 4.331-2.728 4.608 4.608 0 0 1 4.574 4 5.968 5.968 0 0 1-.462 2.536z" class="cls-23" transform="translate(-98.88 -88.662)"/>
                                        <g id="Group_2124" transform="translate(.102 4.423)">
                                            <path id="Path_5082" d="M123.884 95.485a6.412 6.412 0 0 0-2.9-.839 4.741 4.741 0 0 0-4.255 2.677l-8.838 18.431a7.175 7.175 0 0 1-6.622 4.381h-1.633a3.318 3.318 0 0 1-.2-.5h1.83a6.679 6.679 0 0 0 6.161-4.079l.008-.008 8.846-18.44a5.241 5.241 0 0 1 4.709-2.963 6.788 6.788 0 0 1 2.056.436z" class="cls-1" transform="translate(-99.435 -94.142)"/>
                                        </g>
                                    </g>
                                </g>
                                <g id="LEFT_LEG">
                                    <path id="Path_5083" d="M112.675 89.964l-2.107 27.521-.94 12.33s-6.135 6.832-13.119 2.619l-3.231-14.94-7.394-34.186a16.2 16.2 0 0 1 13.689-19.481z" class="cls-21" transform="translate(-85.514 -63.827)"/>
                                    <g id="Group_2126" transform="translate(7.764 53.658)">
                                        <path id="Path_5084" d="M106.018 86.042l-.94 12.665s-6.135 6.832-13.119 2.619l-3.231-15.275c8.117 2.434 17.29-.009 17.29-.009z" class="cls-6" transform="translate(-88.728 -86.042)"/>
                                        <circle id="Ellipse_1180" cx="1.225" cy="1.225" r="1.225" class="cls-6" transform="translate(6.421 5.162)"/>
                                        <circle id="Ellipse_1181" cx="1.225" cy="1.225" r="1.225" class="cls-6" transform="translate(14.21 3.282)"/>
                                        <circle id="Ellipse_1182" cx="1.225" cy="1.225" r="1.225" class="cls-6" transform="translate(1.721 1.62)"/>
                                        <circle id="Ellipse_1183" cx="1.225" cy="1.225" r="1.225" class="cls-6" transform="translate(5.195 11.834)"/>
                                        <circle id="Ellipse_1184" cx="1.225" cy="1.225" r="1.225" class="cls-6" transform="translate(10.911 9.384)"/>
                                    </g>
                                    <g id="Group_2128" transform="translate(10.987 65.979)">
                                        <path id="Path_5085" d="M111.281 94.09l-8.091 32.356h-2.552c-.117 0-.227-.008-.344-.017a4.707 4.707 0 0 1-3.97-3.727l-6.261-28.948c6.983 4.222 13.127-2.61 13.127-2.61z" class="cls-17" transform="translate(-90.063 -91.144)"/>
                                        <path id="Path_5086" d="M105.753 108.883c1.7-9 2.174-15.872-.764-16.425s-8.167 5.414-9.87 14.411-.814 16.954 2.123 17.508 6.807-6.489 8.511-15.494z" class="cls-23" transform="translate(-84.124 -89.335)"/>
                                        <g id="Group_2127" transform="translate(8.393 1.704)">
                                            <path id="Path_5087" d="M94.964 107.536a43.709 43.709 0 0 0-.722 12.7c.3 2.535.94 4.339 1.813 5.212h-.335c-.117 0-.227-.008-.344-.017a10.958 10.958 0 0 1-1.637-5.137 43.883 43.883 0 0 1 .73-12.85 30.083 30.083 0 0 1 4.834-11.8 11.5 11.5 0 0 1 4.088-3.794l.755.252c-2.996.888-7.546 6.798-9.182 15.434z" class="cls-1" transform="translate(-93.538 -91.849)"/>
                                        </g>
                                    </g>
                                </g>
                            </g>
                            <g id="SKIRT" transform="translate(45.399 76.351)">
                                <path id="Path_5088" d="M91.335 66.135l38.29-3.945L167.9 72.925l-.327 5.086a15.494 15.494 0 0 1-15.48 14.269h-47.648z" class="cls-10" transform="translate(-91.251 -62.191)"/>
                                <g id="Group_2129" transform="translate(0 3.374)">
                                    <path id="Path_5089" d="M159.021 66.482c0 7.285-7.268 16.2-15.309 16.2H96.064" class="cls-24" transform="translate(-84.557 -59.491)"/>
                                    <path id="Path_5090" d="M155.612 65.881c-1.192 6.5-7.554 13.454-14.52 13.454H95.265" class="cls-24" transform="translate(-85.688 -60.341)"/>
                                    <path id="Path_5091" d="M151.876 65.242c-2.014 5.523-7.478 10.718-13.4 10.718H94.257" class="cls-24" transform="translate(-87.114 -61.246)"/>
                                    <path id="Path_5092" d="M149.185 64.793c-2.644 4.02-6.983 7.185-11.608 7.185H93.354" class="cls-24" transform="translate(-88.393 -61.881)"/>
                                    <path id="Path_5093" d="M145.983 64.279a13.323 13.323 0 0 1-9.274 4.23H92.485" class="cls-24" transform="translate(-89.623 -62.609)"/>
                                    <path id="Path_5094" d="M141.545 63.587a11.759 11.759 0 0 1-5.775 1.62H91.547" class="cls-24" transform="translate(-90.951 -63.587)"/>
                                    <path id="Line_31" d="M13.102 26.145L0 0" class="cls-24" transform="translate(0 .571)"/>
                                </g>
                            </g>
                            <g id="HANDS" transform="translate(0 45.875)">
                                <g id="RIGHT_HAND" transform="translate(116.558 .828)">
                                    <path id="Path_5095" fill="#fff" stroke="#3fb1b5" stroke-linejoin="round" stroke-miterlimit="10" stroke-width="0.208px" d="M128.346 55.265c-3.609 1.024-7.159.722-7.537-.378-.353-1.049 1.242-2.845 4.474-4.037.159-.059.327-.117.5-.176a14.381 14.381 0 0 1 2.862-.646c2.711-.344 4.918.143 5.2.965.368 1.1-1.68 3.189-5.499 4.272z" transform="translate(-120.761 -49.916)"/>
                                    <path id="Path_5096" d="M125.952 79.635h-1.385L120.933 55.1v-.017l-.092-.613c.176-1.116 1.922-2.694 5-3.718a14.946 14.946 0 0 1 4.364-.764l1.326 3.634.126.344 4.2 11.507a10.54 10.54 0 0 1-9.905 14.162z" class="cls-21" transform="translate(-120.649 -49.811)"/>
                                    <path id="Path_5097" d="M131.617 53.885a13.158 13.158 0 0 1-3.382 1.452c-3.122.881-6.286.52-7.3-.235v-.017l-.092-.613c.176-1.116 1.922-2.694 5-3.718a14.946 14.946 0 0 1 4.364-.764z" class="cls-22" transform="translate(-120.649 -49.811)"/>
                                </g>
                                <g id="LEFT_HAND">
                                    <path id="Path_5098" d="M149.411 60.039L145 71a14.3 14.3 0 0 1-13.27 8.964H72.5v-5.421a3.144 3.144 0 0 1 2.035-2.943l6.085-2.308a4.845 4.845 0 0 1 1.721-.319h6.908l39.1-3.945 6.748-15.452z" class="cls-21" transform="translate(-72.504 -49.573)"/>
                                    <path id="Path_5099" d="M78.735 59.115l-4.591 1.737a2.381 2.381 0 0 0-1.536 2.224" class="cls-26" transform="translate(-72.357 -36.068)"/>
                                    <path id="Path_5100" d="M78.735 60.262L74.144 62a2.381 2.381 0 0 0-1.536 2.224" class="cls-26" transform="translate(-72.357 -34.445)"/>
                                    <path id="Line_32" d="M4.591 0L0 1.653" class="cls-26" transform="translate(1.788 28.486)"/>
                                    <path id="Path_5101" d="M74.947 64.443s4.3-10.97 5.674-10.785-3.81 10.08-3.81 10.08z" class="cls-10" transform="translate(-69.047 -43.796)"/>
                                    <path id="Path_5102" d="M99 49.577l-.99 2.258 12.682 14.73 2.627-6.53z" class="cls-22" transform="translate(-36.409 -49.568)"/>
                                </g>
                            </g>
                            <g id="T-SHIRT" transform="translate(59.164 25.496)">
                                <path id="Path_5103" d="M154.677 67.642l5.2 35.084-38.261-10.736-6.874-20.018L97 59.005l6.228-7.42a29.243 29.243 0 0 1 22.4-10.45h12.3a29.256 29.256 0 0 1 25.662 15.226l3.987 6.9s-1.2-1.763-7.671.008c-5.699 1.569-5.229 4.373-5.229 4.373z" class="cls-7" transform="translate(-96.999 -41.136)"/>
                                <path id="Line_33" d="M0 8.628L1.989 0" class="cls-24" transform="translate(17.743 22.049)"/>
                                <path id="Line_34" d="M6.471 40.229L0 0" class="cls-24" transform="translate(55.445 13.169)"/>
                                <path id="Line_35" d="M0 0L38.189 10.894" class="cls-24" transform="translate(24.609 50.695)"/>
                            </g>
                            <g id="HEAD" transform="translate(78.447)">
                                <path id="NECK" d="M108.042 41.392v5.64l9.958-.084v-9.954z" class="cls-21" transform="translate(-100.652 -21.502)"/>
                                <g id="HEAD_1_" transform="translate(0 2.667)">
                                    <path id="Path_5104" d="M123.133 42.772v.151a2.666 2.666 0 0 1-2.652 2.736h-.588c-.378 1.494-3.735 3.24-6.119 3.24H111a4.934 4.934 0 0 1-4.868-5.733l.134-.814-.823-.462a.894.894 0 0 1-.277-1.318l1.779-2.35.386-2.317a5.653 5.653 0 0 1 3.223-4.222c.655 7.378 7.168 8.251 8.888 8.351h.957a2.737 2.737 0 0 1 2.734 2.738z" class="cls-21" transform="translate(-104.983 -31.684)"/>
                                    <path id="Path_5105" d="M110.673 37.837a2.156 2.156 0 0 1 2.157-2.157" class="cls-26" transform="translate(-96.929 -26.028)"/>
                                    <ellipse id="Ellipse_1185" cx=".428" cy=".99" class="cls-22" rx=".428" ry=".99" transform="translate(4.217 6.446)"/>
                                    <path id="Path_5106" d="M106.635 33.5s1.183-.118 2.4 1.561" class="cls-26" transform="translate(-102.644 -29.123)"/>
                                </g>
                                <g id="HAIR" transform="translate(5.577)">
                                    <path id="Path_5107" d="M116.172 41.6h.957a2.737 2.737 0 0 1 2.736 2.736v.151a2.666 2.666 0 0 1-2.652 2.736l-.646.453c-2.719 1.746-6.48 8.611-5.556 13.471 1.041 5.464 5.8 6.681 10.2 5.842s7.6-3.4 6.563-8.872a10.923 10.923 0 0 0-.554-1.93l.218.076c5.288 1.444 11.5 1.611 13.211-2.518s1.326-8.217-3.819-10.349a16.9 16.9 0 0 0-10.2-.378c1.586-5.514-1.234-11.65-6.412-12.262-8.133-.965-12.8 2.392-12.926 2.484-.009.972.654 7.88 8.88 8.36z" class="cls-22" transform="translate(-107.291 -30.58)"/>
                                    <path id="Path_5108" d="M117.878 35.649a11.541 11.541 0 0 1-4.255 6.035 12.414 12.414 0 0 1 4.851 7.411" class="cls-24" transform="translate(-98.33 -23.406)"/>
                                    <g id="Group_2132" transform="translate(7.141 7.728)">
                                        <g id="Group_2130" transform="translate(12.449)">
                                            <path id="Path_5109" d="M117.633 38.111h-2.224v-2.225a2.1 2.1 0 0 1 2.107-2.107h.117a2.1 2.1 0 0 1 2.107 2.107V36a2.1 2.1 0 0 1-2.107 2.111z" class="cls-27" transform="translate(-115.392 -33.78)"/>
                                            <path id="Path_5110" d="M116.829 38.9l-1.429-2.265 2.266-1.427a2.43 2.43 0 0 1 3.349.755l.134.21a2.43 2.43 0 0 1-.755 3.349l-.21.134a2.436 2.436 0 0 1-3.355-.756z" class="cls-27" transform="translate(-115.402 -32.287)"/>
                                        </g>
                                        <g id="Group_2131" transform="translate(0 8.37)">
                                            <path id="Path_5111" d="M110.98 39.083l1.586-1.519 1.553 1.754a2.1 2.1 0 0 1-.218 2.971l-.092.076a2.1 2.1 0 0 1-2.971-.218l-.076-.092a2.1 2.1 0 0 1 .218-2.972z" class="cls-27" transform="translate(-110.248 -36.794)"/>
                                            <path id="Path_5112" d="M111.928 40.625l-.713-2.577 2.577-.713a2.424 2.424 0 0 1 2.988 1.687l.067.243a2.424 2.424 0 0 1-1.687 2.988l-.243.067a2.442 2.442 0 0 1-2.989-1.695z" class="cls-27" transform="translate(-108.88 -37.245)"/>
                                        </g>
                                    </g>
                                </g>
                            </g>
                        </g>
                        <g id="CHAIR" transform="translate(56.688 106.44)">
                            <path id="Line_36" d="M14.621 0L0 68.43" class="cls-28" transform="translate(0 6.454)"/>
                            <path id="Line_37" d="M0 0L14.621 68.43" class="cls-28" transform="translate(52.038 6.454)"/>
                            <path id="Line_38" d="M0 0L59.978 0" class="cls-28" transform="translate(3.24 59.692)"/>
                            <path id="Path_5113" d="M158.51 81.1H98.071a1.386 1.386 0 0 1-1.385-1.385v-3.682a1.386 1.386 0 0 1 1.385-1.385h60.439a1.386 1.386 0 0 1 1.385 1.385v3.685a1.386 1.386 0 0 1-1.385 1.382z" class="cls-23" transform="translate(-94.965 -74.648)"/>
                        </g>
                    </g>
                </g>
            </g>
        </g>
    </g>
</svg>
