<svg xmlns="http://www.w3.org/2000/svg" width="112" height="160" viewBox="0 0 112 160">
    <defs>
        <clipPath id="clip-path">
            <rect id="Rectangle_2595" width="112" height="160" class="cls-1" rx="10" transform="translate(655 601)"/>
        </clipPath>
        <style>
            .cls-1,.cls-10,.cls-14,.cls-8{fill:#fff}.cls-15,.cls-22,.cls-23,.cls-24,.cls-4,.cls-6{fill:none}.cls-14,.cls-4{stroke:#66b0f0}.cls-10,.cls-14,.cls-15,.cls-22,.cls-23,.cls-24,.cls-4,.cls-6,.cls-8{stroke-miterlimit:10}.cls-10,.cls-14,.cls-22,.cls-23,.cls-4,.cls-6{stroke-width:.219px}.cls-15,.cls-6,.cls-8{stroke:#ffcf2d}.cls-7{fill:#66b0f0}.cls-15,.cls-24,.cls-8{stroke-width:.183px}.cls-9{fill:#ffcf2d}.cls-10,.cls-22{stroke:#fe5244}.cls-11{fill:#fe5244}.cls-23{stroke:#fff}.cls-23,.cls-24{stroke-linecap:round}.cls-13{fill:#3fb1b5}.cls-16{fill:#a0505a}.cls-17{fill:#73325a}.cls-18{fill:#feb040}.cls-19{fill:#e57281}.cls-20{fill:#9a3b82}.cls-24{stroke:#73325a}
        </style>
    </defs>
    <g id="Group_2423" transform="translate(-754 -249)">
        <rect id="Rectangle_2615" width="112" height="160" fill="#fff5d4" rx="10" transform="translate(754 249)"/>
        <g id="Mask_Group_5" clip-path="url(#clip-path)" transform="translate(99 -352)">
            <g id="_4_SCENE" transform="translate(585.334 610.93)">
                <g id="FLOOR" transform="translate(35.452 214.168)">
                    <path id="Line_107" d="M221.548 0L0 0" class="cls-4"/>
                    <path id="Line_108" d="M0 0L126.869 0" class="cls-4" transform="translate(19.352 4.013)"/>
                </g>
                <g id="TABLE" transform="translate(79.456 99.044)">
                    <path id="Path_6371" fill="#d0f0e4" d="M157.795 87.565h-35.433a3.042 3.042 0 0 0-3.039 3.039v46.752h41.5V90.6a3.03 3.03 0 0 0-3.028-3.035z" transform="translate(8.333 -22.233)"/>
                    <path id="Path_6372" d="M157.795 87.565h-35.433a3.042 3.042 0 0 0-3.039 3.039v46.752h41.5V90.6a3.03 3.03 0 0 0-3.028-3.035z" class="cls-6" transform="translate(8.333 -22.233)"/>
                    <path id="Rectangle_2605" d="M0 0H51.131V102.307H0z" class="cls-6" transform="translate(122.879 12.809)"/>
                    <path id="Path_6374" d="M157.76 83.145H122.4a3.042 3.042 0 0 1-3.039-3.039V67.619a3.042 3.042 0 0 1 3.039-3.039h35.36a3.042 3.042 0 0 1 3.039 3.039v12.494a3.035 3.035 0 0 1-3.039 3.032z" class="cls-6" transform="translate(8.367 -46.29)"/>
                    <path id="Path_6375" d="M157.76 94.192H122.4a3.042 3.042 0 0 1-3.039-3.039V78.665a3.042 3.042 0 0 1 3.039-3.039h35.36a3.042 3.042 0 0 1 3.039 3.039v12.488a3.042 3.042 0 0 1-3.039 3.039z" class="cls-6" transform="translate(8.367 -34.729)"/>
                    <circle id="Ellipse_1382" cx="2.433" cy="2.433" r="2.433" class="cls-4" transform="translate(146.131 24.982)"/>
                    <circle id="Ellipse_1383" cx="2.433" cy="2.433" r="2.433" class="cls-4" transform="translate(146.131 47.657)"/>
                </g>
                <g id="BACKET" transform="translate(211.177 173.45)">
                    <g id="Group_2225" transform="translate(.03 6.266)">
                        <path id="Path_6376" d="M153.186 95.174l-.052.322-.023.187-.779 4.963-.082.532-.352 2.261-.127.794-.329 2.1-.082.532-.8 5.136v.022l-.082.532-.045.24-.764 4.911-.082.532-.359 2.313v.007l-.127.794-.322 2.036-.082.532-.8 5.158-.008.03-.037.24-.007.052H126.8l-.007-.06-.037-.21-.008-.067-.809-5.151-.082-.539-.314-2-.12-.8-.367-2.351-.082-.531-.764-4.874-.045-.277-.082-.524V112l-.809-5.158-.082-.532-.322-2.059-.12-.794-.359-2.3-.082-.532-.771-4.926-.082-.532z" class="cls-1" transform="translate(-121.182 -94.942)"/>
                        <path id="Path_6377" d="M148.184 129.744h-21.44l-.09-.554-5.33-34.13H153.6zm-21.044-.464h20.64l5.27-33.748h-31.187z" class="cls-7" transform="translate(-121.324 -95.06)"/>
                    </g>
                    <path id="Path_6378" d="M153.635 97.218a.966.966 0 0 1-.052.322c-.255.786-1.422 1.512-3.257 2.111-.135.045-.269.082-.4.127a30.107 30.107 0 0 1-4.192.891l-.457.067c-1.407.195-2.942.337-4.567.419l-.487.022c-.891.037-1.812.06-2.747.06-.719 0-1.43-.015-2.126-.037l-.517-.022c-1.872-.075-3.638-.232-5.24-.457-.195-.03-.382-.052-.569-.082a20.5 20.5 0 0 1-6.244-1.744 2.752 2.752 0 0 1-1.422-1.355l-.045-.314c0-2.216 7.232-4.005 16.155-4.005 8.871 0 16.073 1.774 16.155 3.975.012.004.012.004.012.022z" class="cls-7" transform="translate(-121.309 -90.72)"/>
                    <g id="Group_2248" transform="translate(.344 6.453)">
                        <g id="Group_2227" transform="translate(0 .299)">
                            <g id="Group_2226">
                                <path id="Path_6379" d="M147.881 128.949v.3l-.052-.037-.007.045h-.195l-2.388-3.084-.247-.322-2.4-3.1-.247-.322-2.4-3.1-.247-.322-2.4-3.1-.247-.322-2.4-3.1-.247-.322-2.4-3.1-.247-.322-2.4-3.1-.247-.322-2.4-3.1-.247-.322-2.4-3.1-.247-.322-2.3-2.965-.037-.217a2.675 2.675 0 0 0 1.392 1.333l1.183 1.527.247.322 2.4 3.1.247.322 2.4 3.1.247.322 2.4 3.1.247.322 2.4 3.1.247.322 2.4 3.1.247.322 2.4 3.1.247.322 2.4 3.1.247.322 2.4 3.1.247.322 2.388 3.084z" class="cls-7" transform="translate(-121.477 -95.298)"/>
                            </g>
                        </g>
                        <g id="Group_2229" transform="translate(7.524 3.384)">
                            <g id="Group_2228">
                                <path id="Path_6380" d="M144.91 121.674l-.082.532-.794-1.026-.247-.322-2.4-3.1-.247-.322-2.4-3.1-.247-.322-2.4-3.1-.247-.322-2.4-3.1-.247-.322-2.381-3.069-.247-.322-2.4-3.1-.247-.322-2.4-3.1-.247-.322-.1-.135c.18.03.367.052.554.082l.037.052 2.4 3.1.247.322 2.4 3.1.247.322 2.4 3.1.247.322 2.4 3.1.247.322 2.4 3.1.247.322 2.4 3.1.247.322 2.4 3.1.247.322z" class="cls-7" transform="translate(-125.153 -96.805)"/>
                            </g>
                        </g>
                        <g id="Group_2231" transform="translate(13.213 3.9)">
                            <g id="Group_2230">
                                <path id="Path_6381" d="M142.891 115.728l-.082.532-1.684-2.171-.247-.322-2.4-3.1-.247-.322-2.4-3.1-.247-.322-2.4-3.1-.247-.322-2.4-3.1-.247-.322-2.343-3.024.509.022 2.081 2.68.247.322 2.4 3.1.247.322 2.4 3.1.247.322 2.4 3.1.247.322 2.4 3.1.247.322z" class="cls-7" transform="translate(-127.933 -97.057)"/>
                            </g>
                        </g>
                        <g id="Group_2233" transform="translate(18.513 3.885)">
                            <g id="Group_2232">
                                <path id="Path_6382" d="M141.071 110.054l-.082.532-.172-.225-2.4-3.1-.247-.322-2.4-3.1-.247-.322-2.4-3.1-.247-.322-2.343-3.024.467-.021 2.111 2.725.247.322 2.4 3.1.247.322 2.4 3.1.247.322 2.4 3.1z" class="cls-7" transform="translate(-130.523 -97.05)"/>
                            </g>
                        </g>
                        <g id="Group_2235" transform="translate(3.93 25.438)">
                            <g id="Group_2234">
                                <path id="Path_6383" d="M130.143 116.288l-.15.112-.007.007h-.247l-2.4-3.084-.239-.323-2.4-3.1-.247-.314-.936-1.205-.12-.8 1.3 1.684.247.322 2.4 3.092.247.322 2.4 3.1z" class="cls-7" transform="translate(-123.398 -107.581)"/>
                            </g>
                        </g>
                        <g id="Group_2237" transform="translate(5.263 33.995)">
                            <g id="Group_2236">
                                <path id="Path_6384" d="M124.161 111.912l-.075.06-.037-.21z" class="cls-7" transform="translate(-124.049 -111.762)"/>
                            </g>
                        </g>
                        <g id="Group_2239" transform="translate(2.59 16.881)">
                            <g id="Group_2238">
                                <path id="Path_6385" d="M136.121 120.663l-.15.112-.007.007h-.247l-2.388-3.084-.247-.322-2.4-3.1-.247-.314-2.4-3.1-.247-.314v-.007l-2.4-3.092-.247-.322-2.271-2.927-.045-.277-.082-.524.24.314 2.4 3.1.247.314 2.4 3.1.247.322 2.4 3.092.247.322 2.4 3.092.247.322 2.4 3.1z" class="cls-7" transform="translate(-122.743 -103.4)"/>
                            </g>
                        </g>
                        <g id="Group_2241" transform="translate(1.258 8.332)">
                            <g id="Group_2240">
                                <path id="Path_6386" d="M142.095 125.035l-.15.112-.008.007h-.247l-2.388-3.084-.247-.322-2.4-3.1-.247-.314-2.4-3.1-.247-.314-2.4-3.1-.247-.322-2.4-3.092-.247-.322-2.4-3.1-.247-.314-2.4-3.1-.247-.314-.958-1.243-.12-.794 1.325 1.714.247.322 2.4 3.092.247.322 2.4 3.092.247.322 2.4 3.1.247.314 2.4 3.1.247.322 2.4 3.092.247.322 2.4 3.092.247.322 2.4 3.1z" class="cls-7" transform="translate(-122.092 -99.223)"/>
                            </g>
                        </g>
                        <g id="Group_2243" transform="translate(23.477 3.414)">
                            <g id="Group_2242">
                                <path id="Path_6387" d="M139.416 104.605l-.082.532-.809-1.048-.247-.322-2.4-3.1-.247-.322-2.4-3.1-.247-.322-.03-.037.442-.067.082.1 2.4 3.1.247.322 2.4 3.1.247.322z" class="cls-7" transform="translate(-132.948 -96.82)"/>
                            </g>
                        </g>
                        <g id="Group_2245" transform="translate(28.051 2.426)">
                            <g id="Group_2244">
                                <path id="Path_6388" d="M137.968 99.429l-.082.532-1.7-2.193-.247-.322-.756-.981c.135-.037.27-.082.4-.127l.606.786.247.322z" class="cls-7" transform="translate(-135.183 -96.337)"/>
                            </g>
                        </g>
                        <g id="Group_2247" transform="translate(31.637)">
                            <g id="Group_2246">
                                <path id="Path_6389" d="M137.2 95.316l-.21.27-.06-.075a.923.923 0 0 0 .052-.314v-.037l.008-.008z" class="cls-7" transform="translate(-136.935 -95.152)"/>
                            </g>
                        </g>
                    </g>
                    <g id="Group_2267" transform="translate(1.153 6.783)">
                        <g id="Group_2250" transform="translate(9.575 7.98)">
                            <g id="Group_2249">
                                <path id="Path_6390" d="M146.569 99.212l-.127.794-.973 1.265-.247.314-2.4 3.1-.247.314-2.4 3.1-.247.322-2.4 3.092-.247.322-2.4 3.1-.247.314-2.4 3.1-.247.314-2.4 3.1-.247.322-2.4 3.084h-.24l-.007-.008-.142-.112.142-.187 2.4-3.1.247-.322 2.4-3.092.247-.322 2.4-3.092.247-.322 2.4-3.1.247-.314 2.4-3.1.247-.322 2.4-3.092.247-.322 2.4-3.092.247-.322z" class="cls-7" transform="translate(-126.551 -99.212)"/>
                            </g>
                        </g>
                        <g id="Group_2252" transform="translate(4.424)">
                            <g id="Group_2251">
                                <path id="Path_6391" d="M150.416 95.537l-2.316 2.987-.247.322-2.4 3.1-.247.322-2.4 3.1-.247.322-2.4 3.1-.247.322-2.388 3.069-.247.322-2.4 3.1-.247.322-2.4 3.1-.247.322-2.4 3.1-.247.322-2.4 3.1-.247.322-2.388 3.084h-.18l-.007-.06-.03-.21-.03-.037.022-.03 2.381-3.069.247-.322 2.4-3.1.247-.322 2.4-3.1.247-.322 2.4-3.1.247-.322 2.4-3.1.247-.322 2.4-3.1.247-.322 2.4-3.1.247-.322 2.4-3.1.247-.322 2.4-3.1.247-.322 1.175-1.52a2.716 2.716 0 0 0 1.415-1.34z" class="cls-7" transform="translate(-124.034 -95.313)"/>
                            </g>
                        </g>
                        <g id="Group_2254" transform="translate(3.526 3.077)">
                            <g id="Group_2253">
                                <path id="Path_6392" d="M143.366 96.816l-.1.135-.247.322-2.4 3.1-.247.322-2.4 3.1-.247.322-2.4 3.1-.247.322-2.4 3.1-.247.322-2.4 3.1-.247.322-2.4 3.1-.247.322-2.4 3.1-.247.322-.786 1.011-.082-.532.621-.8.247-.322 2.4-3.1.247-.322 2.4-3.1.247-.322 2.4-3.1.247-.322 2.4-3.1.247-.322 2.4-3.1.247-.322 2.4-3.1.247-.322 2.4-3.1.037-.052c.127-.015.255-.037.374-.052.064-.017.123-.025.183-.032z" class="cls-7" transform="translate(-123.595 -96.816)"/>
                            </g>
                        </g>
                        <g id="Group_2256" transform="translate(2.658 3.601)">
                            <g id="Group_2255">
                                <path id="Path_6393" d="M138.113 97.072l-2.343 3.017-.247.322-2.4 3.1-.247.322-2.4 3.1-.247.322-2.4 3.1-.247.322-2.4 3.1-.247.322-1.669 2.156-.082-.532 1.5-1.946.247-.322 2.4-3.1.247-.322 2.4-3.1.247-.322 2.4-3.1.247-.322 2.4-3.1.247-.322 2.081-2.68c.169 0 .341-.007.513-.015z" class="cls-7" transform="translate(-123.171 -97.072)"/>
                            </g>
                        </g>
                        <g id="Group_2258" transform="translate(20.16 25.094)">
                            <g id="Group_2257">
                                <path id="Path_6394" d="M138.483 107.574l-.127.794-.956 1.232-.247.314-2.4 3.1-.247.322-2.4 3.084h-.247l-.007-.008-.142-.112.142-.187 2.4-3.1.247-.322 2.4-3.092.247-.322z" class="cls-7" transform="translate(-131.723 -107.574)"/>
                            </g>
                        </g>
                        <g id="Group_2260" transform="translate(14.868 16.537)">
                            <g id="Group_2259">
                                <path id="Path_6395" d="M142.395 104.186l-2.283 2.95-.247.322-2.4 3.1-.247.314-2.4 3.1-.247.314-2.4 3.1-.247.322-2.4 3.084h-.247l-.007-.007-.142-.112.142-.187 2.4-3.1.247-.322 2.4-3.092.247-.322 2.4-3.092.247-.322 2.4-3.1.247-.314 2.4-3.1.247-.322.007-.007v.022l-.082.532z" class="cls-7" transform="translate(-129.137 -103.393)"/>
                            </g>
                        </g>
                        <g id="Group_2262" transform="translate(1.767 3.578)">
                            <g id="Group_2261">
                                <path id="Path_6396" d="M133.276 97.076l-2.343 3.024-.247.322-2.4 3.1-.247.322-2.4 3.1-.247.322-2.4 3.1-.157.21-.082-.517-.007-.007.007-.007 2.4-3.092.247-.322 2.4-3.1.247-.322 2.4-3.1.247-.322 2.111-2.725c.157-.001.314.007.471.014z" class="cls-7" transform="translate(-122.736 -97.061)"/>
                            </g>
                        </g>
                        <g id="Group_2264" transform="translate(.891 3.107)">
                            <g id="Group_2263">
                                <path id="Path_6397" d="M128.768 96.891l-.03.045-.247.322-2.4 3.1-.247.322-2.4 3.1-.247.322-.8 1.033-.082-.532.636-.823.247-.322 2.4-3.1.247-.322 2.4-3.1.082-.1c.12.015.247.037.374.052z" class="cls-7" transform="translate(-122.308 -96.831)"/>
                            </g>
                        </g>
                        <g id="Group_2266" transform="translate(0 2.096)">
                            <g id="Group_2265">
                                <path id="Path_6398" d="M124.657 96.464l-.764.981-.247.322-1.692 2.179-.082-.532 1.527-1.969.247-.322.614-.786c.128.045.262.09.397.127z" class="cls-7" transform="translate(-121.872 -96.337)"/>
                            </g>
                        </g>
                    </g>
                    <g id="Group_2268" transform="translate(13.318)">
                        <path id="Path_6399" d="M141.248 94.1h-6.91V92h4.192a2.812 2.812 0 0 1 2.718 2.1z" class="cls-8" transform="translate(-120.99 -91.999)"/>
                        <path id="Path_6400" d="M145.4 92a4.4 4.4 0 0 0-4.2 3.227l-1.595 5.787c-.225.037-.457.075-.689.1l-.457.067c-1.407.195-2.942.337-4.567.419l-.487.022c-.891.037-1.812.06-2.747.06-.719 0-1.43-.015-2.126-.037l-.517-.022c-.067 0-.135-.008-.2-.008l1.767-6.393A4.394 4.394 0 0 1 133.828 92z" class="cls-8" transform="translate(-127.816 -91.999)"/>
                    </g>
                </g>
                <g id="LAMP" transform="translate(190.298 38.915)">
                    <path id="Path_6401" d="M158.158 31.048l17.675 50.337h-64.726l17.2-50.337z" class="cls-9" transform="translate(-111.107 -21.256)"/>
                    <g id="Group_2269" transform="translate(13.67)">
                        <path id="Path_6402" d="M126.873 30.059a3.8 3.8 0 0 1 3.8-3.8h2.193a3.8 3.8 0 0 1 3.8 3.8v49.117" class="cls-4" transform="translate(-108.277 -26.263)"/>
                        <path id="Path_6403" d="M142.329 57.732v1.52h-16.005v-1.52a5.62 5.62 0 0 1 5.615-5.615h4.769c.075 0 .157 0 .232.007a5.611 5.611 0 0 1 5.389 5.608z" class="cls-10" transform="translate(-108.851 .796)"/>
                        <path id="Path_6404" d="M154.821 34.313h-37.035v-1.16a5.024 5.024 0 0 1 5.023-5.023H149.8a5.024 5.024 0 0 1 5.023 5.023v1.16z" class="cls-11" transform="translate(-117.786 -24.311)"/>
                        <path id="Line_109" fill="none" stroke="#fff" stroke-linecap="round" stroke-miterlimit="10" stroke-width="0.183px" d="M37.034 0L0 0" transform="translate(0 9.073)"/>
                        <path id="Path_6405" d="M149.136 31.15a2.18 2.18 0 0 1-1.849 2.4h-25.918a2.185 2.185 0 0 1-1.849-2.4z" class="cls-1" transform="translate(-115.972 -21.149)"/>
                        <path id="Path_6406" d="M136.626 53.584a4.653 4.653 0 0 1-4.9 4.357 4.755 4.755 0 0 1-4.829-3.653 5.616 5.616 0 0 1 4.432-2.171h4.771c.075 0 .157 0 .232.007a3.71 3.71 0 0 1 .294 1.46z" class="cls-10" transform="translate(-108.246 .796)"/>
                        <path id="Path_6407" d="M130.33 51.616v2.351a.988.988 0 0 1-1.961 0v-2.351h.015a1 1 0 0 0 1.917 0z" class="cls-11" transform="translate(-106.711 .271)"/>
                        <path id="Path_6408" d="M130.021 51.989a1.123 1.123 0 0 1-.015.157.779.779 0 0 1-.764.651.791.791 0 0 1-.764-.651 1.116 1.116 0 0 1-.015-.157.79.79 0 0 1 .779-.809.8.8 0 0 1 .779.809z" class="cls-10" transform="translate(-106.611 -.184)"/>
                    </g>
                </g>
                <g id="BOOKS" transform="translate(167.285 64.922)">
                    <path id="Rectangle_2606" d="M0 0H2.56V34.122H0z" class="cls-13" transform="translate(32.034)"/>
                    <path id="Path_6409" d="M117.664 69.471h-4.387a.837.837 0 0 1-.838-.838V43.27a.837.837 0 0 1 .838-.838h4.387a.837.837 0 0 1 .838.838v25.363a.837.837 0 0 1-.838.838z" class="cls-8" transform="translate(-86.701 -35.349)"/>
                    <path id="Path_6410" d="M127.166 68.171h-5.038a.762.762 0 0 1-.749-.621l-4.522-23.492a.761.761 0 0 1 .749-.906h5.038a.762.762 0 0 1 .749.621l4.522 23.492a.761.761 0 0 1-.749.906z" class="cls-4" transform="translate(-82.091 -34.595)"/>
                    <path id="Path_6411" d="M124.6 59.154h-23.734a1 1 0 0 1-1-1v-4.862a1 1 0 0 1 1-1H124.6a1 1 0 0 1 1 1v4.859a1 1 0 0 1-1 1.003z" class="cls-11" transform="translate(-99.863 -25.032)"/>
                </g>
                <g id="COMPUTER" transform="translate(115.458 33.555)">
                    <g id="Group_2281" transform="translate(23.275 51.752)">
                        <path id="Path_6417" d="M113.9 62.668H85.912l5.42-11.978.794-1.759h15.564l2.186 4.829z" class="cls-14" transform="translate(-85.912 -48.931)"/>
                        <path id="Path_6418" d="M107.1 53.76l-18.54-3.07.794-1.759h15.564z" class="cls-7" transform="translate(-83.14 -48.931)"/>
                    </g>
                    <path id="Path_6419" d="M144.8 75.4H78.912a4.372 4.372 0 0 1-4.372-4.372V28.016a4.372 4.372 0 0 1 4.372-4.372H144.8a4.372 4.372 0 0 1 4.372 4.372v43A4.379 4.379 0 0 1 144.8 75.4z" class="cls-14" transform="translate(-74.54 -23.644)"/>
                    <g id="Group_2294" transform="translate(21.777 40.86)">
                        <path id="Path_6420" d="M113.92 51.462H87.509a2.326 2.326 0 0 1-2.328-2.328v-3.2a2.326 2.326 0 0 1 2.328-2.328h26.411a2.326 2.326 0 0 1 2.328 2.328v3.2a2.331 2.331 0 0 1-2.328 2.328z" class="cls-7" transform="translate(-85.18 -43.609)"/>
                        <g id="Group_2284" transform="translate(19.225 2.725)">
                            <g id="Group_2282">
                                <path id="Path_6421" d="M97.157 47.935h-1.782a.8.8 0 0 1-.8-.8v-1.394a.8.8 0 0 1 .8-.8h1.782a.8.8 0 0 1 .8.8v1.392a.8.8 0 0 1-.8.802z" class="cls-1" transform="translate(-94.574 -44.94)"/>
                            </g>
                            <g id="Group_2283" transform="translate(3.9 .196)">
                                <path id="Path_6422" d="M97.43 47.6l-.659-.419a.629.629 0 0 1-.292-.532v-.629a.629.629 0 0 1 .292-.532l.659-.419a.235.235 0 0 1 .359.195V47.4a.234.234 0 0 1-.359.2z" class="cls-1" transform="translate(-96.479 -45.036)"/>
                            </g>
                        </g>
                        <g id="Group_2289" transform="translate(13.707 1.782)">
                            <g id="Group_2285" transform="translate(0 1.243)">
                                <path id="Path_6423" d="M93.225 47.078h-.165a1.185 1.185 0 0 1-1.182-1.178v-.7a.115.115 0 0 1 .112-.112h2.3a.115.115 0 0 1 .112.112v.7a1.174 1.174 0 0 1-1.177 1.178zM92.1 45.311v.589a.96.96 0 0 0 .958.958h.165a.96.96 0 0 0 .958-.958v-.584z" class="cls-1" transform="translate(-91.878 -45.087)"/>
                            </g>
                            <g id="Group_2286" transform="translate(1.153 3.459)">
                                <path id="Path_6424" d="M92.554 47.24a.115.115 0 0 1-.112-.112v-.846a.112.112 0 1 1 .225 0v.846a.115.115 0 0 1-.113.112z" class="cls-1" transform="translate(-92.441 -46.169)"/>
                            </g>
                            <g id="Group_2287" transform="translate(.569 4.305)">
                                <path id="Path_6425" d="M93.444 46.807h-1.176a.112.112 0 0 1 0-.225h1.175a.112.112 0 1 1 0 .225z" class="cls-1" transform="translate(-92.156 -46.583)"/>
                            </g>
                            <g id="Group_2288" transform="translate(.539)">
                                <path id="Path_6426" d="M92.92 47.189h-.1a.671.671 0 0 1-.674-.674v-1.362a.671.671 0 0 1 .674-.674h.1a.671.671 0 0 1 .674.674v1.363a.671.671 0 0 1-.674.673z" class="cls-1" transform="translate(-92.141 -44.479)"/>
                            </g>
                        </g>
                        <g id="Group_2293" transform="translate(6.646 2.048)">
                            <g id="Group_2290" transform="translate(0 .432)">
                                <path id="Path_6427" d="M89.919 45.987l-.007.007a.425.425 0 0 0 .09.591l.689.554a.431.431 0 0 0 .6-.037l.008-.007a.415.415 0 0 1 .591-.022l.621.561a.4.4 0 0 1 0 .614 1.8 1.8 0 0 1-2.193-.269l-1.048-.846a1.821 1.821 0 0 1-.726-2.1.389.389 0 0 1 .6-.127l.681.494a.423.423 0 0 1 .094.587z" class="cls-1" transform="translate(-88.428 -44.821)"/>
                            </g>
                            <g id="Group_2291" transform="translate(2.045 .787)">
                                <path id="Path_6428" d="M90.7 46.239a.114.114 0 0 1-.112-.1.98.98 0 0 0-1.041-.913.121.121 0 0 1-.12-.1.115.115 0 0 1 .1-.12 1.206 1.206 0 0 1 1.28 1.123.111.111 0 0 1-.112.12z" class="cls-1" transform="translate(-89.427 -44.994)"/>
                            </g>
                            <g id="Group_2292" transform="translate(1.985)">
                                <path id="Path_6429" d="M91.435 46.529a.114.114 0 0 1-.112-.1 1.7 1.7 0 0 0-1.8-1.587.121.121 0 0 1-.12-.1.115.115 0 0 1 .1-.12 1.94 1.94 0 0 1 1.392.472 1.912 1.912 0 0 1 .651 1.318.111.111 0 0 1-.112.127z" class="cls-1" transform="translate(-89.398 -44.609)"/>
                            </g>
                        </g>
                    </g>
                    <g id="Group_2295" transform="translate(56.985 2.493)">
                        <circle id="Ellipse_1384" cx=".779" cy=".779" r=".779" class="cls-15"/>
                        <circle id="Ellipse_1385" cx=".779" cy=".779" r=".779" class="cls-15" transform="translate(3.182)"/>
                        <circle id="Ellipse_1386" cx=".779" cy=".779" r=".779" class="cls-15" transform="translate(6.371)"/>
                    </g>
                    <path id="Path_6430" d="M104.077 50.421H80.616a1.3 1.3 0 0 1-1.3-1.3V36.564a1.3 1.3 0 0 1 1.3-1.3h23.462a1.3 1.3 0 0 1 1.3 1.3v12.562a1.3 1.3 0 0 1-1.301 1.295z" class="cls-4" transform="translate(-69.536 -11.478)"/>
                    <g id="Group_2300" transform="translate(39.378 23.791)">
                        <path id="Path_6431" d="M118.537 50.421H95.075a1.3 1.3 0 0 1-1.3-1.3V36.564a1.3 1.3 0 0 1 1.3-1.3h23.462a1.3 1.3 0 0 1 1.3 1.3v12.562a1.3 1.3 0 0 1-1.3 1.295z" class="cls-13" transform="translate(-93.78 -35.269)"/>
                        <g id="Group_2299" transform="translate(4.993 2.495)">
                            <path id="Path_6432" d="M111.552 44.258H96.22a8.443 8.443 0 0 1 6.565-3.137h2.2a8.466 8.466 0 0 1 6.567 3.137z" class="cls-11" transform="translate(-96.22 -31.639)"/>
                            <path id="Path_6433" d="M101.925 41.125a2.305 2.305 0 0 1-4.29.831 8.445 8.445 0 0 1 3.661-.831z" class="cls-1" transform="translate(-94.738 -31.635)"/>
                            <path id="Path_6434" d="M104.211 41.653a2.3 2.3 0 0 1-4.432-.532h1.49a8.541 8.541 0 0 1 2.942.532z" class="cls-1" transform="translate(-92.495 -31.639)"/>
                            <path id="Path_6435" d="M103.541 39.494v3.4c0 .532-1.063.958-2.366.958a6.707 6.707 0 0 1-.689-.037c-.973-.12-1.677-.487-1.677-.921v-3.4z" class="cls-16" transform="translate(-93.509 -33.342)"/>
                            <path id="Path_6436" d="M103.226 40.194a4.081 4.081 0 0 1-2.74 3.616c-.973-.12-1.677-.487-1.677-.921v-3.4h4.342z" class="cls-17" transform="translate(-93.509 -33.346)"/>
                            <path id="Path_6437" d="M105.385 40.893v.082a1.051 1.051 0 0 1-1.048 1.048h-1a2.868 2.868 0 0 1-2.605 1.654h-.195a2.326 2.326 0 0 1-2.328-2.328v-2.4a6.805 6.805 0 0 0 3.384-1.205 2.612 2.612 0 0 0 3.219 2.216 1.062 1.062 0 0 1 .573.933z" class="cls-16" transform="translate(-94.141 -35.176)"/>
                            <g id="Group_2296" transform="translate(9.657 5.103)">
                                <path id="Path_6438" d="M101.051 39.962a.115.115 0 0 1-.112-.112.869.869 0 0 1 .868-.868.112.112 0 0 1 0 .225.644.644 0 0 0-.644.644.115.115 0 0 1-.112.111z" class="cls-17" transform="translate(-100.938 -38.982)"/>
                            </g>
                            <path id="Path_6439" d="M104.712 43.336h.165a1.051 1.051 0 0 0 1.048-1.048v-.082a1.04 1.04 0 0 0-.576-.936 3.356 3.356 0 0 1-.861.052 2.609 2.609 0 0 1-2.358-2.268 6.805 6.805 0 0 1-3.384 1.205 1.7 1.7 0 0 1-.771-.217c-1.235-.7 1.752-4 5.18-3.5 2.74.4 2.68 3.676 2.628 4.454a3.66 3.66 0 0 1 .4-.022 3.542 3.542 0 0 1 3.631 3.451 3.412 3.412 0 0 1-1.729 2.942 8.382 8.382 0 0 0-3.376-1.3z" class="cls-9" transform="translate(-94.681 -36.488)"/>
                            <g id="Group_2297" transform="translate(4.131 4.058)">
                                <path id="Path_6440" d="M99.684 40.579a.056.056 0 0 1-.037-.007.111.111 0 0 1-.067-.142 1.608 1.608 0 0 0-.15-1.265 1.076 1.076 0 0 0-1.063-.457.113.113 0 0 1-.03-.225 1.312 1.312 0 0 1 1.3.569A1.809 1.809 0 0 1 99.8 40.5a.141.141 0 0 1-.116.079z" class="cls-17" transform="translate(-98.238 -38.471)"/>
                            </g>
                            <g id="Group_2298" transform="translate(6.415 4.053)">
                                <path id="Path_6441" d="M101.069 39.16a.121.121 0 0 1-.067-.022 2.5 2.5 0 0 0-1.527-.442.113.113 0 0 1-.015-.225 2.693 2.693 0 0 1 1.677.487.109.109 0 0 1 .022.157.129.129 0 0 1-.09.045z" class="cls-17" transform="translate(-99.354 -38.468)"/>
                            </g>
                            <path id="Path_6442" d="M98.755 39.626s.18 1.183 1.4.03a4.6 4.6 0 0 1-1.4-.03z" class="cls-1" transform="translate(-93.567 -33.204)"/>
                            <ellipse id="Ellipse_1387" cx=".157" cy=".352" class="cls-17" rx=".157" ry=".352" transform="translate(6.91 4.722)"/>
                            <ellipse id="Ellipse_1388" cx=".135" cy=".292" class="cls-17" rx=".135" ry=".292" transform="translate(4.597 4.782)"/>
                        </g>
                    </g>
                    <g id="Group_2305" transform="translate(39.086 6.625)">
                        <path id="Path_6443" d="M118.394 42.034H94.932a1.3 1.3 0 0 1-1.3-1.3V28.177a1.3 1.3 0 0 1 1.3-1.3h23.462a1.3 1.3 0 0 1 1.3 1.3v12.562a1.3 1.3 0 0 1-1.3 1.295z" class="cls-7" transform="translate(-93.637 -26.882)"/>
                        <g id="Group_2304" transform="translate(5.66 3.062)">
                            <path id="Path_6444" d="M110.724 35.9H96.4a7.665 7.665 0 0 1 6.131-3.152h2.059a7.665 7.665 0 0 1 6.134 3.152z" class="cls-9" transform="translate(-96.403 -23.807)"/>
                            <path id="Path_6445" d="M100.491 36.2h.322a2.54 2.54 0 0 0 2.538-2.538v-1.8a.016.016 0 0 0-.015-.015h-4.709a.016.016 0 0 0-.015.015v2.478a1.877 1.877 0 0 0 1.879 1.86z" class="cls-1" transform="translate(-94.09 -24.753)"/>
                            <path id="Path_6446" d="M98.616 31.842v2.53c.067 1.392 3.534.846 4.574-2.53z" class="cls-9" transform="translate(-94.086 -24.753)"/>
                            <path id="Path_6447" d="M105.352 32.988a1.086 1.086 0 0 1-1.093 1.086h-1.026a2.575 2.575 0 0 1-2.411 1.662h-.8a2.014 2.014 0 0 1-2.014-2.014v-3.145a3.138 3.138 0 0 0 2.164-.868c-.015.052-.6 1.7.726 1.789a1.719 1.719 0 0 0 1.767-.9c0 .037.008 1.31 1.048 1.377h.546a1.027 1.027 0 0 1 1.093 1.013z" class="cls-1" transform="translate(-94.722 -26.984)"/>
                            <path id="Path_6448" d="M104.633 33.371h-.09c-1.041-.067-1.048-1.333-1.048-1.377a1.729 1.729 0 0 1-1.767.9c-1.318-.09-.741-1.737-.726-1.789a3.174 3.174 0 0 1-2.164.868 1.939 1.939 0 0 1-.771-.232c-1.684-.913-.6-2.792 1.056-2.815a2.359 2.359 0 0 1 1.879.7 1.579 1.579 0 0 1 1.9-1.22 1.415 1.415 0 0 1 1.325 1.684 1.683 1.683 0 0 1 2.1.532 1.847 1.847 0 0 1-1.694 2.749z" class="cls-11" transform="translate(-95.545 -28.378)"/>
                            <g id="Group_2301" transform="translate(3.299 4.107)">
                                <path id="Path_6449" d="M99.38 32.64h-.03a.112.112 0 0 1-.082-.135 2.175 2.175 0 0 0-.142-1.355.966.966 0 0 0-.981-.539.111.111 0 0 1-.127-.09.106.106 0 0 1 .09-.127 1.19 1.19 0 0 1 1.22.651 2.334 2.334 0 0 1 .165 1.512.14.14 0 0 1-.113.083z" class="cls-9" transform="translate(-98.014 -30.385)"/>
                            </g>
                            <g id="Group_2302" transform="translate(4.571 6.471)">
                                <path id="Path_6450" d="M99.126 32.3a1.515 1.515 0 0 1-.4-.052.112.112 0 1 1 .052-.217c.037.007.891.232 1.205-.427a.112.112 0 0 1 .15-.052.106.106 0 0 1 .052.15 1.089 1.089 0 0 1-1.059.598z" class="cls-9" transform="translate(-98.636 -31.539)"/>
                            </g>
                            <ellipse id="Ellipse_1389" cx=".157" cy=".352" class="cls-9" rx=".157" ry=".352" transform="translate(5.989 4.761)"/>
                            <ellipse id="Ellipse_1390" cx=".135" cy=".292" class="cls-9" rx=".135" ry=".292" transform="translate(3.683 4.821)"/>
                            <g id="Group_2303" transform="translate(8.864 5.435)">
                                <path id="Path_6451" d="M100.846 32.014a.115.115 0 0 1-.112-.112.869.869 0 0 1 .868-.868.112.112 0 1 1 0 .225.644.644 0 0 0-.644.644.115.115 0 0 1-.112.111z" class="cls-9" transform="translate(-100.734 -31.033)"/>
                            </g>
                        </g>
                    </g>
                    <g id="Group_2315" transform="translate(9.485 6.625)">
                        <path id="Path_6452" d="M103.931 42.034H80.469a1.3 1.3 0 0 1-1.3-1.3V28.177a1.3 1.3 0 0 1 1.3-1.3h23.462a1.3 1.3 0 0 1 1.3 1.3v12.562a1.291 1.291 0 0 1-1.3 1.295z" class="cls-9" transform="translate(-79.174 -26.882)"/>
                        <g id="Group_2314" transform="translate(4.537 2.027)">
                            <g id="Group_2311" transform="translate(0 9.532)">
                                <path id="Path_6453" d="M95.944 36.123H81.391a7.563 7.563 0 0 1 6.229-3.593h2.1a7.573 7.573 0 0 1 6.224 3.593z" class="cls-1" transform="translate(-81.391 -32.529)"/>
                                <g id="Group_2310" transform="translate(0 .756)">
                                    <g id="Group_2306" transform="translate(0 2.605)">
                                        <path id="Path_6454" d="M95.944 34.4H81.391c.045-.067.09-.127.135-.195a.075.075 0 0 1 .03-.037h14.231a.132.132 0 0 0 .03.037c.037.064.083.131.127.195z" class="cls-18" transform="translate(-81.391 -34.172)"/>
                                    </g>
                                    <g id="Group_2307" transform="translate(.614 1.789)">
                                        <path id="Path_6455" d="M95.016 34.005H81.691c.067-.082.135-.157.2-.232h12.923c.068.075.135.15.202.232z" class="cls-18" transform="translate(-81.691 -33.773)"/>
                                    </g>
                                    <g id="Group_2308" transform="translate(1.437 .936)">
                                        <path id="Path_6456" d="M93.772 33.588H82.093c.09-.082.18-.157.27-.232H93.5c.092.075.182.15.272.232z" class="cls-18" transform="translate(-82.093 -33.356)"/>
                                    </g>
                                    <g id="Group_2309" transform="translate(2.688)">
                                        <path id="Path_6457" d="M91.875 33.131H82.7c.135-.082.277-.157.419-.232h8.325c.156.075.288.149.431.232z" class="cls-18" transform="translate(-82.704 -32.899)"/>
                                    </g>
                                </g>
                            </g>
                            <g id="Group_2312" transform="translate(4.866 6.724)">
                                <path id="Path_6458" d="M88.5 31.161v3.346c0 .344-1.063.621-2.366.621-1.273 0-2.313-.262-2.366-.6v-3.367z" class="cls-19" transform="translate(-83.768 -31.154)"/>
                                <path id="Path_6459" d="M88.466 31.165v.075c0 1.647-2.044 3.534-3.519 3.751a1.493 1.493 0 0 1-1.175-.464v-3.369h4.694z" class="cls-20" transform="translate(-83.765 -31.158)"/>
                            </g>
                            <path id="Path_6460" d="M90.419 32.318v.075a1.051 1.051 0 0 1-1.048 1.048h-.906a2.477 2.477 0 0 1-2.388 1.812h-.966a1.947 1.947 0 0 1-1.946-1.946v-4.26a15.9 15.9 0 0 0 5.008.03 3.358 3.358 0 0 0 .262 2.186h.943a1.061 1.061 0 0 1 1.041 1.055z" class="cls-19" transform="translate(-79.534 -26.642)"/>
                            <path id="Path_6461" fill="#fff" stroke="#feb040" stroke-miterlimit="10" stroke-width="0.146px" d="M89.944 32.365h-.853a2.221 2.221 0 0 1-.314-2.044 16.147 16.147 0 0 1-5.008-.03c-.816-.225-1.34-.651-1.145-1.407.621-2.426 7.314.157 7.778 1.033s-.458 2.448-.458 2.448z" transform="translate(-80.144 -27.872)"/>
                            <g id="Group_2313" transform="translate(3.62 3.78)">
                                <path id="Path_6462" d="M85.455 31.466a.1.1 0 0 1-.075.03.12.12 0 0 1-.082-.037l-.1-.112a1.429 1.429 0 0 1-.913.427.281.281 0 0 1-.082-.007.709.709 0 0 1-.479-.247.112.112 0 1 1 .18-.135.5.5 0 0 0 .329.165 1.158 1.158 0 0 0 .816-.367l-.06-.067a.111.111 0 0 1 .165-.15l.314.344a.109.109 0 0 1-.013.156z" class="cls-20" transform="translate(-82.599 -28.454)"/>
                                <path id="Path_6463" d="M85.988 30.5a.113.113 0 0 1-.082-.03 1.9 1.9 0 0 0-1.5-.517.11.11 0 0 1-.037-.217 2.051 2.051 0 0 1 1.7.576.109.109 0 0 1 0 .157.087.087 0 0 1-.081.031z" class="cls-20" transform="translate(-81.995 -29.719)"/>
                                <path id="Path_6464" d="M84.6 32a.045.045 0 0 1-.03-.007.115.115 0 0 1-.075-.142 2 2 0 0 0-.142-1.422.974.974 0 0 0-1.056-.382.112.112 0 1 1-.052-.217 1.181 1.181 0 0 1 1.3.494 2.157 2.157 0 0 1 .165 1.6.123.123 0 0 1-.11.076z" class="cls-20" transform="translate(-83.16 -29.643)"/>
                                <ellipse id="Ellipse_1391" cx=".135" cy=".292" class="cls-20" rx=".135" ry=".292" transform="translate(.467 .893)"/>
                                <ellipse id="Ellipse_1392" cx=".157" cy=".352" class="cls-20" rx=".157" ry=".352" transform="translate(2.773 .833)"/>
                                <path id="Path_6465" d="M85.969 31.341a.115.115 0 0 1-.112-.112.885.885 0 0 1 .883-.883.112.112 0 1 1 0 .225.655.655 0 0 0-.659.659.11.11 0 0 1-.112.111z" class="cls-20" transform="translate(-80.336 -29.063)"/>
                            </g>
                        </g>
                    </g>
                </g>
                <g id="WOMAN" transform="translate(35.444 42.396)">
                    <g id="LEGS" transform="translate(68.951 78.8)">
                        <g id="RIGHT_LEG" transform="translate(21.336 3.062)">
                            <g id="Group_2316">
                                <path id="Path_6466" d="M131.1 133.2c-.2-.06-.314-.09-.314-.09l-2.448 8.018-9.216-2.418-.112-.1s-37.32-29.256-39.281-43.292 13.677-27.355 13.677-27.355 33.336 63.012 37.461 65.07a1 1 0 0 1 .233.167z" class="cls-16" transform="translate(-79.559 -67.963)"/>
                                <path id="Path_6467" d="M101.3 82.11c-1.168 6.251-5.27 18.91-9.515 31.158-6.288-6.775-11.364-13.61-12.053-18.551-1.243-8.894 4.589-17.51 9.021-22.616a39.413 39.413 0 0 1 5.27-3.571c1.158 2.178 3.845 7.224 7.277 13.58z" class="cls-17" transform="translate(-79.559 -67.369)"/>
                            </g>
                            <g id="Group_2318" transform="translate(39.388 60.494)">
                                <path id="Path_6468" d="M131.9 105.277l-13.707 8.8-3.975-.6-3.661 2.321 1.183 2.426-6.026 3.87a20.847 20.847 0 0 1-6.857-16.724l9.328 2.448 2.448-8.018s8.377 2.448 14.561 2.238 6.706 3.239 6.706 3.239z" class="cls-10" transform="translate(-98.805 -95.138)"/>
                                <path id="Path_6469" d="M108.668 103.25s-.576-6.094-2.021-5.712.367 6.468 1.991 5.8 3.249-4.986 3.249-4.986" class="cls-22" transform="translate(-91.148 -97.521)"/>
                                <path id="Path_6470" d="M99.53 111.876l9.186.142 4.559-2.725 4.327.7 12.974-8.1" class="cls-22" transform="translate(-98.045 -92.949)"/>
                                <g id="Group_2317" transform="translate(14.765 5.385)">
                                    <path id="Line_110" d="M0.853 0L0 3.975" class="cls-22"/>
                                    <path id="Line_111" d="M0.853 0L0 3.975" class="cls-22" transform="translate(1.857 .449)"/>
                                    <path id="Line_112" d="M0.853 0L0 3.975" class="cls-22" transform="translate(3.796 .771)"/>
                                </g>
                            </g>
                        </g>
                        <g id="LEFT_LEG">
                            <path id="Path_6471" d="M99.326 66.467s5.487 2.56 5.487 11.948c0 9.073-20.947 64.636-20.947 64.636l-6.446 5.465-6.543-7.164c3.198-3.04-5.977-57.989 28.449-74.885z" class="cls-16" transform="translate(-67.309 -66.467)"/>
                            <g id="Group_2320" transform="translate(0 74.484)">
                                <path id="Path_6472" d="M100.567 120.87l-16.29.015-3.024-2.65-4.335-.022-.314 2.68-6.386.007c-3.474-10.81 2.515-17.847 2.515-17.847l6.5 7.157 6.491-5.457s5.63 6.6 10.945 9.762 3.898 6.355 3.898 6.355z" class="cls-10" transform="translate(-69.134 -102.66)"/>
                                <path id="Path_6473" d="M79.094 108.8s6.393-4.125 4.574-5.7-5.48 5.278-4.484 5.824 7.89-1.527 7.89-1.527" class="cls-22" transform="translate(-58.793 -102.861)"/>
                                <path id="Path_6474" d="M69.243 107.1l7.643 4.821h5.308l3.361 2.822h15.025" class="cls-22" transform="translate(-69.02 -98.422)"/>
                                <g id="Group_2319" transform="translate(16.004 4.383)">
                                    <path id="Line_113" d="M2.875 0L0 2.875" class="cls-22"/>
                                    <path id="Line_114" d="M2.875 0L0 2.875" class="cls-22" transform="translate(1.318 1.385)"/>
                                    <path id="Line_115" d="M2.875 0L0 2.875" class="cls-22" transform="translate(2.77 2.703)"/>
                                </g>
                            </g>
                        </g>
                    </g>
                    <g id="SKIRT" transform="translate(22.586 76.726)">
                        <path id="Path_6475" d="M124.862 67.527c-12.944 6.348-19.726 18.087-23.312 30.417H62.269a15.782 15.782 0 0 1-15.429-19.1l2.882-13.385h68.3a12.273 12.273 0 0 1 6.84 2.068z" class="cls-11" transform="translate(-46.48 -65.454)"/>
                        <path id="Path_6476" d="M70.527 72.752l14.142-.03-2.1 3.436z" class="cls-16" transform="translate(-21.312 -57.847)"/>
                        <path id="Path_6477" d="M116.074 67.452a40.213 40.213 0 0 0-15.107 12.884H65.13a10.18 10.18 0 0 1-9.964-12.262l.547-2.62" class="cls-23" transform="translate(-37.617 -65.454)"/>
                        <path id="Path_6478" d="M76.434 90.318a61.138 61.138 0 0 1 5.989-14.171l-11.9-3.414" class="cls-23" transform="translate(-21.312 -57.835)"/>
                    </g>
                    <g id="BLOUSE" transform="translate(0 24.959)">
                        <path id="Path_6479" d="M52.094 55.959l7.194 28.223H45.866a10.408 10.408 0 0 1-9.223-15.227l10.308-19.711a16.916 16.916 0 0 1 14.987-9.073h2.433a12.659 12.659 0 0 0-12.277 15.788z" class="cls-13" transform="translate(-35.444 -40.148)"/>
                        <path id="Path_6480" d="M126.627 48.649c4.23 0 7.748-.561 8.6-1.348L122.1 75.749a14.533 14.533 0 0 1-22.324 5.218l-8.272-6.678s-.823 4.844-6.7 6.079v11.544H52.955l-9.171-35.949a12.673 12.673 0 0 1 12.277-15.8h22.3a23.5 23.5 0 0 1 18.746 9.35l10.9 14.463L117.8 46.86c0 .015-.007.037-.007.052.007.996 3.968 1.737 8.834 1.737z" class="cls-13" transform="translate(-27.134 -40.16)"/>
                        <path id="Line_116" d="M0 0L7.045 28.448" class="cls-23" transform="translate(16.575 15.811)"/>
                        <path id="Line_117" d="M6.258 6.663L0 0" class="cls-23" transform="translate(58.191 27.849)"/>
                        <path id="Path_6481" d="M97.367 44.359l-.195.419c-.853.794-4.372 1.348-8.6 1.348-4.866 0-8.826-.741-8.826-1.722a.127.127 0 0 1 .007-.052c.135-.958 4.043-1.782 8.826-1.782s8.654.823 8.789 1.789z" class="cls-11" transform="translate(10.922 -37.637)"/>
                    </g>
                    <g id="ARM" transform="translate(95.233 15.519)">
                        <path id="Path_6482" d="M98.951 37.336a2.6 2.6 0 0 1-.3 1.213 2.686 2.686 0 0 1-.831.936l-.172.12-1.34 7.149a4.289 4.289 0 0 1-1.9 2.822l-1.834 1.168-1.452.928-.674 1.61a42.051 42.051 0 0 1-4.207.2 40.845 40.845 0 0 1-4.26-.21V42.187a3.278 3.278 0 0 1 .307-1.385l2.441-5.255s2.665.659 1.437 3.93c-1.115 2.972 1.43 2.208 2.86 1.677 1.28-.479 6.872-3.324 9.058-4.364a.607.607 0 0 1 .867.546z" class="cls-16" transform="translate(-81.972 -35.547)"/>
                        <g id="Group_2321" transform="translate(9.455 4.14)">
                            <path id="Path_6483" d="M91.784 39.695a4.274 4.274 0 0 1-1.9 2.815l-3.286 2.1" class="cls-24" transform="translate(-86.596 -35.345)"/>
                            <path id="Path_6484" d="M92.047 38.214a4.274 4.274 0 0 1-1.9 2.815l-3.286 2.1" class="cls-24" transform="translate(-86.32 -36.896)"/>
                            <path id="Line_118" d="M5.285 0L0 3.354" class="cls-24" transform="translate(.696)"/>
                        </g>
                        <path id="Path_6485" d="M92.861 43.2l-.292.187-1.452.928-.674 1.61a42.05 42.05 0 0 1-4.207.2 40.845 40.845 0 0 1-4.26-.21v-3.109a36.81 36.81 0 0 1 4.26-.232 29.738 29.738 0 0 1 6.625.626z" class="cls-17" transform="translate(-81.976 -28.193)"/>
                    </g>
                    <g id="HEAD" transform="translate(11.439)">
                        <g id="NECK" transform="translate(16.299 12.577)">
                            <path id="Path_6486" d="M77.571 47.042c-1.086 1.46-5.128 4.9-18.738 4.9-17.51 0-6.3-5.42-6.3-5.42l7.426-12.4L67.921 39v3.93a3.586 3.586 0 0 0 3.586 3.586h.517a22.468 22.468 0 0 1 5.547.526z" class="cls-16" transform="translate(-48.998 -34.106)"/>
                            <path id="Path_6487" d="M66.111 39v1L50.72 46.514l7.426-12.4z" class="cls-17" transform="translate(-47.195 -34.109)"/>
                        </g>
                        <g id="HEAD_1_" transform="translate(30.05 5.705)">
                            <path id="Path_6488" d="M61.3 43h1.692a2.824 2.824 0 0 0 2.822-2.822v-9.426h-10.1v6.663A5.585 5.585 0 0 0 61.3 43z" class="cls-16" transform="translate(-55.716 -30.752)"/>
                            <path id="Path_6489" d="M61.322 35.473a1.752 1.752 0 0 1-1.52-.749" class="cls-24" transform="translate(-51.44 -26.594)"/>
                            <ellipse id="Ellipse_1393" cx=".359" cy=".696" class="cls-17" rx=".359" ry=".696" transform="translate(8.542 4.469)"/>
                        </g>
                        <path id="HAIR" fill="#ffcf2d" stroke="#fff" stroke-miterlimit="10" stroke-width="0.183px" d="M73.008 33.88s8.332 5.031 11.042.651c2.381-3.84-8.167-5.817-11.851-5.832-4.005-.015-9.313 1.759-9.223 7.651.075 4.851.277 11.948-2.6 10.713-10.226-4.387-19.314.195-19.344 8.924s10.1 9.545 10.353 7.292-6.288-1.729-5.405 4.1S50.766 80.5 59.69 80.5c10.78.007 17.645-14.186 10.975-15.631-5.113-1.108 5.21 8.759 8.272-1.5 3.294-11.042-8.609-14.658-8.9-21.328s2.971-8.161 2.971-8.161z" transform="translate(-41.034 -27.195)"/>
                        <g id="GLASSES" transform="translate(31.39 8.744)">
                            <path id="Line_119" d="M0 0L5.959 0" class="cls-22" transform="translate(0 1.946)"/>
                            <ellipse id="Ellipse_1394" cx="1.692" cy="2.171" class="cls-22" rx="1.692" ry="2.171" transform="translate(6.101)"/>
                        </g>
                        <g id="HEADPHONES" transform="translate(24.765)">
                            <path id="Path_6490" d="M54.828 35.982v-6.3a1.714 1.714 0 0 1 1.714-1.714h1.872a1.714 1.714 0 0 1 1.714 1.714" class="cls-4" transform="translate(-51.361 -27.964)"/>
                            <path id="Path_6491" d="M58.4 38.822h-3.6a1.671 1.671 0 0 1-1.669-1.669v-3.6a1.671 1.671 0 0 1 1.669-1.671h3.6a1.671 1.671 0 0 1 1.669 1.669v3.6a1.676 1.676 0 0 1-1.669 1.671z" class="cls-14" transform="translate(-53.134 -23.864)"/>
                            <path id="Path_6492" d="M56.856 37H55.1a1.379 1.379 0 0 1-1.377-1.377v-1.76a1.379 1.379 0 0 1 1.377-1.378h1.759a1.379 1.379 0 0 1 1.377 1.377v1.759A1.374 1.374 0 0 1 56.856 37z" class="cls-14" transform="translate(-52.521 -23.232)"/>
                            <g id="Group_2322" transform="translate(1.205 9.29)">
                                <path id="Line_120" d="M3.129 0L0 4.162" class="cls-4" transform="translate(.696 .142)"/>
                                <path id="Line_121" d="M2.71 0L0 3.593" class="cls-4" transform="translate(.082)"/>
                                <path id="Line_122" d="M2.71 0L0 3.593" class="cls-4" transform="translate(1.722 .883)"/>
                                <path id="Line_123" d="M1.699 0L0 2.253" class="cls-4" transform="translate(2.807 2.223)"/>
                                <path id="Line_124" d="M1.692 0L0 2.238" class="cls-4"/>
                            </g>
                        </g>
                    </g>
                </g>
                <g id="CHAIR" transform="translate(39.929 111.389)">
                    <path id="Path_6493" d="M60.1 83.41v4.125a3.61 3.61 0 0 1-3.608 3.608h-9.251" class="cls-4" transform="translate(-27.582 -38.927)"/>
                    <path id="Line_125" d="M0 0L0 37.843" class="cls-4" transform="translate(35.971 44.528)"/>
                    <path id="Path_6494" d="M47.025 114.058c0-6.7 6.655-12.135 14.86-12.135h3.728c8.2 0 14.86 5.435 14.86 12.135" class="cls-4" transform="translate(-27.808 -19.551)"/>
                    <path id="Path_6495" d="M103.115 86.233h-54.35a4.925 4.925 0 0 1-4.926-4.926H104.4z" class="cls-9" transform="translate(-31.143 -41.128)"/>
                    <circle id="Ellipse_1395" cx="4.013" cy="4.013" r="4.013" class="cls-9" transform="translate(14.875 94.506)"/>
                    <path id="Path_6496" d="M46.475 88.953h8.055a1.189 1.189 0 0 0 1.19-1.19v-.09a1.189 1.189 0 0 0-1.19-1.19h-8.055a1.189 1.189 0 0 0-1.19 1.19v.09a1.189 1.189 0 0 0 1.19 1.19z" class="cls-9" transform="translate(-29.631 -35.711)"/>
                    <path id="Path_6497" d="M50.332 102h38.562L76 65.86a6.308 6.308 0 0 0-5.937-4.185H41.708a4.068 4.068 0 0 0-3.833 5.435z" class="cls-6" transform="translate(-37.636 -61.675)"/>
                    <path id="Path_6498" d="M51.613 101.318h33.524L72.672 66.372a6.089 6.089 0 0 0-5.734-4.043h-28.7" class="cls-6" transform="translate(-37.008 -60.99)"/>
                    <circle id="Ellipse_1396" cx="4.013" cy="4.013" r="4.013" class="cls-9" transform="translate(48.585 94.506)"/>
                </g>
            </g>
        </g>
    </g>
</svg>
