<svg xmlns="http://www.w3.org/2000/svg" width="112" height="160" viewBox="0 0 112 160">
    <defs>
        <clipPath id="clip-path">
            <rect id="Rectangle_2600" width="112" height="160" class="cls-1" rx="10" transform="translate(838 823)"/>
        </clipPath>
        <style>
            .cls-1,.cls-18,.cls-19,.cls-22,.cls-6{fill:#fff}.cls-4{fill:#a0505a}.cls-5{fill:#73325a}.cls-16,.cls-18,.cls-6{stroke:#ffcf2d}.cls-11,.cls-12,.cls-16,.cls-18,.cls-19,.cls-20,.cls-21,.cls-22,.cls-24,.cls-25,.cls-26,.cls-29,.cls-6,.cls-9{stroke-miterlimit:10}.cls-20,.cls-21,.cls-22,.cls-25,.cls-6,.cls-9{stroke-width:.219px}.cls-11,.cls-12,.cls-16,.cls-20,.cls-24,.cls-25,.cls-26,.cls-29,.cls-9{fill:none}.cls-8{fill:#ffcf2d}.cls-11,.cls-12,.cls-20,.cls-9{stroke:#fff}.cls-11,.cls-20,.cls-25,.cls-9{stroke-linecap:round}.cls-9{stroke-linejoin:round}.cls-10,.cls-21{fill:#fe5244}.cls-11,.cls-12,.cls-16,.cls-18,.cls-19,.cls-24,.cls-26,.cls-29{stroke-width:.262px}.cls-29{stroke:#66b0f0}.cls-15{fill:#66b0f0}.cls-17{fill:#3fb1b5}.cls-19,.cls-26{stroke:#3fb1b5}.cls-21,.cls-22,.cls-24{stroke:#fe5244}.cls-25{stroke:#73325a}.cls-28{fill:#d0f0e4}
        </style>
    </defs>
    <g id="Group_2201" transform="translate(-1157 -520)">
        <rect id="Rectangle_2599" width="112" height="160" fill="#fae1df" rx="10" transform="translate(1157 520)"/>
        <g id="Mask_Group_3" clip-path="url(#clip-path)" transform="translate(319 -303)">
            <g id="_10_SCENE" transform="translate(669.397 782.673)">
                <g id="LEGS" transform="translate(162.609 148.133)">
                    <g id="LEFT_LEG">
                        <path id="Path_5222" d="M134.5 112.825l-1.673 4.563-7.73 21.043a18.419 18.419 0 0 1-10.67 3.365c-.485 0-1.069-.119-1.564-.148a20.246 20.246 0 0 1-11.264-4.573l2.306-25.379.168-1.841c12.466 4.831 26.996 4.019 30.427 2.97z" class="cls-4" transform="translate(-99.049 -35.144)"/>
                        <path id="Path_5223" d="M133.211 112.825l-3.276 8.908c-10 1.356-24.646-6.82-27.309-10.037l.168-1.841c12.452 4.831 26.982 4.019 30.417 2.97z" class="cls-5" transform="translate(-97.756 -35.144)"/>
                        <g id="Group_2165" transform="translate(1.04 98.931)">
                            <path id="Path_5224" d="M126.1 123.137l-2.366 24.775c-.426 6.533-5.434 11.531-11.373 11.531-.267 0-.535-.01-.812-.03-6.3-.475-11.036-6.4-10.591-13.234l1.435-21.895.148-2.346a17.673 17.673 0 0 0 4.375 3 18.891 18.891 0 0 0 6.78 1.821c.495.04.98.059 1.465.059a18.481 18.481 0 0 0 4.088-.455l.129-.03a17.128 17.128 0 0 0 6.543-3.068.826.826 0 0 0 .179-.128z" class="cls-6" transform="translate(-100.934 -118.81)"/>
                            <path id="Path_5225" fill="none" stroke="#ffcf2d" stroke-miterlimit="10" stroke-width="0.219px" d="M122.752 123.9l-1.673 19.826c-.356 5.523-4.593 9.75-9.621 9.75q-.341 0-.683-.03c-5.315-.406-9.334-5.414-8.958-11.195l1.316-19.727" transform="translate(-99.848 -118.07)"/>
                            <path id="Path_5226" d="M116.432 127.863a21.5 21.5 0 0 1-4.187.317c-.485 0-.97-.02-1.465-.049a20.019 20.019 0 0 1-6.78-1.673l-.653-3.207a2.08 2.08 0 0 1 2.059-2.692l9.5.277a2.084 2.084 0 0 1 2.019 2.277z" class="cls-8" transform="translate(-98.002 -120.557)"/>
                            <path id="Path_5227" d="M116.367 124.476l-1.2 15.055a4.989 4.989 0 0 1-5.592 4.6l-.208-.02a7.947 7.947 0 0 1-6.087-8.72l.752-12.234a20.076 20.076 0 0 0 6.78 1.673c.495.04.98.049 1.465.049a19.747 19.747 0 0 0 4.09-.403z" class="cls-8" transform="translate(-98.036 -117.269)"/>
                            <path id="Path_5228" d="M114.876 140.661l-10.838-2.475a1.006 1.006 0 0 1 .109-1.98l10.363-1.217a1.16 1.16 0 0 0 .218-2.257l-9.928-3.148a1.541 1.541 0 0 1 .168-2.979l11.373-1.97s-8.493.742-12.333-1.376" class="cls-9" transform="translate(-98.001 -117.142)"/>
                        </g>
                        <path id="Path_5229" d="M156.379 98.847l-20.45 55.677c-3.435 1.049-19.638 2.435-35.455-4.9l12.442-57.558A17.53 17.53 0 0 1 130.3 76.844h9.146a17.512 17.512 0 0 1 16.933 22.003z" class="cls-10" transform="translate(-100.474 -76.844)"/>
                        <path id="Path_5230" d="M137.752 111.333c-3.435 1.049-21.024 2.336-36.841-5" class="cls-11" transform="translate(-99.922 -39.591)"/>
                    </g>
                    <g id="RIGHT_LEG" transform="translate(12.49 .911)">
                        <path id="Path_5231" d="M150.3 112.349L148.245 116l-13.174 23.053a29.432 29.432 0 0 1-16.431 1.623l-.673-.188a17.106 17.106 0 0 1-7.285-3.7l9.611-25.686h.02c3.316 1.098 14.718 4.187 29.987 1.247z" class="cls-4" transform="translate(-100.07 -34.48)"/>
                        <path id="Path_5232" d="M145.244 112.343l-4.345 7.651c-16.728 2.673-26.21-7.394-26.21-7.394l.554-1.495c3.325 1.09 14.728 4.178 30.001 1.238z" class="cls-5" transform="translate(-95.01 -34.475)"/>
                        <path id="Path_5233" d="M173.124 107.168l-22.815 46.878c-19.311 4.83-32.08.921-35.376-.168l23.874-63.853a20.893 20.893 0 0 1 19.252-12.779c15.897 0 22.746 15.995 15.065 29.922z" class="cls-10" transform="translate(-94.7 -77.246)"/>
                        <path id="Path_5234" d="M151.663 109.044c-19.311 4.83-32.476.921-35.772-.168" class="cls-11" transform="translate(-93.49 -37.292)"/>
                        <path id="Line_74" d="M35.089 0L0 94.587" class="cls-12" transform="translate(9.018 12.779)"/>
                        <g id="Group_2166" transform="translate(0 98.422)">
                            <path id="Path_5235" d="M140.8 124.71l-.772 2.029-8.75 22.895c-2.5 7.849-10.739 12.511-17.975 10.72l-.4-.129c-5.078-1.257-8.3-7.374-6.315-12.779l10-24.429.208-.5a15.153 15.153 0 0 0 4.355 2.732 16.479 16.479 0 0 0 2.752.851l.673.188a27.06 27.06 0 0 0 8.661.366 30.134 30.134 0 0 0 7.563-1.944z" class="cls-6" transform="translate(-105.993 -118.488)"/>
                            <path id="Path_5236" fill="none" stroke="#ffcf2d" stroke-linecap="round" stroke-miterlimit="10" stroke-width="0.219px" d="M136.22 125.145l-7.671 20.271c-2.1 6.572-9 10.482-15.055 8.978l-.327-.109c-4.256-1.059-6.958-6.176-5.3-10.71l8.473-20.568" transform="translate(-104.248 -117.864)"/>
                            <path id="Path_5237" d="M126.572 125.827l-1.8 3.049a27.085 27.085 0 0 1-8.661-.366l-.673-.188a14.814 14.814 0 0 1-2.752-.851l.713-4.949a2.087 2.087 0 0 1 2.494-1.742l9.3 1.95a2.078 2.078 0 0 1 1.379 3.097z" class="cls-8" transform="translate(-97.54 -120.734)"/>
                            <path id="Path_5238" d="M127.82 125.116l-.05.079-4.652 12.294a7.945 7.945 0 0 1-9.136 5.444l-.2-.069a4.98 4.98 0 0 1-3.207-6.493l5.137-12.472.03-.188a16.475 16.475 0 0 0 2.752.851l.673.188a26.732 26.732 0 0 0 8.653.366z" class="cls-8" transform="translate(-100.589 -116.975)"/>
                            <path id="Path_5239" d="M110.275 138.569l10.69 1.158a1.21 1.21 0 0 0 .7-2.267l-8.324-4.444a1.2 1.2 0 0 1 .624-2.267l10.512.475a1.325 1.325 0 0 0 .683-2.494l-9.433-5.028a23.7 23.7 0 0 0 12.056 1.4" class="cls-9" transform="translate(-100.584 -116.986)"/>
                        </g>
                    </g>
                </g>
                <g id="TABLE" transform="translate(142.823 133.573)">
                    <path id="Path_5244" fill="#fff" stroke="#66b0f0" stroke-miterlimit="10" stroke-width="0.262px" d="M220.538 101.328H96.92a5.061 5.061 0 0 1-5.058-5.058V77a5.061 5.061 0 0 1 5.058-5.058h123.618A5.061 5.061 0 0 1 225.6 77v19.27a5.061 5.061 0 0 1-5.062 5.058z" transform="translate(-91.565 -68.476)"/>
                    <path id="Path_5245" d="M221 99.8H96.789a5.061 5.061 0 0 1-5.058-5.058V75.468a5.061 5.061 0 0 1 5.058-5.058H221a5.061 5.061 0 0 1 5.058 5.058V94.74A5.061 5.061 0 0 1 221 99.8z" class="cls-15" transform="translate(-91.731 -70.41)"/>
                </g>
                <g id="BACKPACK" transform="translate(243.744 215.688)">
                    <path id="Path_5246" d="M148.509 131.122v-15.1a9.327 9.327 0 0 1 9.324-9.324 9.327 9.327 0 0 1 9.324 9.324v15.1" class="cls-16" transform="translate(-120.932 -106.693)"/>
                    <path id="Path_5247" d="M148.531 174.625h34.733a7.338 7.338 0 0 0 7.335-7.335v-48.381a7.338 7.338 0 0 0-7.335-7.335h-34.733a7.338 7.338 0 0 0-7.335 7.335v48.382a7.331 7.331 0 0 0 7.335 7.334z" class="cls-17" transform="translate(-130.169 -100.528)"/>
                    <path id="Path_5248" d="M187.494 121.223a8.4 8.4 0 0 0-8.394-8.394h-27.061a8.4 8.4 0 0 0-8.394 8.394v33.436" class="cls-12" transform="translate(-127.075 -98.942)"/>
                    <path id="Path_5249" d="M177.08 171.537h-23.686a7.211 7.211 0 0 1-7.216-7.216v-43.086a7.211 7.211 0 0 1 7.216-7.216h23.686a7.211 7.211 0 0 1 7.216 7.216v43.087a7.211 7.211 0 0 1-7.216 7.215z" class="cls-18" transform="translate(-123.877 -97.439)"/>
                    <path id="Path_5250" d="M150.814 132.622v-15.1a9.327 9.327 0 0 1 9.324-9.324 9.327 9.327 0 0 1 9.324 9.324v15.1" class="cls-16" transform="translate(-118.021 -104.798)"/>
                    <path id="Path_5251" d="M174.713 150.689h-23.3a3.426 3.426 0 0 1-3.425-3.425v-17.806a3.426 3.426 0 0 1 3.425-3.425h23.3a3.426 3.426 0 0 1 3.425 3.425v17.807a3.413 3.413 0 0 1-3.425 3.424z" class="cls-8" transform="translate(-121.59 -82.263)"/>
                    <path id="Line_84" d="M2.93 0L0 0" class="cls-16" transform="translate(15.125 55.717)"/>
                    <path id="Path_5252" d="M147.806 117.627c0 14.432-15.778 35.841-10.344 42.7 5.187 6.543 10.344-.01 10.344-.01z" class="cls-19" transform="translate(-136.324 -92.882)"/>
                    <path id="Line_85" d="M0 0L26.181 0" class="cls-20" transform="translate(28.26 50.382)"/>
                    <path id="Rectangle_2601" d="M0 0H3.761V1.801H0z" class="cls-16" transform="translate(30.912 27.527)"/>
                    <path id="Rectangle_2602" d="M0 0H3.761V1.801H0z" class="cls-16" transform="translate(49.491 27.527)"/>
                    <g id="Group_2173" transform="translate(28.26 50.382)">
                        <path id="Line_86" d="M0 1.208L0 0" class="cls-20"/>
                        <path id="Line_87" d="M0 1.208L0 0" class="cls-20" transform="translate(2.376)"/>
                        <path id="Line_88" d="M0 1.208L0 0" class="cls-20" transform="translate(4.761)"/>
                        <path id="Line_89" d="M0 1.208L0 0" class="cls-20" transform="translate(7.137)"/>
                        <path id="Line_90" d="M0 1.208L0 0" class="cls-20" transform="translate(9.522)"/>
                        <path id="Line_91" d="M0 1.208L0 0" class="cls-20" transform="translate(11.898)"/>
                        <path id="Line_92" d="M0 1.208L0 0" class="cls-20" transform="translate(14.392)"/>
                        <path id="Line_93" d="M0 1.208L0 0" class="cls-20" transform="translate(16.777)"/>
                        <path id="Line_94" d="M0 1.208L0 0" class="cls-20" transform="translate(19.044)"/>
                        <path id="Line_95" d="M0 1.208L0 0" class="cls-20" transform="translate(21.42)"/>
                        <path id="Line_96" d="M0 1.208L0 0" class="cls-20" transform="translate(23.805)"/>
                        <path id="Line_97" d="M0 1.208L0 0" class="cls-20" transform="translate(26.181)"/>
                    </g>
                    <path id="Path_5253" d="M150.621 134.3a1.06 1.06 0 0 1-1.049-1.2l.525-4.147h1.049l.525 4.147a1.054 1.054 0 0 1-1.05 1.2z" class="cls-19" transform="translate(-119.6 -78.579)"/>
                </g>
                <g id="CHARACTER" transform="translate(151.682 59.327)">
                    <g id="TEST" transform="translate(39.84 74.236)">
                        <path id="Rectangle_2603" d="M0 0H44.294V23.429H0z" class="cls-1"/>
                        <g id="Group_2180" transform="translate(31.387 6.305)">
                            <g id="Group_2174" transform="translate(0 10.284)">
                                <circle id="Ellipse_1198" cx=".921" cy=".921" r=".921" class="cls-21" transform="translate(6.8)"/>
                                <circle id="Ellipse_1199" cx=".921" cy=".921" r=".921" class="cls-22" transform="translate(3.395)"/>
                                <circle id="Ellipse_1200" cx=".921" cy=".921" r=".921" class="cls-22"/>
                            </g>
                            <g id="Group_2175" transform="translate(0 6.85)">
                                <circle id="Ellipse_1201" cx=".921" cy=".921" r=".921" class="cls-21" transform="translate(6.8)"/>
                                <circle id="Ellipse_1202" cx=".921" cy=".921" r=".921" class="cls-22" transform="translate(3.395)"/>
                                <circle id="Ellipse_1203" cx=".921" cy=".921" r=".921" class="cls-22"/>
                            </g>
                            <g id="Group_2177">
                                <g id="Group_2176">
                                    <circle id="Ellipse_1204" cx=".921" cy=".921" r=".921" class="cls-22" transform="translate(6.8)"/>
                                    <circle id="Ellipse_1205" cx=".921" cy=".921" r=".921" class="cls-21" transform="translate(3.395)"/>
                                    <circle id="Ellipse_1206" cx=".921" cy=".921" r=".921" class="cls-22"/>
                                </g>
                            </g>
                            <g id="Group_2179" transform="translate(0 3.425)">
                                <g id="Group_2178">
                                    <circle id="Ellipse_1207" cx=".921" cy=".921" r=".921" class="cls-22" transform="translate(6.8)"/>
                                    <circle id="Ellipse_1208" cx=".921" cy=".921" r=".921" class="cls-22" transform="translate(3.395)"/>
                                    <circle id="Ellipse_1209" cx=".921" cy=".921" r=".921" class="cls-21"/>
                                </g>
                            </g>
                        </g>
                        <g id="Group_2186" transform="translate(4.563 2.88)">
                            <g id="Group_2181" transform="translate(3.395 6.85)">
                                <circle id="Ellipse_1210" cx=".921" cy=".921" r=".921" class="cls-21" transform="translate(3.405)"/>
                                <circle id="Ellipse_1211" cx=".921" cy=".921" r=".921" class="cls-22"/>
                            </g>
                            <g id="Group_2183">
                                <g id="Group_2182">
                                    <circle id="Ellipse_1212" cx=".921" cy=".921" r=".921" class="cls-22"/>
                                </g>
                            </g>
                            <g id="Group_2185" transform="translate(0 3.425)">
                                <g id="Group_2184">
                                    <circle id="Ellipse_1213" cx=".921" cy=".921" r=".921" class="cls-22" transform="translate(6.8)"/>
                                    <circle id="Ellipse_1214" cx=".921" cy=".921" r=".921" class="cls-22" transform="translate(3.395)"/>
                                    <circle id="Ellipse_1215" cx=".921" cy=".921" r=".921" class="cls-21"/>
                                </g>
                            </g>
                        </g>
                        <g id="Group_2192" transform="translate(17.431 6.305)">
                            <g id="Group_2187" transform="translate(0 6.85)">
                                <circle id="Ellipse_1216" cx=".921" cy=".921" r=".921" class="cls-22" transform="translate(6.8)"/>
                                <circle id="Ellipse_1217" cx=".921" cy=".921" r=".921" class="cls-22" transform="translate(3.395)"/>
                                <circle id="Ellipse_1218" cx=".921" cy=".921" r=".921" class="cls-21"/>
                            </g>
                            <g id="Group_2189">
                                <g id="Group_2188">
                                    <circle id="Ellipse_1219" cx=".921" cy=".921" r=".921" class="cls-21" transform="translate(6.8)"/>
                                    <circle id="Ellipse_1220" cx=".921" cy=".921" r=".921" class="cls-22" transform="translate(3.395)"/>
                                    <circle id="Ellipse_1221" cx=".921" cy=".921" r=".921" class="cls-22"/>
                                </g>
                            </g>
                            <g id="Group_2191" transform="translate(0 3.425)">
                                <g id="Group_2190">
                                    <circle id="Ellipse_1222" cx=".921" cy=".921" r=".921" class="cls-22" transform="translate(6.8)"/>
                                    <circle id="Ellipse_1223" cx=".921" cy=".921" r=".921" class="cls-21" transform="translate(3.395)"/>
                                    <circle id="Ellipse_1224" cx=".921" cy=".921" r=".921" class="cls-22"/>
                                </g>
                            </g>
                        </g>
                    </g>
                    <g id="BLOUSE" transform="translate(0 19.895)">
                        <path id="Path_5254" fill="#fff" stroke="#fe5244" stroke-miterlimit="10" stroke-width="0.262px" d="M209.633 106.061h-45.68l.04-5.325h-27.518l-8.008-23.459-8.567 15.788 24.2 20.648-11.571 15.679-28.589-18.323a18.261 18.261 0 0 1-8.295-15.3 18.18 18.18 0 0 1 2.286-8.839l13.344-24.13a31.783 31.783 0 0 1 27.814-16.4h42.849a21.93 21.93 0 0 1 17.916 9.284L220.63 84.6a13.542 13.542 0 0 1-10.997 21.461z" transform="translate(-95.646 -46.395)"/>
                        <path id="Path_5255" d="M121.733 86.7c-3.385 4.553-7.552 7.166-9.324 5.85s-.465-6.068 2.91-10.621 7.156-6.968 8.928-5.652.861 5.876-2.514 10.423z" class="cls-10" transform="translate(-75.469 -9.105)"/>
                        <path id="Path_5256" d="M116.473 46.412l13.709 18.995 12.65-18.995z" class="cls-24" transform="translate(-69.337 -46.373)"/>
                        <circle id="Ellipse_1225" cx="1.435" cy="1.435" r="1.435" class="cls-24" transform="translate(59.557 23.083)"/>
                        <circle id="Ellipse_1226" cx="1.435" cy="1.435" r="1.435" class="cls-24" transform="translate(59.557 32.189)"/>
                        <path id="Path_5257" d="M146.972 59.507l6.543 10.146H126v20.192" class="cls-24" transform="translate(-57.305 -29.832)"/>
                        <path id="Line_98" d="M0 0L7.216 0" class="cls-24" transform="translate(96.21 39.82)"/>
                        <ellipse id="Ellipse_1227" cx="3.999" cy="10.264" class="cls-10" rx="3.999" ry="10.264" transform="translate(64.694 39.484)"/>
                        <path id="Path_5258" d="M127.748 64c2.207 0 4 4.434 4 9.9s-1.792 9.9-4 9.9" class="cls-24" transform="translate(-55.095 -24.153)"/>
                        <path id="Path_5259" d="M111.049 91.5c-1.772-1.316-.465-6.068 2.91-10.621s6.958-6.968 8.73-5.652" class="cls-24" transform="translate(-77.187 -10.425)"/>
                    </g>
                    <g id="HAIR" transform="translate(22.192)">
                        <path id="Path_5260" d="M130.493 49.333c.069-9.76 6.553-12.432 17.2-11.581 11.482.921 6.78 16.718 13.155 17.243 2.672.218 5.721-2.811 9.779-5.305a21 21 0 0 1 32.717 17.42 22.11 22.11 0 0 1-5.761 14.19S185.2 63.913 180.4 62.28c-9.443-3.207-12.442 5.088-18.995 6.374a8.945 8.945 0 0 1-2.791.1c-9.324-1.069-7.542-16.441-7.542-16.441-2.415-.99-2.94-3.494-3.029-5.008a10.477 10.477 0 0 0 .02-1.217 7.738 7.738 0 0 0-.02 1.217c-.2 2.851-1.94 9.67-11.65 7.226v3.316c0 20.083.327 23.983-3.742 29.031-.6.752-4.642 6.82 2.593 10.1 9.324 4.217 2.742 15.312 2.742 15.312h-19.727s-11.71-2.079-12.729-12.709c-1.455-15.194 17.6-19.262 20.083-19.727a11.783 11.783 0 0 1-9.552-11.274c0-5.117 3.93-9.443 7.968-10.868.01 0 .01 0 .02-.01l.356-.119a8.66 8.66 0 0 0 6-6.384z" class="cls-8" transform="translate(-105.451 -37.604)"/>
                        <g id="Group_2193" transform="translate(42.394 6.285)">
                            <path id="Path_5261" d="M124.431 45.934a.251.251 0 0 1-.247-.247l.079-5.058a.245.245 0 0 1 .247-.247.251.251 0 0 1 .247.247l-.079 5.058a.258.258 0 0 1-.247.247z" class="cls-4" transform="translate(-124.183 -40.381)"/>
                        </g>
                        <g id="Group_2194" transform="translate(28.312 14.643)">
                            <path id="Path_5262" d="M121.026 47.03a.264.264 0 0 1-.119-.03c-2.4-1.257-2.9-2.544-2.93-2.593a.246.246 0 0 1 .148-.317.249.249 0 0 1 .317.139 5.68 5.68 0 0 0 2.692 2.336.257.257 0 0 1 .109.337.246.246 0 0 1-.217.128z" class="cls-4" transform="translate(-117.961 -44.074)"/>
                        </g>
                        <circle id="Ellipse_1228" cx="2.969" cy="2.969" r="2.969" class="cls-8" transform="translate(61.656 3.059)"/>
                        <circle id="Ellipse_1229" cx="2.385" cy="2.385" r="2.385" class="cls-8" transform="translate(27.289 51.183)"/>
                    </g>
                    <g id="ARMS" transform="translate(37.356 54.169)">
                        <g id="Group_2195" transform="translate(0 32.935)">
                            <path id="Path_5263" d="M141.682 78.451l-.01 1.8a1.174 1.174 0 0 1-.1.455l-4.335 9.661a3.934 3.934 0 0 1-3.573 2.286h-9.274a10.364 10.364 0 0 1-6.384-2.207l-.327-.257-5.523-4.345a23.684 23.684 0 0 1 2.494-4.137 19.005 19.005 0 0 1 6.127-5.612h13.313c1.059 2.366-2.385 4.266-2.385 4.266h6.018L139.9 78a1.045 1.045 0 0 1 1.782.451z" class="cls-4" transform="translate(-112.146 -76.086)"/>
                            <path id="Path_5264" d="M130.042 81.1a3.933 3.933 0 0 1-3.573 2.286h-7.81" class="cls-25" transform="translate(-103.931 -69.76)"/>
                            <path id="Path_5265" d="M130.646 79.752a3.933 3.933 0 0 1-3.573 2.286h-7.81" class="cls-25" transform="translate(-103.168 -71.467)"/>
                            <path id="Path_5266" d="M131.3 78.247a3.933 3.933 0 0 1-3.573 2.286h-7.81" class="cls-25" transform="translate(-102.345 -73.368)"/>
                            <path id="Path_5267" d="M120.961 86.277a19.284 19.284 0 0 1-3.276 3.92l-.01-.01-5.523-4.345a23.684 23.684 0 0 1 2.494-4.137 19 19 0 0 1 6.127-5.612h2.861a16.439 16.439 0 0 1-2.673 10.184z" class="cls-5" transform="translate(-112.151 -76.091)"/>
                        </g>
                        <g id="Group_2197" transform="translate(10.67)">
                            <path id="Path_5268" d="M120.238 74.123s4.811-12.838 6.671-12.581-4.147 11.63-4.147 11.63z" class="cls-10" transform="translate(-112.607 -61.539)"/>
                            <g id="Group_2196" transform="translate(0 10.882)">
                                <path id="Path_5269" d="M141.532 70.934c0 5.493-1.683 9.967-3.791 10.245a1.463 1.463 0 0 1-.208.01h-19.6a1.065 1.065 0 0 1-1.069-1.069v-6.256a4.245 4.245 0 0 1 2.742-3.979l8.206-3.108a6.673 6.673 0 0 1 2.326-.426h10.967a24.376 24.376 0 0 1 .427 4.583z" class="cls-4" transform="translate(-116.866 -66.341)"/>
                                <path id="Path_5270" d="M125.284 68.525l-6.2 2.346a3.213 3.213 0 0 0-2.069 3" class="cls-25" transform="translate(-116.673 -63.596)"/>
                                <path id="Path_5271" d="M125.284 70.178l-6.2 2.346a3.214 3.214 0 0 0-2.069 3" class="cls-25" transform="translate(-116.673 -61.507)"/>
                                <path id="Line_99" d="M6.196 0L0 2.346" class="cls-25" transform="translate(2.079 12.165)"/>
                                <path id="Path_5272" d="M132.229 70.94c0 5.493-1.683 9.967-3.791 10.245a1.461 1.461 0 0 1-.208.01c-2.207 0-4-4.593-4-10.264a27.951 27.951 0 0 1 .465-4.583h7.057a27.115 27.115 0 0 1 .477 4.592z" class="cls-5" transform="translate(-107.563 -66.347)"/>
                            </g>
                        </g>
                    </g>
                    <g id="HEAD" transform="translate(53.153 9.69)">
                        <path id="HEAD_1_" d="M137.028 49.111a2.549 2.549 0 0 1-.525 1.544 2.513 2.513 0 0 1-1.366.9l-1.366.356v1.524a6.658 6.658 0 0 1-6.661 6.665h-1.316a6.664 6.664 0 0 1-6.661-6.632v-4.357c9.71 2.455 11.452-4.375 11.65-7.226.079 1.445.564 3.781 2.7 4.86l.376-.1a2.551 2.551 0 0 1 3.169 2.466z" class="cls-4" transform="translate(-119.132 -41.886)"/>
                        <g id="FACE" transform="translate(1.802 6.404)">
                            <path id="Path_5273" d="M123.391 45.63a4.9 4.9 0 0 1 3.187.8" class="cls-25" transform="translate(-115.552 -43.581)"/>
                            <path id="Path_5274" d="M119.928 46.081a3.83 3.83 0 0 1 3.148-.069c.99.436 1.643 2.771 1.663 5.86" class="cls-25" transform="translate(-119.928 -43.468)"/>
                            <ellipse id="Ellipse_1230" cx=".386" cy=".742" class="cls-5" rx=".386" ry=".742" transform="translate(1.514 4.147)"/>
                            <ellipse id="Ellipse_1231" cx=".386" cy=".742" class="cls-5" rx=".386" ry=".742" transform="translate(8.7 4.147)"/>
                            <path id="Path_5275" d="M125.766 46.5a1.822 1.822 0 0 1 1.445-1.782" class="cls-25" transform="translate(-112.552 -44.715)"/>
                        </g>
                    </g>
                </g>
                <g id="PLANT" transform="translate(51.284 174.759)">
                    <g id="Group_2199">
                        <path id="Path_5276" d="M97.584 119.133c1.178 2.771.831 8.473-5.1 8.394-7.354-.1-7.166-19.915-7.166-19.915s7.515.346 12.266 11.521z" class="cls-17" transform="translate(-8.292 -64.604)"/>
                        <path id="Path_5277" d="M60.834 110.737c-1.841 3.9.633 7.038 2.712 5.959 3.633-1.891 5.2-6.751 5.2-6.751s-6.259-2.692-7.912.792z" class="cls-17" transform="translate(-40.037 -62.91)"/>
                        <path id="Path_5278" d="M112.633 128.409c-3.939-7.889-8.384-11.64-15.5-11.64-11.987 0-19.678 12.828-21.142 29.417-.178-2.059-2.306-4.167-2.465-6.305-2.138-28.408 13.432-39.612 25.112-39.612 9.562-.01 11.946 13.731 13.995 28.14z" class="cls-19" transform="translate(-23.44 -73.88)"/>
                        <path id="Path_5279" d="M73.526 142.842C71.388 114.434 87.68 103.23 98.44 103.23c5.969 0 9.71 3.524 12.59 11.541" class="cls-26" transform="translate(-23.431 -70.14)"/>
                        <path id="Path_5280" fill="#ffcf2d" stroke="#ffcf2d" stroke-miterlimit="10" stroke-width="0.262px" d="M56.531 97.713c-3.2 3.167-8.978 16.154-1.821 18.727S70.25 93.6 70.25 93.6s-6.068-3.479-13.719 4.113z" transform="translate(-51.284 -83.311)"/>
                        <g id="Group_2198" transform="translate(30.319 66.585)">
                            <path id="Path_5281" d="M98.612 122.131l-2.554 13.847a14.655 14.655 0 0 1-28.823 0l-2.554-13.847a4.61 4.61 0 0 1 .436-1.95c2.049 2.059 8.71 3.563 16.6 3.563 7.78 0 14.352-1.465 16.51-3.464a4.624 4.624 0 0 1 .385 1.851z" class="cls-28" transform="translate(-64.681 -115.311)"/>
                            <path id="Path_5282" d="M95.939 121.563c0 1.96-6.82 3.544-15.233 3.544s-15.233-1.584-15.233-3.544a.86.86 0 0 1 .129-.455c.97-1.742 7.364-3.078 15.1-3.078 7.978 0 14.521 1.425 15.174 3.237a.794.794 0 0 1 .063.296z" class="cls-15" transform="translate(-63.681 -118.029)"/>
                        </g>
                        <path id="Path_5283" d="M101.55 138.07a80.928 80.928 0 0 1-3.138 22.746h-5.78c-.02-34.416-12.571-62.3-28.041-62.3-4.019 0-7.839 1.881-11.294 5.266C63.472 91.875 67.7 88.608 73.508 88.608c13.878 0 28.042 22.143 28.042 49.462z" class="cls-18" transform="translate(-48.743 -88.608)"/>
                        <path id="Path_5284" d="M56.157 94.074c3.306-2.405 5.434-3.524 9.225-3.524 15.481 0 31.149 25.834 27.022 67.8" class="cls-16" transform="translate(-45.13 -86.156)"/>
                        <path id="Path_5285" d="M86.582 138.608s.851-32.318-16.758-32.426c-4.662-.03-9.027 7.364-9.027 7.364s20.618-5.385 21.637 25.062h4.147z" class="cls-19" transform="translate(-39.268 -66.411)"/>
                        <path id="Path_5286" d="M82.313 137.268c.247-9.106-2.049-31.08-19.846-29.9" class="cls-26" transform="translate(-37.158 -64.972)"/>
                        <circle id="Ellipse_1232" cx="1.633" cy="1.633" r="1.633" class="cls-18" transform="translate(19.817 13.214)"/>
                        <circle id="Ellipse_1233" cx="2.385" cy="2.385" r="2.385" class="cls-18" transform="translate(57.558 58.419)"/>
                        <circle id="Ellipse_1234" cx="4.504" cy="4.504" r="4.504" class="cls-28" transform="translate(51.481 8.166)"/>
                    </g>
                    <g id="Group_2200" transform="translate(26.726 93.485)">
                        <path id="Path_5287" d="M104.18 151.368l-3.989-19.868a1.9 1.9 0 0 0-3.484-.6c-5.5 9.156-20.45 9.215-26.042.089l-.1-.168a1.9 1.9 0 0 0-3.474.614l-4 19.925" class="cls-29" transform="translate(-63.093 -129.916)"/>
                        <path id="Line_100" d="M0 0L0 13.65" class="cls-29" transform="translate(20.549 7.892)"/>
                    </g>
                    <path id="Line_101" d="M0 0L132.675 0" class="cls-29" transform="translate(17.669 114.937)"/>
                </g>
            </g>
        </g>
    </g>
</svg>
