<svg xmlns="http://www.w3.org/2000/svg" width="112" height="160" viewBox="0 0 112 160">
    <defs>
        <clipPath id="clip-path">
            <rect id="Rectangle_2599" width="112" height="160" class="cls-1" rx="10" transform="translate(1199 514)"/>
        </clipPath>
        <style>
            .cls-1{fill:#dfeff0}.cls-10,.cls-16,.cls-18,.cls-4,.cls-9{fill:#fff}.cls-4,.cls-7{stroke:#66b0f0}.cls-10,.cls-11,.cls-17,.cls-18,.cls-4,.cls-7,.cls-9{stroke-miterlimit:10}.cls-17,.cls-18,.cls-4,.cls-7,.cls-9{stroke-width:.179px}.cls-11,.cls-17,.cls-7{fill:none}.cls-8{fill:#ffcf2d}.cls-18,.cls-9{stroke:#ffcf2d}.cls-10,.cls-11{stroke:#3fb1b5;stroke-width:.149px}.cls-12{fill:#fe5244}.cls-13{fill:#a0505a}.cls-14{fill:#73325a}.cls-15{fill:#3fb1b5}.cls-17{stroke:#fff}.cls-17,.cls-18{stroke-linecap:round}
        </style>
    </defs>
    <g id="Group_2527" transform="translate(-1143 -515)">
        <rect id="Rectangle_2599-2" width="112" height="160" class="cls-1" rx="10" transform="translate(1143 515)"/>
        <g id="Mask_Group_7" clip-path="url(#clip-path)" transform="translate(-56 1)">
            <g id="_5_SCENE" transform="translate(1114.293 530.009)">
                <path id="FLOOR" fill="#d0f0e4" d="M346.365 112.389H18.707l58.817-34.733h210.924z" transform="translate(0 120.528)"/>
                <g id="LAPTOP" transform="translate(133.533 24.852)">
                    <g id="Group_2477">
                        <path id="Path_6657" d="M121.72 56.672H62.771V22.586a4.179 4.179 0 0 1 4.179-4.179h50.591a4.179 4.179 0 0 1 4.179 4.179z" class="cls-4" transform="translate(-48.685 -18.408)"/>
                        <path id="Path_6658" fill="#66b0f0" d="M115.746 53.088h-49.8a2.38 2.38 0 0 1-2.378-2.378V21.494a2.38 2.38 0 0 1 2.378-2.378h49.8a2.38 2.38 0 0 1 2.378 2.378v29.225a2.373 2.373 0 0 1-2.378 2.369z" transform="translate(-47.16 -17.044)"/>
                        <path id="Path_6659" fill="#66b0f0" stroke="#66b0f0" stroke-miterlimit="10" stroke-width="0.179px" d="M141.325 34.273c2.256 1.469 1.731 4.345-.935 4.345H60.083c-2.247 0-3.016-3.034-.813-4.424z" transform="translate(-57.956 11.99)"/>
                        <path id="Path_6660" d="M139.948 41.829H59.642a1.309 1.309 0 0 1-.813-2.422l12.79-7.92h58.765l10.491 8a1.309 1.309 0 0 1-.927 2.342z" class="cls-4" transform="translate(-57.515 6.777)"/>
                        <g id="Group_2476" transform="translate(10.273 38.265)">
                            <path id="Path_6661" d="M124.361 39.443H62.588a1.008 1.008 0 0 1-.629-1.862l8.882-6.093H117l8.069 6.155a1 1 0 0 1-.708 1.8z" class="cls-4" transform="translate(-61.468 -31.487)"/>
                            <g id="Group_2474" transform="translate(35.058)">
                                <path id="Line_151" d="M0 0L8.078 7.955" class="cls-7" transform="translate(16.479)"/>
                                <path id="Line_152" d="M0 0L7.116 7.955" class="cls-7" transform="translate(12.195)"/>
                                <path id="Line_153" d="M0 0L6.172 7.955" class="cls-7" transform="translate(8.191)"/>
                                <path id="Line_154" d="M0 0L5.219 7.955" class="cls-7" transform="translate(3.715)"/>
                                <path id="Line_155" d="M0 0L2.544 7.955" class="cls-7"/>
                            </g>
                            <g id="Group_2475" transform="translate(5.046)">
                                <path id="Line_156" d="M8.078 0L0 7.955" class="cls-7"/>
                                <path id="Line_157" d="M7.116 0L0 7.955" class="cls-7" transform="translate(5.245)"/>
                                <path id="Line_158" d="M6.172 0L0 7.955" class="cls-7" transform="translate(10.193)"/>
                                <path id="Line_159" d="M5.219 0L0 7.955" class="cls-7" transform="translate(15.622)"/>
                                <path id="Line_160" d="M2.544 0L0 7.955" class="cls-7" transform="translate(22.013)"/>
                            </g>
                            <path id="Line_161" d="M0 8.052L0 0" class="cls-4" transform="translate(32.12)"/>
                            <path id="Line_162" d="M0 0L54.394 0" class="cls-7" transform="translate(5.046 2.972)"/>
                        </g>
                    </g>
                </g>
                <g id="TABLE" transform="translate(26.846 63.117)">
                    <path id="Path_6683" d="M333.14 173.749L295.7 49.942a5.852 5.852 0 0 0-5.6-4.153H62.839a5.851 5.851 0 0 0-5.621 4.231L21.489 173.749" class="cls-7" transform="translate(-21.489 -3.949)"/>
                    <path id="Line_163" d="M0 0L99.399 0" class="cls-7" transform="translate(103.604)"/>
                </g>
                <g id="BOY" transform="translate(164.946 16.723)">
                    <path id="PAPER_1_" d="M68.694 37.931h23.482V58.1H68.694z" class="cls-8" transform="translate(-68.694 27.275)"/>
                    <g id="CHAIR_1_" transform="translate(73.609 127.53)">
                        <path id="Line_169" d="M0 0L10.15 84.467" class="cls-7" transform="translate(54.141 4.196)"/>
                        <path id="Line_170" d="M10.15 0L0 84.467" class="cls-7" transform="translate(0 4.196)"/>
                        <path id="Line_171" d="M0 0L57.323 0" class="cls-7" transform="translate(3.479 59.657)"/>
                        <path id="Path_6747" d="M96.2 63.68h55.163a1.328 1.328 0 0 0 1.329-1.329v-1.8a1.328 1.328 0 0 0-1.329-1.329H96.2a1.328 1.328 0 0 0-1.329 1.329v1.8A1.328 1.328 0 0 0 96.2 63.68z" class="cls-9" transform="translate(-91.899 -59.221)"/>
                    </g>
                </g>
                <g id="GIRL" transform="translate(64.509 15.061)">
                    <g id="PAPER" transform="translate(52.591 69.728)">
                        <path id="Path_6748" d="M86.3 38.9l-8.445 17.38H52.339L62.594 38.9z" class="cls-10" transform="translate(-52.339 -38.895)"/>
                        <path id="Path_6749" d="M73.533 41.585a3.535 3.535 0 0 0-3.777-1.407c-1.993.358-4.354 2-5.8 1.119s-2.736-1.984-4.616-1.46a11.433 11.433 0 0 0-3.27 1.53" class="cls-11" transform="translate(-45.164 -37.345)"/>
                        <path id="Path_6750" d="M73.234 42.511a3.535 3.535 0 0 0-3.777-1.411c-1.993.358-4.354 2-5.8 1.119s-2.736-1.984-4.616-1.46a11.433 11.433 0 0 0-3.27 1.53" class="cls-11" transform="translate(-45.74 -35.561)"/>
                    </g>
                    <g id="GIRL_1_">
                        <g id="LEGS" transform="translate(30.972 128.93)">
                            <g id="LEFT" transform="translate(36.193 14.573)">
                                <path id="Path_6751" d="M86.31 68.336c0 2.334-6.478 4.222-14.591 4.222s-14.4-1.888-14.4-4.222 6.286-4.222 14.4-4.222S86.31 66.01 86.31 68.336z" class="cls-12" transform="translate(-57.321 -64.113)"/>
                                <g id="Group_2497" transform="translate(4.904)">
                                    <path id="Path_6752" d="M79.349 65.494v30.161l-.918-4.355a10.14 10.14 0 0 0-14.057-7.15c-.044.017-.087.044-.14.061l-3.366-12.274L59 65.11a41.628 41.628 0 0 1 9.494-1 38 38 0 0 1 10.855 1.384z" class="cls-13" transform="translate(-58.997 -64.113)"/>
                                    <path id="Path_6753" d="M79.349 65.489v5.682a38 38 0 0 1-10.858 1.381 45.493 45.493 0 0 1-7.623-.612L59 65.113a41.627 41.627 0 0 1 9.494-1 37.726 37.726 0 0 1 10.855 1.376z" class="cls-14" transform="translate(-58.997 -64.107)"/>
                                </g>
                                <g id="Group_2510" transform="translate(2.829 19.163)">
                                    <g id="Group_2499" transform="translate(21.614 .573)">
                                        <g id="Group_2498">
                                            <path id="Path_6754" d="M65.842 81.782a18.343 18.343 0 0 0 4.424.691 3.735 3.735 0 0 0 2.614-.743 1.978 1.978 0 0 0 .341-2.063 1.9 1.9 0 0 0-1.3-1.451c-1.171-.315-2.8.559-4.083 1.477 2-2.43 3.978-5.516 3.243-7.536a1.921 1.921 0 0 0-1.6-1.285 1.536 1.536 0 0 0-1.469.559c-1.259 1.915-2.29 9.774-2.334 10.106zm2.535-10.106a1.035 1.035 0 0 1 .874-.376 1.289 1.289 0 0 1 .184.009 1.469 1.469 0 0 1 1.241 1 4.173 4.173 0 0 1-.516 3.156 23.7 23.7 0 0 1-3.951 5.455c.28-1.996 1.172-7.731 2.168-9.244zm4.2 9.748c-.577.577-1.888.752-3.8.507a20.891 20.891 0 0 1-2.439-.472 20.314 20.314 0 0 1 1.888-1.495c1.556-1.075 2.8-1.539 3.593-1.32a1.488 1.488 0 0 1 1 1.145 1.555 1.555 0 0 1-.245 1.635z" class="cls-8" transform="translate(-65.676 -70.859)"/>
                                        </g>
                                    </g>
                                    <path id="Path_6755" d="M62.321 74.047L60.3 76.311a7.924 7.924 0 0 0-.927 9.284l8.891 15.246a9.7 9.7 0 0 0 8.375 4.808h3.68a4.186 4.186 0 0 0 4.1-5.053L79.788 78.7a10.125 10.125 0 0 0-9.914-8.034 10.086 10.086 0 0 0-7.553 3.381z" class="cls-10" transform="translate(-58.288 -70.663)"/>
                                    <path id="Path_6756" d="M69.145 76.4l11.479 22.24a4.828 4.828 0 0 0 1.984 2.063 4.192 4.192 0 0 1-2.343.717h-3.681a9.694 9.694 0 0 1-8.375-4.808l-8.89-15.259a8.163 8.163 0 0 1-.813-1.941 5.238 5.238 0 0 1 8.06-5.6 9.923 9.923 0 0 1 2.579 2.588z" class="cls-15" transform="translate(-58.231 -66.422)"/>
                                    <g id="Group_2509" transform="translate(.187 9.555)">
                                        <g id="Group_2500" transform="translate(.157)">
                                            <path id="Path_6757" d="M69 74.4H58.4a3.775 3.775 0 0 1 .184-.472H68.66c.1.14.21.28.315.428z" class="cls-16" transform="translate(-58.406 -73.93)"/>
                                        </g>
                                        <g id="Group_2501" transform="translate(0 3.007)">
                                            <path id="Path_6758" d="M70.661 75.43h-12.2a.38.38 0 0 0-.009-.044c-.035-.14-.07-.289-.1-.428h12.073z" class="cls-16" transform="translate(-58.352 -74.958)"/>
                                        </g>
                                        <g id="Group_2502" transform="translate(1.276 6.015)">
                                            <path id="Path_6759" d="M71.377 76.466H59.068l-.28-.481h12.344z" class="cls-16" transform="translate(-58.788 -75.985)"/>
                                        </g>
                                        <g id="Group_2503" transform="translate(3.034 9.031)">
                                            <path id="Path_6760" d="M71.776 77.5H59.668l-.28-.481h12.144z" class="cls-16" transform="translate(-59.389 -77.016)"/>
                                        </g>
                                        <g id="Group_2504" transform="translate(4.791 12.047)">
                                            <path id="Path_6761" d="M72.176 78.519H60.269l-.28-.472h11.942z" class="cls-16" transform="translate(-59.989 -78.047)"/>
                                        </g>
                                        <g id="Group_2505" transform="translate(6.548 15.054)">
                                            <path id="Path_6762" d="M72.576 79.556H60.87l-.28-.481h11.732z" class="cls-16" transform="translate(-60.59 -79.075)"/>
                                        </g>
                                        <g id="Group_2506" transform="translate(8.305 18.07)">
                                            <path id="Path_6763" d="M72.975 80.587H61.47l-.28-.481h11.532z" class="cls-16" transform="translate(-61.191 -80.106)"/>
                                        </g>
                                        <g id="Group_2507" transform="translate(10.08 21.086)">
                                            <path id="Path_6764" d="M73.354 81.609H62.129c-.114-.157-.227-.315-.332-.472H73.11z" class="cls-16" transform="translate(-61.797 -81.137)"/>
                                        </g>
                                        <g id="Group_2508" transform="translate(13.262 24.102)">
                                            <path id="Path_6765" d="M73.559 82.64H63.8a9.1 9.1 0 0 1-.918-.472H72.93a5.378 5.378 0 0 0 .629.472z" class="cls-16" transform="translate(-62.885 -82.168)"/>
                                        </g>
                                    </g>
                                </g>
                            </g>
                            <g id="RIGHT">
                                <path id="Path_6766" d="M74.323 77.307c-.079 2.308-6.627 4.179-14.687 4.179s-14.608-1.862-14.687-4.179V59.132h29.374z" class="cls-14" transform="translate(-44.949 -59.132)"/>
                                <g id="Group_2511" transform="translate(7.387 21.191)">
                                    <path id="Path_6767" d="M67.512 66.375l-.044 2.159-.42 21.077V89a9.8 9.8 0 0 0-9.8-9.8h-.594a10.335 10.335 0 0 0-7.1 2.806l-1.285-8.69-.8-5.376a45.035 45.035 0 0 0 7.291.559c5.461-.008 10.208-.865 12.752-2.124z" class="cls-13" transform="translate(-47.474 -66.375)"/>
                                    <path id="Path_6768" d="M67.506 66.375l-.044 2.159c-3.252 2.308-13.3 5.149-19.189 4.773l-.8-5.376a46.049 46.049 0 0 0 7.291.559c5.451.001 10.198-.856 12.742-2.115z" class="cls-14" transform="translate(-47.469 -66.375)"/>
                                </g>
                                <g id="Group_2522" transform="translate(6.172 34.016)">
                                    <path id="Path_6769" d="M58.494 105.754h1.626a7.731 7.731 0 0 0 7.728-7.728V80.559a9.8 9.8 0 0 0-9.8-9.8h-.594a10.393 10.393 0 0 0-10.3 11.793l2.056 15.107a9.374 9.374 0 0 0 9.284 8.095z" class="cls-10" transform="translate(-47.059 -70.759)"/>
                                    <path id="Path_6770" d="M65.4 100.339a7.713 7.713 0 0 1-5.3 2.107h-1.623a9.359 9.359 0 0 1-9.275-8.1l-2.055-15.102c-.035-.288-.07-.577-.079-.857a7 7 0 0 1 13.83 0l2.7 18.437a6.1 6.1 0 0 0 1.802 3.515z" class="cls-15" transform="translate(-47.042 -67.45)"/>
                                    <g id="Group_2521" transform="translate(.035 8.13)">
                                        <g id="Group_2512" transform="translate(.796)">
                                            <path id="Path_6771" d="M59.556 74.01H47.343a4.306 4.306 0 0 1 .3-.472h11.624a4.241 4.241 0 0 1 .289.472z" class="cls-16" transform="translate(-47.343 -73.538)"/>
                                        </g>
                                        <g id="Group_2513" transform="translate(0 3.007)">
                                            <path id="Path_6772" d="M60.989 75.038H47.115c-.017-.157-.035-.315-.044-.472h13.848z" class="cls-16" transform="translate(-47.071 -74.566)"/>
                                        </g>
                                        <g id="Group_2514" transform="translate(.385 6.023)">
                                            <path id="Path_6773" d="M61.181 76.069H47.272L47.2 75.6h13.911z" class="cls-16" transform="translate(-47.203 -75.597)"/>
                                        </g>
                                        <g id="Group_2515" transform="translate(.796 9.031)">
                                            <path id="Path_6774" d="M61.348 77.106H47.413l-.07-.481h13.935z" class="cls-16" transform="translate(-47.343 -76.625)"/>
                                        </g>
                                        <g id="Group_2516" transform="translate(1.206 12.047)">
                                            <path id="Path_6775" d="M61.523 78.128h-13.97l-.07-.472h13.97z" class="cls-16" transform="translate(-47.483 -77.656)"/>
                                        </g>
                                        <g id="Group_2517" transform="translate(1.617 15.063)">
                                            <path id="Path_6776" d="M61.69 79.159H47.685l-.061-.472h14z" class="cls-16" transform="translate(-47.624 -78.687)"/>
                                        </g>
                                        <g id="Group_2518" transform="translate(2.028 18.07)">
                                            <path id="Path_6777" d="M61.866 80.2h-14.04l-.061-.481H61.8z" class="cls-16" transform="translate(-47.764 -79.715)"/>
                                        </g>
                                        <g id="Group_2519" transform="translate(2.745 21.086)">
                                            <path id="Path_6778" d="M61.84 81.218H48.219q-.118-.236-.21-.472h13.752l.026.157z" class="cls-16" transform="translate(-48.009 -80.746)"/>
                                        </g>
                                        <g id="Group_2520" transform="translate(4.756 24.102)">
                                            <path id="Path_6779" d="M62.081 82.249H49.2c-.175-.149-.35-.315-.507-.472h12.986a5.213 5.213 0 0 0 .402.472z" class="cls-16" transform="translate(-48.697 -81.777)"/>
                                        </g>
                                    </g>
                                </g>
                            </g>
                        </g>
                        <g id="CLOTHES" transform="translate(0 38.448)">
                            <g id="Group_2523" transform="translate(13.986 .201)">
                                <path id="Path_6780" d="M70.4 42.259v14.722c-.638-1.67-5.691-1.434-11.251.673-4.765 1.81-8.34 4.292-8.865 6.015V42.95a17.072 17.072 0 0 1 8.358-14.678A14.2 14.2 0 0 1 70.4 42.259z" class="cls-8" transform="translate(-17.687 -28.272)"/>
                                <path id="Path_6781" d="M71.358 28.5a17.055 17.055 0 0 0-7.326 14.014V59.6H39.143l3.436-14.792A18.843 18.843 0 0 1 54.547 31.34z" class="cls-8" transform="translate(-39.143 -27.835)"/>
                            </g>
                            <g id="Group_2526">
                                <path id="Path_6782" d="M130.9 102.224v34.313c0-2.334-6.863-4.223-14.975-4.223s-14.687 1.888-14.687 4.223v-16.444a1.4 1.4 0 0 0-1.4-1.4H55.22a20.848 20.848 0 0 1-20.308-25.561l10.77-46.4a18.841 18.841 0 0 1 15.2-14.32l2.867-.49A18.843 18.843 0 0 0 51.784 45.39l-3.436 14.792h24.889v-17.1a17.066 17.066 0 0 1 7.326-14.014L84.5 28.4a14.09 14.09 0 0 1 2.4-.2h.306c.1 0 .192.009.28.009h.052c.07 0 .149.009.219.009h.035c.044 0 .087.009.122.009.079.009.149.009.227.017l.271.026.254.026c.017 0 .035.009.061.009.087.009.184.026.271.035h.017c.1.017.192.026.288.044a17.072 17.072 0 0 0-8.358 14.678v42.009h32.818a17.161 17.161 0 0 1 17.137 17.153z" class="cls-12" transform="translate(-34.363 -28.203)"/>
                                <path id="Path_6783" d="M71.932 28.368c-4.476 3.112-7.9 8.664-7.9 14.4v17.089H39.14l3.436-14.792A18.493 18.493 0 0 1 54.168 31.5" class="cls-17" transform="translate(-25.163 -27.887)"/>
                                <path id="Path_6784" d="M57.222 66.563a20.607 20.607 0 0 1 4.861-13.3" class="cls-17" transform="translate(9.654 20.055)"/>
                                <g id="Group_2524" transform="translate(23.541 68.521)">
                                    <path id="Path_6785" d="M49.386 67.982a.2.2 0 0 1-.122-.035l-1.154-.629a.264.264 0 1 1 .254-.463l1.154.629a.261.261 0 0 1 .1.358.276.276 0 0 1-.232.14zm1.154-.3a.252.252 0 0 1-.227-.14.261.261 0 0 1 .1-.358l1.154-.629a.268.268 0 0 1 .358.1.261.261 0 0 1-.1.358l-1.154.629a.366.366 0 0 1-.131.043zm-3.462-.953a.2.2 0 0 1-.122-.035l-1.156-.627a.264.264 0 1 1 .254-.463l1.154.629a.261.261 0 0 1 .1.358.276.276 0 0 1-.23.141zm5.761-.306a.252.252 0 0 1-.227-.14.261.261 0 0 1 .1-.358l1.158-.625a4.78 4.78 0 0 0 .568-.358.262.262 0 1 1 .315.42 5.908 5.908 0 0 1-.629.4l-1.154.629a.247.247 0 0 1-.131.035zm-8.039-.985a.282.282 0 0 1-.157-.052 5.365 5.365 0 0 1-1-.944.261.261 0 0 1 .4-.332 4.866 4.866 0 0 0 .9.848.274.274 0 0 1 .061.367.228.228 0 0 1-.204.113zm10.74-.918a.245.245 0 0 1-.166-.061.254.254 0 0 1-.035-.367 4.866 4.866 0 0 0 .656-1.058.264.264 0 1 1 .481.219 5.3 5.3 0 0 1-.726 1.163.273.273 0 0 1-.21.104zm-12.388-1.084a.258.258 0 0 1-.236-.149 5.736 5.736 0 0 1-.42-1.311.262.262 0 0 1 .516-.1 5.02 5.02 0 0 0 .376 1.18.266.266 0 0 1-.131.35.233.233 0 0 1-.105.03zm13.472-1.276h-.044a.266.266 0 0 1-.21-.306 4.829 4.829 0 0 0 .079-.865v-.393a.262.262 0 0 1 .525 0v.393a5.047 5.047 0 0 1-.087.962.271.271 0 0 1-.263.209zm-13.952-1.277a.258.258 0 0 1-.262-.262V59.31a.262.262 0 1 1 .525 0v1.311a.269.269 0 0 1-.263.262zM56.7 59.546a.258.258 0 0 1-.262-.262v-1.312a.262.262 0 1 1 .525 0v1.311a.258.258 0 0 1-.263.263zm-14.028-1.285a.258.258 0 0 1-.263-.261v-1.313a.262.262 0 0 1 .525 0V58a.269.269 0 0 1-.262.261zM56.7 56.923a.258.258 0 0 1-.262-.262v-1.312a.262.262 0 1 1 .525 0v1.311a.258.258 0 0 1-.263.263zm-14.028-1.285a.258.258 0 0 1-.262-.262v-1.312a.262.262 0 1 1 .525 0v1.311a.269.269 0 0 1-.263.263zM56.7 54.3a.258.258 0 0 1-.262-.262v-1.311a.262.262 0 0 1 .525 0v1.311a.258.258 0 0 1-.263.262zm-14.028-1.285a.258.258 0 0 1-.262-.262v-1.128h.708a.262.262 0 0 1 0 .525h-.184v.6a.269.269 0 0 1-.262.265zm13.559-.865H54.92a.262.262 0 0 1 0-.525h1.311a.262.262 0 0 1 0 .525zm-2.623 0H52.3a.262.262 0 1 1 0-.525h1.311a.262.262 0 1 1 0 .525zm-2.623 0h-1.311a.262.262 0 1 1 0-.525h1.311a.262.262 0 0 1 0 .525zm-2.623 0h-1.31a.262.262 0 0 1 0-.525h1.311a.262.262 0 1 1 0 .525zm-2.623 0h-1.31a.262.262 0 1 1 0-.525h1.311a.262.262 0 1 1 0 .525z" class="cls-16" transform="translate(-42.409 -51.625)"/>
                                </g>
                                <g id="Group_2525" transform="translate(.776 68.521)">
                                    <path id="Path_6786" d="M39.628 66.531a.252.252 0 0 1-.227-.14.261.261 0 0 1 .1-.358l1.067-.586c.026-.017.052-.026.079-.044a.262.262 0 1 1 .262.455.273.273 0 0 1-.087.044l-1.067.586a.2.2 0 0 1-.127.043zm2.212-1.4a.248.248 0 0 1-.192-.087.262.262 0 0 1 .017-.367 5.587 5.587 0 0 0 .813-.944.264.264 0 0 1 .437.3 6.3 6.3 0 0 1-.892 1.04.308.308 0 0 1-.183.059zm1.46-2.151a.372.372 0 0 1-.1-.017.265.265 0 0 1-.149-.341 5.839 5.839 0 0 0 .315-1.206.265.265 0 1 1 .525.07 5.822 5.822 0 0 1-.341 1.329.284.284 0 0 1-.25.166zm.376-2.57a.258.258 0 0 1-.262-.262v-1.31a.262.262 0 1 1 .525 0v1.311a.263.263 0 0 1-.263.262zm0-2.623a.258.258 0 0 1-.262-.262v-1.31a.262.262 0 1 1 .525 0v1.311a.263.263 0 0 1-.263.262zm0-2.623a.258.258 0 0 1-.262-.262v-1.31a.262.262 0 0 1 .525 0V54.9a.263.263 0 0 1-.263.266zm0-2.623a.258.258 0 0 1-.262-.262v-.129h-.656a.262.262 0 1 1 0-.525h1.18v.656a.263.263 0 0 1-.262.262zm-2.229-.393h-1.311a.262.262 0 0 1 0-.525h1.311a.258.258 0 0 1 .262.262.263.263 0 0 1-.262.265zm-2.623 0h-1.311a.262.262 0 1 1 0-.525h1.311a.258.258 0 0 1 .262.262.263.263 0 0 1-.262.265zm-2.623 0H34.89a.262.262 0 0 1 0-.525h1.31a.258.258 0 0 1 .262.262.263.263 0 0 1-.262.265z" class="cls-16" transform="translate(-34.628 -51.625)"/>
                                </g>
                            </g>
                        </g>
                        <g id="HAND" transform="translate(46.518 66.254)">
                            <path id="Path_6787" d="M70.447 38.81c.638 1.67-3.4 4.633-8.952 6.74s-10.526 2.43-11.164.752 3.3-4.7 8.865-6.81 10.613-2.361 11.251-.682z" class="cls-12" transform="translate(-50.263 -37.705)"/>
                            <path id="Path_6788" d="M61.952 58.059v.927a3.845 3.845 0 0 0-.9-.1h-1.128a3.879 3.879 0 0 1-3.637-2.553l3.2-.428a2.177 2.177 0 0 1 2.465 2.154z" class="cls-14" transform="translate(-38.665 -2.717)"/>
                            <path id="Path_6789" d="M76.466 97.721v7.116a3.007 3.007 0 0 1-3.007 3.007h-3.348a2.964 2.964 0 0 1-2.124-.883 3 3 0 0 1-.883-2.124h2.176a1.291 1.291 0 0 0 1.294-1.294v-1.862a1.291 1.291 0 0 0-1.294-1.294H58.151a7.869 7.869 0 0 1-7.868-7.868V45.5c.525-1.722 4.1-4.214 8.865-6.015a24.139 24.139 0 0 1 8.462-1.775v52.3a3.865 3.865 0 0 0 3.864 3.864H72.6a3.845 3.845 0 0 1 3.866 3.847z" class="cls-13" transform="translate(-50.224 -37.702)"/>
                            <path id="Path_6790" d="M67.611 37.711v4.756a30.6 30.6 0 0 1-6.163 3.077c-5.56 2.107-10.526 2.43-11.164.752v-.8c.525-1.722 4.1-4.214 8.865-6.015a24.176 24.176 0 0 1 8.462-1.77z" class="cls-14" transform="translate(-50.224 -37.708)"/>
                        </g>
                        <g id="HEAD_1_" transform="translate(26.207)">
                            <g id="NECK" transform="translate(2.929 30.843)">
                                <path id="Path_6791" d="M64.551 25.6l-3.287 8.471-16.942 3.037 4.424-11.5z" class="cls-13" transform="translate(-44.322 -25.603)"/>
                                <path id="Path_6792" d="M63.464 25.6l-1.775 4.581-16.8 2.623 2.771-7.2z" class="cls-14" transform="translate(-43.234 -25.603)"/>
                            </g>
                            <g id="HAIR">
                                <path id="Path_6793" d="M76.411 23.378c0 1.145-1.984 2.413-4.275 3.479a58.776 58.776 0 0 1-6.8 2.57l-2.483 4.677a10.7 10.7 0 0 1 5.219 7.256 12.045 12.045 0 0 1 .332 2.457h-23.8s-6.251-20.247 8.812-25.09c9.217-2.963 22.995 1.932 22.995 4.651z" class="cls-18" transform="translate(-43.321 -9.775)"/>
                                <circle id="Ellipse_1413" cx="5.918" cy="5.918" r="5.918" class="cls-18" transform="translate(1.976)"/>
                            </g>
                            <g id="HEAD" transform="translate(16.628 17.353)">
                                <path id="Path_6794" d="M57.117 35.219a10.8 10.8 0 0 0-4.73-6.976h-.777a2.605 2.605 0 0 1 0-5.21l3.3.07h.087c.061-.017.122-.044.192-.061A28.353 28.353 0 0 0 61.244 21l.271 1.617.874 5.184a6.463 6.463 0 0 1-5.272 7.418z" class="cls-13" transform="translate(-49.004 -20.987)"/>
                                <path id="Path_6795" d="M57.628 22.61a13.953 13.953 0 0 1-6.609.49 29.259 29.259 0 0 0 6.338-2.107z" class="cls-14" transform="translate(-45.126 -20.993)"/>
                                <path id="Path_6796" fill="none" stroke="#73325a" stroke-linecap="round" stroke-miterlimit="10" stroke-width="0.149px" d="M51.774 23.938a1.8 1.8 0 0 0-1.8-1.8" transform="translate(-47.14 -18.789)"/>
                            </g>
                        </g>
                    </g>
                    <g id="CHAIR" transform="translate(2.577 128.93)">
                        <path id="Line_172" d="M0 0L10.15 84.467" class="cls-7" transform="translate(54.149 4.459)"/>
                        <path id="Line_173" d="M10.141 0L0 84.467" class="cls-7" transform="translate(.009 4.459)"/>
                        <path id="Line_174" d="M0 0L57.323 0" class="cls-7" transform="translate(3.488 59.919)"/>
                        <path id="Path_6797" d="M36.572 63.59h61.642a1.328 1.328 0 0 0 1.329-1.329v-1.8a1.328 1.328 0 0 0-1.329-1.329H36.572a1.328 1.328 0 0 0-1.329 1.329v1.8a1.34 1.34 0 0 0 1.329 1.329z" class="cls-9" transform="translate(-35.244 -59.132)"/>
                    </g>
                </g>
            </g>
        </g>
    </g>
</svg>
