<svg xmlns="http://www.w3.org/2000/svg" width="112" height="160" viewBox="0 0 112 160">
    <defs>
        <clipPath id="clip-path">
            <rect id="Rectangle_2642" width="112" height="160" fill="#fde3e0" rx="10" transform="translate(1371 516)"/>
        </clipPath>
        <style>
            .cls-4{fill:#9a3b82}.cls-5{fill:#ffcf2d}.cls-6{fill:#fff}.cls-15,.cls-6,.cls-7{stroke:#ffcf2d}.cls-12,.cls-15,.cls-16,.cls-20,.cls-6,.cls-7{stroke-miterlimit:10}.cls-12,.cls-20,.cls-6,.cls-7{stroke-width:.164px}.cls-12,.cls-15,.cls-20,.cls-7{fill:none}.cls-13,.cls-16{fill:#66b0f0}.cls-9{fill:#fe5244}.cls-10{fill:#a0505a}.cls-11{fill:#73325a}.cls-12,.cls-20{stroke:#73325a}.cls-15,.cls-16{stroke-width:.197px}.cls-16{stroke:#fff}.cls-20{stroke-linecap:round}
        </style>
    </defs>
    <g id="Group_2861" transform="translate(-1427 -608)">
        <rect id="Rectangle_2615" width="112" height="160" fill="#dbf2f2" rx="10" transform="translate(1427 608)"/>
        <g id="Mask_Group_11" clip-path="url(#clip-path)" transform="translate(56 92)">
            <g id="_2_SCENE" transform="translate(1344.974 524.664)">
                <g id="_x35__HAND__x26__CAP" transform="translate(92.953 32.141)">
                    <g id="HAND_8_" transform="translate(2.466 52.315)">
                        <g id="DRESS_6_" transform="translate(9.896 37.116)">
                            <path id="Path_7319" d="M144.175 89.575v18.486h-27.81l5.419-28.388c-.174 1.121 3.295 3.222 8.041 5.329 1.7.756 3.6 1.507 5.632 2.219a54.625 54.625 0 0 0 8.719 2.354z" class="cls-4" transform="translate(-116.365 -78.298)"/>
                            <path id="Path_7320" d="M141.807 84.586v4.948a54.906 54.906 0 0 1-8.725-2.348c-7.739-2.718-13.7-6.074-13.359-7.582.006-.022.011-.045.017-.062.521-1.474 7.374-.454 15.219 2.3 2.522.885 4.8 1.8 6.708 2.679l.14.065z" class="cls-5" transform="translate(-113.997 -78.868)"/>
                        </g>
                        <g id="DIPLOMA_1_">
                            <path id="Path_7321" d="M142.629 57.136a4.906 4.906 0 0 0-4.909 4.9v13.44a4.9 4.9 0 0 1-4.9 4.9h-19.661a4.9 4.9 0 0 0 4.9-4.9V62.039a4.9 4.9 0 0 1 4.9-4.9h19.663z" class="cls-6" transform="translate(-108.738 -57.136)"/>
                            <g id="Group_2848" transform="translate(12.776 6.954)">
                                <path id="Rectangle_2649" d="M0 0H12.519V11.616H0z" class="cls-6"/>
                                <path id="Line_239" d="M12.513 0L0 0" class="cls-7" transform="translate(0 1.659)"/>
                                <path id="Line_240" d="M12.513 0L0 0" class="cls-7" transform="translate(0 3.317)"/>
                                <path id="Line_241" d="M12.513 0L0 0" class="cls-7" transform="translate(0 4.982)"/>
                                <path id="Line_242" d="M12.513 0L0 0" class="cls-7" transform="translate(0 6.64)"/>
                                <path id="Line_243" d="M12.513 0L0 0" class="cls-7" transform="translate(0 8.305)"/>
                                <path id="Line_244" d="M12.513 0L0 0" class="cls-7" transform="translate(0 9.963)"/>
                            </g>
                            <path id="Path_7322" fill="#66b0f0" stroke="#ffcf2d" stroke-miterlimit="10" stroke-width="0.164px" d="M127.54 62.039a4.859 4.859 0 1 1 9.717 0z" transform="translate(-98.558 -57.136)"/>
                            <path id="Path_7323" d="M134.672 72.074h-19.641a4.906 4.906 0 0 1-4.461-3.032h19.624a4.923 4.923 0 0 0 4.478 3.032z" class="cls-5" transform="translate(-110.57 -48.707)"/>
                            <g id="Group_2854" transform="translate(11.331 2.505)">
                                <g id="Group_2849" transform="translate(0 1.3)">
                                    <path id="Path_7324" d="M119.468 61.179H117.2v-1.816h1.065v1.009a.05.05 0 0 0 .022.045l.006.006z" class="cls-9" transform="translate(-117.205 -59.363)"/>
                                </g>
                                <g id="Group_2850" transform="translate(1.188 1.922)">
                                    <path id="Path_7325" d="M119.856 59.733v.241c0 .045-.006.09-.006.134 0 .011-.006.028-.006.039s-.006.045-.011.067a.884.884 0 0 1-.476.656l-.05.017a.526.526 0 0 1-.09.022c-.011 0-.022.006-.034.006l-1.283-.835c.011-.2.134-.353.28-.353h1.675z" class="cls-9" transform="translate(-117.9 -59.728)"/>
                                </g>
                                <g id="Group_2851" transform="translate(13.381 1.3)">
                                    <path id="Path_7326" d="M127.3 59.363v1.816h-2.26l1.166-.756.006-.006c.006-.006.006-.006.011-.006s.006-.006.006-.011a.005.005 0 0 1 .006-.006c0-.006 0-.006.006-.006v-1.025h1.059z" class="cls-9" transform="translate(-125.04 -59.363)"/>
                                </g>
                                <g id="Group_2852" transform="translate(12.513 1.933)">
                                    <path id="Path_7327" d="M126.487 60.082l-1.283.835-.1-.017c-.011-.006-.022-.006-.034-.011l-.045-.017-.039-.017a.88.88 0 0 1-.392-.51.68.68 0 0 1-.028-.1c-.006-.011-.006-.028-.011-.045a1.447 1.447 0 0 1-.022-.224v-.241h1.681c.138-.006.262.151.273.347z" class="cls-9" transform="translate(-124.531 -59.734)"/>
                                </g>
                                <g id="Group_2853" transform="translate(1.182)">
                                    <path id="Path_7328" d="M131.183 58.983v1.58c-.011-.011-.022-.028-.034-.039a.594.594 0 0 0-.067-.056.355.355 0 0 0-.179-.056h-12.726a.324.324 0 0 0-.179.056.6.6 0 0 0-.067.056.245.245 0 0 0-.034.039v-1.58c0-.213.123-.381.28-.381H130.9c.154-.002.283.174.283.381z" class="cls-9" transform="translate(-117.897 -58.602)"/>
                                </g>
                            </g>
                        </g>
                        <g id="HAND_9_" transform="translate(20.151 12.659)">
                            <path id="Path_7329" d="M139.925 77.7v21.971h-.006a54.906 54.906 0 0 1-8.725-2.348c-2.029-.712-3.928-1.468-5.632-2.219l.913-5.1 1.552-8.658a8.379 8.379 0 0 1-5.66-6.209h3.917a4.9 4.9 0 0 0 4.9-4.9v-1.616h-2.516a3.475 3.475 0 0 1-3.2-3.5v-.572h5.592a3.291 3.291 0 0 1 2.634 1.317l4.091 5.464a10.561 10.561 0 0 1 2.14 6.37z" class="cls-10" transform="translate(-122.369 -64.547)"/>
                            <path id="Path_7330" d="M138.6 84.171v4.948a54.906 54.906 0 0 1-8.725-2.348c-2.029-.712-3.928-1.468-5.632-2.219l.913-5.1c2.017.493 4.259 1.16 6.59 1.978 2.522.885 4.8 1.8 6.7 2.679a1.016 1.016 0 0 1 .154.062z" class="cls-11" transform="translate(-121.045 -53.996)"/>
                            <path id="Path_7331" d="M130.13 68.621h-2.7a3.475 3.475 0 0 1-3.2-3.5v-.572h5.9z" class="cls-10" transform="translate(-121.052 -64.547)"/>
                            <path id="Path_7332" d="M126.69 70.128a7.331 7.331 0 0 1 4.248 6.489" class="cls-12" transform="translate(-119.31 -60.597)"/>
                            <path id="Line_245" d="M0 0L2.651 0" class="cls-12" transform="translate(5.671 16.917)"/>
                        </g>
                    </g>
                </g>
                <g id="_x32__HAND__x26__CAP" transform="translate(64.286 42.373)">
                    <g id="HAND_2_" transform="translate(0 60.921)">
                        <g id="DRESS_3_" transform="translate(2.916 25.335)">
                            <path id="Path_7366" d="M74.418 84v21H50.16V92.628c.527 1.378 6.7.5 13.292-2.023 5.929-2.269 10.507-5.06 10.966-6.605z" class="cls-9" transform="translate(-50.118 -82.289)"/>
                            <path id="Path_7367" d="M74.436 84.1c-.465 1.541-5.038 4.332-10.972 6.6-6.584 2.522-12.759 3.4-13.292 2.023s4.791-4.5 11.381-7.021 12.356-3.446 12.883-2.068a.663.663 0 0 1 0 .466z" class="cls-13" transform="translate(-50.135 -83)"/>
                        </g>
                        <g id="HAND_3_">
                            <path id="Path_7368" fill="#a0505a" stroke="#ffcf2d" stroke-miterlimit="10" stroke-width="0.164px" d="M70.506 80.686v17.785l-1.339.678c-1.356.661-2.875 1.317-4.489 1.933a46.53 46.53 0 0 1-8.17 2.354l1.334-5.236 2.174-8.551a3.446 3.446 0 0 1-2.662-1.255l-8.926-10.157c1.53-1.4 3.816.5 3.816.5l-.857-4.376a3.346 3.346 0 0 1 .813-2.891l2.711-2.97a1.02 1.02 0 0 1 1.732.4l1.928 6.652s4.785 3.654 5.682 3.654c1.014 0 1.367-.824-.527-3.53a2.731 2.731 0 0 1 0-3.519l4.634 3.9a6.068 6.068 0 0 1 2.146 4.629z" transform="translate(-48.428 -68.166)"/>
                            <g id="Group_2857" transform="translate(3.368 1.665)">
                                <path id="Path_7369" d="M58.224 78.959l-3.39-2.712-1.855-6.4a.952.952 0 0 0-1.631-.387" class="cls-7" transform="translate(-49.728 -69.14)"/>
                                <path id="Path_7370" d="M56.676 79.37l-2.948-2.4-1.754-6.058a.925.925 0 0 0-1.574-.362" class="cls-7" transform="translate(-50.4 -68.358)"/>
                                <path id="Line_248" d="M3.228 2.707L0 0" class="cls-7" transform="translate(.443 8.916)"/>
                                <path id="Line_249" d="M0 0L3.771 0" class="cls-7" transform="translate(8.221 19.815)"/>
                            </g>
                            <path id="Path_7371" d="M67.162 83.226v4.7a54.253 54.253 0 0 1-5.828 2.617 46.621 46.621 0 0 1-8.182 2.357l1.348-5.247c1.491-.717 3.16-1.435 4.926-2.107a50.246 50.246 0 0 1 7.736-2.32z" class="cls-5" transform="translate(-45.083 -57.504)"/>
                        </g>
                    </g>
                    <g id="CAP_3_" transform="translate(4.337)">
                        <path id="Path_7373" d="M83.942 47.437l8.977-14.009-30.876-.247-10.114 26.931 16.7-.785z" class="cls-9" transform="translate(-50.287 -32.01)"/>
                        <path id="Path_7374" d="M93.97 32.859L61.687 32.5l-10.72 28.26" class="cls-15" transform="translate(-50.967 -32.495)"/>
                        <path id="Path_7375" d="M78.9 41.22c1.793 3.076-1.255 8.2-6.814 11.437s-11.515 3.368-13.309.291a3.752 3.752 0 0 1-.471-1.362c-.448-3.076 2.482-7.279 7.285-10.075s9.9-3.278 12.356-1.373a3.82 3.82 0 0 1 .953 1.082z" class="cls-16" transform="translate(-45.802 -27.895)"/>
                        <path id="Path_7376" fill="none" stroke="#fff" stroke-linecap="round" stroke-miterlimit="10" stroke-width="0.164px" d="M78.068 39.788l1.423 2.443a3.82 3.82 0 0 0-.953-1.081c-2.454-1.905-7.554-1.423-12.356 1.373s-7.727 7-7.285 10.075a3.65 3.65 0 0 0 .471 1.362l-1.423-2.443c-1.793-3.076 1.255-8.2 6.814-11.437s11.516-3.368 13.309-.292z" transform="translate(-46.391 -28.906)"/>
                    </g>
                </g>
                <g id="_x31__HAND__x26__CAP" transform="translate(26.026 19.903)">
                    <g id="HAND" transform="translate(0 48.806)">
                        <g id="DRESS_2_" transform="translate(0 47.333)">
                            <path id="Path_7378" d="M51.242 87.35v22.936H26.048V76.53c.493 1.653 5.766 5.1 12.311 7.98 6.965 3.076 12.741 4.342 12.883 2.84z" class="cls-13" transform="translate(-26.01 -74.991)"/>
                            <path id="Path_7379" d="M51.258 87.377c-.151 1.5-5.917.23-12.883-2.841-6.545-2.886-11.818-6.336-12.311-7.979a.7.7 0 0 1-.034-.3c.146-1.5 5.917-.23 12.883 2.841s12.496 6.777 12.345 8.279z" class="cls-4" transform="translate(-26.026 -75.629)"/>
                        </g>
                        <g id="HAND_1_" transform="translate(6.258 24.165)">
                            <path id="Path_7380" d="M33.75 64.081a3.583 3.583 0 0 1 3.222-2.017h3.962l.207 15.926L43.9 92.626l.88 4.651a51.312 51.312 0 0 1-9-3.132c-1.972-.869-4.444-2.157-6.091-3.065V71.7a2.274 2.274 0 0 1 .14-.773z" class="cls-10" transform="translate(-29.688 -62.064)"/>
                            <path id="Path_7381" d="M44.781 87.269a51.311 51.311 0 0 1-9-3.132c-1.972-.869-4.444-2.157-6.091-3.065V76.2c1.8.577 4.46 1.541 6.629 2.494a62.077 62.077 0 0 1 7.587 3.923z" class="cls-11" transform="translate(-29.69 -52.056)"/>
                        </g>
                        <g id="DIPLOMA" transform="translate(7.986)">
                            <g id="Group_2858">
                                <path id="Path_7382" d="M58.819 53.1L37.743 91.882c-.779 1.435-2.925 1.776-4.791.762s-2.746-3-1.967-4.438l21.076-38.777z" class="cls-6" transform="translate(-30.702 -46.843)"/>
                                <ellipse id="Ellipse_1545" cx="2.959" cy="3.844" fill="#66b0f0" stroke="#ffcf2d" stroke-miterlimit="10" stroke-width="0.164px" rx="2.959" ry="3.844" transform="rotate(-61.477 14.344 -14.17)"/>
                            </g>
                            <path id="Path_7383" d="M39.1 63.642l9.958-8.131L48.9 58.4l3.188.8-7.258 4.482a26.923 26.923 0 0 1 6.231-.459c2.3.179 1.53 2.875.667 5.178 2.017-.2 8.781-4.292 11.331-3.519 1.558.471 1 3.648.549 5.4.65.034 3.939-.006 3.939-.006l-1.737 1.587.953 1.586c-3.7.162-3.743-.42-3.278-3.043.078-2.852-3.082-.112-9.812 1.5-3.334.8-2.9-1.373-2.079-3.631-.331-1.037-2.8-2.163-10.742-.09z" class="cls-9" transform="translate(-24.754 -42.537)"/>
                            <circle id="Ellipse_1546" cx="2.942" cy="2.942" r="2.942" fill="#fff" stroke="#fe5244" stroke-miterlimit="10" stroke-width="0.164px" transform="translate(11.553 20.175)"/>
                        </g>
                        <g id="FINGERS" transform="translate(12.192 24.165)">
                            <path id="Path_7384" d="M41.493 62.064v.185a3.411 3.411 0 0 1-3.413 3.413H34.5v-3.6h6.993z" class="cls-10" transform="translate(-32.219 -62.064)"/>
                            <g id="Group_2860" transform="translate(0 5.295)">
                                <path id="Path_7385" d="M46.8 66.778L45.851 69l-1.1 2.594L44.148 73l-.913 2.146a1.565 1.565 0 0 1-.084.168c0 .006-.006.006-.006.011a1.7 1.7 0 0 1-1.479.818h-7.258a1.179 1.179 0 0 1-1.154-1.6l.527-1.238 1.16-2.723 1-2.348.88-2.062a1.7 1.7 0 0 1 1.575-1h7.257a1.189 1.189 0 0 1 1.147 1.606z" class="cls-10" transform="translate(-33.165 -65.164)"/>
                                <g id="Group_2859" transform="translate(1.048 2.538)">
                                    <path id="Path_7386" d="M34.966 67.189a1.628 1.628 0 0 1 1.21-.538h6.932a1.179 1.179 0 0 1 1.182 1.294" class="cls-20" transform="translate(-32.937 -66.651)"/>
                                    <path id="Path_7387" d="M34.415 68.535a1.618 1.618 0 0 1 1.149-.471H42.5a1.166 1.166 0 0 1 1.143 1.468" class="cls-20" transform="translate(-33.327 -65.65)"/>
                                    <path id="Path_7388" d="M33.778 70.115a1.629 1.629 0 0 1 1.121-.443h6.931a1.171 1.171 0 0 1 1.121 1.547" class="cls-20" transform="translate(-33.778 -64.512)"/>
                                </g>
                            </g>
                        </g>
                    </g>
                    <g id="CAP_2_" transform="translate(4.353)">
                        <path id="Path_7389" d="M49.778 28.519c.465-.5.93-.964 1.39-1.378a4.855 4.855 0 0 1 1.261.852 4.994 4.994 0 0 1 .941 1.194c-.381.488-.807.986-1.272 1.485-2.32 2.494-4.713 4.035-5.357 3.441s.717-3.1 3.037-5.594z" class="cls-5" transform="translate(-15.826 -13.815)"/>
                        <path id="Path_7390" d="M45.52 48.638l-.74.459c-2.684 1.664-7.912-1.916-11.672-8s-4.64-12.35-1.961-14.015l.762-.471 4.533 13.337z" class="cls-13" transform="translate(-27.852 -14.187)"/>
                        <path id="Path_7391" d="M53.751 60.768l-7.509-7.189-9.083-8.691-4.533-13.332-4.052-11.919 18.867 15.2z" class="cls-16" transform="translate(-28.574 -19.127)"/>
                        <path id="Path_7392" fill="none" stroke="#9a3b82" stroke-miterlimit="10" stroke-width="0.197px" d="M54.175 60.267L47.91 34.384l-19.1-15.046" transform="translate(-28.409 -19.338)"/>
                        <path id="Path_7393" d="M37.522 34.891a3.72 3.72 0 0 1 2.74-4.489 3.712 3.712 0 0 1 4.41 2.471l1.575 5.082a2.832 2.832 0 0 0 5.486-.3l.908-4.668" class="cls-15" transform="translate(-22.314 -11.58)"/>
                        <circle id="Ellipse_1547" cx=".678" cy=".678" r=".678" fill="none" stroke="#66b0f0" stroke-miterlimit="10" stroke-width="0.197px" transform="translate(29.862 20.184)"/>
                    </g>
                </g>
            </g>
        </g>
    </g>
</svg>
