<svg xmlns="http://www.w3.org/2000/svg" width="112" height="160" viewBox="0 0 112 160">
    <defs>
        <clipPath id="clip-path">
            <rect id="Rectangle_2597" width="112" height="160" class="cls-1" rx="10" transform="translate(123.5 532)"/>
        </clipPath>
        <style>
            .cls-1,.cls-10,.cls-25,.cls-6,.cls-7{fill:#fff}.cls-11,.cls-13,.cls-18,.cls-23,.cls-24,.cls-27,.cls-28,.cls-4,.cls-5{fill:none}.cls-18,.cls-28,.cls-4,.cls-7{stroke:#ffcf2d}.cls-23,.cls-27,.cls-28,.cls-4,.cls-5{stroke-linecap:round}.cls-10,.cls-11,.cls-13,.cls-18,.cls-23,.cls-24,.cls-25,.cls-27,.cls-28,.cls-4,.cls-5,.cls-6,.cls-7{stroke-miterlimit:10}.cls-10,.cls-11,.cls-13,.cls-18,.cls-25,.cls-4,.cls-5,.cls-6,.cls-7{stroke-width:.235px}.cls-25,.cls-5,.cls-6{stroke:#66b0f0}.cls-25,.cls-5{stroke-linejoin:round}.cls-9{fill:#e57281}.cls-10,.cls-11{stroke:#fe5244}.cls-13,.cls-23,.cls-24{stroke:#fff}.cls-16{fill:#9a3b82}.cls-17{fill:#ffcf2d}.cls-19{fill:#fe5244}.cls-23,.cls-24,.cls-27,.cls-28{stroke-width:.196px}.cls-22{fill:#66b0f0}.cls-27{stroke:#9a3b82}
        </style>
    </defs>
    <g id="Group_2164" transform="translate(-83 -650)">
        <rect id="Rectangle_2599" width="112" height="160" fill="#e1edf8" rx="10" transform="translate(83 650)"/>
        <g id="Mask_Group_2" clip-path="url(#clip-path)" transform="translate(-40.5 118)">
            <g id="_3_SCENE" transform="translate(48.107 511.484)">
                <g id="CHARACTER_x27_S_LEGS" transform="translate(117.761 128.505)">
                    <path id="SHADOW" d="M0 0L97.687 0" class="cls-4" transform="translate(8.645 113.776)"/>
                    <g id="CHAIR" transform="translate(13.108 20.269)">
                        <path id="Path_5114" d="M101.557 80.235V118.5a33.954 33.954 0 0 0 16.132 28.9l14.111 8.7" class="cls-5" transform="translate(-57.211 -73.14)"/>
                        <path id="Path_5115" d="M114.559 80.235V118.5a33.954 33.954 0 0 1-16.132 28.9l-14.111 8.7" class="cls-5" transform="translate(-77.858 -73.14)"/>
                        <path id="Path_5116" d="M97.242 84.1h17.207a2.749 2.749 0 0 0 2.752-2.752v-4.342H94.49v4.343a2.749 2.749 0 0 0 2.752 2.751z" class="cls-6" transform="translate(-65.674 -77.006)"/>
                        <path id="Path_5117" d="M119.053 126.446a6.32 6.32 0 1 1 6.32-6.32 6.32 6.32 0 0 1-6.32 6.32" class="cls-7" transform="translate(-43.828 -32.938)"/>
                        <path id="Path_5118" d="M87.7 126.446a6.32 6.32 0 1 1 6.32-6.32 6.32 6.32 0 0 1-6.32 6.32" class="cls-7" transform="translate(-81.377 -32.938)"/>
                        <path id="Path_5119" d="M86.971 124.387a4.988 4.988 0 1 1 4.988-4.988 4.991 4.991 0 0 1-4.988 4.988" class="cls-7" transform="translate(-80.651 -32.212)"/>
                        <path id="Path_5120" d="M118.315 124.387a4.988 4.988 0 1 1 4.985-4.987 4.991 4.991 0 0 1-4.988 4.988" class="cls-7" transform="translate(-43.116 -32.212)"/>
                        <path id="Path_5121" d="M95.59 107.515s8.186-6 18.6 0" class="cls-5" transform="translate(-64.357 -43.666)"/>
                    </g>
                    <g id="RIGHT_LEG" transform="translate(41.673 .946)">
                        <path id="Path_5122" fill="#31a1a9" d="M105.778 84.1l-7.911 80.944h24.379l20.044-72.83c3.689-11.884-4.248-23.975-16.605-24h-1.72A18.368 18.368 0 0 0 105.778 84.1z" transform="translate(-90.195 -68.213)"/>
                        <path id="Path_5123" d="M100.129 112.279h12.847l-2.021 6.613a15.6 15.6 0 0 0-9.932-4.583c-.361-.026-.714-.034-1.066-.034z" class="cls-9" transform="translate(-87.693 -15.444)"/>
                        <path id="Path_5124" d="M121.551 127.138c.671-6.226-5.9-13.432-13.853-13.922s-12.864 4.764-13.251 11.007a10.782 10.782 0 0 0 .06 2.941z" class="cls-10" transform="translate(-94.376 -14.36)"/>
                        <path id="Path_5125" d="M94.514 118.5l26.872.318" class="cls-11" transform="translate(-94.211 -7.988)"/>
                    </g>
                    <g id="LEFT_LEG">
                        <path id="Path_5126" fill="#3fb1b5" d="M139.6 165.565l20.337-12.383L114.464 77c-5.753-9.122-20.354-11.943-29.564-6.336a19.757 19.757 0 0 0-4.325 30.192z" transform="translate(-75.412 -67.783)"/>
                        <path id="Path_5127" d="M139.638 165.221l20.423-12.211L114.5 77c-5.753-9.124-20.354-11.944-29.564-6.338a19.757 19.757 0 0 0-4.325 30.192z" class="cls-13" transform="translate(-75.366 -67.783)"/>
                        <path id="Path_5128" fill="#73325a" d="M124.89 106.711c-.9-1.5-6.191.026-11.815 3.414s-9.433 7.456-8.53 8.952 6.174-.146 11.8-3.526 9.44-7.335 8.545-8.84z" transform="translate(-40.684 -21.854)"/>
                        <path id="Path_5129" d="M122.1 115.677l-9.493 5.968-2.683-3.01-.817-.92-3.405-3.818a29.139 29.139 0 0 1 5.83-4.489 32.631 32.631 0 0 1 5.495-2.674l2.657 4.669.585 1.023z" class="cls-9" transform="translate(-39.136 -21.138)"/>
                        <path id="Path_5130" d="M134.367 117.7l-23.647 12.757a8.79 8.79 0 0 1-1.5-2.236 12.969 12.969 0 0 1-.82-2.221 11.976 11.976 0 0 1 6.862-14.214 15.823 15.823 0 0 1 16.442 2.348 10.128 10.128 0 0 1 2.663 3.566z" class="cls-10" transform="translate(-36.42 -16.689)"/>
                        <path id="Line_39" fill="none" stroke="#fe5244" stroke-linecap="round" stroke-miterlimit="10" stroke-width="0.235px" d="M23.656 0L0 12.753" transform="translate(73.027 99.08)"/>
                        <path id="Path_5131" d="M119.773 111.442a38.946 38.946 0 0 1-4.893 3.44 40.706 40.706 0 0 1-5.684 2.881l-3.577-3.818a30.693 30.693 0 0 1 6-4.489 33.5 33.5 0 0 1 5.495-2.76z" class="cls-16" transform="translate(-39.239 -21.184)"/>
                        <path id="Path_5132" d="M124.889 106.111c-.9-1.5-6.613-.009-12.331 3.431s-9.347 7.473-8.444 8.969" class="cls-13" transform="translate(-41.207 -22.578)"/>
                    </g>
                </g>
                <g id="TABLE" transform="translate(50.346 121.548)">
                    <path id="Path_5133" d="M275 89.921a4.07 4.07 0 0 0 4.067-4.067V70.289A4.07 4.07 0 0 0 275 66.222H48.8a4.07 4.07 0 0 0-4.067 4.067v15.565a4.07 4.07 0 0 0 4.067 4.067z" class="cls-16" transform="translate(-44.735 -62.696)"/>
                    <path id="Path_5134" d="M274.893 64.617H48.83a4.07 4.07 0 0 0-4.067 4.067v15.565a4.07 4.07 0 0 0 4.067 4.067h226.063a4.07 4.07 0 0 0 4.067-4.067V68.685a4.07 4.07 0 0 0-4.067-4.068z" class="cls-7" transform="translate(-44.702 -64.617)"/>
                    <path id="Line_40" d="M0 0L0 97.05" class="cls-4" transform="translate(218.419 23.717)"/>
                    <path id="Line_41" d="M0 0L0 97.05" class="cls-4" transform="translate(21.077 23.717)"/>
                </g>
                <g id="PLANT" transform="translate(40.049 167.795)">
                    <g id="Group_2135" transform="translate(0 15.426)">
                        <g id="Group_2134">
                            <path id="Path_5135" d="M63.993 127.621l-.361.232-13.123-20.217-3.947.3a1.267 1.267 0 1 1 .507-2.373l3.242 1.78-2.382-3.68-3.947.31a1.267 1.267 0 1 1 .518-2.373l3.242 1.771-2.382-3.68-3.947.31a1.267 1.267 0 1 1 .516-2.373l3.242 1.78-1.438-2.208-2.666-2.279a1.268 1.268 0 1 1 2.038-1.324l.989 3.362 1.479 2.279-.31-3.784a1.265 1.265 0 1 1 2.373.5l-1.909 3.526 2.416 3.723-.31-3.775a1.265 1.265 0 1 1 2.373.5l-1.906 3.521 2.416 3.723-.31-3.775a1.265 1.265 0 1 1 2.373.5l-1.909 3.526z" class="cls-16" transform="translate(-40.049 -92.682)"/>
                        </g>
                    </g>
                    <g id="Group_2136" transform="translate(22.251 13.669)">
                        <path id="Path_5136" d="M73.916 121.433c-6.3 12.7-14.816 21.532-19.847 20.922a3.558 3.558 0 0 1-1.161-.344c-4.781-2.373-3.13-15.436 3.7-29.177a66.364 66.364 0 0 1 9.622-14.61c4.411-4.893 8.651-7.326 11.385-5.968 4.78 2.373 3.12 15.435-3.699 29.177z" class="cls-16" transform="translate(-50.174 -91.882)"/>
                        <path id="Path_5137" d="M66.017 107.942c-1.4 16.1-6.553 29.082-11.944 30.957a3.558 3.558 0 0 1-1.161-.344c-4.781-2.373-3.13-15.436 3.7-29.177a66.363 66.363 0 0 1 9.622-14.61 91.15 91.15 0 0 1-.217 13.174z" class="cls-17" transform="translate(-50.17 -88.427)"/>
                        <path id="Line_42" d="M23.536 0L0 50.099" class="cls-18" transform="translate(3.903 .373)"/>
                    </g>
                    <g id="Group_2138" transform="translate(28.304 48.317)">
                        <g id="Group_2137">
                            <path id="Path_5138" d="M73.868 110.523l-3.328 1.118-2.219 1.559 3.766-.447a1.269 1.269 0 0 1 1.4 1.47 1.269 1.269 0 0 1-1.814.92l-3.594-1.78-3.637 2.554 3.766-.447a1.267 1.267 0 1 1-.413 2.391l-3.594-1.78-3.629 2.554 3.766-.447a1.266 1.266 0 1 1-.421 2.391l-3.594-1.78-6.647 4.669h-.748l7.163-5.031-.447-3.93a1.267 1.267 0 1 1 2.391.421l-1.66 3.311 3.586-2.52-.447-3.93a1.267 1.267 0 1 1 2.391.421l-1.651 3.3 3.586-2.52-.447-3.93a1.267 1.267 0 1 1 2.391.421l-1.66 3.311 2.158-1.513 2.176-2.752a1.271 1.271 0 1 1 1.41 1.995z" class="cls-17" transform="translate(-52.929 -107.649)"/>
                        </g>
                    </g>
                    <g id="Group_2139" transform="translate(.086 32.882)">
                        <path id="Path_5139" d="M62.269 131.214a7.006 7.006 0 0 1-1.35.31c-5.417.705-12.9-4.351-17.422-12.03-4.91-8.341-4.463-16.614 1-18.488a9.241 9.241 0 0 1 6.028.292c4.523 1.574 9.425 5.787 12.744 11.42 4.899 8.349 4.452 16.621-1 18.496z" class="cls-7" transform="translate(-40.088 -100.625)"/>
                        <path id="Path_5140" d="M56.611 130.848a7.007 7.007 0 0 1-1.35.31c-5-2.27-9.356-11.884-10.276-23.562a54.5 54.5 0 0 1-.12-6.664c4.523 1.574 9.425 5.787 12.744 11.42 4.901 8.348 4.454 16.621-.998 18.496z" class="cls-17" transform="translate(-34.43 -100.259)"/>
                        <path id="Line_43" d="M0 0L18.488 29.306" class="cls-18" transform="translate(2.334 1.592)"/>
                    </g>
                    <g id="Group_2140" transform="translate(13.634)">
                        <ellipse id="Ellipse_1186" cx="10.835" cy="32.238" class="cls-7" rx="10.835" ry="32.238" transform="translate(0 .009)"/>
                        <path id="Line_44" d="M0 0L0 64.485" class="cls-18" transform="translate(10.835)"/>
                        <path id="Path_5141" d="M61.28 90.455l-6.905 9.253-5.856-11.592" class="cls-4" transform="translate(-43.54 -82.724)"/>
                        <path id="Path_5142" d="M64.888 94.581l-9.218 12.675-8.29-16.037" class="cls-4" transform="translate(-44.903 -79.008)"/>
                        <path id="Path_5143" d="M67.2 99.105l-10.74 14.808-9.812-18.918" class="cls-4" transform="translate(-45.78 -74.486)"/>
                        <path id="Path_5144" d="M68.33 104.768l-11.36 15.891-10.705-20.311" class="cls-4" transform="translate(-46.239 -68.075)"/>
                    </g>
                    <path id="Path_5145" d="M78.461 125.229H46.308a4.492 4.492 0 0 1-4.489-4.489v-1.4a4.492 4.492 0 0 1 4.489-4.489h32.153a4.492 4.492 0 0 1 4.489 4.489v1.4a4.486 4.486 0 0 1-4.489 4.489z" class="cls-6" transform="translate(-37.929 -50.709)"/>
                </g>
                <g id="BOOKS" transform="translate(230.284 106.405)">
                    <path id="Path_5146" d="M166.2 70a2.3 2.3 0 0 1-2.279 2.322H128.9A2.3 2.3 0 0 1 126.617 70a2.3 2.3 0 0 1 2.279-2.322h35.024A2.3 2.3 0 0 1 166.2 70z" class="cls-19" transform="translate(-126.617 -45.814)"/>
                    <g id="Group_2141" transform="translate(7.112)">
                        <path id="Path_5147" d="M145.714 57.726h-14.335V67.7h27.689a13.933 13.933 0 0 0-13.354-9.974z" class="cls-7" transform="translate(-128.025 -57.726)"/>
                        <path id="Path_5148" fill="#ffcf2d" stroke="#ffcf2d" stroke-miterlimit="10" stroke-width="0.235px" d="M135.786 57.726V67.7l-5.933.009v-9.983z" transform="translate(-129.853 -57.726)"/>
                        <path id="Path_5149" d="M167.672 65.648l-21.954.2s5.495-7.447 20.578-5.478a66.257 66.257 0 0 0-23.768 0" class="cls-18" transform="translate(-114.675 -55.871)"/>
                        <path id="Path_5150" d="M143.979 64.133a33.418 33.418 0 0 1 21.352-2.726" class="cls-18" transform="translate(-112.936 -54.158)"/>
                    </g>
                    <g id="Group_2142" transform="translate(.516 14.653)">
                        <path id="Path_5151" d="M151.168 67.291a7.2 7.2 0 0 0 .378 2.416h-10.534a1.025 1.025 0 0 1-.989-1.049v-2.725a1.014 1.014 0 0 1 .989-1.049h10.534a7.106 7.106 0 0 0-.378 2.407z" class="cls-17" transform="translate(-111.078 -63.809)"/>
                        <path id="Path_5152" d="M155.805 66.518v2.726a1.048 1.048 0 0 0 1.049 1.049h11.317v.2a.866.866 0 0 1-.869.869H127.72a.866.866 0 0 1-.869-.869v-5.23a.866.866 0 0 1 .869-.869h39.58a.866.866 0 0 1 .869.869v.2h-11.315a1.061 1.061 0 0 0-1.049 1.055z" class="cls-1" transform="translate(-126.852 -64.394)"/>
                        <path id="Path_5153" d="M155.805 66.518v2.726a1.048 1.048 0 0 0 1.049 1.049h11.317v.2a.866.866 0 0 1-.869.869H127.72a.866.866 0 0 1-.869-.869v-5.23a.866.866 0 0 1 .869-.869h39.58a.866.866 0 0 1 .869.869v.2h-11.315a1.061 1.061 0 0 0-1.049 1.055z" class="cls-18" transform="translate(-126.852 -64.394)"/>
                    </g>
                    <g id="Group_2143" transform="translate(5.074 26.571)">
                        <path id="Path_5154" d="M138.574 71.615a2.471 2.471 0 0 0-.674 1.685 2.445 2.445 0 0 0 2.3 2.391h31.714a1.007 1.007 0 0 1-1.006 1.006H132.64a3.864 3.864 0 0 1-2.623-1.006 3.306 3.306 0 0 1-1.092-2.434 3.582 3.582 0 0 1 3.715-3.44h38.275a1.007 1.007 0 0 1 1.006 1.006V71h-31.713a2.366 2.366 0 0 0-1.634.615z" class="cls-17" transform="translate(-128.926 -69.818)"/>
                        <path id="Path_5155" d="M165 70.565v4.609h2.287v.387h-31.812a2.624 2.624 0 0 1-1.006-.2 2.624 2.624 0 0 1-.894-.593 2.688 2.688 0 0 1 1.9-4.592h31.817v.387H165z" class="cls-19" transform="translate(-124.305 -69.387)"/>
                        <path id="Path_5156" d="M165.619 70.354v4.609h-30.3a2.3 2.3 0 0 1-2.3-2.3 2.33 2.33 0 0 1 .671-1.634 2.294 2.294 0 0 1 1.625-.671h30.312z" class="cls-1" transform="translate(-124.033 -69.176)"/>
                        <path id="Line_45" fill="none" stroke="#fe5244" stroke-miterlimit="10" stroke-width="0.196px" d="M0 0L0 4.609" transform="translate(41.586 1.178)"/>
                        <path id="Path_5157" d="M138.867 72.633v3.844h-2.657v-3.354a1.451 1.451 0 0 0-1.453-1.453h-1.187v-.49h3.844a1.451 1.451 0 0 1 1.453 1.453z" class="cls-19" transform="translate(-123.363 -68.187)"/>
                    </g>
                    <g id="Group_2157" transform="translate(.894 9.691)">
                        <path id="Path_5158" d="M174.319 62.363h-45.18a2.114 2.114 0 0 0-2.115 2.115 2.118 2.118 0 0 0 2.115 2.107h45.18a2.114 2.114 0 0 0 2.115-2.115 2.123 2.123 0 0 0-2.115-2.107z" class="cls-22" transform="translate(-127.024 -61.865)"/>
                        <g id="Group_2156" transform="translate(2.932)">
                            <g id="Group_2144" transform="translate(33.657 .009)">
                                <path id="Path_5159" d="M144.13 66.861h-.456c.052.138.181.482.464.482.172 0 1.015-.129 1.015-2.6a5.056 5.056 0 0 0-.31-2c-.249-.542-.576-.6-.7-.6-.292 0-.421.353-.473.49h.456a.214.214 0 0 1 .043-.06c.155.043.568.473.568 2.176s-.413 2.124-.568 2.176a.155.155 0 0 1-.039-.064z" class="cls-16" transform="translate(-143.674 -62.14)"/>
                            </g>
                            <g id="Group_2145" transform="translate(37.389 .009)">
                                <path id="Path_5160" d="M145.828 66.861h-.456c.052.138.181.482.464.482.172 0 1.015-.129 1.015-2.6a5.055 5.055 0 0 0-.31-2c-.249-.542-.576-.6-.7-.6-.292 0-.421.353-.473.49h.456a.214.214 0 0 1 .043-.06c.155.043.568.473.568 2.176s-.413 2.124-.568 2.176c-.005-.025-.022-.038-.039-.064z" class="cls-16" transform="translate(-145.372 -62.14)"/>
                            </g>
                            <g id="Group_2146" transform="translate(41.121 .017)">
                                <path id="Path_5161" d="M147.535 66.857h-.456c.052.138.181.482.464.482.241 0 1.015-.189 1.015-2.6s-.774-2.6-1.015-2.6c-.292 0-.421.353-.473.49h.456a.215.215 0 0 1 .043-.06c.172.043.568.49.568 2.176a4.455 4.455 0 0 1-.275 1.84c-.1.224-.215.318-.292.335a.258.258 0 0 0-.035-.063z" class="cls-16" transform="translate(-147.071 -62.144)"/>
                            </g>
                            <g id="Group_2147" transform="translate(22.427 .017)">
                                <path id="Path_5162" d="M139.028 66.857h-.456c.052.138.181.482.464.482.172 0 1.015-.129 1.015-2.6 0-2.416-.774-2.6-1.015-2.6-.292 0-.421.353-.473.49h.456a.214.214 0 0 1 .043-.06c.172.043.568.49.568 2.176 0 1.7-.413 2.124-.568 2.176 0-.021-.017-.039-.034-.064z" class="cls-16" transform="translate(-138.563 -62.144)"/>
                            </g>
                            <g id="Group_2148" transform="translate(26.167 .017)">
                                <path id="Path_5163" d="M140.73 66.857h-.456c.052.138.181.482.464.482.163 0 .464-.069.7-.55a5.067 5.067 0 0 0 .318-2.047 4.921 4.921 0 0 0-.318-2.047c-.232-.482-.533-.55-.7-.55-.292 0-.421.353-.473.49h.456a.215.215 0 0 1 .043-.06c.1.017.206.129.292.31a4.539 4.539 0 0 1 .275 1.866 4.451 4.451 0 0 1-.275 1.866c-.086.181-.2.292-.292.31a.258.258 0 0 0-.034-.07z" class="cls-16" transform="translate(-140.266 -62.144)"/>
                            </g>
                            <g id="Group_2149" transform="translate(29.908 .017)">
                                <path id="Path_5164" d="M142.432 66.857h-.456c.052.138.181.482.464.482.241 0 1.015-.189 1.015-2.6 0-2.477-.843-2.6-1.015-2.6-.292 0-.421.353-.473.49h.456a.214.214 0 0 1 .043-.06c.155.043.568.473.568 2.176 0 1.685-.4 2.133-.568 2.176a.257.257 0 0 0-.034-.064z" class="cls-16" transform="translate(-141.968 -62.144)"/>
                            </g>
                            <g id="Group_2150" transform="translate(11.205)">
                                <path id="Path_5165" d="M133.93 66.866h-.456c.052.138.181.482.464.482.129 0 .456-.06.7-.6a5.027 5.027 0 0 0 .31-2 5.2 5.2 0 0 0-.31-1.952c-.181-.413-.439-.654-.705-.654-.292 0-.421.353-.473.49h.456c.017-.026.026-.052.034-.06a.773.773 0 0 1 .292.4 4.4 4.4 0 0 1 .275 1.771c0 1.7-.413 2.124-.568 2.176.007-.01-.002-.027-.019-.053z" class="cls-16" transform="translate(-133.457 -62.136)"/>
                            </g>
                            <g id="Group_2151" transform="translate(14.945 .009)">
                                <path id="Path_5166" d="M135.632 66.861h-.456c.052.138.181.482.464.482.129 0 .456-.06.7-.6a5.027 5.027 0 0 0 .31-2c0-2.416-.774-2.6-1.015-2.6-.292 0-.421.353-.473.49h.456a.214.214 0 0 1 .043-.06c.172.043.568.49.568 2.176 0 1.7-.413 2.124-.568 2.176a.114.114 0 0 0-.029-.064z" class="cls-16" transform="translate(-135.159 -62.14)"/>
                            </g>
                            <g id="Group_2152" transform="translate(18.695 .017)">
                                <path id="Path_5167" d="M137.33 66.857h-.456c.052.138.181.482.464.482.241 0 1.015-.189 1.015-2.6a4.921 4.921 0 0 0-.318-2.047c-.232-.482-.533-.55-.7-.55-.292 0-.421.353-.473.49h.456a.214.214 0 0 1 .043-.06c.1.017.206.129.292.31a4.54 4.54 0 0 1 .275 1.866c0 1.685-.4 2.133-.568 2.176-.005-.024-.022-.042-.03-.067z" class="cls-16" transform="translate(-136.865 -62.144)"/>
                            </g>
                            <g id="Group_2153" transform="translate(0 .009)">
                                <path id="Path_5168" d="M128.822 66.861h-.456c.052.138.181.482.464.482.267 0 .516-.241.705-.654a6.119 6.119 0 0 0 0-3.844c-.189-.447-.447-.705-.705-.705-.292 0-.421.353-.473.49h.456a.5.5 0 0 0 .034-.06.908.908 0 0 1 .31.482 4.577 4.577 0 0 1 .258 1.685 4.448 4.448 0 0 1-.275 1.78.773.773 0 0 1-.292.4c0-.017-.017-.03-.026-.056z" class="cls-16" transform="translate(-128.358 -62.14)"/>
                            </g>
                            <g id="Group_2154" transform="translate(3.732 .009)">
                                <path id="Path_5169" d="M130.521 66.861h-.456c.052.138.181.482.464.482.267 0 .516-.241.705-.654a5 5 0 0 0 .31-1.952c0-1.685-.525-2.6-1.015-2.6-.292 0-.421.353-.473.49h.456a.491.491 0 0 0 .034-.06.971.971 0 0 1 .31.464 4.579 4.579 0 0 1 .258 1.7 4.449 4.449 0 0 1-.275 1.78.773.773 0 0 1-.292.4.133.133 0 0 0-.026-.05z" class="cls-16" transform="translate(-130.056 -62.14)"/>
                            </g>
                            <g id="Group_2155" transform="translate(7.473 .009)">
                                <path id="Path_5170" d="M132.223 66.861h-.456c.052.138.181.482.464.482.129 0 .447-.06.705-.636a4.993 4.993 0 0 0 .31-1.961 5.2 5.2 0 0 0-.31-1.952c-.181-.413-.439-.654-.705-.654-.292 0-.421.353-.473.49h.456c.017-.026.026-.052.034-.06a.773.773 0 0 1 .292.4 5.894 5.894 0 0 1 0 3.56c-.12.267-.241.361-.292.378a.437.437 0 0 0-.025-.047z" class="cls-16" transform="translate(-131.759 -62.14)"/>
                            </g>
                        </g>
                    </g>
                </g>
                <g id="CLOCK" transform="translate(226.414 17.077)">
                    <path id="Path_5171" d="M159.432 54.727h-30.148a3.152 3.152 0 0 1-3.156-3.156V21.422a3.152 3.152 0 0 1 3.156-3.156h30.149a3.152 3.152 0 0 1 3.156 3.156v30.149a3.158 3.158 0 0 1-3.157 3.156z" class="cls-17" transform="translate(-123.333 -15.652)"/>
                    <path id="Path_5172" d="M158.754 54.131h-30.742a3.152 3.152 0 0 1-3.156-3.156V20.233a3.152 3.152 0 0 1 3.156-3.156h30.742a3.152 3.152 0 0 1 3.156 3.156v30.742a3.152 3.152 0 0 1-3.156 3.156z" class="cls-7" transform="translate(-124.856 -17.077)"/>
                    <circle id="Ellipse_1187" cx="14.189" cy="14.189" r="14.189" class="cls-18" transform="translate(4.343 4.334)"/>
                    <path id="Path_5173" d="M129.657 22.735l7.98 6.088-1.961-6.011" class="cls-4" transform="translate(-119.106 -10.301)"/>
                </g>
                <g id="PAPER" transform="translate(185.164 132.985)">
                    <path id="Path_5174" d="M140.6 82.084h-24.31l-10.205-12.262h23.725z" class="cls-17" transform="translate(-106.085 -69.822)"/>
                    <g id="Group_2159" transform="translate(15.986 2.373)">
                        <g id="Group_2158">
                            <path id="Path_5175" d="M145.056 81.427v7.567l-19.262.077a4.454 4.454 0 0 1-4.472-4.454V82.27a6.37 6.37 0 0 0-1.608-4.231l-6.355-7.139h23.725l6.071 5.994a6.321 6.321 0 0 1 1.901 4.533z" class="cls-6" transform="translate(-113.359 -70.902)"/>
                        </g>
                        <path id="Path_5176" d="M147.088 77.922a4.971 4.971 0 0 1-4.454 2.752H118.9a4.991 4.991 0 0 0 4.454-2.752z" class="cls-6" transform="translate(-106.724 -62.495)"/>
                    </g>
                </g>
                <g id="CHARACTER" transform="translate(94.391 34.561)">
                    <g id="HOODY" transform="translate(0 21.9)">
                        <path id="Path_5177" d="M197.188 82.191l-14.481-25.436a19.445 19.445 0 0 0-16.907-9.829h-54.234l1.9-4.1c-.155.335-.972.421-2.219.249a31.647 31.647 0 0 1-7.911-2.468c-1.771-.783-3.379-1.6-4.712-2.356-2.52-1.436-4.042-2.692-3.792-3.25l-27.689 45.41a13.354 13.354 0 0 0 19.039 18.23l21.266-15.986a2.123 2.123 0 0 1 3.371 1.359l2.778 17.31h72.457a12.8 12.8 0 0 0 11.134-19.133zm-32.23 1.986l2.322-5.28a1.14 1.14 0 0 1 2.081-.026l2.52 5.314h-6.922z" class="cls-19" transform="translate(-64.778 -34.999)"/>
                        <path id="Path_5178" d="M90 46.769c0-4.446 9.175-9.941 20.3-11.342 16.691-2.09 20.3 6.9 20.3 11.342" class="cls-11" transform="translate(-34.576 -34.859)"/>
                        <path id="Path_5179" d="M127.627 45.949c0 3.981-18.376 12.133-18.376 12.133S90.874 49.93 90.874 45.949s8.737-8.591 18.806-9.82c14.49-1.772 17.947 5.83 17.947 9.82z" class="cls-19" transform="translate(-33.526 -33.962)"/>
                        <path id="Path_5180" d="M127.627 40.482c0 3.981-18.376 12.133-18.376 12.133s-18.377-8.152-18.377-12.133v-.052h36.753z" class="cls-1" transform="translate(-33.526 -28.495)"/>
                        <path id="Path_5181" d="M130.59 40.415c0 4.394-20.29 14.385-20.29 14.385S90 44.817 90 40.415" class="cls-13" transform="translate(-34.571 -28.513)"/>
                        <path id="Path_5182" d="M106.362 74.233c1.135 0 2.055-3.758 2.055-8.384s-.92-8.384-2.055-8.384" class="cls-23" transform="translate(-14.979 -8.096)"/>
                        <path id="Line_46" d="M15.917 0L0 31.826" class="cls-24" transform="translate(32.35 9.511)"/>
                        <path id="Line_47" d="M0 0L2.631 17.319" class="cls-23" transform="translate(44.811 40.605)"/>
                        <g id="Group_2161" transform="translate(74.684 25.548)">
                            <g id="Group_2160" transform="translate(.181 2.778)">
                                <path id="Line_48" d="M0 0L1.72 0" class="cls-23"/>
                                <path id="Line_49" d="M0 0L1.72 0" class="cls-23" transform="translate(0 2.047)"/>
                                <path id="Line_50" d="M0 0L1.72 0" class="cls-23" transform="translate(0 4.085)"/>
                                <path id="Line_51" d="M0 0L1.72 0" class="cls-23" transform="translate(0 6.123)"/>
                                <path id="Line_52" d="M0 0L1.72 0" class="cls-23" transform="translate(0 8.161)"/>
                                <path id="Line_53" d="M0 0L1.72 0" class="cls-23" transform="translate(0 10.207)"/>
                                <path id="Line_54" d="M0 0L1.72 0" class="cls-23" transform="translate(0 10.302)"/>
                                <path id="Line_55" d="M0 0L1.72 0" class="cls-23" transform="translate(0 12.34)"/>
                                <path id="Line_56" d="M0 0L1.72 0" class="cls-23" transform="translate(0 14.378)"/>
                                <path id="Line_57" d="M0 0L1.72 0" class="cls-23" transform="translate(0 16.321)"/>
                                <path id="Line_58" d="M0 0L1.72 0" class="cls-23" transform="translate(0 18.368)"/>
                                <path id="Line_59" d="M0 0L1.72 0" class="cls-23" transform="translate(0 20.406)"/>
                                <path id="Line_60" d="M0 0L1.72 0" class="cls-23" transform="translate(0 22.444)"/>
                                <path id="Line_61" d="M0 0L1.72 0" class="cls-23" transform="translate(0 24.482)"/>
                                <path id="Line_62" d="M0 0L1.72 0" class="cls-23" transform="translate(0 26.528)"/>
                                <path id="Line_63" d="M0 0L1.72 0" class="cls-23" transform="translate(0 28.566)"/>
                                <path id="Line_64" d="M0 0L1.72 0" class="cls-23" transform="translate(0 30.604)"/>
                                <path id="Line_65" d="M0 0L1.72 0" class="cls-23" transform="translate(0 32.642)"/>
                                <path id="Line_66" d="M0 0L1.72 0" class="cls-23" transform="translate(0 32.746)"/>
                                <path id="Line_67" d="M0 0L1.72 0" class="cls-23" transform="translate(0 34.784)"/>
                                <path id="Line_68" d="M0 0L1.72 0" class="cls-23" transform="translate(0 36.822)"/>
                            </g>
                            <path id="Line_69" d="M0 0L0 32.376" class="cls-24"/>
                        </g>
                        <path id="Line_70" d="M0 0L20.681 0" class="cls-23" transform="translate(90.386 49.351)"/>
                    </g>
                    <g id="BOOK" transform="translate(32.841 80.246)">
                        <path id="Path_5183" d="M79.722 82.006h66.033l-6.209-16.794h-52.67z" class="cls-6" transform="translate(-79.722 -57.163)"/>
                        <path id="Path_5184" d="M79.722 76.826c0-2.373 6.295-6.664 16.519-7.249 10.947-.619 16.682 6.26 16.519 7.249z" class="cls-22" transform="translate(-79.722 -51.983)"/>
                        <path id="Path_5185" d="M110.24 86.393s-2.907-13.587-28.42-10.818l5.512-13.406s20.9-3.8 22.917 7.43z" class="cls-25" transform="translate(-77.21 -61.549)"/>
                        <path id="Path_5186" d="M127.369 83c-1.522-2.107-7.387-4.308-16.123-4.807-10.388-.593-16.08 4.343-16.493 5.684V67.261s7.412-8.462 26.8 0z" class="cls-25" transform="translate(-61.723 -59.212)"/>
                        <path id="Path_5187" d="M116.076 69.854a41.644 41.644 0 0 0-7.782-1.135 25.087 25.087 0 0 0-4.145.095 19.216 19.216 0 0 0-7.412 2.313" class="cls-5" transform="translate(-59.347 -53.017)"/>
                        <path id="Path_5188" d="M115.479 68.49a43.078 43.078 0 0 0-7.327-1.023 25.087 25.087 0 0 0-4.145.095 19.215 19.215 0 0 0-7.407 2.313" class="cls-5" transform="translate(-59.516 -54.516)"/>
                        <path id="Path_5189" d="M114.9 67.135a44.014 44.014 0 0 0-6.854-.92 25.088 25.088 0 0 0-4.145.095 19.215 19.215 0 0 0-7.412 2.313" class="cls-5" transform="translate(-59.642 -56.016)"/>
                        <path id="Line_71" fill="none" stroke="#66b0f0" stroke-miterlimit="10" stroke-width="0.235px" d="M0 0L5.469 14.894" transform="translate(58.096 7.292)"/>
                        <path id="Path_5190" d="M127.764 76.077H94.752V75.9c.413-1.341 6.105-6.277 16.493-5.684 8.737.5 14.6 2.7 16.123 4.807z" class="cls-22" transform="translate(-61.723 -51.234)"/>
                    </g>
                    <g id="HEAD_1_" transform="translate(53.504)">
                        <g id="NECK" transform="translate(11.291 16.362)">
                            <path id="Path_5191" d="M115.727 49.827a25.948 25.948 0 0 1-14.7 1.918 27.938 27.938 0 0 1-6.759-1.918V39.473l11.076-6.9 1.66 2.76z" class="cls-9" transform="translate(-94.263 -32.362)"/>
                            <path id="Path_5192" d="M105.949 33.511a4.907 4.907 0 0 1 .292 4.007l-5.22 14.343a27.938 27.938 0 0 1-6.759-1.918V39.59l11.127-7.112z" class="cls-16" transform="translate(-94.263 -32.479)"/>
                        </g>
                        <path id="HAIR" d="M111.148 37.792s1.3-11.549-3.319-12.606a5 5 0 0 0-5.28 1.849s-1.909-2.786-4.867-1.479c-2.812 1.238-2.614 5.1-1.35 4.79s-1.221-2.786-3.878-.955c-2.941 2.021 0 5.357 0 5.357a2.323 2.323 0 0 0-3.182 1.092c-1.247 2.657 5.873 8.384 5.873 8.384z" class="cls-16" transform="translate(-89.125 -25.033)"/>
                        <g id="HEAD" transform="translate(4.709 6.929)">
                            <path id="HEAD_2_" d="M101.162 28.436L93.775 31.4a3.486 3.486 0 0 0-1.935 4.523l3.225 8.04a5.822 5.822 0 0 0 7.55 3.225l3.07-1.23a5.822 5.822 0 0 0 3.225-7.55l-3.225-8.04a3.486 3.486 0 0 0-4.523-1.932z" class="cls-9" transform="translate(-90.882 -28.186)"/>
                            <g id="EARS" transform="translate(0 5.475)">
                                <path id="Path_5193" d="M101.84 34.825l-1.488.6-1.616-4.025 1.488-.6a1.721 1.721 0 0 1 2.236.955l.335.834a1.713 1.713 0 0 1-.955 2.236z" class="cls-9" transform="translate(-82.325 -30.678)"/>
                                <path id="Path_5194" d="M93.851 37.874l1.488-.6-1.5-3.741-1.488.6a1.717 1.717 0 0 0-.955 2.236l.224.55a1.721 1.721 0 0 0 2.231.955z" class="cls-16" transform="translate(-91.268 -27.26)"/>
                                <path id="Path_5195" d="M99.375 32.939a1.36 1.36 0 0 1 .757-1.763" class="cls-27" transform="translate(-81.674 -30.081)"/>
                            </g>
                            <g id="FACE" transform="translate(5.633 4.214)">
                                <path id="Path_5196" d="M96.032 30.5a5.431 5.431 0 0 0 3.968-.4" class="cls-27" transform="translate(-91.195 -30.104)"/>
                                <path id="Path_5197" d="M94.353 31.624s2.606-.267 3.551 4.119" class="cls-27" transform="translate(-93.206 -28.287)"/>
                                <path id="Path_5198" d="M99.74 34.292s-3.844-1.032-3.706.955" class="cls-27" transform="translate(-91.197 -25.409)"/>
                                <ellipse id="Ellipse_1188" cx=".353" cy=".869" class="cls-16" rx=".353" ry=".869" transform="rotate(-19.506 13.134 -18.985)"/>
                                <ellipse id="Ellipse_1189" cx=".353" cy=".869" class="cls-16" rx=".353" ry=".869" transform="rotate(-19.506 18.195 3.127)"/>
                            </g>
                            <g id="GLASSES" transform="translate(3.762 5.71)">
                                <circle id="Ellipse_1190" cx="2.485" cy="2.485" r="2.485" class="cls-28" transform="translate(7.309)"/>
                                <circle id="Ellipse_1191" cx="2.485" cy="2.485" r="2.485" class="cls-28" transform="translate(0 2.838)"/>
                                <path id="Line_72" d="M0 1.204L2.623 0" class="cls-28" transform="translate(4.807 3.225)"/>
                            </g>
                        </g>
                    </g>
                    <g id="ARMS" transform="translate(30.552 8.013)">
                        <g id="LEFT">
                            <path id="Path_5199" d="M97.333 42.55c-.146.335-.972.421-2.219.249a31.647 31.647 0 0 1-7.914-2.468c-1.771-.791-3.379-1.6-4.7-2.356-2.52-1.436-4.042-2.692-3.792-3.25.249-.55 2.184-.284 4.919.6a49.62 49.62 0 0 1 4.953 1.926 57.617 57.617 0 0 1 7.284 3.706c1.065.69 1.624 1.249 1.469 1.593z" class="cls-10" transform="translate(-78.681 -21.783)"/>
                            <path id="Path_5200" d="M96.387 30.939l-2.339 9.038-2.107-5.246a4.006 4.006 0 0 1 2.15-5.16z" class="cls-16" transform="translate(-63.142 -27.611)"/>
                            <path id="Path_5201" d="M108.961 31.844l-4.644 8.049a3.008 3.008 0 0 1-2.606 1.5h-4.8a1.733 1.733 0 0 0-1.6 1.075l-2.491 5.396-.731 1.574A31.463 31.463 0 0 1 84.247 47c-1.049-.464-2.072-.955-3.018-1.445l1.264-2.64 2.262-4.721a13.124 13.124 0 0 1 5.331-6.131l4.678-2.812a4.019 4.019 0 0 1 2.055-.568h7.946a2.856 2.856 0 0 1 1.256.284l2.391 1.135a1.245 1.245 0 0 1 .549 1.742z" class="cls-9" transform="translate(-75.63 -28.679)"/>
                            <path id="Path_5202" d="M88.738 30.237h5.675a2.811 2.811 0 0 1 1.212.275l2.3 1.1a1.2 1.2 0 0 1 .525 1.677" class="cls-27" transform="translate(-66.637 -26.814)"/>
                            <path id="Path_5203" d="M88.1 31.348h5.675a2.811 2.811 0 0 1 1.213.275l2.3 1.1A1.2 1.2 0 0 1 97.8 34.4" class="cls-27" transform="translate(-67.406 -25.483)"/>
                            <path id="Path_5204" d="M87.341 32.8h5.675a2.811 2.811 0 0 1 1.213.275l2.3 1.1a1.2 1.2 0 0 1 .525 1.677" class="cls-27" transform="translate(-68.31 -23.745)"/>
                            <path id="Path_5205" d="M92.093 41.832a31.463 31.463 0 0 1-7.842-2.442c-1.049-.464-2.072-.955-3.018-1.445l1.427-2.915c.955.361 1.892.774 2.941 1.247a56.419 56.419 0 0 1 7.3 3.8z" class="cls-16" transform="translate(-75.625 -21.074)"/>
                            <path id="Line_73" d="M0 0L4.024 0" class="cls-27" transform="translate(17.354 12.486)"/>
                        </g>
                        <g id="RIGHT" transform="translate(39.686 63.066)">
                            <ellipse id="Ellipse_1192" cx="2.055" cy="8.573" class="cls-1" rx="2.055" ry="8.573" transform="translate(18.058)"/>
                            <path id="Path_5206" d="M118.909 63.2a30.918 30.918 0 0 1-.249 4.067 5.138 5.138 0 0 1-3 2.941 5.216 5.216 0 0 1-1.806.327h-7.8a1.784 1.784 0 0 0-1.78 1.78v.241a1.914 1.914 0 0 1-2.8 1.694l-3.663-1.918a2 2 0 0 1-1.066-1.763V67.7a3.421 3.421 0 0 1 1.355-2.724l5.589-4.2a5.438 5.438 0 0 1 3.276-1.092h11.755a29.847 29.847 0 0 1 .189 3.516z" class="cls-9" transform="translate(-96.74 -54.623)"/>
                            <path id="Path_5207" d="M104.021 60.939L98.887 64.8a3.148 3.148 0 0 0-1.247 2.5v2.631a1.819 1.819 0 0 0 .98 1.617" class="cls-27" transform="translate(-95.662 -53.114)"/>
                            <path id="Path_5208" d="M105.21 61.463l-5.134 3.861a3.148 3.148 0 0 0-1.247 2.5v2.631a1.819 1.819 0 0 0 .98 1.617" class="cls-27" transform="translate(-94.238 -52.486)"/>
                            <path id="Path_5209" d="M109.073 63.2a30.918 30.918 0 0 1-.249 4.067 5.138 5.138 0 0 1-3 2.941 23.944 23.944 0 0 1-.869-7.008 34.166 34.166 0 0 1 .181-3.517h3.758a31.906 31.906 0 0 1 .179 3.517z" class="cls-16" transform="translate(-86.904 -54.623)"/>
                        </g>
                    </g>
                </g>
                <g id="CUP" transform="translate(192.413 96.871)">
                    <ellipse id="Ellipse_1193" cx="9.322" cy=".783" class="cls-17" rx="9.322" ry=".783" transform="translate(0 28.272)"/>
                    <path id="Path_5210" d="M122.778 73.4h-3.852a6.465 6.465 0 0 1-6.467-6.467v-5.497h16.794v5.486a6.474 6.474 0 0 1-6.475 6.478z" class="cls-7" transform="translate(-105.7 -43.75)"/>
                    <path id="Path_5211" d="M122.454 65.859H120.1v-4.188h2.356a1.833 1.833 0 0 1 1.832 1.832v.533a1.831 1.831 0 0 1-1.834 1.823z" class="cls-18" transform="translate(-96.553 -43.468)"/>
                    <ellipse id="Ellipse_1194" cx="8.47" cy="1.694" fill="#3fb1b5" stroke="#fff" stroke-miterlimit="10" stroke-width="0.196px" rx="8.47" ry="1.694" transform="translate(6.682 15.932)"/>
                    <g id="Group_2162" transform="translate(6.768 19.002)">
                        <path id="Path_5212" d="M112.463 62.035c0 .937 3.758 1.694 8.384 1.694s8.384-.757 8.384-1.694" class="cls-18" transform="translate(-112.463 -62.035)"/>
                        <path id="Path_5213" d="M112.463 62.853c0 .937 3.758 1.694 8.384 1.694s8.384-.757 8.384-1.694" class="cls-18" transform="translate(-112.463 -61.055)"/>
                        <path id="Path_5214" d="M112.463 63.67c0 .937 3.758 1.694 8.384 1.694s8.384-.757 8.384-1.694" class="cls-18" transform="translate(-112.463 -60.076)"/>
                        <path id="Path_5215" d="M112.522 64.488c0 .937 3.7 1.694 8.255 1.694s8.255-.757 8.255-1.694" class="cls-18" transform="translate(-112.393 -59.096)"/>
                        <path id="Path_5216" d="M112.815 65.306c0 .937 3.405 1.694 7.61 1.694s7.61-.757 7.61-1.694" class="cls-18" transform="translate(-112.041 -58.117)"/>
                    </g>
                    <path id="Path_5217" d="M117.087 68c-.826-.568-3.4-5.976-.215-8.186 2.442-1.7 2.915 2.709 1.789 2.339-1.961-.645-3.156-9.279 1.961-8.745a1.771 1.771 0 0 1 0 3.526" class="cls-23" transform="translate(-102.271 -53.388)"/>
                </g>
                <g id="LAPTOP" transform="translate(50.666 103.567)">
                    <path id="Path_5218" d="M101.435 89.619H59.17a2.767 2.767 0 0 1-2.57-1.737L45.033 59.3a2.085 2.085 0 0 1 1.926-2.864h42.265a2.767 2.767 0 0 1 2.576 1.736l11.566 28.584a2.078 2.078 0 0 1-1.931 2.863z" class="cls-7" transform="translate(-44.881 -56.435)"/>
                    <path id="Path_5219" d="M99.124 88.874H58.8a2.647 2.647 0 0 1-2.451-1.651l-11.03-27.268a1.982 1.982 0 0 1 1.84-2.726h40.322a2.647 2.647 0 0 1 2.451 1.651l11.033 27.268a1.985 1.985 0 0 1-1.841 2.726z" class="cls-17" transform="translate(-44.53 -55.484)"/>
                    <g id="Group_2163" transform="translate(25.623 13.69)">
                        <path id="Path_5220" d="M60.754 69.965a4.424 4.424 0 0 1-3.147-1.307 3.612 3.612 0 0 1 0-5.125 2.969 2.969 0 0 1 4.2 0 2.445 2.445 0 0 1 0 3.457 2.024 2.024 0 0 1-2.864 0 .347.347 0 1 1 .49-.49 1.334 1.334 0 0 0 1.892 0 1.754 1.754 0 0 0 0-2.485 2.284 2.284 0 0 0-3.233 0 2.906 2.906 0 0 0-.86 2.081 2.956 2.956 0 0 0 .86 2.081 3.758 3.758 0 0 0 5.314 0 .347.347 0 1 1 .49.49 4.417 4.417 0 0 1-3.142 1.298z" class="cls-1" transform="translate(-56.541 -62.665)"/>
                    </g>
                    <path id="Path_5221" d="M109.4 74.53H52.058a1.193 1.193 0 0 1-1.2-1.2v-.576a1.193 1.193 0 0 1 1.2-1.2H109.4a1.193 1.193 0 0 1 1.2 1.2v.576a1.2 1.2 0 0 1-1.2 1.2z" class="cls-7" transform="translate(-37.717 -38.319)"/>
                </g>
            </g>
        </g>
    </g>
</svg>
