<svg xmlns="http://www.w3.org/2000/svg" width="24" height="24" viewBox="0 0 24 24">
    <defs>
        <style>
            .cls-2{fill:#333}.cls-3{fill:none;stroke:#333;stroke-width:.2px}
        </style>
    </defs>
    <g id="Group_4564" transform="translate(-1083 -620) translate(1083 620)">
        <rect id="Rectangle_2726" width="24" height="24" fill="#f2f2f2" rx="4"/>
        <g id="Symbols">
            <g id="Info">
                <g id="info-2">
                    <path id="Shape" d="M12.294 4a8.294 8.294 0 1 0 8.294 8.294A8.29 8.29 0 0 0 12.294 4zm0 15.483a7.188 7.188 0 1 1 7.188-7.188 7.2 7.2 0 0 1-7.188 7.188z" class="cls-2"/>
                    <path id="Path" d="M12.294 10.8a.553.553 0 0 0-.553.553v4.665a.553.553 0 0 0 1.106 0V11.35a.553.553 0 0 0-.553-.55z" class="cls-2"/>
                    <path id="Path-2" d="M12.294 7.8A1.106 1.106 0 1 0 13.4 8.906 1.107 1.107 0 0 0 12.294 7.8z" class="cls-2"/>
                    <path id="Shape-Copy" d="M12.294 4a8.294 8.294 0 1 0 8.294 8.294A8.29 8.29 0 0 0 12.294 4zm0 15.483a7.188 7.188 0 1 1 7.188-7.188 7.2 7.2 0 0 1-7.188 7.188z" class="cls-3"/>
                    <path id="Path-Copy-2" d="M12.294 10.8a.553.553 0 0 0-.553.553v4.665a.553.553 0 0 0 1.106 0V11.35a.553.553 0 0 0-.553-.55z" class="cls-3"/>
                </g>
            </g>
        </g>
    </g>
</svg>
