<svg xmlns="http://www.w3.org/2000/svg" width="19.541" height="22" viewBox="0 0 19.541 22">
    <defs>
        <style>
            .cls-1{fill:#dc2f3d;stroke:#dc2f3d;stroke-width:.5px}
        </style>
    </defs>
    <g id="Symbols" transform="translate(-3.459 -1)">
        <g id="share">
            <g id="Group-7" transform="translate(3 8)">
                <path id="Line-6" d="M9.591 3.55a.7.7 0 0 1 .095 1.394l-.095.006H1.409a.7.7 0 0 1-.095-1.394l.095-.006z" class="cls-1"/>
                <path id="Path-3" d="M7.511.5a.7.7 0 0 1 .9-.063L8.5.511l3.49 3.571L8.489 7.5a.7.7 0 0 1-1.053-.916l.075-.084 2.5-2.441L7.5 1.489a.7.7 0 0 1-.063-.9z" class="cls-1"/>
            </g>
            <path id="Combined-Shape" d="M12 1.25a10.75 10.75 0 1 1-5 20.269q-1.053-.531-1.053-1.219T7 19.777a9.149 9.149 0 0 0 5 1.473A9.25 9.25 0 1 0 6.99 4.223a.654.654 0 0 1-.827-.513Q6 3.1 7 2.493v-.012a10.7 10.7 0 0 1 5-1.231z" class="cls-1"/>
        </g>
    </g>
</svg>
