<svg xmlns="http://www.w3.org/2000/svg" width="240" height="128" viewBox="0 0 240 128">
    <defs>
        <style>
            .cls-1{fill:#ff8308}
        </style>
    </defs>
    <g id="Group_5390" transform="translate(-352 -667)">
        <g id="Group_5392" transform="translate(-45 11.5)">
            <g id="Group_5391" transform="translate(450 659.5)">
                <path id="rgba_0_0_0_1_" d="M10.3 26h53.243l4.281 1.605 2.542 1.873 2.676 4.415.8 4.013v24.749l-3.077.268-3.211 1.07a20.7 20.7 0 0 0-7.09 4.95 20.341 20.341 0 0 0-4.813 8.557l-.535 2.676v6.555h-16.99l-.4.4-8.294 15.786-1.2 1.2-1.873.268-2.007-1.472L19.8 86.734h-8.429L8.7 86.2a12.853 12.853 0 0 1-6.02-4.147L.535 78.039.268 75.1 0 74.828v-37.19A11.274 11.274 0 0 1 .268 35.5l1.07-2.943 2.542-3.344A13.044 13.044 0 0 1 10.3 26zm25.017 13.645l-1.07.535-1.07 1.338-10.435 27.825.268 2.14a2.752 2.752 0 0 0 2.408 1.605q2.408.535 3.478-.535l1.338-1.873 1.873-5.619.535-.535h8.828l2.676 7.224 2.14 1.338 3.211-.268a2.573 2.573 0 0 0 1.605-2.14l-.268-2.14L40.4 41.25l-1.605-1.605z" class="cls-1" transform="translate(0 -26)"/>
                <path id="rgba_0_0_0_1_2" d="M132.605 123.785q.8-.321.535.669l1.605 4.415h-3.612l-.134-.4z" class="cls-1" transform="translate(-95.951 -97.565)"/>
            </g>
            <path id="rgba_0_0_0_1_3" fill="#dedede" d="M246.838 193h52.172a12.873 12.873 0 0 1 8.428 4.95l1.605 2.943.8 4.013v36.922l-.268.268-.268 2.943-1.338 2.943-3.077 3.344a11.258 11.258 0 0 1-5.619 2.408h-9.231l-4.013 14.849-1.2 2.274a3.051 3.051 0 0 1-2.676.535l-1.472-.936-8.829-16.722H246.57a12.258 12.258 0 0 1-8.16-4.95l-1.605-2.943-.8-4.281.02-31.165c-.825-14.249 8.475-16.967 10.813-17.395zm33.31 12.307l-.535.268a3.516 3.516 0 0 0-1.873 2.943v29.7c1.782 3.419 6.835 1.133 6.689-.042v-13.6h3.478l1.07-.535 1.07-1.605a3.051 3.051 0 0 0-.535-2.676l-1.338-1.338-3.746-.268v-10.439l-.535-1.07q-.802-1.873-3.745-1.338zm-20.869 2.676l-1.605.535a3.3 3.3 0 0 0-1.605 2.408l.268 1.873 2.14 1.605 9.632.268a21.642 21.642 0 0 1-4.013 7.491 19.056 19.056 0 0 1-6.689 5.083l-1.605 2.14a3.273 3.273 0 0 0 .8 2.943l1.873 1.07 2.408-.268 6.689-5.083 4.816-6.421 1.605-3.746 1.07-4.548v-2.943l-.268-.535a4.27 4.27 0 0 0-2.408-1.873z" transform="translate(274.866 509.041)"/>
        </g>
        <path id="Rectangle_2511" fill="none" d="M0 0H240V128H0z" transform="translate(352 667)"/>
    </g>
</svg>
