<svg xmlns="http://www.w3.org/2000/svg" width="16" height="16" viewBox="0 0 16 16">
    <g id="Group_2008" data-name="Group 2008" transform="translate(-293 -646)">
        <path id="Icon_weather-time-3" fill="#666" d="M4.488 10.868a6.891 6.891 0 0 1 .949-3.532A7.022 7.022 0 0 1 8 4.77a7.014 7.014 0 0 1 6.247-.387 7.09 7.09 0 0 1 2.241 1.5 6.881 6.881 0 0 1 1.5 2.247 6.979 6.979 0 0 1-3.738 9.2 7 7 0 0 1-5.467 0 6.916 6.916 0 0 1-3.746-3.73 6.763 6.763 0 0 1-.549-2.732zm1.548 0a5.3 5.3 0 0 0 1.616 3.857 5.449 5.449 0 0 0 6.609.88 5.537 5.537 0 0 0 2-2 5.436 5.436 0 0 0 0-5.486 5.506 5.506 0 0 0-2-2 5.465 5.465 0 0 0-5.48 0 5.62 5.62 0 0 0-2.01 2 5.285 5.285 0 0 0-.735 2.749zm4.943 0V6.711a.518.518 0 1 1 1.036 0v3.632h2.359a.512.512 0 0 1 .518.518.525.525 0 0 1-.15.368.486.486 0 0 1-.368.156H11.6a.479.479 0 0 1-.112.006.5.5 0 0 1-.512-.524z" data-name="Icon weather-time-3" transform="translate(288.512 643.172)"/>
        <path id="Rectangle_2577" fill="none" d="M0 0H16V16H0z" data-name="Rectangle 2577" transform="translate(293 646)"/>
    </g>
</svg>
