<svg xmlns="http://www.w3.org/2000/svg" width="24" height="24" viewBox="0 0 24 24">
    <defs>
        <style>
            .cls-2{fill:#fff;fill-rule:evenodd}
        </style>
    </defs>
    <g id="Group_1878" data-name="Group 1878" transform="translate(-185 -332)">
        <g id="_Color" data-name="🎨Color" transform="translate(187.965 332)">
            <path id="Path_6302" d="M38.268.5A5.919 5.919 0 1 0 44.2 6.419 5.927 5.927 0 0 0 38.268.5zm-4.451 5.919a4.451 4.451 0 1 1 4.451 4.439 4.445 4.445 0 0 1-4.451-4.439z" class="cls-2" data-name="Path 6302" transform="translate(-28.782 -.5)"/>
            <path id="Path_6303" d="M2.853 128.5a2.517 2.517 0 0 0-2.52 2.515v.445a5.637 5.637 0 0 0 2.917 4.96 12.819 12.819 0 0 0 6.569 1.551 12.819 12.819 0 0 0 6.569-1.551 5.637 5.637 0 0 0 2.917-4.96v-.445a2.517 2.517 0 0 0-2.52-2.515zm-1.037 2.515a1.036 1.036 0 0 1 1.037-1.035h13.933a1.036 1.036 0 0 1 1.038 1.035v.445a4.163 4.163 0 0 1-2.206 3.7 11.368 11.368 0 0 1-5.8 1.335 11.368 11.368 0 0 1-5.8-1.335 4.163 4.163 0 0 1-2.206-3.7z" class="cls-2" data-name="Path 6303" transform="translate(-.333 -114.255)"/>
        </g>
    </g>
</svg>
